<svg width="536" height="840" viewBox="0 0 536 840" fill="none" xmlns="http://www.w3.org/2000/svg">
<rect width="536" height="120" fill="#E9E0F2"/>
<path d="M241.136 46.432H245.2V68H241.136V58.944H232.272V68H228.24V46.432H232.272V55.456H241.136V46.432ZM256.462 68.256C254.008 68.256 252.088 67.488 250.702 65.952C249.336 64.416 248.654 62.4533 248.654 60.064C248.654 57.5893 249.368 55.552 250.798 53.952C252.227 52.3307 254.115 51.52 256.462 51.52C258.958 51.52 260.888 52.3093 262.254 53.888C263.619 55.4453 264.302 57.4293 264.302 59.84C264.302 62.2933 263.608 64.3093 262.222 65.888C260.856 67.4667 258.936 68.256 256.462 68.256ZM256.462 54.656C255.246 54.656 254.307 55.1573 253.646 56.16C253.006 57.1627 252.686 58.4213 252.686 59.936C252.686 61.4293 253.016 62.6773 253.678 63.68C254.339 64.6827 255.278 65.184 256.494 65.184C257.752 65.184 258.702 64.6933 259.342 63.712C259.982 62.7307 260.302 61.4827 260.302 59.968C260.302 58.4107 259.992 57.1413 259.374 56.16C258.755 55.1573 257.784 54.656 256.462 54.656ZM271.451 51.776V54.336C272.369 52.5013 273.894 51.584 276.027 51.584C278.395 51.584 279.931 52.608 280.635 54.656C281.062 53.6747 281.702 52.9173 282.555 52.384C283.409 51.8507 284.379 51.584 285.467 51.584C287.11 51.584 288.379 52.0853 289.275 53.088C290.171 54.0693 290.619 55.4773 290.619 57.312V68H286.747V58.048C286.747 55.872 285.915 54.784 284.251 54.784C283.419 54.784 282.673 55.1467 282.011 55.872C281.371 56.5973 281.051 57.7387 281.051 59.296V68H277.179V58.048C277.179 55.872 276.347 54.784 274.683 54.784C273.851 54.784 273.105 55.1467 272.443 55.872C271.782 56.5973 271.451 57.7387 271.451 59.296V68H267.611V51.776H271.451ZM304.34 58.56V58.08C304.297 57.0347 304.009 56.2027 303.476 55.584C302.964 54.944 302.207 54.624 301.204 54.624C300.287 54.624 299.487 54.9653 298.804 55.648C298.143 56.3093 297.716 57.28 297.524 58.56H304.34ZM306.964 63.776V67.104C305.833 67.808 304.201 68.16 302.068 68.16C299.487 68.16 297.449 67.392 295.956 65.856C294.463 64.32 293.716 62.336 293.716 59.904C293.716 57.3227 294.42 55.296 295.828 53.824C297.236 52.352 298.996 51.616 301.108 51.616C303.22 51.616 304.895 52.256 306.132 53.536C307.369 54.816 307.988 56.6827 307.988 59.136C307.988 59.7333 307.913 60.5013 307.764 61.44H297.588C297.865 62.6133 298.441 63.5093 299.316 64.128C300.212 64.7467 301.321 65.056 302.644 65.056C304.351 65.056 305.791 64.6293 306.964 63.776Z" fill="#1A135A"/>
<path d="M268 144L273.774 134L262.226 134L268 144ZM267 120L267 135L269 135L269 120L267 120Z" fill="#1A135A"/>
<rect width="536" height="120" transform="translate(0 144)" fill="#E2E6F2"/>
<path d="M224.958 194.228H216.382V200.596H223.87V203.892H216.382V212.5H212.318V190.932H224.958V194.228ZM238.175 196.276H242.047V212.5H238.175V209.844C237.322 211.721 235.658 212.66 233.183 212.66C231.54 212.66 230.26 212.191 229.343 211.252C228.426 210.313 227.967 208.98 227.967 207.252V196.276H231.807V206.356C231.807 207.38 232.052 208.159 232.543 208.692C233.055 209.225 233.748 209.492 234.623 209.492C235.732 209.492 236.596 209.119 237.215 208.372C237.855 207.625 238.175 206.495 238.175 204.98V196.276ZM250.061 196.276V199.06C250.978 197.076 252.642 196.084 255.053 196.084C256.674 196.084 257.954 196.575 258.893 197.556C259.831 198.537 260.301 199.924 260.301 201.716V212.5H256.461V202.516C256.461 201.449 256.205 200.649 255.693 200.116C255.181 199.561 254.487 199.284 253.613 199.284C252.61 199.284 251.767 199.679 251.085 200.468C250.402 201.236 250.061 202.345 250.061 203.796V212.5H246.221V196.276H250.061ZM271.29 209.428C272.442 209.428 273.402 208.991 274.17 208.116C274.938 207.22 275.322 205.929 275.322 204.244C275.322 202.601 274.917 201.375 274.106 200.564C273.296 199.732 272.368 199.316 271.322 199.316C270.213 199.316 269.274 199.775 268.506 200.692C267.76 201.588 267.386 202.847 267.386 204.468C267.386 205.94 267.76 207.135 268.506 208.052C269.253 208.969 270.181 209.428 271.29 209.428ZM275.322 189.876H279.162V212.5H275.322V209.972C274.213 211.807 272.57 212.724 270.394 212.724C268.261 212.724 266.565 211.913 265.306 210.292C264.069 208.671 263.45 206.708 263.45 204.404C263.45 201.844 264.101 199.817 265.402 198.324C266.725 196.809 268.41 196.052 270.458 196.052C272.57 196.052 274.192 196.959 275.322 198.772V189.876ZM283.474 212.5V196.276H287.314V212.5H283.474ZM283.09 191.412C283.09 190.772 283.314 190.228 283.762 189.78C284.21 189.332 284.754 189.108 285.394 189.108C286.034 189.108 286.578 189.332 287.026 189.78C287.474 190.228 287.698 190.772 287.698 191.412C287.698 192.073 287.474 192.628 287.026 193.076C286.578 193.524 286.034 193.748 285.394 193.748C284.754 193.748 284.21 193.524 283.762 193.076C283.314 192.628 283.09 192.073 283.09 191.412ZM295.467 196.276V199.06C296.384 197.076 298.048 196.084 300.459 196.084C302.08 196.084 303.36 196.575 304.299 197.556C305.238 198.537 305.707 199.924 305.707 201.716V212.5H301.867V202.516C301.867 201.449 301.611 200.649 301.099 200.116C300.587 199.561 299.894 199.284 299.019 199.284C298.016 199.284 297.174 199.679 296.491 200.468C295.808 201.236 295.467 202.345 295.467 203.796V212.5H291.627V196.276H295.467ZM316.505 208.852C317.55 208.852 318.425 208.447 319.129 207.636C319.833 206.804 320.185 205.727 320.185 204.404C320.185 202.676 319.843 201.407 319.161 200.596C318.478 199.785 317.614 199.38 316.569 199.38C315.459 199.38 314.585 199.817 313.945 200.692C313.305 201.545 312.985 202.708 312.985 204.18C312.985 205.695 313.315 206.857 313.977 207.668C314.638 208.457 315.481 208.852 316.505 208.852ZM320.185 196.276H324.025V211.028C324.025 213.588 323.278 215.508 321.785 216.788C320.313 218.089 318.435 218.74 316.153 218.74C314.019 218.74 312.153 218.356 310.553 217.588V213.684C312.003 214.708 313.742 215.22 315.769 215.22C318.713 215.22 320.185 213.812 320.185 210.996V209.588C319.203 211.188 317.667 211.988 315.577 211.988C313.763 211.988 312.206 211.327 310.905 210.004C309.625 208.66 308.985 206.719 308.985 204.18C308.985 201.833 309.593 199.903 310.809 198.388C312.046 196.852 313.667 196.084 315.673 196.084C317.699 196.084 319.203 196.927 320.185 198.612V196.276Z" fill="#1A135A"/>
<path d="M268 288L273.774 278L262.226 278L268 288ZM267 264L267 279L269 279L269 264L267 264Z" fill="#1A135A"/>
<rect width="536" height="120" transform="translate(0 288)" fill="#D1EBEE"/>
<path d="M241.16 343.424V353.792H241.128L241.16 354.144C239.197 355.552 236.744 356.256 233.8 356.256C230.387 356.256 227.624 355.264 225.512 353.28C223.421 351.296 222.376 348.597 222.376 345.184C222.376 341.856 223.453 339.168 225.608 337.12C227.784 335.072 230.525 334.048 233.832 334.048C236.285 334.048 238.387 334.507 240.136 335.424V339.552C238.173 338.379 236.093 337.792 233.896 337.792C231.741 337.792 230.003 338.464 228.68 339.808C227.357 341.152 226.696 342.944 226.696 345.184C226.696 347.467 227.336 349.269 228.616 350.592C229.917 351.893 231.699 352.544 233.96 352.544C235.069 352.544 236.147 352.352 237.192 351.968V346.88H233.224V343.424H241.16ZM249.108 339.776V342.656C249.854 340.651 251.22 339.648 253.204 339.648C253.652 339.648 254.014 339.68 254.292 339.744V343.456C253.801 343.243 253.257 343.136 252.66 343.136C251.614 343.136 250.761 343.563 250.1 344.416C249.438 345.269 249.108 346.336 249.108 347.616V356H245.236L245.268 339.776H249.108ZM264.837 349.024H262.853C261.85 349.024 261.082 349.237 260.549 349.664C260.015 350.069 259.749 350.592 259.749 351.232C259.749 352.597 260.538 353.28 262.117 353.28C262.97 353.28 263.631 353.035 264.101 352.544C264.591 352.032 264.837 351.371 264.837 350.56V349.024ZM256.965 344.16V340.608C258.181 339.861 259.93 339.488 262.213 339.488C266.607 339.488 268.805 341.536 268.805 345.632V356H264.997V354.048C264.25 355.435 262.842 356.128 260.773 356.128C259.237 356.128 258.01 355.68 257.093 354.784C256.197 353.888 255.749 352.757 255.749 351.392C255.749 349.856 256.325 348.651 257.477 347.776C258.629 346.901 260.293 346.464 262.469 346.464H264.837V345.472C264.837 344.576 264.602 343.893 264.133 343.424C263.663 342.955 262.863 342.72 261.733 342.72C260.005 342.72 258.415 343.2 256.965 344.16ZM276.608 339.776V342.56C277.525 340.576 279.189 339.584 281.6 339.584C283.221 339.584 284.501 340.075 285.44 341.056C286.378 342.037 286.847 343.424 286.847 345.216V356H283.008V346.016C283.008 344.949 282.752 344.149 282.24 343.616C281.728 343.061 281.034 342.784 280.16 342.784C279.157 342.784 278.314 343.179 277.632 343.968C276.949 344.736 276.608 345.845 276.608 347.296V356H272.768V339.776H276.608ZM295.533 342.656V350.912C295.533 351.595 295.715 352.117 296.077 352.48C296.44 352.821 296.941 352.992 297.581 352.992C298.392 352.992 299.139 352.768 299.821 352.32V355.616C299.075 355.979 298.115 356.16 296.941 356.16C293.443 356.16 291.693 354.389 291.693 350.848V342.656H289.261V339.776H291.693V335.872H295.533V339.776H299.565V342.656H295.533ZM312.682 340.288V343.68C311.616 343.04 310.282 342.72 308.682 342.72C308.021 342.72 307.498 342.869 307.114 343.168C306.752 343.445 306.57 343.808 306.57 344.256C306.57 344.427 306.592 344.587 306.634 344.736C306.698 344.885 306.794 345.035 306.922 345.184C307.072 345.312 307.21 345.429 307.338 345.536C307.466 345.643 307.648 345.76 307.882 345.888C308.117 345.995 308.32 346.091 308.49 346.176C308.661 346.261 308.896 346.368 309.194 346.496C309.493 346.624 309.728 346.731 309.898 346.816C311.029 347.371 311.925 347.989 312.586 348.672C313.248 349.355 313.578 350.24 313.578 351.328C313.578 352.843 313.034 354.027 311.946 354.88C310.858 355.733 309.408 356.16 307.594 356.16C305.589 356.16 303.968 355.829 302.73 355.168V351.648C304.16 352.608 305.706 353.088 307.37 353.088C308.074 353.088 308.618 352.96 309.002 352.704C309.408 352.427 309.61 352.053 309.61 351.584C309.61 351.307 309.546 351.061 309.418 350.848C309.29 350.613 309.045 350.389 308.682 350.176C308.32 349.963 308.032 349.813 307.818 349.728C307.626 349.621 307.232 349.44 306.634 349.184C306.57 349.163 306.517 349.141 306.474 349.12C306.453 349.099 306.41 349.077 306.346 349.056C306.282 349.035 306.229 349.013 306.186 348.992C303.818 347.925 302.634 346.389 302.634 344.384C302.634 342.891 303.2 341.717 304.33 340.864C305.461 340.011 306.88 339.584 308.586 339.584C310.229 339.584 311.594 339.819 312.682 340.288Z" fill="#1A135A"/>
<path d="M268 432L273.774 422L262.226 422L268 432ZM267 408L267 423L269 423L269 408L267 408Z" fill="#1A135A"/>
<rect width="536" height="120" transform="translate(0 432)" fill="#E0F0D4"/>
<path d="M44.6001 489.908H46.8721C48.3441 489.908 49.4428 489.556 50.1681 488.852C50.8935 488.148 51.2561 487.199 51.2561 486.004C51.2561 484.831 50.8935 483.913 50.1681 483.252C49.4428 482.569 48.3761 482.228 46.9681 482.228H44.6001V489.908ZM40.5681 478.932H47.3201C49.7521 478.932 51.6935 479.593 53.1441 480.916C54.6161 482.239 55.3521 483.935 55.3521 486.004C55.3521 488.201 54.5948 489.951 53.0801 491.252C51.5868 492.532 49.6988 493.172 47.4161 493.172H44.6001V500.5H40.5681V478.932ZM58.3494 500.5V484.276H62.1894V500.5H58.3494ZM57.9654 479.412C57.9654 478.772 58.1894 478.228 58.6374 477.78C59.0854 477.332 59.6294 477.108 60.2694 477.108C60.9094 477.108 61.4534 477.332 61.9014 477.78C62.3494 478.228 62.5734 478.772 62.5734 479.412C62.5734 480.073 62.3494 480.628 61.9014 481.076C61.4534 481.524 60.9094 481.748 60.2694 481.748C59.6294 481.748 59.0854 481.524 58.6374 481.076C58.1894 480.628 57.9654 480.073 57.9654 479.412ZM69.5739 492.436C69.6165 493.972 70.0752 495.209 70.9499 496.148C71.8459 497.087 73.0512 497.556 74.5659 497.556C75.8885 497.556 77.1152 497.193 78.2459 496.468V499.796C77.1152 500.457 75.7072 500.788 74.0219 500.788C71.5259 500.788 69.4992 499.999 67.9419 498.42C66.4059 496.841 65.6379 494.847 65.6379 492.436C65.6592 490.068 66.4272 488.073 67.9419 486.452C69.4779 484.831 71.5685 484.02 74.2139 484.02C75.7925 484.02 77.1365 484.319 78.2459 484.916V488.308C77.1792 487.625 75.9632 487.284 74.5979 487.284C73.1045 487.284 71.8992 487.753 70.9819 488.692C70.0645 489.631 69.5952 490.879 69.5739 492.436ZM95.7091 500.5H91.1971L85.3731 492.116V500.5H81.5331V478.26H85.3731V491.892L91.1011 484.276H95.5811L89.6291 492.02L95.7091 500.5ZM114.477 493.524H112.493C111.491 493.524 110.723 493.737 110.189 494.164C109.656 494.569 109.389 495.092 109.389 495.732C109.389 497.097 110.179 497.78 111.757 497.78C112.611 497.78 113.272 497.535 113.741 497.044C114.232 496.532 114.477 495.871 114.477 495.06V493.524ZM106.605 488.66V485.108C107.821 484.361 109.571 483.988 111.853 483.988C116.248 483.988 118.445 486.036 118.445 490.132V500.5H114.637V498.548C113.891 499.935 112.483 500.628 110.413 500.628C108.877 500.628 107.651 500.18 106.733 499.284C105.837 498.388 105.389 497.257 105.389 495.892C105.389 494.356 105.965 493.151 107.117 492.276C108.269 491.401 109.933 490.964 112.109 490.964H114.477V489.972C114.477 489.076 114.243 488.393 113.773 487.924C113.304 487.455 112.504 487.22 111.373 487.22C109.645 487.22 108.056 487.7 106.605 488.66ZM148.426 487.924V498.292H148.394L148.426 498.644C146.463 500.052 144.01 500.756 141.066 500.756C137.652 500.756 134.89 499.764 132.778 497.78C130.687 495.796 129.642 493.097 129.642 489.684C129.642 486.356 130.719 483.668 132.874 481.62C135.05 479.572 137.791 478.548 141.098 478.548C143.551 478.548 145.652 479.007 147.402 479.924V484.052C145.439 482.879 143.359 482.292 141.162 482.292C139.007 482.292 137.268 482.964 135.946 484.308C134.623 485.652 133.962 487.444 133.962 489.684C133.962 491.967 134.602 493.769 135.882 495.092C137.183 496.393 138.964 497.044 141.226 497.044C142.335 497.044 143.412 496.852 144.458 496.468V491.38H140.49V487.924H148.426ZM156.373 484.276V487.156C157.12 485.151 158.485 484.148 160.469 484.148C160.917 484.148 161.28 484.18 161.557 484.244V487.956C161.066 487.743 160.522 487.636 159.925 487.636C158.88 487.636 158.026 488.063 157.365 488.916C156.704 489.769 156.373 490.836 156.373 492.116V500.5H152.501L152.533 484.276H156.373ZM172.102 493.524H170.118C169.116 493.524 168.348 493.737 167.814 494.164C167.281 494.569 167.014 495.092 167.014 495.732C167.014 497.097 167.804 497.78 169.382 497.78C170.236 497.78 170.897 497.535 171.366 497.044C171.857 496.532 172.102 495.871 172.102 495.06V493.524ZM164.23 488.66V485.108C165.446 484.361 167.196 483.988 169.478 483.988C173.873 483.988 176.07 486.036 176.07 490.132V500.5H172.262V498.548C171.516 499.935 170.108 500.628 168.038 500.628C166.502 500.628 165.276 500.18 164.358 499.284C163.462 498.388 163.014 497.257 163.014 495.892C163.014 494.356 163.59 493.151 164.742 492.276C165.894 491.401 167.558 490.964 169.734 490.964H172.102V489.972C172.102 489.076 171.868 488.393 171.398 487.924C170.929 487.455 170.129 487.22 168.998 487.22C167.27 487.22 165.681 487.7 164.23 488.66ZM183.873 484.276V487.06C184.79 485.076 186.454 484.084 188.865 484.084C190.486 484.084 191.766 484.575 192.705 485.556C193.644 486.537 194.113 487.924 194.113 489.716V500.5H190.273V490.516C190.273 489.449 190.017 488.649 189.505 488.116C188.993 487.561 188.3 487.284 187.425 487.284C186.422 487.284 185.58 487.679 184.897 488.468C184.214 489.236 183.873 490.345 183.873 491.796V500.5H180.033V484.276H183.873ZM202.799 487.156V495.412C202.799 496.095 202.98 496.617 203.343 496.98C203.706 497.321 204.207 497.492 204.847 497.492C205.658 497.492 206.404 497.268 207.087 496.82V500.116C206.34 500.479 205.38 500.66 204.207 500.66C200.708 500.66 198.959 498.889 198.959 495.348V487.156H196.527V484.276H198.959V480.372H202.799V484.276H206.831V487.156H202.799ZM210.7 489.332C210.231 488.841 209.996 488.255 209.996 487.572C209.996 486.889 210.231 486.313 210.7 485.844C211.169 485.353 211.745 485.108 212.428 485.108C213.111 485.108 213.687 485.353 214.156 485.844C214.647 486.313 214.892 486.889 214.892 487.572C214.892 488.255 214.647 488.841 214.156 489.332C213.687 489.801 213.111 490.036 212.428 490.036C211.745 490.036 211.169 489.801 210.7 489.332ZM210.7 499.796C210.231 499.327 209.996 498.751 209.996 498.068C209.996 497.385 210.231 496.809 210.7 496.34C211.169 495.849 211.745 495.604 212.428 495.604C213.111 495.604 213.687 495.849 214.156 496.34C214.647 496.809 214.892 497.385 214.892 498.068C214.892 498.751 214.647 499.327 214.156 499.796C213.687 500.265 213.111 500.5 212.428 500.5C211.745 500.5 211.169 500.265 210.7 499.796ZM232.353 492.308H238.433L238.145 491.348C237.419 489.044 236.822 487.113 236.353 485.556C235.905 483.977 235.627 482.985 235.521 482.58L235.393 481.94C235.201 483.007 234.283 486.153 232.641 491.38L232.353 492.308ZM240.993 500.5L239.457 495.604H231.297L229.761 500.5H225.537L232.833 478.932H238.049L245.345 500.5H240.993ZM252.123 484.276V487.156C252.87 485.151 254.235 484.148 256.219 484.148C256.667 484.148 257.03 484.18 257.307 484.244V487.956C256.816 487.743 256.272 487.636 255.675 487.636C254.63 487.636 253.776 488.063 253.115 488.916C252.454 489.769 252.123 490.836 252.123 492.116V500.5H248.251L248.283 484.276H252.123ZM264.236 487.156V495.412C264.236 496.095 264.418 496.617 264.78 496.98C265.143 497.321 265.644 497.492 266.284 497.492C267.095 497.492 267.842 497.268 268.524 496.82V500.116C267.778 500.479 266.818 500.66 265.644 500.66C262.146 500.66 260.396 498.889 260.396 495.348V487.156H257.964V484.276H260.396V480.372H264.236V484.276H268.268V487.156H264.236ZM281.385 484.788V488.18C280.319 487.54 278.985 487.22 277.385 487.22C276.724 487.22 276.201 487.369 275.817 487.668C275.455 487.945 275.273 488.308 275.273 488.756C275.273 488.927 275.295 489.087 275.337 489.236C275.401 489.385 275.497 489.535 275.625 489.684C275.775 489.812 275.913 489.929 276.041 490.036C276.169 490.143 276.351 490.26 276.585 490.388C276.82 490.495 277.023 490.591 277.193 490.676C277.364 490.761 277.599 490.868 277.897 490.996C278.196 491.124 278.431 491.231 278.601 491.316C279.732 491.871 280.628 492.489 281.289 493.172C281.951 493.855 282.281 494.74 282.281 495.828C282.281 497.343 281.737 498.527 280.649 499.38C279.561 500.233 278.111 500.66 276.297 500.66C274.292 500.66 272.671 500.329 271.433 499.668V496.148C272.863 497.108 274.409 497.588 276.073 497.588C276.777 497.588 277.321 497.46 277.705 497.204C278.111 496.927 278.313 496.553 278.313 496.084C278.313 495.807 278.249 495.561 278.121 495.348C277.993 495.113 277.748 494.889 277.385 494.676C277.023 494.463 276.735 494.313 276.521 494.228C276.329 494.121 275.935 493.94 275.337 493.684C275.273 493.663 275.22 493.641 275.177 493.62C275.156 493.599 275.113 493.577 275.049 493.556C274.985 493.535 274.932 493.513 274.889 493.492C272.521 492.425 271.337 490.889 271.337 488.884C271.337 487.391 271.903 486.217 273.033 485.364C274.164 484.511 275.583 484.084 277.289 484.084C278.932 484.084 280.297 484.319 281.385 484.788ZM298.915 492.308H304.995L304.707 491.348C303.982 489.044 303.384 487.113 302.915 485.556C302.467 483.977 302.19 482.985 302.083 482.58L301.955 481.94C301.763 483.007 300.846 486.153 299.203 491.38L298.915 492.308ZM307.555 500.5L306.019 495.604H297.859L296.323 500.5H292.099L299.395 478.932H304.611L311.907 500.5H307.555ZM317.918 492.436C317.96 493.972 318.419 495.209 319.294 496.148C320.19 497.087 321.395 497.556 322.91 497.556C324.232 497.556 325.459 497.193 326.59 496.468V499.796C325.459 500.457 324.051 500.788 322.366 500.788C319.87 500.788 317.843 499.999 316.286 498.42C314.75 496.841 313.982 494.847 313.982 492.436C314.003 490.068 314.771 488.073 316.286 486.452C317.822 484.831 319.912 484.02 322.558 484.02C324.136 484.02 325.48 484.319 326.59 484.916V488.308C325.523 487.625 324.307 487.284 322.942 487.284C321.448 487.284 320.243 487.753 319.326 488.692C318.408 489.631 317.939 490.879 317.918 492.436ZM333.717 484.276V487.156C334.464 485.151 335.829 484.148 337.813 484.148C338.261 484.148 338.624 484.18 338.901 484.244V487.956C338.41 487.743 337.866 487.636 337.269 487.636C336.224 487.636 335.37 488.063 334.709 488.916C334.048 489.769 333.717 490.836 333.717 492.116V500.5H329.845L329.877 484.276H333.717ZM348.102 500.756C345.649 500.756 343.729 499.988 342.342 498.452C340.977 496.916 340.294 494.953 340.294 492.564C340.294 490.089 341.009 488.052 342.438 486.452C343.867 484.831 345.755 484.02 348.102 484.02C350.598 484.02 352.529 484.809 353.894 486.388C355.259 487.945 355.942 489.929 355.942 492.34C355.942 494.793 355.249 496.809 353.862 498.388C352.497 499.967 350.577 500.756 348.102 500.756ZM348.102 487.156C346.886 487.156 345.947 487.657 345.286 488.66C344.646 489.663 344.326 490.921 344.326 492.436C344.326 493.929 344.657 495.177 345.318 496.18C345.979 497.183 346.918 497.684 348.134 497.684C349.393 497.684 350.342 497.193 350.982 496.212C351.622 495.231 351.942 493.983 351.942 492.468C351.942 490.911 351.633 489.641 351.014 488.66C350.395 487.657 349.425 487.156 348.102 487.156ZM368.948 484.788V488.18C367.881 487.54 366.548 487.22 364.948 487.22C364.287 487.22 363.764 487.369 363.38 487.668C363.017 487.945 362.836 488.308 362.836 488.756C362.836 488.927 362.857 489.087 362.9 489.236C362.964 489.385 363.06 489.535 363.188 489.684C363.337 489.812 363.476 489.929 363.604 490.036C363.732 490.143 363.913 490.26 364.148 490.388C364.383 490.495 364.585 490.591 364.756 490.676C364.927 490.761 365.161 490.868 365.46 490.996C365.759 491.124 365.993 491.231 366.164 491.316C367.295 491.871 368.191 492.489 368.852 493.172C369.513 493.855 369.844 494.74 369.844 495.828C369.844 497.343 369.3 498.527 368.212 499.38C367.124 500.233 365.673 500.66 363.86 500.66C361.855 500.66 360.233 500.329 358.996 499.668V496.148C360.425 497.108 361.972 497.588 363.636 497.588C364.34 497.588 364.884 497.46 365.268 497.204C365.673 496.927 365.876 496.553 365.876 496.084C365.876 495.807 365.812 495.561 365.684 495.348C365.556 495.113 365.311 494.889 364.948 494.676C364.585 494.463 364.297 494.313 364.084 494.228C363.892 494.121 363.497 493.94 362.9 493.684C362.836 493.663 362.783 493.641 362.74 493.62C362.719 493.599 362.676 493.577 362.612 493.556C362.548 493.535 362.495 493.513 362.452 493.492C360.084 492.425 358.9 490.889 358.9 488.884C358.9 487.391 359.465 486.217 360.596 485.364C361.727 484.511 363.145 484.084 364.852 484.084C366.495 484.084 367.86 484.319 368.948 484.788ZM382.604 484.788V488.18C381.537 487.54 380.204 487.22 378.604 487.22C377.943 487.22 377.42 487.369 377.036 487.668C376.673 487.945 376.492 488.308 376.492 488.756C376.492 488.927 376.513 489.087 376.556 489.236C376.62 489.385 376.716 489.535 376.844 489.684C376.993 489.812 377.132 489.929 377.26 490.036C377.388 490.143 377.569 490.26 377.804 490.388C378.039 490.495 378.241 490.591 378.412 490.676C378.583 490.761 378.817 490.868 379.116 490.996C379.415 491.124 379.649 491.231 379.82 491.316C380.951 491.871 381.847 492.489 382.508 493.172C383.169 493.855 383.5 494.74 383.5 495.828C383.5 497.343 382.956 498.527 381.868 499.38C380.78 500.233 379.329 500.66 377.516 500.66C375.511 500.66 373.889 500.329 372.652 499.668V496.148C374.081 497.108 375.628 497.588 377.292 497.588C377.996 497.588 378.54 497.46 378.924 497.204C379.329 496.927 379.532 496.553 379.532 496.084C379.532 495.807 379.468 495.561 379.34 495.348C379.212 495.113 378.967 494.889 378.604 494.676C378.241 494.463 377.953 494.313 377.74 494.228C377.548 494.121 377.153 493.94 376.556 493.684C376.492 493.663 376.439 493.641 376.396 493.62C376.375 493.599 376.332 493.577 376.268 493.556C376.204 493.535 376.151 493.513 376.108 493.492C373.74 492.425 372.556 490.889 372.556 488.884C372.556 487.391 373.121 486.217 374.252 485.364C375.383 484.511 376.801 484.084 378.508 484.084C380.151 484.084 381.516 484.319 382.604 484.788ZM410.374 479.828V483.764C408.753 482.825 406.961 482.356 404.998 482.356C403.035 482.356 401.393 483.028 400.07 484.372C398.769 485.695 398.118 487.476 398.118 489.716C398.118 491.956 398.769 493.737 400.07 495.06C401.393 496.383 403.11 497.044 405.222 497.044C407.249 497.044 408.977 496.511 410.406 495.444V499.476C409.083 500.329 407.227 500.756 404.838 500.756C401.638 500.756 398.993 499.753 396.902 497.748C394.833 495.721 393.798 493.044 393.798 489.716C393.798 486.452 394.822 483.796 396.87 481.748C398.939 479.679 401.595 478.644 404.838 478.644C407.206 478.644 409.051 479.039 410.374 479.828ZM422.29 493.524H420.306C419.303 493.524 418.535 493.737 418.002 494.164C417.469 494.569 417.202 495.092 417.202 495.732C417.202 497.097 417.991 497.78 419.57 497.78C420.423 497.78 421.085 497.535 421.554 497.044C422.045 496.532 422.29 495.871 422.29 495.06V493.524ZM414.418 488.66V485.108C415.634 484.361 417.383 483.988 419.666 483.988C424.061 483.988 426.258 486.036 426.258 490.132V500.5H422.45V498.548C421.703 499.935 420.295 500.628 418.226 500.628C416.69 500.628 415.463 500.18 414.546 499.284C413.65 498.388 413.202 497.257 413.202 495.892C413.202 494.356 413.778 493.151 414.93 492.276C416.082 491.401 417.746 490.964 419.922 490.964H422.29V489.972C422.29 489.076 422.055 488.393 421.586 487.924C421.117 487.455 420.317 487.22 419.186 487.22C417.458 487.22 415.869 487.7 414.418 488.66ZM434.061 484.276V487.06C434.978 485.076 436.642 484.084 439.053 484.084C440.674 484.084 441.954 484.575 442.893 485.556C443.831 486.537 444.301 487.924 444.301 489.716V500.5H440.461V490.516C440.461 489.449 440.205 488.649 439.693 488.116C439.181 487.561 438.487 487.284 437.613 487.284C436.61 487.284 435.767 487.679 435.085 488.468C434.402 489.236 434.061 490.345 434.061 491.796V500.5H430.221V484.276H434.061ZM456.602 493.524H454.618C453.616 493.524 452.848 493.737 452.314 494.164C451.781 494.569 451.514 495.092 451.514 495.732C451.514 497.097 452.304 497.78 453.882 497.78C454.736 497.78 455.397 497.535 455.866 497.044C456.357 496.532 456.602 495.871 456.602 495.06V493.524ZM448.73 488.66V485.108C449.946 484.361 451.696 483.988 453.978 483.988C458.373 483.988 460.57 486.036 460.57 490.132V500.5H456.762V498.548C456.016 499.935 454.608 500.628 452.538 500.628C451.002 500.628 449.776 500.18 448.858 499.284C447.962 498.388 447.514 497.257 447.514 495.892C447.514 494.356 448.09 493.151 449.242 492.276C450.394 491.401 452.058 490.964 454.234 490.964H456.602V489.972C456.602 489.076 456.368 488.393 455.898 487.924C455.429 487.455 454.629 487.22 453.498 487.22C451.77 487.22 450.181 487.7 448.73 488.66ZM471.509 497.428C472.661 497.428 473.621 496.991 474.389 496.116C475.157 495.22 475.541 493.929 475.541 492.244C475.541 490.601 475.136 489.375 474.325 488.564C473.514 487.732 472.586 487.316 471.541 487.316C470.432 487.316 469.493 487.775 468.725 488.692C467.978 489.588 467.605 490.847 467.605 492.468C467.605 493.94 467.978 495.135 468.725 496.052C469.472 496.969 470.4 497.428 471.509 497.428ZM475.541 477.876H479.381V500.5H475.541V497.972C474.432 499.807 472.789 500.724 470.613 500.724C468.48 500.724 466.784 499.913 465.525 498.292C464.288 496.671 463.669 494.708 463.669 492.404C463.669 489.844 464.32 487.817 465.621 486.324C466.944 484.809 468.629 484.052 470.677 484.052C472.789 484.052 474.41 484.959 475.541 486.772V477.876ZM491.821 493.524H489.837C488.834 493.524 488.066 493.737 487.533 494.164C487 494.569 486.733 495.092 486.733 495.732C486.733 497.097 487.522 497.78 489.101 497.78C489.954 497.78 490.616 497.535 491.085 497.044C491.576 496.532 491.821 495.871 491.821 495.06V493.524ZM483.949 488.66V485.108C485.165 484.361 486.914 483.988 489.197 483.988C493.592 483.988 495.789 486.036 495.789 490.132V500.5H491.981V498.548C491.234 499.935 489.826 500.628 487.757 500.628C486.221 500.628 484.994 500.18 484.077 499.284C483.181 498.388 482.733 497.257 482.733 495.892C482.733 494.356 483.309 493.151 484.461 492.276C485.613 491.401 487.277 490.964 489.453 490.964H491.821V489.972C491.821 489.076 491.586 488.393 491.117 487.924C490.648 487.455 489.848 487.22 488.717 487.22C486.989 487.22 485.4 487.7 483.949 488.66Z" fill="#1A135A"/>
<path d="M268 576L273.774 566L262.226 566L268 576ZM267 552L267 567L269 567L269 552L267 552Z" fill="#1A135A"/>
<rect width="536" height="120" transform="translate(0 576)" fill="#F3EEE5"/>
<path d="M240.762 622.932V626.26H235.29V644.5H231.226V626.26H225.754V622.932H240.762ZM247.467 628.276V631.156C248.214 629.151 249.579 628.148 251.563 628.148C252.011 628.148 252.374 628.18 252.651 628.244V631.956C252.16 631.743 251.616 631.636 251.019 631.636C249.974 631.636 249.12 632.063 248.459 632.916C247.798 633.769 247.467 634.836 247.467 636.116V644.5H243.595L243.627 628.276H247.467ZM263.196 637.524H261.212C260.209 637.524 259.441 637.737 258.908 638.164C258.375 638.569 258.108 639.092 258.108 639.732C258.108 641.097 258.897 641.78 260.476 641.78C261.329 641.78 261.991 641.535 262.46 641.044C262.951 640.532 263.196 639.871 263.196 639.06V637.524ZM255.324 632.66V629.108C256.54 628.361 258.289 627.988 260.572 627.988C264.967 627.988 267.164 630.036 267.164 634.132V644.5H263.356V642.548C262.609 643.935 261.201 644.628 259.132 644.628C257.596 644.628 256.369 644.18 255.452 643.284C254.556 642.388 254.108 641.257 254.108 639.892C254.108 638.356 254.684 637.151 255.836 636.276C256.988 635.401 258.652 634.964 260.828 634.964H263.196V633.972C263.196 633.076 262.961 632.393 262.492 631.924C262.023 631.455 261.223 631.22 260.092 631.22C258.364 631.22 256.775 631.7 255.324 632.66ZM275.319 644.5L269.463 628.276H273.495L275.639 635.156C276.066 636.5 276.428 637.705 276.727 638.772C277.026 639.817 277.218 640.532 277.303 640.916L277.399 641.492C277.612 640.297 278.22 638.185 279.223 635.156L281.463 628.276H285.431L279.479 644.5H275.319ZM297.668 635.06V634.58C297.625 633.535 297.337 632.703 296.804 632.084C296.292 631.444 295.535 631.124 294.532 631.124C293.615 631.124 292.815 631.465 292.132 632.148C291.471 632.809 291.044 633.78 290.852 635.06H297.668ZM300.292 640.276V643.604C299.161 644.308 297.529 644.66 295.396 644.66C292.815 644.66 290.777 643.892 289.284 642.356C287.791 640.82 287.044 638.836 287.044 636.404C287.044 633.823 287.748 631.796 289.156 630.324C290.564 628.852 292.324 628.116 294.436 628.116C296.548 628.116 298.223 628.756 299.46 630.036C300.697 631.316 301.316 633.183 301.316 635.636C301.316 636.233 301.241 637.001 301.092 637.94H290.916C291.193 639.113 291.769 640.009 292.644 640.628C293.54 641.247 294.649 641.556 295.972 641.556C297.679 641.556 299.119 641.129 300.292 640.276ZM305.006 644.5V621.876H308.846V644.5H305.006Z" fill="#1A135A"/>
<path d="M268 720L273.774 710L262.226 710L268 720ZM267 696L267 711L269 711L269 696L267 696Z" fill="#1A135A"/>
<rect width="536" height="120" transform="translate(0 720)" fill="#E9E0F2"/>
<path d="M165.571 779.808H171.651L171.363 778.848C170.638 776.544 170.041 774.613 169.571 773.056C169.123 771.477 168.846 770.485 168.739 770.08L168.611 769.44C168.419 770.507 167.502 773.653 165.859 778.88L165.571 779.808ZM174.211 788L172.675 783.104H164.515L162.979 788H158.755L166.051 766.432H171.267L178.563 788H174.211ZM189.374 784.928C190.526 784.928 191.465 784.491 192.19 783.616C192.915 782.72 193.278 781.472 193.278 779.872C193.278 778.272 192.915 777.035 192.19 776.16C191.465 775.264 190.547 774.816 189.438 774.816C188.329 774.816 187.369 775.232 186.558 776.064C185.747 776.896 185.342 778.133 185.342 779.776C185.342 781.419 185.737 782.688 186.526 783.584C187.315 784.48 188.265 784.928 189.374 784.928ZM185.342 771.776V774.272C186.494 772.459 188.147 771.552 190.302 771.552C192.414 771.552 194.089 772.309 195.326 773.824C196.585 775.339 197.214 777.333 197.214 779.808C197.214 782.24 196.585 784.256 195.326 785.856C194.089 787.435 192.403 788.224 190.27 788.224C188.094 788.224 186.451 787.339 185.342 785.568V794.112H181.502V771.776H185.342ZM208.374 784.928C209.526 784.928 210.465 784.491 211.19 783.616C211.915 782.72 212.278 781.472 212.278 779.872C212.278 778.272 211.915 777.035 211.19 776.16C210.465 775.264 209.547 774.816 208.438 774.816C207.329 774.816 206.369 775.232 205.558 776.064C204.747 776.896 204.342 778.133 204.342 779.776C204.342 781.419 204.737 782.688 205.526 783.584C206.315 784.48 207.265 784.928 208.374 784.928ZM204.342 771.776V774.272C205.494 772.459 207.147 771.552 209.302 771.552C211.414 771.552 213.089 772.309 214.326 773.824C215.585 775.339 216.214 777.333 216.214 779.808C216.214 782.24 215.585 784.256 214.326 785.856C213.089 787.435 211.403 788.224 209.27 788.224C207.094 788.224 205.451 787.339 204.342 785.568V794.112H200.502V771.776H204.342ZM219.662 788V765.376H223.502V788H219.662ZM232.326 787.68L225.926 771.776H230.182L232.07 776.96C232.646 778.496 233.105 779.787 233.446 780.832C233.809 781.877 234.033 782.539 234.118 782.816L234.214 783.264C234.428 782.517 235.11 780.416 236.262 776.96L237.958 771.776H241.99L236.134 787.552C234.513 791.883 232.038 794.048 228.71 794.048C228.092 794.048 227.558 793.995 227.11 793.888V790.72C227.452 790.805 227.814 790.848 228.198 790.848C230.14 790.848 231.516 789.792 232.326 787.68ZM259.227 788.256C256.774 788.256 254.854 787.488 253.467 785.952C252.102 784.416 251.419 782.453 251.419 780.064C251.419 777.589 252.134 775.552 253.563 773.952C254.992 772.331 256.88 771.52 259.227 771.52C261.723 771.52 263.654 772.309 265.019 773.888C266.384 775.445 267.067 777.429 267.067 779.84C267.067 782.293 266.374 784.309 264.987 785.888C263.622 787.467 261.702 788.256 259.227 788.256ZM259.227 774.656C258.011 774.656 257.072 775.157 256.411 776.16C255.771 777.163 255.451 778.421 255.451 779.936C255.451 781.429 255.782 782.677 256.443 783.68C257.104 784.683 258.043 785.184 259.259 785.184C260.518 785.184 261.467 784.693 262.107 783.712C262.747 782.731 263.067 781.483 263.067 779.968C263.067 778.411 262.758 777.141 262.139 776.16C261.52 775.157 260.55 774.656 259.227 774.656ZM274.217 771.776V774.56C275.134 772.576 276.798 771.584 279.209 771.584C280.83 771.584 282.11 772.075 283.049 773.056C283.988 774.037 284.457 775.424 284.457 777.216V788H280.617V778.016C280.617 776.949 280.361 776.149 279.849 775.616C279.337 775.061 278.644 774.784 277.769 774.784C276.766 774.784 275.924 775.179 275.241 775.968C274.558 776.736 274.217 777.845 274.217 779.296V788H270.377V771.776H274.217ZM300.6 777.408H302.872C304.344 777.408 305.443 777.056 306.168 776.352C306.893 775.648 307.256 774.699 307.256 773.504C307.256 772.331 306.893 771.413 306.168 770.752C305.443 770.069 304.376 769.728 302.968 769.728H300.6V777.408ZM296.568 766.432H303.32C305.752 766.432 307.693 767.093 309.144 768.416C310.616 769.739 311.352 771.435 311.352 773.504C311.352 775.701 310.595 777.451 309.08 778.752C307.587 780.032 305.699 780.672 303.416 780.672H300.6V788H296.568V766.432ZM321.133 788.256C318.68 788.256 316.76 787.488 315.373 785.952C314.008 784.416 313.325 782.453 313.325 780.064C313.325 777.589 314.04 775.552 315.469 773.952C316.899 772.331 318.787 771.52 321.133 771.52C323.629 771.52 325.56 772.309 326.925 773.888C328.291 775.445 328.973 777.429 328.973 779.84C328.973 782.293 328.28 784.309 326.893 785.888C325.528 787.467 323.608 788.256 321.133 788.256ZM321.133 774.656C319.917 774.656 318.979 775.157 318.317 776.16C317.677 777.163 317.357 778.421 317.357 779.936C317.357 781.429 317.688 782.677 318.349 783.68C319.011 784.683 319.949 785.184 321.165 785.184C322.424 785.184 323.373 784.693 324.013 783.712C324.653 782.731 324.973 781.483 324.973 779.968C324.973 778.411 324.664 777.141 324.045 776.16C323.427 775.157 322.456 774.656 321.133 774.656ZM336.123 771.776V774.656C336.87 772.651 338.235 771.648 340.219 771.648C340.667 771.648 341.03 771.68 341.307 771.744V775.456C340.816 775.243 340.272 775.136 339.675 775.136C338.63 775.136 337.776 775.563 337.115 776.416C336.454 777.269 336.123 778.336 336.123 779.616V788H332.251L332.283 771.776H336.123ZM348.236 774.656V782.912C348.236 783.595 348.418 784.117 348.78 784.48C349.143 784.821 349.644 784.992 350.284 784.992C351.095 784.992 351.842 784.768 352.524 784.32V787.616C351.778 787.979 350.818 788.16 349.644 788.16C346.146 788.16 344.396 786.389 344.396 782.848V774.656H341.964V771.776H344.396V767.872H348.236V771.776H352.268V774.656H348.236ZM363.977 781.024H361.993C360.991 781.024 360.223 781.237 359.689 781.664C359.156 782.069 358.889 782.592 358.889 783.232C358.889 784.597 359.679 785.28 361.257 785.28C362.111 785.28 362.772 785.035 363.241 784.544C363.732 784.032 363.977 783.371 363.977 782.56V781.024ZM356.105 776.16V772.608C357.321 771.861 359.071 771.488 361.353 771.488C365.748 771.488 367.945 773.536 367.945 777.632V788H364.137V786.048C363.391 787.435 361.983 788.128 359.913 788.128C358.377 788.128 357.151 787.68 356.233 786.784C355.337 785.888 354.889 784.757 354.889 783.392C354.889 781.856 355.465 780.651 356.617 779.776C357.769 778.901 359.433 778.464 361.609 778.464H363.977V777.472C363.977 776.576 363.743 775.893 363.273 775.424C362.804 774.955 362.004 774.72 360.873 774.72C359.145 774.72 357.556 775.2 356.105 776.16ZM372.068 788V765.376H375.908V788H372.068Z" fill="#1A135A"/>
</svg>
