<svg width="388" height="208" viewBox="0 0 388 208" fill="none" xmlns="http://www.w3.org/2000/svg">
<path d="M5.784 15.856H10.344L10.128 15.136C9.584 13.408 9.136 11.96 8.784 10.792C8.448 9.608 8.24 8.864 8.16 8.56L8.064 8.08C7.92 8.88 7.232 11.24 6 15.16L5.784 15.856ZM12.264 22L11.112 18.328H4.992L3.84 22H0.672L6.144 5.824H10.056L15.528 22H12.264ZM20.6119 9.832V11.992C21.1719 10.488 22.1959 9.736 23.6839 9.736C24.0199 9.736 24.2919 9.76 24.4999 9.808V12.592C24.1319 12.432 23.7239 12.352 23.2759 12.352C22.4919 12.352 21.8519 12.672 21.3559 13.312C20.8599 13.952 20.6119 14.752 20.6119 15.712V22H17.7079L17.7319 9.832H20.6119ZM29.6968 11.992V18.184C29.6968 18.696 29.8328 19.088 30.1048 19.36C30.3768 19.616 30.7528 19.744 31.2328 19.744C31.8408 19.744 32.4008 19.576 32.9128 19.24V21.712C32.3528 21.984 31.6328 22.12 30.7528 22.12C28.1288 22.12 26.8168 20.792 26.8168 18.136V11.992H24.9928V9.832H26.8168V6.904H29.6968V9.832H32.7208V11.992H29.6968ZM10.344 50.064H12.792L14.448 55.8L16.368 62.76C16.768 60.536 17.264 58.208 17.856 55.776L19.32 49.824H22.392L18.264 66H14.76L13.296 60.888C12.896 59.528 12.552 58.328 12.264 57.288C11.992 56.248 11.808 55.552 11.712 55.2L11.592 54.648C11.368 55.768 10.808 57.848 9.912 60.888L8.4 66H4.92L0.6 49.824H3.792L5.304 55.8C5.56 56.872 5.816 57.984 6.072 59.136C6.328 60.288 6.52 61.168 6.648 61.776L6.84 62.712C7.352 60.696 7.976 58.392 8.712 55.8L10.344 50.064ZM29.7602 66.192C27.9202 66.192 26.4802 65.616 25.4402 64.464C24.4162 63.312 23.9042 61.84 23.9042 60.048C23.9042 58.192 24.4402 56.664 25.5122 55.464C26.5842 54.248 28.0002 53.64 29.7602 53.64C31.6322 53.64 33.0802 54.232 34.1042 55.416C35.1282 56.584 35.6402 58.072 35.6402 59.88C35.6402 61.72 35.1202 63.232 34.0802 64.416C33.0562 65.6 31.6162 66.192 29.7602 66.192ZM29.7602 55.992C28.8482 55.992 28.1442 56.368 27.6482 57.12C27.1682 57.872 26.9282 58.816 26.9282 59.952C26.9282 61.072 27.1762 62.008 27.6722 62.76C28.1682 63.512 28.8722 63.888 29.7842 63.888C30.7282 63.888 31.4402 63.52 31.9202 62.784C32.4002 62.048 32.6402 61.112 32.6402 59.976C32.6402 58.808 32.4082 57.856 31.9442 57.12C31.4802 56.368 30.7522 55.992 29.7602 55.992ZM41.0025 53.832V55.992C41.5625 54.488 42.5865 53.736 44.0745 53.736C44.4105 53.736 44.6825 53.76 44.8905 53.808V56.592C44.5225 56.432 44.1145 56.352 43.6665 56.352C42.8825 56.352 42.2425 56.672 41.7465 57.312C41.2505 57.952 41.0025 58.752 41.0025 59.712V66H38.0985L38.1225 53.832H41.0025ZM57.2154 66H53.8314L49.4634 59.712V66H46.5834V49.32H49.4634V59.544L53.7594 53.832H57.1194L52.6554 59.64L57.2154 66ZM66.3945 54.216V56.76C65.5945 56.28 64.5945 56.04 63.3945 56.04C62.8985 56.04 62.5065 56.152 62.2185 56.376C61.9465 56.584 61.8105 56.856 61.8105 57.192C61.8105 57.32 61.8265 57.44 61.8585 57.552C61.9065 57.664 61.9785 57.776 62.0745 57.888C62.1865 57.984 62.2905 58.072 62.3865 58.152C62.4825 58.232 62.6185 58.32 62.7945 58.416C62.9705 58.496 63.1225 58.568 63.2505 58.632C63.3785 58.696 63.5545 58.776 63.7785 58.872C64.0025 58.968 64.1785 59.048 64.3065 59.112C65.1545 59.528 65.8265 59.992 66.3225 60.504C66.8185 61.016 67.0665 61.68 67.0665 62.496C67.0665 63.632 66.6585 64.52 65.8425 65.16C65.0265 65.8 63.9385 66.12 62.5785 66.12C61.0745 66.12 59.8585 65.872 58.9305 65.376V62.736C60.0025 63.456 61.1625 63.816 62.4105 63.816C62.9385 63.816 63.3465 63.72 63.6345 63.528C63.9385 63.32 64.0905 63.04 64.0905 62.688C64.0905 62.48 64.0425 62.296 63.9465 62.136C63.8505 61.96 63.6665 61.792 63.3945 61.632C63.1225 61.472 62.9065 61.36 62.7465 61.296C62.6025 61.216 62.3065 61.08 61.8585 60.888C61.8105 60.872 61.7705 60.856 61.7385 60.84C61.7225 60.824 61.6905 60.808 61.6425 60.792C61.5945 60.776 61.5545 60.76 61.5225 60.744C59.7465 59.944 58.8585 58.792 58.8585 57.288C58.8585 56.168 59.2825 55.288 60.1305 54.648C60.9785 54.008 62.0425 53.688 63.3225 53.688C64.5545 53.688 65.5785 53.864 66.3945 54.216ZM72.2447 49.032V55.896C72.9007 54.424 74.1407 53.688 75.9647 53.688C77.1487 53.688 78.1007 54.064 78.8207 54.816C79.5567 55.552 79.9247 56.624 79.9247 58.032V66H77.0447V58.536C77.0447 57.768 76.8447 57.168 76.4447 56.736C76.0607 56.304 75.5567 56.088 74.9327 56.088C74.2447 56.088 73.6207 56.352 73.0607 56.88C72.5167 57.408 72.2447 58.272 72.2447 59.472V66H69.3647V49.032H72.2447ZM88.143 66.192C86.303 66.192 84.863 65.616 83.823 64.464C82.799 63.312 82.287 61.84 82.287 60.048C82.287 58.192 82.823 56.664 83.895 55.464C84.967 54.248 86.383 53.64 88.143 53.64C90.015 53.64 91.463 54.232 92.487 55.416C93.511 56.584 94.023 58.072 94.023 59.88C94.023 61.72 93.503 63.232 92.463 64.416C91.439 65.6 89.999 66.192 88.143 66.192ZM88.143 55.992C87.231 55.992 86.527 56.368 86.031 57.12C85.551 57.872 85.311 58.816 85.311 59.952C85.311 61.072 85.559 62.008 86.055 62.76C86.551 63.512 87.255 63.888 88.167 63.888C89.111 63.888 89.823 63.52 90.303 62.784C90.783 62.048 91.023 61.112 91.023 59.976C91.023 58.808 90.791 57.856 90.327 57.12C89.863 56.368 89.135 55.992 88.143 55.992ZM102.409 63.696C103.273 63.696 103.977 63.368 104.521 62.712C105.065 62.04 105.337 61.104 105.337 59.904C105.337 58.704 105.065 57.776 104.521 57.12C103.977 56.448 103.289 56.112 102.457 56.112C101.625 56.112 100.905 56.424 100.297 57.048C99.6893 57.672 99.3853 58.6 99.3853 59.832C99.3853 61.064 99.6813 62.016 100.273 62.688C100.865 63.36 101.577 63.696 102.409 63.696ZM99.3853 53.832V55.704C100.249 54.344 101.489 53.664 103.105 53.664C104.689 53.664 105.945 54.232 106.873 55.368C107.817 56.504 108.289 58 108.289 59.856C108.289 61.68 107.817 63.192 106.873 64.392C105.945 65.576 104.681 66.168 103.081 66.168C101.449 66.168 100.217 65.504 99.3853 64.176V70.584H96.5053V53.832H99.3853ZM118.027 54.216V56.76C117.227 56.28 116.227 56.04 115.027 56.04C114.531 56.04 114.139 56.152 113.851 56.376C113.579 56.584 113.443 56.856 113.443 57.192C113.443 57.32 113.459 57.44 113.491 57.552C113.539 57.664 113.611 57.776 113.707 57.888C113.819 57.984 113.923 58.072 114.019 58.152C114.115 58.232 114.251 58.32 114.427 58.416C114.603 58.496 114.755 58.568 114.883 58.632C115.011 58.696 115.187 58.776 115.411 58.872C115.635 58.968 115.811 59.048 115.939 59.112C116.787 59.528 117.459 59.992 117.955 60.504C118.451 61.016 118.699 61.68 118.699 62.496C118.699 63.632 118.291 64.52 117.475 65.16C116.659 65.8 115.571 66.12 114.211 66.12C112.707 66.12 111.491 65.872 110.563 65.376V62.736C111.635 63.456 112.795 63.816 114.043 63.816C114.571 63.816 114.979 63.72 115.267 63.528C115.571 63.32 115.723 63.04 115.723 62.688C115.723 62.48 115.675 62.296 115.579 62.136C115.483 61.96 115.299 61.792 115.027 61.632C114.755 61.472 114.539 61.36 114.379 61.296C114.235 61.216 113.939 61.08 113.491 60.888C113.443 60.872 113.403 60.856 113.371 60.84C113.355 60.824 113.323 60.808 113.275 60.792C113.227 60.776 113.187 60.76 113.155 60.744C111.379 59.944 110.491 58.792 110.491 57.288C110.491 56.168 110.915 55.288 111.763 54.648C112.611 54.008 113.675 53.688 114.955 53.688C116.187 53.688 117.211 53.864 118.027 54.216ZM11.88 93.824V96.32H7.776V110H4.728V96.32H0.624V93.824H11.88ZM16.9088 97.832V99.992C17.4688 98.488 18.4928 97.736 19.9808 97.736C20.3168 97.736 20.5888 97.76 20.7968 97.808V100.592C20.4288 100.432 20.0208 100.352 19.5728 100.352C18.7888 100.352 18.1488 100.672 17.6528 101.312C17.1568 101.952 16.9088 102.752 16.9088 103.712V110H14.0048L14.0288 97.832H16.9088ZM28.7057 104.768H27.2177C26.4657 104.768 25.8897 104.928 25.4897 105.248C25.0897 105.552 24.8897 105.944 24.8897 106.424C24.8897 107.448 25.4817 107.96 26.6657 107.96C27.3057 107.96 27.8017 107.776 28.1537 107.408C28.5217 107.024 28.7057 106.528 28.7057 105.92V104.768ZM22.8017 101.12V98.456C23.7137 97.896 25.0257 97.616 26.7377 97.616C30.0337 97.616 31.6817 99.152 31.6817 102.224V110H28.8257V108.536C28.2657 109.576 27.2097 110.096 25.6577 110.096C24.5057 110.096 23.5857 109.76 22.8977 109.088C22.2257 108.416 21.8897 107.568 21.8897 106.544C21.8897 105.392 22.3217 104.488 23.1857 103.832C24.0497 103.176 25.2977 102.848 26.9297 102.848H28.7057V102.104C28.7057 101.432 28.5297 100.92 28.1777 100.568C27.8257 100.216 27.2257 100.04 26.3777 100.04C25.0817 100.04 23.8897 100.4 22.8017 101.12ZM37.7978 110L33.4058 97.832H36.4298L38.0378 102.992C38.3578 104 38.6298 104.904 38.8538 105.704C39.0778 106.488 39.2218 107.024 39.2858 107.312L39.3578 107.744C39.5178 106.848 39.9738 105.264 40.7258 102.992L42.4058 97.832H45.3818L40.9178 110H37.7978ZM54.5597 102.92V102.56C54.5277 101.776 54.3117 101.152 53.9117 100.688C53.5277 100.208 52.9597 99.968 52.2077 99.968C51.5197 99.968 50.9197 100.224 50.4077 100.736C49.9117 101.232 49.5917 101.96 49.4477 102.92H54.5597ZM56.5277 106.832V109.328C55.6797 109.856 54.4557 110.12 52.8557 110.12C50.9197 110.12 49.3917 109.544 48.2717 108.392C47.1517 107.24 46.5917 105.752 46.5917 103.928C46.5917 101.992 47.1197 100.472 48.1757 99.368C49.2317 98.264 50.5517 97.712 52.1357 97.712C53.7197 97.712 54.9757 98.192 55.9037 99.152C56.8317 100.112 57.2957 101.512 57.2957 103.352C57.2957 103.8 57.2397 104.376 57.1277 105.08H49.4957C49.7037 105.96 50.1357 106.632 50.7917 107.096C51.4637 107.56 52.2957 107.792 53.2877 107.792C54.5677 107.792 55.6477 107.472 56.5277 106.832ZM60.0628 110V93.032H62.9428V110H60.0628ZM66.2972 110V97.832H69.1772V110H66.2972ZM66.0092 94.184C66.0092 93.704 66.1772 93.296 66.5132 92.96C66.8492 92.624 67.2572 92.456 67.7372 92.456C68.2172 92.456 68.6252 92.624 68.9612 92.96C69.2972 93.296 69.4652 93.704 69.4652 94.184C69.4652 94.68 69.2972 95.096 68.9612 95.432C68.6252 95.768 68.2172 95.936 67.7372 95.936C67.2572 95.936 66.8492 95.768 66.5132 95.432C66.1772 95.096 66.0092 94.68 66.0092 94.184ZM75.2916 97.832V99.92C75.9796 98.432 77.2276 97.688 79.0356 97.688C80.2516 97.688 81.2116 98.056 81.9156 98.792C82.6196 99.528 82.9716 100.568 82.9716 101.912V110H80.0916V102.512C80.0916 101.712 79.8996 101.112 79.5156 100.712C79.1316 100.296 78.6116 100.088 77.9556 100.088C77.2036 100.088 76.5716 100.384 76.0596 100.976C75.5476 101.552 75.2916 102.384 75.2916 103.472V110H72.4116V97.832H75.2916ZM91.0699 107.264C91.8539 107.264 92.5099 106.96 93.0379 106.352C93.5659 105.728 93.8299 104.92 93.8299 103.928C93.8299 102.632 93.5739 101.68 93.0619 101.072C92.5499 100.464 91.9019 100.16 91.1179 100.16C90.2859 100.16 89.6299 100.488 89.1499 101.144C88.6699 101.784 88.4299 102.656 88.4299 103.76C88.4299 104.896 88.6779 105.768 89.1739 106.376C89.6699 106.968 90.3019 107.264 91.0699 107.264ZM93.8299 97.832H96.7099V108.896C96.7099 110.816 96.1499 112.256 95.0299 113.216C93.9259 114.192 92.5179 114.68 90.8059 114.68C89.2059 114.68 87.8059 114.392 86.6059 113.816V110.888C87.6939 111.656 88.9979 112.04 90.5179 112.04C92.7259 112.04 93.8299 110.984 93.8299 108.872V107.816C93.0939 109.016 91.9419 109.616 90.3739 109.616C89.0139 109.616 87.8459 109.12 86.8699 108.128C85.9099 107.12 85.4299 105.664 85.4299 103.76C85.4299 102 85.8859 100.552 86.7979 99.416C87.7259 98.264 88.9419 97.688 90.4459 97.688C91.9659 97.688 93.0939 98.32 93.8299 99.584V97.832ZM1.392 154L2.688 137.824H6.144L8.352 143.704C8.736 144.696 9.096 145.688 9.432 146.68C9.768 147.656 10.008 148.384 10.152 148.864L10.368 149.608C10.864 147.944 11.552 145.976 12.432 143.704L14.688 137.824H18.144L19.728 154H16.704L16.128 147.688L15.696 142.024C15.12 143.672 14.432 145.56 13.632 147.688L11.376 153.76H9.312L7.104 147.688L5.208 142.096C5.208 142.88 5.104 144.744 4.896 147.688L4.416 154H1.392ZM30.2132 141.832H33.1172V154H30.2132V152.008C29.5732 153.416 28.3252 154.12 26.4692 154.12C25.2372 154.12 24.2772 153.768 23.5892 153.064C22.9012 152.36 22.5572 151.36 22.5572 150.064V141.832H25.4372V149.392C25.4372 150.16 25.6212 150.744 25.9892 151.144C26.3732 151.544 26.8932 151.744 27.5492 151.744C28.3812 151.744 29.0292 151.464 29.4932 150.904C29.9732 150.344 30.2132 149.496 30.2132 148.36V141.832ZM43.5195 142.216V144.76C42.7195 144.28 41.7195 144.04 40.5195 144.04C40.0235 144.04 39.6315 144.152 39.3435 144.376C39.0715 144.584 38.9355 144.856 38.9355 145.192C38.9355 145.32 38.9515 145.44 38.9835 145.552C39.0315 145.664 39.1035 145.776 39.1995 145.888C39.3115 145.984 39.4155 146.072 39.5115 146.152C39.6075 146.232 39.7435 146.32 39.9195 146.416C40.0955 146.496 40.2475 146.568 40.3755 146.632C40.5035 146.696 40.6795 146.776 40.9035 146.872C41.1275 146.968 41.3035 147.048 41.4315 147.112C42.2795 147.528 42.9515 147.992 43.4475 148.504C43.9435 149.016 44.1915 149.68 44.1915 150.496C44.1915 151.632 43.7835 152.52 42.9675 153.16C42.1515 153.8 41.0635 154.12 39.7035 154.12C38.1995 154.12 36.9835 153.872 36.0555 153.376V150.736C37.1275 151.456 38.2875 151.816 39.5355 151.816C40.0635 151.816 40.4715 151.72 40.7595 151.528C41.0635 151.32 41.2155 151.04 41.2155 150.688C41.2155 150.48 41.1675 150.296 41.0715 150.136C40.9755 149.96 40.7915 149.792 40.5195 149.632C40.2475 149.472 40.0315 149.36 39.8715 149.296C39.7275 149.216 39.4315 149.08 38.9835 148.888C38.9355 148.872 38.8955 148.856 38.8635 148.84C38.8475 148.824 38.8155 148.808 38.7675 148.792C38.7195 148.776 38.6795 148.76 38.6475 148.744C36.8715 147.944 35.9835 146.792 35.9835 145.288C35.9835 144.168 36.4075 143.288 37.2555 142.648C38.1035 142.008 39.1675 141.688 40.4475 141.688C41.6795 141.688 42.7035 141.864 43.5195 142.216ZM53.8097 146.92V146.56C53.7777 145.776 53.5617 145.152 53.1617 144.688C52.7777 144.208 52.2097 143.968 51.4577 143.968C50.7697 143.968 50.1697 144.224 49.6577 144.736C49.1617 145.232 48.8417 145.96 48.6977 146.92H53.8097ZM55.7777 150.832V153.328C54.9297 153.856 53.7057 154.12 52.1057 154.12C50.1697 154.12 48.6417 153.544 47.5217 152.392C46.4017 151.24 45.8417 149.752 45.8417 147.928C45.8417 145.992 46.3697 144.472 47.4257 143.368C48.4817 142.264 49.8017 141.712 51.3857 141.712C52.9697 141.712 54.2257 142.192 55.1537 143.152C56.0817 144.112 56.5457 145.512 56.5457 147.352C56.5457 147.8 56.4897 148.376 56.3777 149.08H48.7457C48.9537 149.96 49.3857 150.632 50.0417 151.096C50.7137 151.56 51.5457 151.792 52.5377 151.792C53.8177 151.792 54.8977 151.472 55.7777 150.832ZM66.7288 141.832H69.6328V154H66.7288V152.008C66.0888 153.416 64.8408 154.12 62.9848 154.12C61.7528 154.12 60.7928 153.768 60.1048 153.064C59.4168 152.36 59.0728 151.36 59.0728 150.064V141.832H61.9528V149.392C61.9528 150.16 62.1368 150.744 62.5048 151.144C62.8888 151.544 63.4088 151.744 64.0648 151.744C64.8968 151.744 65.5448 151.464 66.0088 150.904C66.4888 150.344 66.7288 149.496 66.7288 148.36V141.832ZM75.6431 141.832V143.752C76.3311 142.376 77.4751 141.688 79.0751 141.688C80.8511 141.688 82.0031 142.456 82.5311 143.992C82.8511 143.256 83.3311 142.688 83.9711 142.288C84.6111 141.888 85.3391 141.688 86.1551 141.688C87.3871 141.688 88.3391 142.064 89.0111 142.816C89.6831 143.552 90.0191 144.608 90.0191 145.984V154H87.1151V146.536C87.1151 144.904 86.4911 144.088 85.2431 144.088C84.6191 144.088 84.0591 144.36 83.5631 144.904C83.0831 145.448 82.8431 146.304 82.8431 147.472V154H79.9391V146.536C79.9391 144.904 79.3151 144.088 78.0671 144.088C77.4431 144.088 76.8831 144.36 76.3871 144.904C75.8911 145.448 75.6431 146.304 75.6431 147.472V154H72.7631V141.832H75.6431ZM100.262 142.216V144.76C99.4617 144.28 98.4617 144.04 97.2617 144.04C96.7657 144.04 96.3737 144.152 96.0857 144.376C95.8137 144.584 95.6777 144.856 95.6777 145.192C95.6777 145.32 95.6937 145.44 95.7257 145.552C95.7737 145.664 95.8457 145.776 95.9417 145.888C96.0537 145.984 96.1577 146.072 96.2537 146.152C96.3497 146.232 96.4857 146.32 96.6617 146.416C96.8377 146.496 96.9897 146.568 97.1177 146.632C97.2457 146.696 97.4217 146.776 97.6457 146.872C97.8697 146.968 98.0457 147.048 98.1737 147.112C99.0217 147.528 99.6937 147.992 100.19 148.504C100.686 149.016 100.934 149.68 100.934 150.496C100.934 151.632 100.526 152.52 99.7097 153.16C98.8937 153.8 97.8057 154.12 96.4457 154.12C94.9417 154.12 93.7257 153.872 92.7977 153.376V150.736C93.8697 151.456 95.0297 151.816 96.2777 151.816C96.8057 151.816 97.2137 151.72 97.5017 151.528C97.8057 151.32 97.9577 151.04 97.9577 150.688C97.9577 150.48 97.9097 150.296 97.8137 150.136C97.7177 149.96 97.5337 149.792 97.2617 149.632C96.9897 149.472 96.7737 149.36 96.6137 149.296C96.4697 149.216 96.1737 149.08 95.7257 148.888C95.6777 148.872 95.6377 148.856 95.6057 148.84C95.5897 148.824 95.5577 148.808 95.5097 148.792C95.4617 148.776 95.4217 148.76 95.3897 148.744C93.6137 147.944 92.7257 146.792 92.7257 145.288C92.7257 144.168 93.1497 143.288 93.9977 142.648C94.8457 142.008 95.9097 141.688 97.1897 141.688C98.4217 141.688 99.4457 141.864 100.262 142.216ZM11.16 184.296H4.728V189.072H10.344V191.544H4.728V198H1.68V181.824H11.16V184.296ZM20.8566 190.92V190.56C20.8246 189.776 20.6086 189.152 20.2086 188.688C19.8246 188.208 19.2566 187.968 18.5046 187.968C17.8166 187.968 17.2166 188.224 16.7046 188.736C16.2086 189.232 15.8886 189.96 15.7446 190.92H20.8566ZM22.8246 194.832V197.328C21.9766 197.856 20.7526 198.12 19.1526 198.12C17.2166 198.12 15.6886 197.544 14.5686 196.392C13.4486 195.24 12.8886 193.752 12.8886 191.928C12.8886 189.992 13.4166 188.472 14.4726 187.368C15.5286 186.264 16.8486 185.712 18.4326 185.712C20.0166 185.712 21.2726 186.192 22.2006 187.152C23.1286 188.112 23.5926 189.512 23.5926 191.352C23.5926 191.8 23.5366 192.376 23.4246 193.08H15.7926C16.0006 193.96 16.4326 194.632 17.0886 195.096C17.7606 195.56 18.5926 195.792 19.5846 195.792C20.8646 195.792 21.9446 195.472 22.8246 194.832ZM33.5117 186.216V188.76C32.7117 188.28 31.7117 188.04 30.5117 188.04C30.0157 188.04 29.6237 188.152 29.3357 188.376C29.0637 188.584 28.9277 188.856 28.9277 189.192C28.9277 189.32 28.9437 189.44 28.9757 189.552C29.0237 189.664 29.0957 189.776 29.1917 189.888C29.3037 189.984 29.4077 190.072 29.5037 190.152C29.5997 190.232 29.7357 190.32 29.9117 190.416C30.0877 190.496 30.2397 190.568 30.3677 190.632C30.4957 190.696 30.6717 190.776 30.8957 190.872C31.1197 190.968 31.2957 191.048 31.4237 191.112C32.2717 191.528 32.9437 191.992 33.4397 192.504C33.9357 193.016 34.1837 193.68 34.1837 194.496C34.1837 195.632 33.7757 196.52 32.9597 197.16C32.1437 197.8 31.0557 198.12 29.6957 198.12C28.1917 198.12 26.9757 197.872 26.0477 197.376V194.736C27.1197 195.456 28.2797 195.816 29.5277 195.816C30.0557 195.816 30.4637 195.72 30.7517 195.528C31.0557 195.32 31.2077 195.04 31.2077 194.688C31.2077 194.48 31.1597 194.296 31.0637 194.136C30.9677 193.96 30.7837 193.792 30.5117 193.632C30.2397 193.472 30.0237 193.36 29.8637 193.296C29.7197 193.216 29.4237 193.08 28.9757 192.888C28.9277 192.872 28.8877 192.856 28.8557 192.84C28.8397 192.824 28.8077 192.808 28.7597 192.792C28.7117 192.776 28.6717 192.76 28.6397 192.744C26.8637 191.944 25.9757 190.792 25.9757 189.288C25.9757 188.168 26.3997 187.288 27.2477 186.648C28.0957 186.008 29.1597 185.688 30.4397 185.688C31.6717 185.688 32.6957 185.864 33.5117 186.216ZM39.9859 187.992V194.184C39.9859 194.696 40.1219 195.088 40.3939 195.36C40.6659 195.616 41.0419 195.744 41.5219 195.744C42.1299 195.744 42.6899 195.576 43.2019 195.24V197.712C42.6419 197.984 41.9219 198.12 41.0419 198.12C38.4179 198.12 37.1059 196.792 37.1059 194.136V187.992H35.2819V185.832H37.1059V182.904H39.9859V185.832H43.0099V187.992H39.9859ZM45.6956 198V185.832H48.5756V198H45.6956ZM45.4076 182.184C45.4076 181.704 45.5756 181.296 45.9116 180.96C46.2476 180.624 46.6556 180.456 47.1356 180.456C47.6156 180.456 48.0236 180.624 48.3596 180.96C48.6956 181.296 48.8636 181.704 48.8636 182.184C48.8636 182.68 48.6956 183.096 48.3596 183.432C48.0236 183.768 47.6156 183.936 47.1356 183.936C46.6556 183.936 46.2476 183.768 45.9116 183.432C45.5756 183.096 45.4076 182.68 45.4076 182.184ZM54.954 198L50.562 185.832H53.586L55.194 190.992C55.514 192 55.786 192.904 56.01 193.704C56.234 194.488 56.378 195.024 56.442 195.312L56.514 195.744C56.674 194.848 57.13 193.264 57.882 190.992L59.562 185.832H62.538L58.074 198H54.954ZM70.6119 192.768H69.1239C68.3719 192.768 67.7959 192.928 67.3959 193.248C66.9959 193.552 66.7959 193.944 66.7959 194.424C66.7959 195.448 67.3879 195.96 68.5719 195.96C69.2119 195.96 69.7079 195.776 70.0599 195.408C70.4279 195.024 70.6119 194.528 70.6119 193.92V192.768ZM64.7079 189.12V186.456C65.6199 185.896 66.9319 185.616 68.6439 185.616C71.9399 185.616 73.5879 187.152 73.5879 190.224V198H70.7319V196.536C70.1719 197.576 69.1159 198.096 67.5639 198.096C66.4119 198.096 65.4919 197.76 64.8039 197.088C64.1319 196.416 63.7959 195.568 63.7959 194.544C63.7959 193.392 64.2279 192.488 65.0919 191.832C65.9559 191.176 67.2039 190.848 68.8359 190.848H70.6119V190.104C70.6119 189.432 70.4359 188.92 70.0839 188.568C69.7319 188.216 69.1319 188.04 68.2839 188.04C66.9879 188.04 65.7959 188.4 64.7079 189.12ZM76.68 198V181.032H79.56V198H76.68ZM90.0664 186.216V188.76C89.2664 188.28 88.2664 188.04 87.0664 188.04C86.5704 188.04 86.1784 188.152 85.8904 188.376C85.6184 188.584 85.4824 188.856 85.4824 189.192C85.4824 189.32 85.4984 189.44 85.5304 189.552C85.5784 189.664 85.6504 189.776 85.7464 189.888C85.8584 189.984 85.9624 190.072 86.0584 190.152C86.1544 190.232 86.2904 190.32 86.4664 190.416C86.6424 190.496 86.7944 190.568 86.9224 190.632C87.0504 190.696 87.2264 190.776 87.4504 190.872C87.6744 190.968 87.8504 191.048 87.9784 191.112C88.8264 191.528 89.4984 191.992 89.9944 192.504C90.4904 193.016 90.7384 193.68 90.7384 194.496C90.7384 195.632 90.3304 196.52 89.5144 197.16C88.6984 197.8 87.6104 198.12 86.2504 198.12C84.7464 198.12 83.5304 197.872 82.6024 197.376V194.736C83.6744 195.456 84.8344 195.816 86.0824 195.816C86.6104 195.816 87.0184 195.72 87.3064 195.528C87.6104 195.32 87.7624 195.04 87.7624 194.688C87.7624 194.48 87.7144 194.296 87.6184 194.136C87.5224 193.96 87.3384 193.792 87.0664 193.632C86.7944 193.472 86.5784 193.36 86.4184 193.296C86.2744 193.216 85.9784 193.08 85.5304 192.888C85.4824 192.872 85.4424 192.856 85.4104 192.84C85.3944 192.824 85.3624 192.808 85.3144 192.792C85.2664 192.776 85.2264 192.76 85.1944 192.744C83.4184 191.944 82.5304 190.792 82.5304 189.288C82.5304 188.168 82.9544 187.288 83.8024 186.648C84.6504 186.008 85.7144 185.688 86.9944 185.688C88.2264 185.688 89.2504 185.864 90.0664 186.216Z" fill="#1A135A"/>
<circle cx="180" cy="14" r="12" fill="#A4CCD1"/>
<circle cx="229" cy="14" r="12" fill="#A4CCD1"/>
<circle cx="278" cy="14" r="12" fill="#A4CCD1"/>
<circle cx="327" cy="14" r="12" fill="#A4CCD1"/>
<circle cx="376" cy="14" r="12" fill="#A4CCD1"/>
<circle cx="180" cy="59" r="12" fill="#A4CCD1"/>
<circle cx="229" cy="59" r="12" fill="#A4CCD1"/>
<circle cx="278" cy="59" r="12" fill="#A4CCD1"/>
<circle cx="327" cy="59" r="12" fill="#A4CCD1"/>
<circle cx="376" cy="59" r="12" fill="#E8E7F0"/>
<circle cx="180" cy="104" r="12" fill="#A4CCD1"/>
<circle cx="229" cy="104" r="12" fill="#A4CCD1"/>
<circle cx="278" cy="104" r="12" fill="#A4CCD1"/>
<circle cx="327" cy="104" r="12" fill="#A4CCD1"/>
<circle cx="376" cy="104" r="12" fill="#E8E7F0"/>
<circle cx="180" cy="149" r="12" fill="#A4CCD1"/>
<circle cx="229" cy="149" r="12" fill="#A4CCD1"/>
<circle cx="278" cy="149" r="12" fill="#A4CCD1"/>
<circle cx="327" cy="149" r="12" fill="#E8E7F0"/>
<circle cx="376" cy="149" r="12" fill="#E8E7F0"/>
<circle cx="180" cy="194" r="12" fill="#A4CCD1"/>
<circle cx="229" cy="194" r="12" fill="#A4CCD1"/>
<circle cx="278" cy="194" r="12" fill="#E8E7F0"/>
<circle cx="327" cy="194" r="12" fill="#E8E7F0"/>
<circle cx="376" cy="194" r="12" fill="#E8E7F0"/>
</svg>
