<svg width="1584" height="648" viewBox="0 0 1584 648" fill="none" xmlns="http://www.w3.org/2000/svg">
<rect width="244" height="88" transform="translate(268)" fill="#E8E7F0"/>
<path d="M286.817 50L288.065 33.824H290.993L293.153 39.728C293.537 40.736 293.921 41.808 294.305 42.944C294.689 44.064 294.977 44.936 295.169 45.56L295.481 46.496C296.217 44.32 297.025 42.064 297.905 39.728L300.161 33.824H303.089L304.577 50H302.129L301.553 43.664L301.049 37.184C300.329 39.216 299.545 41.376 298.697 43.664L296.441 49.688H294.497L292.313 43.664L290.129 37.28C290.129 37.984 290.001 40.112 289.745 43.664L289.265 50H286.817ZM315.333 43.04V42.608C315.301 41.696 315.053 40.976 314.589 40.448C314.125 39.904 313.461 39.632 312.597 39.632C311.797 39.632 311.109 39.928 310.533 40.52C309.957 41.096 309.597 41.936 309.453 43.04H315.333ZM316.845 47.24V49.352C315.949 49.864 314.765 50.12 313.293 50.12C311.405 50.12 309.901 49.552 308.781 48.416C307.661 47.28 307.101 45.792 307.101 43.952C307.101 42 307.613 40.472 308.637 39.368C309.661 38.248 310.965 37.688 312.549 37.688C314.101 37.688 315.333 38.176 316.245 39.152C317.157 40.112 317.613 41.504 317.613 43.328C317.613 43.824 317.565 44.344 317.469 44.888H309.477C309.637 45.944 310.085 46.752 310.821 47.312C311.557 47.872 312.485 48.152 313.605 48.152C314.901 48.152 315.981 47.848 316.845 47.24ZM322.735 37.832V39.776C323.423 38.368 324.567 37.664 326.167 37.664C327.991 37.664 329.159 38.448 329.671 40.016C330.007 39.264 330.495 38.688 331.135 38.288C331.775 37.872 332.495 37.664 333.295 37.664C334.543 37.664 335.487 38.032 336.127 38.768C336.783 39.504 337.111 40.52 337.111 41.816V50H334.759V42.32C334.759 40.576 334.055 39.704 332.647 39.704C331.943 39.704 331.311 40.016 330.751 40.64C330.207 41.264 329.935 42.184 329.935 43.4V50H327.583V42.32C327.583 40.576 326.871 39.704 325.447 39.704C324.759 39.704 324.135 40.016 323.575 40.64C323.015 41.264 322.735 42.184 322.735 43.4V50H320.383V37.832H322.735ZM345.392 50.216C343.6 50.216 342.192 49.632 341.168 48.464C340.144 47.296 339.632 45.816 339.632 44.024C339.632 42.2 340.16 40.688 341.216 39.488C342.272 38.272 343.664 37.664 345.392 37.664C347.248 37.664 348.68 38.256 349.688 39.44C350.696 40.608 351.2 42.104 351.2 43.928C351.2 45.752 350.68 47.256 349.64 48.44C348.616 49.624 347.2 50.216 345.392 50.216ZM345.368 39.656C344.328 39.656 343.52 40.072 342.944 40.904C342.368 41.72 342.08 42.736 342.08 43.952C342.08 45.152 342.376 46.168 342.968 47C343.56 47.816 344.368 48.224 345.392 48.224C346.48 48.224 347.304 47.824 347.864 47.024C348.44 46.224 348.728 45.208 348.728 43.976C348.728 42.712 348.456 41.68 347.912 40.88C347.368 40.064 346.52 39.656 345.368 39.656ZM356.203 37.832V39.968C356.795 38.464 357.859 37.712 359.395 37.712C359.619 37.712 359.867 37.736 360.139 37.784V40.088C359.803 39.944 359.427 39.872 359.011 39.872C358.195 39.872 357.523 40.232 356.995 40.952C356.467 41.672 356.203 42.528 356.203 43.52V50H353.851V37.832H356.203ZM362.08 50V37.832H364.456V50H362.08ZM362.2 35.168C361.928 34.88 361.792 34.528 361.792 34.112C361.792 33.696 361.928 33.344 362.2 33.056C362.488 32.768 362.84 32.624 363.256 32.624C363.672 32.624 364.024 32.768 364.312 33.056C364.6 33.344 364.744 33.696 364.744 34.112C364.744 34.512 364.6 34.856 364.312 35.144C364.024 35.432 363.672 35.576 363.256 35.576C362.84 35.576 362.488 35.44 362.2 35.168ZM375.427 43.04V42.608C375.395 41.696 375.147 40.976 374.683 40.448C374.219 39.904 373.555 39.632 372.691 39.632C371.891 39.632 371.203 39.928 370.627 40.52C370.051 41.096 369.691 41.936 369.547 43.04H375.427ZM376.939 47.24V49.352C376.043 49.864 374.859 50.12 373.387 50.12C371.499 50.12 369.995 49.552 368.875 48.416C367.755 47.28 367.195 45.792 367.195 43.952C367.195 42 367.707 40.472 368.731 39.368C369.755 38.248 371.059 37.688 372.643 37.688C374.195 37.688 375.427 38.176 376.339 39.152C377.251 40.112 377.707 41.504 377.707 43.328C377.707 43.824 377.659 44.344 377.563 44.888H369.571C369.731 45.944 370.179 46.752 370.915 47.312C371.651 47.872 372.579 48.152 373.699 48.152C374.995 48.152 376.075 47.848 376.939 47.24ZM387.412 38.24V40.376C386.628 39.912 385.62 39.68 384.388 39.68C383.828 39.68 383.38 39.808 383.044 40.064C382.724 40.32 382.564 40.656 382.564 41.072C382.564 41.184 382.572 41.296 382.588 41.408C382.62 41.504 382.668 41.608 382.732 41.72C382.796 41.816 382.852 41.904 382.9 41.984C382.964 42.048 383.06 42.12 383.188 42.2C383.316 42.28 383.412 42.352 383.476 42.416C383.556 42.464 383.676 42.528 383.836 42.608C384.012 42.688 384.14 42.752 384.22 42.8C384.3 42.832 384.436 42.896 384.628 42.992C384.836 43.072 384.98 43.128 385.06 43.16C386.004 43.576 386.74 44.048 387.268 44.576C387.812 45.088 388.084 45.776 388.084 46.64C388.084 47.728 387.7 48.584 386.932 49.208C386.164 49.816 385.124 50.12 383.812 50.12C382.372 50.12 381.172 49.88 380.212 49.4V47.168C381.332 47.856 382.492 48.2 383.692 48.2C384.316 48.2 384.796 48.072 385.132 47.816C385.484 47.56 385.66 47.224 385.66 46.808C385.66 46.456 385.524 46.144 385.252 45.872C384.98 45.584 384.7 45.376 384.412 45.248C384.14 45.104 383.668 44.888 382.996 44.6C381.092 43.816 380.14 42.664 380.14 41.144C380.14 40.072 380.54 39.232 381.34 38.624C382.14 38.016 383.14 37.712 384.34 37.712C385.652 37.712 386.676 37.888 387.412 38.24ZM399.005 35.888V41.792H401.237C402.261 41.792 403.037 41.528 403.565 41C404.093 40.456 404.357 39.736 404.357 38.84C404.357 36.872 403.277 35.888 401.117 35.888H399.005ZM404.933 50L401.141 43.856H399.005V50H396.533V33.824H401.045C402.901 33.824 404.333 34.28 405.341 35.192C406.349 36.088 406.853 37.312 406.853 38.864C406.837 40 406.549 40.968 405.989 41.768C405.429 42.552 404.653 43.12 403.661 43.472L407.885 50H404.933ZM417.638 43.04V42.608C417.606 41.696 417.358 40.976 416.894 40.448C416.43 39.904 415.766 39.632 414.902 39.632C414.102 39.632 413.414 39.928 412.838 40.52C412.262 41.096 411.902 41.936 411.758 43.04H417.638ZM419.15 47.24V49.352C418.254 49.864 417.07 50.12 415.598 50.12C413.71 50.12 412.206 49.552 411.086 48.416C409.966 47.28 409.406 45.792 409.406 43.952C409.406 42 409.918 40.472 410.942 39.368C411.966 38.248 413.27 37.688 414.854 37.688C416.406 37.688 417.638 38.176 418.55 39.152C419.462 40.112 419.918 41.504 419.918 43.328C419.918 43.824 419.87 44.344 419.774 44.888H411.782C411.942 45.944 412.39 46.752 413.126 47.312C413.862 47.872 414.79 48.152 415.91 48.152C417.206 48.152 418.286 47.848 419.15 47.24ZM425.039 37.832V39.776C425.727 38.368 426.871 37.664 428.471 37.664C430.295 37.664 431.463 38.448 431.975 40.016C432.311 39.264 432.799 38.688 433.439 38.288C434.079 37.872 434.799 37.664 435.599 37.664C436.847 37.664 437.791 38.032 438.431 38.768C439.087 39.504 439.415 40.52 439.415 41.816V50H437.063V42.32C437.063 40.576 436.359 39.704 434.951 39.704C434.247 39.704 433.615 40.016 433.055 40.64C432.511 41.264 432.239 42.184 432.239 43.4V50H429.887V42.32C429.887 40.576 429.175 39.704 427.751 39.704C427.063 39.704 426.439 40.016 425.879 40.64C425.319 41.264 425.039 42.184 425.039 43.4V50H422.687V37.832H425.039ZM442.705 50V37.832H445.081V50H442.705ZM442.825 35.168C442.553 34.88 442.417 34.528 442.417 34.112C442.417 33.696 442.553 33.344 442.825 33.056C443.113 32.768 443.465 32.624 443.881 32.624C444.297 32.624 444.649 32.768 444.937 33.056C445.225 33.344 445.369 33.696 445.369 34.112C445.369 34.512 445.225 34.856 444.937 35.144C444.649 35.432 444.297 35.576 443.881 35.576C443.465 35.576 443.113 35.44 442.825 35.168ZM450.844 37.832V39.92C451.564 38.416 452.828 37.664 454.636 37.664C455.836 37.664 456.788 38.032 457.492 38.768C458.196 39.504 458.548 40.504 458.548 41.768V50H456.196V42.32C456.196 41.472 455.98 40.824 455.548 40.376C455.132 39.928 454.572 39.704 453.868 39.704C453.036 39.704 452.324 40.032 451.732 40.688C451.14 41.328 450.844 42.232 450.844 43.4V50H448.492V37.832H450.844ZM466.631 48.104C467.559 48.104 468.343 47.752 468.983 47.048C469.623 46.344 469.943 45.272 469.943 43.832C469.943 42.44 469.607 41.408 468.935 40.736C468.279 40.064 467.535 39.728 466.703 39.728C465.759 39.728 464.983 40.104 464.375 40.856C463.767 41.592 463.463 42.648 463.463 44.024C463.463 45.24 463.759 46.224 464.351 46.976C464.959 47.728 465.719 48.104 466.631 48.104ZM469.943 33.032H472.319V50H469.943V48.152C469.095 49.496 467.855 50.168 466.223 50.168C464.623 50.168 463.359 49.568 462.431 48.368C461.503 47.152 461.039 45.688 461.039 43.976C461.039 42.072 461.527 40.544 462.503 39.392C463.479 38.24 464.735 37.664 466.271 37.664C467.855 37.664 469.079 38.336 469.943 39.68V33.032ZM483.193 43.04V42.608C483.161 41.696 482.913 40.976 482.449 40.448C481.985 39.904 481.321 39.632 480.457 39.632C479.657 39.632 478.969 39.928 478.393 40.52C477.817 41.096 477.457 41.936 477.313 43.04H483.193ZM484.705 47.24V49.352C483.809 49.864 482.625 50.12 481.153 50.12C479.265 50.12 477.761 49.552 476.641 48.416C475.521 47.28 474.961 45.792 474.961 43.952C474.961 42 475.473 40.472 476.497 39.368C477.521 38.248 478.825 37.688 480.409 37.688C481.961 37.688 483.193 38.176 484.105 39.152C485.017 40.112 485.473 41.504 485.473 43.328C485.473 43.824 485.425 44.344 485.329 44.888H477.337C477.497 45.944 477.945 46.752 478.681 47.312C479.417 47.872 480.345 48.152 481.465 48.152C482.761 48.152 483.841 47.848 484.705 47.24ZM490.594 37.832V39.968C491.186 38.464 492.25 37.712 493.786 37.712C494.01 37.712 494.258 37.736 494.53 37.784V40.088C494.194 39.944 493.818 39.872 493.402 39.872C492.586 39.872 491.914 40.232 491.386 40.952C490.858 41.672 490.594 42.528 490.594 43.52V50H488.242V37.832H490.594Z" fill="#1A135A"/>
<rect width="244" height="88" transform="translate(536)" fill="#E8E7F0"/>
<path d="M597.67 18.496V20.92C596.966 20.536 596.326 20.272 595.75 20.128C595.19 19.968 594.47 19.888 593.59 19.888C591.974 19.888 590.622 20.44 589.534 21.544C588.462 22.632 587.926 24.08 587.926 25.888C587.926 27.728 588.462 29.192 589.534 30.28C590.606 31.368 592.022 31.912 593.782 31.912C595.334 31.912 596.638 31.512 597.694 30.712V33.208C596.702 33.864 595.326 34.192 593.566 34.192C591.15 34.192 589.174 33.44 587.638 31.936C586.102 30.432 585.334 28.416 585.334 25.888C585.334 23.44 586.102 21.448 587.638 19.912C589.19 18.376 591.15 17.608 593.518 17.608C595.246 17.608 596.63 17.904 597.67 18.496ZM607.978 21.832H610.33V34H607.978V31.912C607.338 33.4 606.074 34.144 604.186 34.144C602.986 34.144 602.034 33.792 601.33 33.088C600.626 32.368 600.274 31.384 600.274 30.136V21.832H602.65V29.56C602.65 30.392 602.85 31.032 603.25 31.48C603.666 31.912 604.234 32.128 604.954 32.128C605.866 32.128 606.594 31.808 607.138 31.168C607.698 30.528 607.978 29.624 607.978 28.456V21.832ZM620.572 22.24V24.376C619.788 23.912 618.78 23.68 617.548 23.68C616.988 23.68 616.54 23.808 616.204 24.064C615.884 24.32 615.724 24.656 615.724 25.072C615.724 25.184 615.732 25.296 615.748 25.408C615.78 25.504 615.828 25.608 615.892 25.72C615.956 25.816 616.012 25.904 616.06 25.984C616.124 26.048 616.22 26.12 616.348 26.2C616.476 26.28 616.572 26.352 616.636 26.416C616.716 26.464 616.836 26.528 616.996 26.608C617.172 26.688 617.3 26.752 617.38 26.8C617.46 26.832 617.596 26.896 617.788 26.992C617.996 27.072 618.14 27.128 618.22 27.16C619.164 27.576 619.9 28.048 620.428 28.576C620.972 29.088 621.244 29.776 621.244 30.64C621.244 31.728 620.86 32.584 620.092 33.208C619.324 33.816 618.284 34.12 616.972 34.12C615.532 34.12 614.332 33.88 613.372 33.4V31.168C614.492 31.856 615.652 32.2 616.852 32.2C617.476 32.2 617.956 32.072 618.292 31.816C618.644 31.56 618.82 31.224 618.82 30.808C618.82 30.456 618.684 30.144 618.412 29.872C618.14 29.584 617.86 29.376 617.572 29.248C617.3 29.104 616.828 28.888 616.156 28.6C614.252 27.816 613.3 26.664 613.3 25.144C613.3 24.072 613.7 23.232 614.5 22.624C615.3 22.016 616.3 21.712 617.5 21.712C618.812 21.712 619.836 21.888 620.572 22.24ZM626.739 23.656V30.352C626.739 31.52 627.299 32.104 628.419 32.104C629.075 32.104 629.627 31.928 630.075 31.576V33.688C629.547 33.976 628.899 34.12 628.131 34.12C625.619 34.12 624.363 32.848 624.363 30.304V23.656H622.467V21.832H624.363V18.856H626.739V21.832H629.931V23.656H626.739ZM637.756 34.216C635.964 34.216 634.556 33.632 633.532 32.464C632.508 31.296 631.996 29.816 631.996 28.024C631.996 26.2 632.524 24.688 633.58 23.488C634.636 22.272 636.028 21.664 637.756 21.664C639.612 21.664 641.044 22.256 642.052 23.44C643.06 24.608 643.564 26.104 643.564 27.928C643.564 29.752 643.044 31.256 642.004 32.44C640.98 33.624 639.564 34.216 637.756 34.216ZM637.732 23.656C636.692 23.656 635.884 24.072 635.308 24.904C634.732 25.72 634.444 26.736 634.444 27.952C634.444 29.152 634.74 30.168 635.332 31C635.924 31.816 636.732 32.224 637.756 32.224C638.844 32.224 639.668 31.824 640.228 31.024C640.804 30.224 641.092 29.208 641.092 27.976C641.092 26.712 640.82 25.68 640.276 24.88C639.732 24.064 638.884 23.656 637.732 23.656ZM648.567 21.832V23.776C649.255 22.368 650.399 21.664 651.999 21.664C653.823 21.664 654.991 22.448 655.503 24.016C655.839 23.264 656.327 22.688 656.967 22.288C657.607 21.872 658.327 21.664 659.127 21.664C660.375 21.664 661.319 22.032 661.959 22.768C662.615 23.504 662.943 24.52 662.943 25.816V34H660.591V26.32C660.591 24.576 659.887 23.704 658.479 23.704C657.775 23.704 657.143 24.016 656.583 24.64C656.039 25.264 655.767 26.184 655.767 27.4V34H653.415V26.32C653.415 24.576 652.703 23.704 651.279 23.704C650.591 23.704 649.967 24.016 649.407 24.64C648.847 25.264 648.567 26.184 648.567 27.4V34H646.215V21.832H648.567ZM666.232 34V21.832H668.608V34H666.232ZM666.352 19.168C666.08 18.88 665.944 18.528 665.944 18.112C665.944 17.696 666.08 17.344 666.352 17.056C666.64 16.768 666.992 16.624 667.408 16.624C667.824 16.624 668.176 16.768 668.464 17.056C668.752 17.344 668.896 17.696 668.896 18.112C668.896 18.512 668.752 18.856 668.464 19.144C668.176 19.432 667.824 19.576 667.408 19.576C666.992 19.576 666.64 19.44 666.352 19.168ZM680.083 21.832V23.512L674.107 32.008H680.395V34H671.395V32.2L677.299 23.8H671.611V21.832H680.083ZM689.49 28.576H687.666C686.77 28.576 686.09 28.752 685.626 29.104C685.178 29.456 684.954 29.904 684.954 30.448C684.954 31.008 685.13 31.448 685.482 31.768C685.834 32.088 686.346 32.248 687.018 32.248C687.786 32.248 688.386 32.04 688.818 31.624C689.266 31.192 689.49 30.632 689.49 29.944V28.576ZM683.37 24.736V22.456C684.314 21.912 685.562 21.64 687.114 21.64C690.298 21.64 691.89 23.184 691.89 26.272V34H689.562V32.56C688.938 33.584 687.842 34.096 686.274 34.096C685.122 34.096 684.194 33.768 683.49 33.112C682.802 32.44 682.458 31.592 682.458 30.568C682.458 29.4 682.898 28.496 683.778 27.856C684.658 27.2 685.89 26.872 687.474 26.872H689.49V26.176C689.49 25.344 689.29 24.72 688.89 24.304C688.49 23.872 687.826 23.656 686.898 23.656C685.602 23.656 684.426 24.016 683.37 24.736ZM700.794 32.104C701.69 32.104 702.442 31.728 703.05 30.976C703.658 30.208 703.962 29.224 703.962 28.024C703.962 26.648 703.658 25.592 703.05 24.856C702.442 24.104 701.666 23.728 700.722 23.728C699.89 23.728 699.138 24.064 698.466 24.736C697.81 25.408 697.482 26.44 697.482 27.832C697.482 29.272 697.802 30.344 698.442 31.048C699.082 31.752 699.866 32.104 700.794 32.104ZM697.482 17.032V23.68C698.346 22.336 699.57 21.664 701.154 21.664C702.69 21.664 703.946 22.24 704.922 23.392C705.898 24.544 706.386 26.072 706.386 27.976C706.386 29.688 705.922 31.152 704.994 32.368C704.066 33.568 702.794 34.168 701.178 34.168C699.562 34.168 698.33 33.496 697.482 32.152V34H695.106V17.032H697.482ZM709.123 34V17.032H711.499V34H709.123ZM722.47 27.04V26.608C722.438 25.696 722.19 24.976 721.726 24.448C721.262 23.904 720.598 23.632 719.734 23.632C718.934 23.632 718.246 23.928 717.67 24.52C717.094 25.096 716.734 25.936 716.59 27.04H722.47ZM723.982 31.24V33.352C723.086 33.864 721.902 34.12 720.43 34.12C718.542 34.12 717.038 33.552 715.918 32.416C714.798 31.28 714.238 29.792 714.238 27.952C714.238 26 714.75 24.472 715.774 23.368C716.798 22.248 718.102 21.688 719.686 21.688C721.238 21.688 722.47 22.176 723.382 23.152C724.294 24.112 724.75 25.504 724.75 27.328C724.75 27.824 724.702 28.344 724.606 28.888H716.614C716.774 29.944 717.222 30.752 717.958 31.312C718.694 31.872 719.622 32.152 720.742 32.152C722.038 32.152 723.118 31.848 723.982 31.24ZM627.495 50.496V52.92C626.791 52.536 626.151 52.272 625.575 52.128C625.015 51.968 624.295 51.888 623.415 51.888C621.799 51.888 620.447 52.44 619.359 53.544C618.287 54.632 617.751 56.08 617.751 57.888C617.751 59.728 618.287 61.192 619.359 62.28C620.431 63.368 621.847 63.912 623.607 63.912C625.159 63.912 626.463 63.512 627.519 62.712V65.208C626.527 65.864 625.151 66.192 623.391 66.192C620.975 66.192 618.999 65.44 617.463 63.936C615.927 62.432 615.159 60.416 615.159 57.888C615.159 55.44 615.927 53.448 617.463 51.912C619.015 50.376 620.975 49.608 623.343 49.608C625.071 49.608 626.455 49.904 627.495 50.496ZM635.33 66.216C633.538 66.216 632.13 65.632 631.106 64.464C630.082 63.296 629.57 61.816 629.57 60.024C629.57 58.2 630.098 56.688 631.154 55.488C632.21 54.272 633.602 53.664 635.33 53.664C637.186 53.664 638.618 54.256 639.626 55.44C640.634 56.608 641.138 58.104 641.138 59.928C641.138 61.752 640.618 63.256 639.578 64.44C638.554 65.624 637.138 66.216 635.33 66.216ZM635.306 55.656C634.266 55.656 633.458 56.072 632.882 56.904C632.306 57.72 632.018 58.736 632.018 59.952C632.018 61.152 632.314 62.168 632.906 63C633.498 63.816 634.306 64.224 635.33 64.224C636.418 64.224 637.242 63.824 637.802 63.024C638.378 62.224 638.666 61.208 638.666 59.976C638.666 58.712 638.394 57.68 637.85 56.88C637.306 56.064 636.458 55.656 635.306 55.656ZM643.885 66V49.032H646.261V66H643.885ZM649.768 66V49.032H652.144V66H649.768ZM661.962 60.576H660.138C659.242 60.576 658.562 60.752 658.098 61.104C657.65 61.456 657.426 61.904 657.426 62.448C657.426 63.008 657.602 63.448 657.954 63.768C658.306 64.088 658.818 64.248 659.49 64.248C660.258 64.248 660.858 64.04 661.29 63.624C661.738 63.192 661.962 62.632 661.962 61.944V60.576ZM655.842 56.736V54.456C656.786 53.912 658.034 53.64 659.586 53.64C662.77 53.64 664.362 55.184 664.362 58.272V66H662.034V64.56C661.41 65.584 660.314 66.096 658.746 66.096C657.594 66.096 656.666 65.768 655.962 65.112C655.274 64.44 654.93 63.592 654.93 62.568C654.93 61.4 655.37 60.496 656.25 59.856C657.13 59.2 658.362 58.872 659.946 58.872H661.962V58.176C661.962 57.344 661.762 56.72 661.362 56.304C660.962 55.872 660.298 55.656 659.37 55.656C658.074 55.656 656.898 56.016 655.842 56.736ZM672.331 63.648C673.163 63.648 673.883 63.328 674.491 62.688C675.115 62.032 675.427 61.12 675.427 59.952C675.427 58.512 675.131 57.448 674.539 56.76C673.963 56.072 673.259 55.728 672.427 55.728C671.483 55.728 670.739 56.104 670.195 56.856C669.651 57.592 669.379 58.568 669.379 59.784C669.379 61.048 669.667 62.008 670.243 62.664C670.835 63.32 671.531 63.648 672.331 63.648ZM675.427 53.832H677.779V64.968C677.779 66.84 677.243 68.248 676.171 69.192C675.115 70.152 673.755 70.632 672.091 70.632C670.523 70.632 669.203 70.368 668.131 69.84V67.464C669.155 68.136 670.395 68.472 671.851 68.472C674.235 68.472 675.427 67.296 675.427 64.944V63.696C674.643 65.008 673.467 65.664 671.899 65.664C670.523 65.664 669.347 65.16 668.371 64.152C667.395 63.128 666.907 61.688 666.907 59.832C666.907 58.04 667.363 56.568 668.275 55.416C669.187 54.248 670.395 53.664 671.899 53.664C673.515 53.664 674.691 54.352 675.427 55.728V53.832ZM688.497 59.04V58.608C688.465 57.696 688.217 56.976 687.753 56.448C687.289 55.904 686.625 55.632 685.761 55.632C684.961 55.632 684.273 55.928 683.697 56.52C683.121 57.096 682.761 57.936 682.617 59.04H688.497ZM690.009 63.24V65.352C689.113 65.864 687.929 66.12 686.457 66.12C684.569 66.12 683.065 65.552 681.945 64.416C680.825 63.28 680.265 61.792 680.265 59.952C680.265 58 680.777 56.472 681.801 55.368C682.825 54.248 684.129 53.688 685.713 53.688C687.265 53.688 688.497 54.176 689.409 55.152C690.321 56.112 690.777 57.504 690.777 59.328C690.777 59.824 690.729 60.344 690.633 60.888H682.641C682.801 61.944 683.249 62.752 683.985 63.312C684.721 63.872 685.649 64.152 686.769 64.152C688.065 64.152 689.145 63.848 690.009 63.24ZM700.483 54.24V56.376C699.699 55.912 698.691 55.68 697.459 55.68C696.899 55.68 696.451 55.808 696.115 56.064C695.795 56.32 695.635 56.656 695.635 57.072C695.635 57.184 695.643 57.296 695.659 57.408C695.691 57.504 695.739 57.608 695.803 57.72C695.867 57.816 695.923 57.904 695.971 57.984C696.035 58.048 696.131 58.12 696.259 58.2C696.387 58.28 696.483 58.352 696.547 58.416C696.627 58.464 696.747 58.528 696.907 58.608C697.083 58.688 697.211 58.752 697.291 58.8C697.371 58.832 697.507 58.896 697.699 58.992C697.907 59.072 698.051 59.128 698.131 59.16C699.075 59.576 699.811 60.048 700.339 60.576C700.883 61.088 701.155 61.776 701.155 62.64C701.155 63.728 700.771 64.584 700.003 65.208C699.235 65.816 698.195 66.12 696.883 66.12C695.443 66.12 694.243 65.88 693.283 65.4V63.168C694.403 63.856 695.563 64.2 696.763 64.2C697.387 64.2 697.867 64.072 698.203 63.816C698.555 63.56 698.731 63.224 698.731 62.808C698.731 62.456 698.595 62.144 698.323 61.872C698.051 61.584 697.771 61.376 697.483 61.248C697.211 61.104 696.739 60.888 696.067 60.6C694.163 59.816 693.211 58.664 693.211 57.144C693.211 56.072 693.611 55.232 694.411 54.624C695.211 54.016 696.211 53.712 697.411 53.712C698.723 53.712 699.747 53.888 700.483 54.24Z" fill="#1A135A"/>
<rect width="244" height="88" transform="translate(804)" fill="#E8E7F0"/>
<path d="M878.573 18.496V20.92C877.869 20.536 877.229 20.272 876.653 20.128C876.093 19.968 875.373 19.888 874.493 19.888C872.877 19.888 871.525 20.44 870.437 21.544C869.365 22.632 868.829 24.08 868.829 25.888C868.829 27.728 869.365 29.192 870.437 30.28C871.509 31.368 872.925 31.912 874.685 31.912C876.237 31.912 877.541 31.512 878.597 30.712V33.208C877.605 33.864 876.229 34.192 874.469 34.192C872.053 34.192 870.077 33.44 868.541 31.936C867.005 30.432 866.237 28.416 866.237 25.888C866.237 23.44 867.005 21.448 868.541 19.912C870.093 18.376 872.053 17.608 874.421 17.608C876.149 17.608 877.533 17.904 878.573 18.496ZM886.408 34.216C884.616 34.216 883.208 33.632 882.184 32.464C881.16 31.296 880.648 29.816 880.648 28.024C880.648 26.2 881.176 24.688 882.232 23.488C883.288 22.272 884.68 21.664 886.408 21.664C888.264 21.664 889.696 22.256 890.704 23.44C891.712 24.608 892.216 26.104 892.216 27.928C892.216 29.752 891.696 31.256 890.656 32.44C889.632 33.624 888.216 34.216 886.408 34.216ZM886.384 23.656C885.344 23.656 884.536 24.072 883.96 24.904C883.384 25.72 883.096 26.736 883.096 27.952C883.096 29.152 883.392 30.168 883.984 31C884.576 31.816 885.384 32.224 886.408 32.224C887.496 32.224 888.32 31.824 888.88 31.024C889.456 30.224 889.744 29.208 889.744 27.976C889.744 26.712 889.472 25.68 888.928 24.88C888.384 24.064 887.536 23.656 886.384 23.656ZM897.219 21.832V23.92C897.939 22.416 899.203 21.664 901.011 21.664C902.211 21.664 903.163 22.032 903.867 22.768C904.571 23.504 904.923 24.504 904.923 25.768V34H902.571V26.32C902.571 25.472 902.355 24.824 901.923 24.376C901.507 23.928 900.947 23.704 900.243 23.704C899.411 23.704 898.699 24.032 898.107 24.688C897.515 25.328 897.219 26.232 897.219 27.4V34H894.867V21.832H897.219ZM910.438 21.832V23.92C911.158 22.416 912.422 21.664 914.23 21.664C915.43 21.664 916.382 22.032 917.086 22.768C917.79 23.504 918.142 24.504 918.142 25.768V34H915.79V26.32C915.79 25.472 915.574 24.824 915.142 24.376C914.726 23.928 914.166 23.704 913.462 23.704C912.63 23.704 911.918 24.032 911.326 24.688C910.734 25.328 910.438 26.232 910.438 27.4V34H908.086V21.832H910.438ZM928.864 27.04V26.608C928.832 25.696 928.584 24.976 928.12 24.448C927.656 23.904 926.992 23.632 926.128 23.632C925.328 23.632 924.64 23.928 924.064 24.52C923.488 25.096 923.128 25.936 922.984 27.04H928.864ZM930.376 31.24V33.352C929.48 33.864 928.296 34.12 926.824 34.12C924.936 34.12 923.432 33.552 922.312 32.416C921.192 31.28 920.632 29.792 920.632 27.952C920.632 26 921.144 24.472 922.168 23.368C923.192 22.248 924.496 21.688 926.08 21.688C927.632 21.688 928.864 22.176 929.776 23.152C930.688 24.112 931.144 25.504 931.144 27.328C931.144 27.824 931.096 28.344 931 28.888H923.008C923.168 29.944 923.616 30.752 924.352 31.312C925.088 31.872 926.016 32.152 927.136 32.152C928.432 32.152 929.512 31.848 930.376 31.24ZM935.666 27.976C935.698 29.208 936.074 30.224 936.794 31.024C937.514 31.808 938.522 32.2 939.818 32.2C940.778 32.2 941.674 31.936 942.506 31.408V33.52C941.722 34 940.722 34.24 939.506 34.24C937.602 34.24 936.082 33.64 934.946 32.44C933.81 31.24 933.242 29.744 933.242 27.952C933.242 26.208 933.81 24.72 934.946 23.488C936.098 22.24 937.65 21.616 939.602 21.616C940.658 21.616 941.626 21.84 942.506 22.288V24.448C941.722 23.952 940.834 23.704 939.842 23.704C938.578 23.704 937.562 24.104 936.794 24.904C936.042 25.704 935.666 26.728 935.666 27.976ZM948.259 23.656V30.352C948.259 31.52 948.819 32.104 949.939 32.104C950.595 32.104 951.147 31.928 951.595 31.576V33.688C951.067 33.976 950.419 34.12 949.651 34.12C947.139 34.12 945.883 32.848 945.883 30.304V23.656H943.987V21.832H945.883V18.856H948.259V21.832H951.451V23.656H948.259ZM963.142 23.656V30.352C963.142 31.52 963.702 32.104 964.822 32.104C965.478 32.104 966.03 31.928 966.478 31.576V33.688C965.95 33.976 965.302 34.12 964.534 34.12C962.022 34.12 960.766 32.848 960.766 30.304V23.656H958.87V21.832H960.766V18.856H963.142V21.832H966.334V23.656H963.142ZM974.158 34.216C972.366 34.216 970.958 33.632 969.934 32.464C968.91 31.296 968.398 29.816 968.398 28.024C968.398 26.2 968.926 24.688 969.982 23.488C971.038 22.272 972.43 21.664 974.158 21.664C976.014 21.664 977.446 22.256 978.454 23.44C979.462 24.608 979.966 26.104 979.966 27.928C979.966 29.752 979.446 31.256 978.406 32.44C977.382 33.624 975.966 34.216 974.158 34.216ZM974.134 23.656C973.094 23.656 972.286 24.072 971.71 24.904C971.134 25.72 970.846 26.736 970.846 27.952C970.846 29.152 971.142 30.168 971.734 31C972.326 31.816 973.134 32.224 974.158 32.224C975.246 32.224 976.07 31.824 976.63 31.024C977.206 30.224 977.494 29.208 977.494 27.976C977.494 26.712 977.222 25.68 976.678 24.88C976.134 24.064 975.286 23.656 974.134 23.656ZM857.931 63.936H864.795V66H855.459V49.824H864.675V51.888H857.931V56.88H863.907V58.944H857.931V63.936ZM873.235 59.832L877.291 66H874.627L871.963 61.536L869.155 66H866.563L870.715 59.808L866.827 53.808H869.491L872.035 58.104L874.651 53.808H877.291L873.235 59.832ZM882.552 55.656V62.352C882.552 63.52 883.112 64.104 884.232 64.104C884.888 64.104 885.44 63.928 885.888 63.576V65.688C885.36 65.976 884.712 66.12 883.944 66.12C881.432 66.12 880.176 64.848 880.176 62.304V55.656H878.28V53.832H880.176V50.856H882.552V53.832H885.744V55.656H882.552ZM896.04 59.04V58.608C896.008 57.696 895.76 56.976 895.296 56.448C894.832 55.904 894.168 55.632 893.304 55.632C892.504 55.632 891.816 55.928 891.24 56.52C890.664 57.096 890.304 57.936 890.16 59.04H896.04ZM897.552 63.24V65.352C896.656 65.864 895.472 66.12 894 66.12C892.112 66.12 890.608 65.552 889.488 64.416C888.368 63.28 887.808 61.792 887.808 59.952C887.808 58 888.32 56.472 889.344 55.368C890.368 54.248 891.672 53.688 893.256 53.688C894.808 53.688 896.04 54.176 896.952 55.152C897.864 56.112 898.32 57.504 898.32 59.328C898.32 59.824 898.272 60.344 898.176 60.888H890.184C890.344 61.944 890.792 62.752 891.528 63.312C892.264 63.872 893.192 64.152 894.312 64.152C895.608 64.152 896.688 63.848 897.552 63.24ZM903.442 53.832V55.968C904.034 54.464 905.098 53.712 906.634 53.712C906.858 53.712 907.106 53.736 907.378 53.784V56.088C907.042 55.944 906.666 55.872 906.25 55.872C905.434 55.872 904.762 56.232 904.234 56.952C903.706 57.672 903.442 58.528 903.442 59.52V66H901.09V53.832H903.442ZM911.574 53.832V55.92C912.294 54.416 913.558 53.664 915.366 53.664C916.566 53.664 917.518 54.032 918.222 54.768C918.926 55.504 919.278 56.504 919.278 57.768V66H916.926V58.32C916.926 57.472 916.71 56.824 916.278 56.376C915.862 55.928 915.302 55.704 914.598 55.704C913.766 55.704 913.054 56.032 912.462 56.688C911.87 57.328 911.574 58.232 911.574 59.4V66H909.222V53.832H911.574ZM928.849 60.576H927.025C926.129 60.576 925.449 60.752 924.985 61.104C924.537 61.456 924.313 61.904 924.313 62.448C924.313 63.008 924.489 63.448 924.841 63.768C925.193 64.088 925.705 64.248 926.377 64.248C927.145 64.248 927.745 64.04 928.177 63.624C928.625 63.192 928.849 62.632 928.849 61.944V60.576ZM922.729 56.736V54.456C923.673 53.912 924.921 53.64 926.473 53.64C929.657 53.64 931.249 55.184 931.249 58.272V66H928.921V64.56C928.297 65.584 927.201 66.096 925.633 66.096C924.481 66.096 923.553 65.768 922.849 65.112C922.161 64.44 921.817 63.592 921.817 62.568C921.817 61.4 922.257 60.496 923.137 59.856C924.017 59.2 925.249 58.872 926.833 58.872H928.849V58.176C928.849 57.344 928.649 56.72 928.249 56.304C927.849 55.872 927.185 55.656 926.257 55.656C924.961 55.656 923.785 56.016 922.729 56.736ZM934.514 66V49.032H936.89V66H934.514ZM949.879 59.976H955.063L954.799 59.16C954.191 57.272 953.695 55.712 953.311 54.48C952.927 53.232 952.695 52.456 952.615 52.152L952.495 51.696C952.319 52.448 951.535 54.936 950.143 59.16L949.879 59.976ZM957.007 66L955.735 62.04H949.207L947.911 66H945.295L950.887 49.824H954.127L959.647 66H957.007ZM967.667 64.104C968.611 64.104 969.387 63.736 969.995 63C970.603 62.248 970.907 61.2 970.907 59.856C970.907 58.592 970.611 57.592 970.019 56.856C969.427 56.104 968.675 55.728 967.763 55.728C966.851 55.728 966.059 56.064 965.387 56.736C964.731 57.392 964.403 58.44 964.403 59.88C964.403 61.288 964.731 62.344 965.387 63.048C966.059 63.752 966.819 64.104 967.667 64.104ZM964.403 53.832V55.704C965.235 54.344 966.483 53.664 968.147 53.664C969.747 53.664 971.011 54.248 971.939 55.416C972.867 56.568 973.331 58.04 973.331 59.832C973.331 61.672 972.851 63.192 971.891 64.392C970.947 65.576 969.683 66.168 968.099 66.168C966.483 66.168 965.251 65.496 964.403 64.152V70.656H962.051V53.832H964.403ZM981.588 64.104C982.532 64.104 983.308 63.736 983.916 63C984.524 62.248 984.828 61.2 984.828 59.856C984.828 58.592 984.532 57.592 983.94 56.856C983.348 56.104 982.596 55.728 981.684 55.728C980.772 55.728 979.98 56.064 979.308 56.736C978.652 57.392 978.324 58.44 978.324 59.88C978.324 61.288 978.652 62.344 979.308 63.048C979.98 63.752 980.74 64.104 981.588 64.104ZM978.324 53.832V55.704C979.156 54.344 980.404 53.664 982.068 53.664C983.668 53.664 984.932 54.248 985.86 55.416C986.788 56.568 987.252 58.04 987.252 59.832C987.252 61.672 986.772 63.192 985.812 64.392C984.868 65.576 983.604 66.168 982.02 66.168C980.404 66.168 979.172 65.496 978.324 64.152V70.656H975.972V53.832H978.324ZM996.83 54.24V56.376C996.046 55.912 995.038 55.68 993.806 55.68C993.246 55.68 992.798 55.808 992.462 56.064C992.142 56.32 991.982 56.656 991.982 57.072C991.982 57.184 991.99 57.296 992.006 57.408C992.038 57.504 992.086 57.608 992.15 57.72C992.214 57.816 992.27 57.904 992.318 57.984C992.382 58.048 992.478 58.12 992.606 58.2C992.734 58.28 992.83 58.352 992.894 58.416C992.974 58.464 993.094 58.528 993.254 58.608C993.43 58.688 993.558 58.752 993.638 58.8C993.718 58.832 993.854 58.896 994.046 58.992C994.254 59.072 994.398 59.128 994.478 59.16C995.422 59.576 996.158 60.048 996.686 60.576C997.23 61.088 997.502 61.776 997.502 62.64C997.502 63.728 997.118 64.584 996.35 65.208C995.582 65.816 994.542 66.12 993.23 66.12C991.79 66.12 990.59 65.88 989.63 65.4V63.168C990.75 63.856 991.91 64.2 993.11 64.2C993.734 64.2 994.214 64.072 994.55 63.816C994.902 63.56 995.078 63.224 995.078 62.808C995.078 62.456 994.942 62.144 994.67 61.872C994.398 61.584 994.118 61.376 993.83 61.248C993.558 61.104 993.086 60.888 992.414 60.6C990.51 59.816 989.558 58.664 989.558 57.144C989.558 56.072 989.958 55.232 990.758 54.624C991.558 54.016 992.558 53.712 993.758 53.712C995.07 53.712 996.094 53.888 996.83 54.24Z" fill="#1A135A"/>
<rect width="244" height="88" transform="translate(1072)" fill="#E8E7F0"/>
<path d="M1099.24 34.472V36.92C1098.17 36.248 1096.95 35.912 1095.59 35.912C1094.71 35.912 1094.02 36.112 1093.51 36.512C1093.01 36.896 1092.76 37.408 1092.76 38.048C1092.76 38.688 1093.01 39.2 1093.51 39.584C1094 39.968 1094.76 40.384 1095.79 40.832C1096.46 41.12 1096.98 41.368 1097.35 41.576C1097.73 41.784 1098.16 42.08 1098.64 42.464C1099.14 42.832 1099.5 43.28 1099.72 43.808C1099.96 44.32 1100.08 44.912 1100.08 45.584C1100.08 47.008 1099.58 48.128 1098.57 48.944C1097.56 49.76 1096.26 50.168 1094.66 50.168C1092.88 50.168 1091.41 49.824 1090.24 49.136V46.568C1091.51 47.512 1092.97 47.984 1094.63 47.984C1095.51 47.984 1096.21 47.784 1096.72 47.384C1097.23 46.968 1097.49 46.4 1097.49 45.68C1097.49 45.248 1097.34 44.856 1097.03 44.504C1096.73 44.136 1096.4 43.864 1096.05 43.688C1095.7 43.496 1095.17 43.24 1094.47 42.92C1094.05 42.728 1093.75 42.592 1093.58 42.512C1093.42 42.432 1093.15 42.288 1092.76 42.08C1092.38 41.872 1092.09 41.696 1091.9 41.552C1091.72 41.408 1091.5 41.208 1091.23 40.952C1090.95 40.696 1090.75 40.44 1090.63 40.184C1090.51 39.928 1090.4 39.632 1090.29 39.296C1090.19 38.944 1090.15 38.568 1090.15 38.168C1090.15 36.792 1090.64 35.704 1091.63 34.904C1092.64 34.104 1093.94 33.704 1095.52 33.704C1096.98 33.704 1098.22 33.96 1099.24 34.472ZM1108.01 50.216C1106.22 50.216 1104.81 49.632 1103.79 48.464C1102.77 47.296 1102.25 45.816 1102.25 44.024C1102.25 42.2 1102.78 40.688 1103.84 39.488C1104.89 38.272 1106.29 37.664 1108.01 37.664C1109.87 37.664 1111.3 38.256 1112.31 39.44C1113.32 40.608 1113.82 42.104 1113.82 43.928C1113.82 45.752 1113.3 47.256 1112.26 48.44C1111.24 49.624 1109.82 50.216 1108.01 50.216ZM1107.99 39.656C1106.95 39.656 1106.14 40.072 1105.57 40.904C1104.99 41.72 1104.7 42.736 1104.7 43.952C1104.7 45.152 1105 46.168 1105.59 47C1106.18 47.816 1106.99 48.224 1108.01 48.224C1109.1 48.224 1109.93 47.824 1110.49 47.024C1111.06 46.224 1111.35 45.208 1111.35 43.976C1111.35 42.712 1111.08 41.68 1110.53 40.88C1109.99 40.064 1109.14 39.656 1107.99 39.656ZM1118.82 37.832V39.92C1119.54 38.416 1120.81 37.664 1122.62 37.664C1123.82 37.664 1124.77 38.032 1125.47 38.768C1126.18 39.504 1126.53 40.504 1126.53 41.768V50H1124.18V42.32C1124.18 41.472 1123.96 40.824 1123.53 40.376C1123.11 39.928 1122.55 39.704 1121.85 39.704C1121.02 39.704 1120.3 40.032 1119.71 40.688C1119.12 41.328 1118.82 42.232 1118.82 43.4V50H1116.47V37.832H1118.82ZM1134.49 47.648C1135.32 47.648 1136.04 47.328 1136.65 46.688C1137.28 46.032 1137.59 45.12 1137.59 43.952C1137.59 42.512 1137.29 41.448 1136.7 40.76C1136.12 40.072 1135.42 39.728 1134.59 39.728C1133.64 39.728 1132.9 40.104 1132.36 40.856C1131.81 41.592 1131.54 42.568 1131.54 43.784C1131.54 45.048 1131.83 46.008 1132.4 46.664C1133 47.32 1133.69 47.648 1134.49 47.648ZM1137.59 37.832H1139.94V48.968C1139.94 50.84 1139.4 52.248 1138.33 53.192C1137.28 54.152 1135.92 54.632 1134.25 54.632C1132.68 54.632 1131.36 54.368 1130.29 53.84V51.464C1131.32 52.136 1132.56 52.472 1134.01 52.472C1136.4 52.472 1137.59 51.296 1137.59 48.944V47.696C1136.8 49.008 1135.63 49.664 1134.06 49.664C1132.68 49.664 1131.51 49.16 1130.53 48.152C1129.56 47.128 1129.07 45.688 1129.07 43.832C1129.07 42.04 1129.52 40.568 1130.44 39.416C1131.35 38.248 1132.56 37.664 1134.06 37.664C1135.68 37.664 1136.85 38.352 1137.59 39.728V37.832ZM1141.27 52.448L1149.99 33.032H1152.41L1143.7 52.448H1141.27ZM1156.87 43.976H1162.05L1161.79 43.16C1161.18 41.272 1160.69 39.712 1160.3 38.48C1159.92 37.232 1159.69 36.456 1159.61 36.152L1159.49 35.696C1159.31 36.448 1158.53 38.936 1157.13 43.16L1156.87 43.976ZM1164 50L1162.73 46.04H1156.2L1154.9 50H1152.29L1157.88 33.824H1161.12L1166.64 50H1164ZM1176.6 37.832H1178.95V50H1176.6V47.912C1175.96 49.4 1174.7 50.144 1172.81 50.144C1171.61 50.144 1170.66 49.792 1169.95 49.088C1169.25 48.368 1168.9 47.384 1168.9 46.136V37.832H1171.27V45.56C1171.27 46.392 1171.47 47.032 1171.87 47.48C1172.29 47.912 1172.86 48.128 1173.58 48.128C1174.49 48.128 1175.22 47.808 1175.76 47.168C1176.32 46.528 1176.6 45.624 1176.6 44.456V37.832ZM1187.18 48.104C1188.11 48.104 1188.89 47.752 1189.53 47.048C1190.17 46.344 1190.49 45.272 1190.49 43.832C1190.49 42.44 1190.16 41.408 1189.49 40.736C1188.83 40.064 1188.09 39.728 1187.25 39.728C1186.31 39.728 1185.53 40.104 1184.93 40.856C1184.32 41.592 1184.01 42.648 1184.01 44.024C1184.01 45.24 1184.31 46.224 1184.9 46.976C1185.51 47.728 1186.27 48.104 1187.18 48.104ZM1190.49 33.032H1192.87V50H1190.49V48.152C1189.65 49.496 1188.41 50.168 1186.77 50.168C1185.17 50.168 1183.91 49.568 1182.98 48.368C1182.05 47.152 1181.59 45.688 1181.59 43.976C1181.59 42.072 1182.08 40.544 1183.05 39.392C1184.03 38.24 1185.29 37.664 1186.82 37.664C1188.41 37.664 1189.63 38.336 1190.49 39.68V33.032ZM1196.28 50V37.832H1198.66V50H1196.28ZM1196.4 35.168C1196.13 34.88 1195.99 34.528 1195.99 34.112C1195.99 33.696 1196.13 33.344 1196.4 33.056C1196.69 32.768 1197.04 32.624 1197.46 32.624C1197.87 32.624 1198.22 32.768 1198.51 33.056C1198.8 33.344 1198.94 33.696 1198.94 34.112C1198.94 34.512 1198.8 34.856 1198.51 35.144C1198.22 35.432 1197.87 35.576 1197.46 35.576C1197.04 35.576 1196.69 35.44 1196.4 35.168ZM1207.15 50.216C1205.36 50.216 1203.95 49.632 1202.93 48.464C1201.91 47.296 1201.39 45.816 1201.39 44.024C1201.39 42.2 1201.92 40.688 1202.98 39.488C1204.03 38.272 1205.43 37.664 1207.15 37.664C1209.01 37.664 1210.44 38.256 1211.45 39.44C1212.46 40.608 1212.96 42.104 1212.96 43.928C1212.96 45.752 1212.44 47.256 1211.4 48.44C1210.38 49.624 1208.96 50.216 1207.15 50.216ZM1207.13 39.656C1206.09 39.656 1205.28 40.072 1204.71 40.904C1204.13 41.72 1203.84 42.736 1203.84 43.952C1203.84 45.152 1204.14 46.168 1204.73 47C1205.32 47.816 1206.13 48.224 1207.15 48.224C1208.24 48.224 1209.07 47.824 1209.63 47.024C1210.2 46.224 1210.49 45.208 1210.49 43.976C1210.49 42.712 1210.22 41.68 1209.67 40.88C1209.13 40.064 1208.28 39.656 1207.13 39.656ZM1230.78 35.888H1224.09V41.192H1229.97V43.256H1224.09V50H1221.62V33.824H1230.78V35.888ZM1240.94 43.04V42.608C1240.91 41.696 1240.66 40.976 1240.19 40.448C1239.73 39.904 1239.07 39.632 1238.2 39.632C1237.4 39.632 1236.71 39.928 1236.14 40.52C1235.56 41.096 1235.2 41.936 1235.06 43.04H1240.94ZM1242.45 47.24V49.352C1241.55 49.864 1240.37 50.12 1238.9 50.12C1237.01 50.12 1235.51 49.552 1234.39 48.416C1233.27 47.28 1232.71 45.792 1232.71 43.952C1232.71 42 1233.22 40.472 1234.24 39.368C1235.27 38.248 1236.57 37.688 1238.15 37.688C1239.71 37.688 1240.94 38.176 1241.85 39.152C1242.76 40.112 1243.22 41.504 1243.22 43.328C1243.22 43.824 1243.17 44.344 1243.07 44.888H1235.08C1235.24 45.944 1235.69 46.752 1236.43 47.312C1237.16 47.872 1238.09 48.152 1239.21 48.152C1240.51 48.152 1241.59 47.848 1242.45 47.24ZM1252.4 44.576H1250.57C1249.68 44.576 1249 44.752 1248.53 45.104C1248.08 45.456 1247.86 45.904 1247.86 46.448C1247.86 47.008 1248.04 47.448 1248.39 47.768C1248.74 48.088 1249.25 48.248 1249.92 48.248C1250.69 48.248 1251.29 48.04 1251.72 47.624C1252.17 47.192 1252.4 46.632 1252.4 45.944V44.576ZM1246.28 40.736V38.456C1247.22 37.912 1248.47 37.64 1250.02 37.64C1253.2 37.64 1254.8 39.184 1254.8 42.272V50H1252.47V48.56C1251.84 49.584 1250.75 50.096 1249.18 50.096C1248.03 50.096 1247.1 49.768 1246.4 49.112C1245.71 48.44 1245.36 47.592 1245.36 46.568C1245.36 45.4 1245.8 44.496 1246.68 43.856C1247.56 43.2 1248.8 42.872 1250.38 42.872H1252.4V42.176C1252.4 41.344 1252.2 40.72 1251.8 40.304C1251.4 39.872 1250.73 39.656 1249.8 39.656C1248.51 39.656 1247.33 40.016 1246.28 40.736ZM1261.01 39.656V46.352C1261.01 47.52 1261.57 48.104 1262.69 48.104C1263.35 48.104 1263.9 47.928 1264.35 47.576V49.688C1263.82 49.976 1263.17 50.12 1262.4 50.12C1259.89 50.12 1258.64 48.848 1258.64 46.304V39.656H1256.74V37.832H1258.64V34.856H1261.01V37.832H1264.2V39.656H1261.01ZM1274.5 37.832H1276.85V50H1274.5V47.912C1273.86 49.4 1272.6 50.144 1270.71 50.144C1269.51 50.144 1268.56 49.792 1267.85 49.088C1267.15 48.368 1266.8 47.384 1266.8 46.136V37.832H1269.17V45.56C1269.17 46.392 1269.37 47.032 1269.77 47.48C1270.19 47.912 1270.76 48.128 1271.48 48.128C1272.39 48.128 1273.12 47.808 1273.66 47.168C1274.22 46.528 1274.5 45.624 1274.5 44.456V37.832ZM1282.51 37.832V39.968C1283.1 38.464 1284.17 37.712 1285.7 37.712C1285.93 37.712 1286.18 37.736 1286.45 37.784V40.088C1286.11 39.944 1285.74 39.872 1285.32 39.872C1284.5 39.872 1283.83 40.232 1283.3 40.952C1282.78 41.672 1282.51 42.528 1282.51 43.52V50H1280.16V37.832H1282.51ZM1295.85 43.04V42.608C1295.82 41.696 1295.57 40.976 1295.11 40.448C1294.64 39.904 1293.98 39.632 1293.12 39.632C1292.32 39.632 1291.63 39.928 1291.05 40.52C1290.48 41.096 1290.12 41.936 1289.97 43.04H1295.85ZM1297.36 47.24V49.352C1296.47 49.864 1295.28 50.12 1293.81 50.12C1291.92 50.12 1290.42 49.552 1289.3 48.416C1288.18 47.28 1287.62 45.792 1287.62 43.952C1287.62 42 1288.13 40.472 1289.16 39.368C1290.18 38.248 1291.48 37.688 1293.07 37.688C1294.62 37.688 1295.85 38.176 1296.76 39.152C1297.68 40.112 1298.13 41.504 1298.13 43.328C1298.13 43.824 1298.08 44.344 1297.99 44.888H1290C1290.16 45.944 1290.6 46.752 1291.34 47.312C1292.08 47.872 1293 48.152 1294.12 48.152C1295.42 48.152 1296.5 47.848 1297.36 47.24Z" fill="#1A135A"/>
<rect width="244" height="88" transform="translate(1340)" fill="#E8E7F0"/>
<path d="M1429.31 31.912H1431.86C1433.7 31.912 1435.1 31.336 1436.06 30.184C1437.02 29.032 1437.5 27.552 1437.5 25.744C1437.5 24.08 1436.98 22.696 1435.94 21.592C1434.9 20.488 1433.51 19.936 1431.78 19.936H1429.31V31.912ZM1426.79 17.824H1431.83C1434.23 17.824 1436.2 18.568 1437.74 20.056C1439.27 21.544 1440.04 23.44 1440.04 25.744C1440.04 28.144 1439.31 30.12 1437.86 31.672C1436.42 33.224 1434.42 34 1431.88 34H1426.79V17.824ZM1442.8 34V21.832H1445.17V34H1442.8ZM1442.92 19.168C1442.65 18.88 1442.51 18.528 1442.51 18.112C1442.51 17.696 1442.65 17.344 1442.92 17.056C1443.21 16.768 1443.56 16.624 1443.97 16.624C1444.39 16.624 1444.74 16.768 1445.03 17.056C1445.32 17.344 1445.46 17.696 1445.46 18.112C1445.46 18.512 1445.32 18.856 1445.03 19.144C1444.74 19.432 1444.39 19.576 1443.97 19.576C1443.56 19.576 1443.21 19.44 1442.92 19.168ZM1453.39 31.648C1454.22 31.648 1454.94 31.328 1455.55 30.688C1456.17 30.032 1456.48 29.12 1456.48 27.952C1456.48 26.512 1456.19 25.448 1455.59 24.76C1455.02 24.072 1454.31 23.728 1453.48 23.728C1452.54 23.728 1451.79 24.104 1451.25 24.856C1450.71 25.592 1450.43 26.568 1450.43 27.784C1450.43 29.048 1450.72 30.008 1451.3 30.664C1451.89 31.32 1452.59 31.648 1453.39 31.648ZM1456.48 21.832H1458.83V32.968C1458.83 34.84 1458.3 36.248 1457.23 37.192C1456.17 38.152 1454.81 38.632 1453.15 38.632C1451.58 38.632 1450.26 38.368 1449.19 37.84V35.464C1450.21 36.136 1451.45 36.472 1452.91 36.472C1455.29 36.472 1456.48 35.296 1456.48 32.944V31.696C1455.7 33.008 1454.52 33.664 1452.95 33.664C1451.58 33.664 1450.4 33.16 1449.43 32.152C1448.45 31.128 1447.96 29.688 1447.96 27.832C1447.96 26.04 1448.42 24.568 1449.33 23.416C1450.24 22.248 1451.45 21.664 1452.95 21.664C1454.57 21.664 1455.75 22.352 1456.48 23.728V21.832ZM1462.09 34V21.832H1464.46V34H1462.09ZM1462.21 19.168C1461.94 18.88 1461.8 18.528 1461.8 18.112C1461.8 17.696 1461.94 17.344 1462.21 17.056C1462.5 16.768 1462.85 16.624 1463.26 16.624C1463.68 16.624 1464.03 16.768 1464.32 17.056C1464.61 17.344 1464.75 17.696 1464.75 18.112C1464.75 18.512 1464.61 18.856 1464.32 19.144C1464.03 19.432 1463.68 19.576 1463.26 19.576C1462.85 19.576 1462.5 19.44 1462.21 19.168ZM1470.92 23.656V30.352C1470.92 31.52 1471.48 32.104 1472.6 32.104C1473.26 32.104 1473.81 31.928 1474.26 31.576V33.688C1473.73 33.976 1473.08 34.12 1472.31 34.12C1469.8 34.12 1468.55 32.848 1468.55 30.304V23.656H1466.65V21.832H1468.55V18.856H1470.92V21.832H1474.11V23.656H1470.92ZM1483.26 28.576H1481.44C1480.54 28.576 1479.86 28.752 1479.4 29.104C1478.95 29.456 1478.72 29.904 1478.72 30.448C1478.72 31.008 1478.9 31.448 1479.25 31.768C1479.6 32.088 1480.12 32.248 1480.79 32.248C1481.56 32.248 1482.16 32.04 1482.59 31.624C1483.04 31.192 1483.26 30.632 1483.26 29.944V28.576ZM1477.14 24.736V22.456C1478.08 21.912 1479.33 21.64 1480.88 21.64C1484.07 21.64 1485.66 23.184 1485.66 26.272V34H1483.33V32.56C1482.71 33.584 1481.61 34.096 1480.04 34.096C1478.89 34.096 1477.96 33.768 1477.26 33.112C1476.57 32.44 1476.23 31.592 1476.23 30.568C1476.23 29.4 1476.67 28.496 1477.55 27.856C1478.43 27.2 1479.66 26.872 1481.24 26.872H1483.26V26.176C1483.26 25.344 1483.06 24.72 1482.66 24.304C1482.26 23.872 1481.6 23.656 1480.67 23.656C1479.37 23.656 1478.2 24.016 1477.14 24.736ZM1488.92 34V17.032H1491.3V34H1488.92ZM1400.78 50.472V52.92C1399.71 52.248 1398.49 51.912 1397.13 51.912C1396.25 51.912 1395.56 52.112 1395.04 52.512C1394.55 52.896 1394.3 53.408 1394.3 54.048C1394.3 54.688 1394.55 55.2 1395.04 55.584C1395.54 55.968 1396.3 56.384 1397.32 56.832C1398 57.12 1398.52 57.368 1398.88 57.576C1399.27 57.784 1399.7 58.08 1400.18 58.464C1400.68 58.832 1401.04 59.28 1401.26 59.808C1401.5 60.32 1401.62 60.912 1401.62 61.584C1401.62 63.008 1401.12 64.128 1400.11 64.944C1399.1 65.76 1397.8 66.168 1396.2 66.168C1394.42 66.168 1392.95 65.824 1391.78 65.136V62.568C1393.04 63.512 1394.51 63.984 1396.17 63.984C1397.05 63.984 1397.75 63.784 1398.26 63.384C1398.77 62.968 1399.03 62.4 1399.03 61.68C1399.03 61.248 1398.88 60.856 1398.57 60.504C1398.27 60.136 1397.94 59.864 1397.59 59.688C1397.24 59.496 1396.71 59.24 1396 58.92C1395.59 58.728 1395.29 58.592 1395.12 58.512C1394.96 58.432 1394.68 58.288 1394.3 58.08C1393.92 57.872 1393.63 57.696 1393.44 57.552C1393.26 57.408 1393.04 57.208 1392.76 56.952C1392.49 56.696 1392.29 56.44 1392.16 56.184C1392.05 55.928 1391.94 55.632 1391.83 55.296C1391.73 54.944 1391.68 54.568 1391.68 54.168C1391.68 52.792 1392.18 51.704 1393.17 50.904C1394.18 50.104 1395.48 49.704 1397.06 49.704C1398.52 49.704 1399.76 49.96 1400.78 50.472ZM1406.22 59.976C1406.25 61.208 1406.62 62.224 1407.34 63.024C1408.06 63.808 1409.07 64.2 1410.37 64.2C1411.33 64.2 1412.22 63.936 1413.06 63.408V65.52C1412.27 66 1411.27 66.24 1410.06 66.24C1408.15 66.24 1406.63 65.64 1405.5 64.44C1404.36 63.24 1403.79 61.744 1403.79 59.952C1403.79 58.208 1404.36 56.72 1405.5 55.488C1406.65 54.24 1408.2 53.616 1410.15 53.616C1411.21 53.616 1412.18 53.84 1413.06 54.288V56.448C1412.27 55.952 1411.38 55.704 1410.39 55.704C1409.13 55.704 1408.11 56.104 1407.34 56.904C1406.59 57.704 1406.22 58.728 1406.22 59.976ZM1418.11 53.832V55.968C1418.71 54.464 1419.77 53.712 1421.31 53.712C1421.53 53.712 1421.78 53.736 1422.05 53.784V56.088C1421.71 55.944 1421.34 55.872 1420.92 55.872C1420.11 55.872 1419.43 56.232 1418.91 56.952C1418.38 57.672 1418.11 58.528 1418.11 59.52V66H1415.76V53.832H1418.11ZM1430.3 60.576H1428.48C1427.58 60.576 1426.9 60.752 1426.44 61.104C1425.99 61.456 1425.77 61.904 1425.77 62.448C1425.77 63.008 1425.94 63.448 1426.29 63.768C1426.65 64.088 1427.16 64.248 1427.83 64.248C1428.6 64.248 1429.2 64.04 1429.63 63.624C1430.08 63.192 1430.3 62.632 1430.3 61.944V60.576ZM1424.18 56.736V54.456C1425.13 53.912 1426.37 53.64 1427.93 53.64C1431.11 53.64 1432.7 55.184 1432.7 58.272V66H1430.37V64.56C1429.75 65.584 1428.65 66.096 1427.09 66.096C1425.93 66.096 1425.01 65.768 1424.3 65.112C1423.61 64.44 1423.27 63.592 1423.27 62.568C1423.27 61.4 1423.71 60.496 1424.59 59.856C1425.47 59.2 1426.7 58.872 1428.29 58.872H1430.3V58.176C1430.3 57.344 1430.1 56.72 1429.7 56.304C1429.3 55.872 1428.64 55.656 1427.71 55.656C1426.41 55.656 1425.24 56.016 1424.18 56.736ZM1441.49 64.104C1442.43 64.104 1443.21 63.736 1443.81 63C1444.42 62.248 1444.73 61.2 1444.73 59.856C1444.73 58.592 1444.43 57.592 1443.84 56.856C1443.25 56.104 1442.49 55.728 1441.58 55.728C1440.67 55.728 1439.88 56.064 1439.21 56.736C1438.55 57.392 1438.22 58.44 1438.22 59.88C1438.22 61.288 1438.55 62.344 1439.21 63.048C1439.88 63.752 1440.64 64.104 1441.49 64.104ZM1438.22 53.832V55.704C1439.05 54.344 1440.3 53.664 1441.97 53.664C1443.57 53.664 1444.83 54.248 1445.76 55.416C1446.69 56.568 1447.15 58.04 1447.15 59.832C1447.15 61.672 1446.67 63.192 1445.71 64.392C1444.77 65.576 1443.5 66.168 1441.92 66.168C1440.3 66.168 1439.07 65.496 1438.22 64.152V70.656H1435.87V53.832H1438.22ZM1455.53 64.104C1456.42 64.104 1457.18 63.728 1457.78 62.976C1458.39 62.208 1458.7 61.224 1458.7 60.024C1458.7 58.648 1458.39 57.592 1457.78 56.856C1457.18 56.104 1456.4 55.728 1455.46 55.728C1454.62 55.728 1453.87 56.064 1453.2 56.736C1452.54 57.408 1452.22 58.44 1452.22 59.832C1452.22 61.272 1452.54 62.344 1453.18 63.048C1453.82 63.752 1454.6 64.104 1455.53 64.104ZM1452.22 49.032V55.68C1453.08 54.336 1454.3 53.664 1455.89 53.664C1457.42 53.664 1458.68 54.24 1459.66 55.392C1460.63 56.544 1461.12 58.072 1461.12 59.976C1461.12 61.688 1460.66 63.152 1459.73 64.368C1458.8 65.568 1457.53 66.168 1455.91 66.168C1454.3 66.168 1453.06 65.496 1452.22 64.152V66H1449.84V49.032H1452.22ZM1468.85 66.216C1467.06 66.216 1465.65 65.632 1464.63 64.464C1463.6 63.296 1463.09 61.816 1463.09 60.024C1463.09 58.2 1463.62 56.688 1464.67 55.488C1465.73 54.272 1467.12 53.664 1468.85 53.664C1470.71 53.664 1472.14 54.256 1473.15 55.44C1474.15 56.608 1474.66 58.104 1474.66 59.928C1474.66 61.752 1474.14 63.256 1473.1 64.44C1472.07 65.624 1470.66 66.216 1468.85 66.216ZM1468.83 55.656C1467.79 55.656 1466.98 56.072 1466.4 56.904C1465.83 57.72 1465.54 58.736 1465.54 59.952C1465.54 61.152 1465.83 62.168 1466.43 63C1467.02 63.816 1467.83 64.224 1468.85 64.224C1469.94 64.224 1470.76 63.824 1471.32 63.024C1471.9 62.224 1472.19 61.208 1472.19 59.976C1472.19 58.712 1471.91 57.68 1471.37 56.88C1470.83 56.064 1469.98 55.656 1468.83 55.656ZM1482.4 66.216C1480.6 66.216 1479.2 65.632 1478.17 64.464C1477.15 63.296 1476.64 61.816 1476.64 60.024C1476.64 58.2 1477.16 56.688 1478.22 55.488C1479.28 54.272 1480.67 53.664 1482.4 53.664C1484.25 53.664 1485.68 54.256 1486.69 55.44C1487.7 56.608 1488.2 58.104 1488.2 59.928C1488.2 61.752 1487.68 63.256 1486.64 64.44C1485.62 65.624 1484.2 66.216 1482.4 66.216ZM1482.37 55.656C1481.33 55.656 1480.52 56.072 1479.95 56.904C1479.37 57.72 1479.08 58.736 1479.08 59.952C1479.08 61.152 1479.38 62.168 1479.97 63C1480.56 63.816 1481.37 64.224 1482.4 64.224C1483.48 64.224 1484.31 63.824 1484.87 63.024C1485.44 62.224 1485.73 61.208 1485.73 59.976C1485.73 58.712 1485.46 57.68 1484.92 56.88C1484.37 56.064 1483.52 55.656 1482.37 55.656ZM1490.86 66V49.2H1493.21V66H1490.86ZM1496.02 59.64L1500.79 66H1497.98L1493.3 59.64L1497.89 53.832H1500.65L1496.02 59.64ZM1502.95 66V53.832H1505.33V66H1502.95ZM1503.07 51.168C1502.8 50.88 1502.66 50.528 1502.66 50.112C1502.66 49.696 1502.8 49.344 1503.07 49.056C1503.36 48.768 1503.71 48.624 1504.13 48.624C1504.54 48.624 1504.9 48.768 1505.18 49.056C1505.47 49.344 1505.62 49.696 1505.62 50.112C1505.62 50.512 1505.47 50.856 1505.18 51.144C1504.9 51.432 1504.54 51.576 1504.13 51.576C1503.71 51.576 1503.36 51.44 1503.07 51.168ZM1511.09 53.832V55.92C1511.81 54.416 1513.07 53.664 1514.88 53.664C1516.08 53.664 1517.03 54.032 1517.74 54.768C1518.44 55.504 1518.79 56.504 1518.79 57.768V66H1516.44V58.32C1516.44 57.472 1516.23 56.824 1515.79 56.376C1515.38 55.928 1514.82 55.704 1514.11 55.704C1513.28 55.704 1512.57 56.032 1511.98 56.688C1511.39 57.328 1511.09 58.232 1511.09 59.4V66H1508.74V53.832H1511.09ZM1526.76 63.648C1527.59 63.648 1528.31 63.328 1528.92 62.688C1529.54 62.032 1529.85 61.12 1529.85 59.952C1529.85 58.512 1529.56 57.448 1528.96 56.76C1528.39 56.072 1527.68 55.728 1526.85 55.728C1525.91 55.728 1525.16 56.104 1524.62 56.856C1524.08 57.592 1523.8 58.568 1523.8 59.784C1523.8 61.048 1524.09 62.008 1524.67 62.664C1525.26 63.32 1525.96 63.648 1526.76 63.648ZM1529.85 53.832H1532.2V64.968C1532.2 66.84 1531.67 68.248 1530.6 69.192C1529.54 70.152 1528.18 70.632 1526.52 70.632C1524.95 70.632 1523.63 70.368 1522.56 69.84V67.464C1523.58 68.136 1524.82 68.472 1526.28 68.472C1528.66 68.472 1529.85 67.296 1529.85 64.944V63.696C1529.07 65.008 1527.89 65.664 1526.32 65.664C1524.95 65.664 1523.77 65.16 1522.8 64.152C1521.82 63.128 1521.33 61.688 1521.33 59.832C1521.33 58.04 1521.79 56.568 1522.7 55.416C1523.61 54.248 1524.82 53.664 1526.32 53.664C1527.94 53.664 1529.12 54.352 1529.85 55.728V53.832Z" fill="#1A135A"/>
<rect width="244" height="88" transform="translate(268 112)" fill="#D1EBEE"/>
<rect width="244" height="88" transform="translate(536 112)" fill="#D1EBEE"/>
<rect width="244" height="88" transform="translate(804 112)" fill="#D1EBEE"/>
<rect width="244" height="88" transform="translate(1072 112)" fill="#D1EBEE"/>
<path d="M1195.29 155.832L1199.35 162H1196.69L1194.02 157.536L1191.21 162H1188.62L1192.77 155.808L1188.89 149.808H1191.55L1194.09 154.104L1196.71 149.808H1199.35L1195.29 155.832Z" fill="#1A135A"/>
<rect width="244" height="88" transform="translate(1340 112)" fill="#D1EBEE"/>
<rect width="244" height="88" transform="translate(268 224)" fill="#D1EBEE"/>
<path d="M391.294 267.832L395.35 274H392.686L390.022 269.536L387.214 274H384.622L388.774 267.808L384.886 261.808H387.55L390.094 266.104L392.71 261.808H395.35L391.294 267.832Z" fill="#1A135A"/>
<rect width="244" height="88" transform="translate(536 224)" fill="#D1EBEE"/>
<rect width="244" height="88" transform="translate(804 224)" fill="#D1EBEE"/>
<path d="M927.294 267.832L931.35 274H928.686L926.022 269.536L923.214 274H920.622L924.774 267.808L920.886 261.808H923.55L926.094 266.104L928.71 261.808H931.35L927.294 267.832Z" fill="#1A135A"/>
<rect width="244" height="88" transform="translate(1072 224)" fill="#D1EBEE"/>
<path d="M1195.29 267.832L1199.35 274H1196.69L1194.02 269.536L1191.21 274H1188.62L1192.77 267.808L1188.89 261.808H1191.55L1194.09 266.104L1196.71 261.808H1199.35L1195.29 267.832Z" fill="#1A135A"/>
<rect width="244" height="88" transform="translate(1340 224)" fill="#D1EBEE"/>
<path d="M1463.29 267.832L1467.35 274H1464.69L1462.02 269.536L1459.21 274H1456.62L1460.77 267.808L1456.89 261.808H1459.55L1462.09 266.104L1464.71 261.808H1467.35L1463.29 267.832Z" fill="#1A135A"/>
<rect width="244" height="88" transform="translate(268 336)" fill="#D1EBEE"/>
<path d="M391.294 379.832L395.35 386H392.686L390.022 381.536L387.214 386H384.622L388.774 379.808L384.886 373.808H387.55L390.094 378.104L392.71 373.808H395.35L391.294 379.832Z" fill="#1A135A"/>
<rect width="244" height="88" transform="translate(536 336)" fill="#D1EBEE"/>
<rect width="244" height="88" transform="translate(804 336)" fill="#D1EBEE"/>
<rect width="244" height="88" transform="translate(1072 336)" fill="#D1EBEE"/>
<rect width="244" height="88" transform="translate(1340 336)" fill="#D1EBEE"/>
<rect width="244" height="88" transform="translate(268 448)" fill="#D1EBEE"/>
<path d="M391.294 491.832L395.35 498H392.686L390.022 493.536L387.214 498H384.622L388.774 491.808L384.886 485.808H387.55L390.094 490.104L392.71 485.808H395.35L391.294 491.832Z" fill="#1A135A"/>
<rect width="244" height="88" transform="translate(536 448)" fill="#D1EBEE"/>
<rect width="244" height="88" transform="translate(804 448)" fill="#D1EBEE"/>
<path d="M927.294 491.832L931.35 498H928.686L926.022 493.536L923.214 498H920.622L924.774 491.808L920.886 485.808H923.55L926.094 490.104L928.71 485.808H931.35L927.294 491.832Z" fill="#1A135A"/>
<rect width="244" height="88" transform="translate(1072 448)" fill="#D1EBEE"/>
<path d="M1195.2 491.832L1199.26 498H1196.59L1193.93 493.536L1191.12 498H1188.53L1192.68 491.808L1188.79 485.808H1191.46L1194 490.104L1196.62 485.808H1199.26L1195.2 491.832Z" fill="#1A135A"/>
<rect width="244" height="88" transform="translate(1340 448)" fill="#D1EBEE"/>
<rect width="244" height="88" transform="translate(268 560)" fill="#D1EBEE"/>
<path d="M391.294 603.832L395.35 610H392.686L390.022 605.536L387.214 610H384.622L388.774 603.808L384.886 597.808H387.55L390.094 602.104L392.71 597.808H395.35L391.294 603.832Z" fill="#1A135A"/>
<rect width="244" height="88" transform="translate(536 560)" fill="#D1EBEE"/>
<path d="M659.294 603.832L663.35 610H660.686L658.022 605.536L655.214 610H652.622L656.774 603.808L652.886 597.808H655.55L658.094 602.104L660.71 597.808H663.35L659.294 603.832Z" fill="#1A135A"/>
<rect width="244" height="88" transform="translate(804 560)" fill="#D1EBEE"/>
<path d="M927.2 603.832L931.256 610H928.592L925.928 605.536L923.12 610H920.528L924.68 603.808L920.792 597.808H923.456L926 602.104L928.616 597.808H931.256L927.2 603.832Z" fill="#1A135A"/>
<rect width="244" height="88" transform="translate(1072 560)" fill="#D1EBEE"/>
<path d="M1195.2 603.832L1199.26 610H1196.59L1193.93 605.536L1191.12 610H1188.53L1192.68 603.808L1188.79 597.808H1191.46L1194 602.104L1196.62 597.808H1199.26L1195.2 603.832Z" fill="#1A135A"/>
<rect width="244" height="88" transform="translate(1340 560)" fill="#D1EBEE"/>
<path d="M1463.2 603.832L1467.26 610H1464.59L1461.93 605.536L1459.12 610H1456.53L1460.68 603.808L1456.79 597.808H1459.46L1462 602.104L1464.62 597.808H1467.26L1463.2 603.832Z" fill="#1A135A"/>
<rect width="242" height="88" transform="translate(0 112)" fill="#E8E7F0"/>
<path d="M76.1415 162L77.3895 145.824H80.3175L82.4775 151.728C82.8615 152.736 83.2455 153.808 83.6295 154.944C84.0135 156.064 84.3015 156.936 84.4935 157.56L84.8055 158.496C85.5415 156.32 86.3495 154.064 87.2295 151.728L89.4855 145.824H92.4135L93.9015 162H91.4535L90.8775 155.664L90.3735 149.184C89.6535 151.216 88.8695 153.376 88.0215 155.664L85.7655 161.688H83.8215L81.6375 155.664L79.4535 149.28C79.4535 149.984 79.3255 152.112 79.0695 155.664L78.5895 162H76.1415ZM100.457 161.736L95.6094 149.832H98.2254L99.7374 153.792L101.633 158.928C101.777 158.448 102.353 156.736 103.361 153.792L104.729 149.832H107.225L102.833 161.664C101.665 164.784 99.8814 166.344 97.4814 166.344C97.0494 166.344 96.6814 166.304 96.3774 166.224V164.208C96.6334 164.272 96.9054 164.304 97.1934 164.304C98.7454 164.304 99.8334 163.448 100.457 161.736ZM116.127 150.24V152.376C115.343 151.912 114.335 151.68 113.103 151.68C112.543 151.68 112.095 151.808 111.759 152.064C111.439 152.32 111.279 152.656 111.279 153.072C111.279 153.184 111.287 153.296 111.303 153.408C111.335 153.504 111.383 153.608 111.447 153.72C111.511 153.816 111.567 153.904 111.615 153.984C111.679 154.048 111.775 154.12 111.903 154.2C112.031 154.28 112.127 154.352 112.191 154.416C112.271 154.464 112.391 154.528 112.551 154.608C112.727 154.688 112.855 154.752 112.935 154.8C113.015 154.832 113.151 154.896 113.343 154.992C113.551 155.072 113.695 155.128 113.775 155.16C114.719 155.576 115.455 156.048 115.983 156.576C116.527 157.088 116.799 157.776 116.799 158.64C116.799 159.728 116.415 160.584 115.647 161.208C114.879 161.816 113.839 162.12 112.527 162.12C111.087 162.12 109.887 161.88 108.927 161.4V159.168C110.047 159.856 111.207 160.2 112.407 160.2C113.031 160.2 113.511 160.072 113.847 159.816C114.199 159.56 114.375 159.224 114.375 158.808C114.375 158.456 114.239 158.144 113.967 157.872C113.695 157.584 113.415 157.376 113.127 157.248C112.855 157.104 112.383 156.888 111.711 156.6C109.807 155.816 108.855 154.664 108.855 153.144C108.855 152.072 109.255 151.232 110.055 150.624C110.855 150.016 111.855 149.712 113.055 149.712C114.367 149.712 115.391 149.888 116.127 150.24ZM124.862 160.104C125.806 160.104 126.582 159.736 127.19 159C127.798 158.248 128.102 157.2 128.102 155.856C128.102 154.592 127.806 153.592 127.214 152.856C126.622 152.104 125.87 151.728 124.958 151.728C124.046 151.728 123.254 152.064 122.582 152.736C121.926 153.392 121.598 154.44 121.598 155.88C121.598 157.288 121.926 158.344 122.582 159.048C123.254 159.752 124.014 160.104 124.862 160.104ZM121.598 149.832V151.704C122.43 150.344 123.678 149.664 125.342 149.664C126.942 149.664 128.206 150.248 129.134 151.416C130.062 152.568 130.526 154.04 130.526 155.832C130.526 157.672 130.046 159.192 129.086 160.392C128.142 161.576 126.878 162.168 125.294 162.168C123.678 162.168 122.446 161.496 121.598 160.152V166.656H119.246V149.832H121.598ZM139.576 156.576H137.752C136.856 156.576 136.176 156.752 135.712 157.104C135.264 157.456 135.04 157.904 135.04 158.448C135.04 159.008 135.216 159.448 135.568 159.768C135.92 160.088 136.432 160.248 137.104 160.248C137.872 160.248 138.472 160.04 138.904 159.624C139.352 159.192 139.576 158.632 139.576 157.944V156.576ZM133.456 152.736V150.456C134.4 149.912 135.648 149.64 137.2 149.64C140.384 149.64 141.976 151.184 141.976 154.272V162H139.648V160.56C139.024 161.584 137.928 162.096 136.36 162.096C135.208 162.096 134.28 161.768 133.576 161.112C132.888 160.44 132.544 159.592 132.544 158.568C132.544 157.4 132.984 156.496 133.864 155.856C134.744 155.2 135.976 154.872 137.56 154.872H139.576V154.176C139.576 153.344 139.376 152.72 138.976 152.304C138.576 151.872 137.912 151.656 136.984 151.656C135.688 151.656 134.512 152.016 133.456 152.736ZM146.896 155.976C146.928 157.208 147.304 158.224 148.024 159.024C148.744 159.808 149.752 160.2 151.048 160.2C152.008 160.2 152.904 159.936 153.736 159.408V161.52C152.952 162 151.952 162.24 150.736 162.24C148.832 162.24 147.312 161.64 146.176 160.44C145.04 159.24 144.472 157.744 144.472 155.952C144.472 154.208 145.04 152.72 146.176 151.488C147.328 150.24 148.88 149.616 150.832 149.616C151.888 149.616 152.856 149.84 153.736 150.288V152.448C152.952 151.952 152.064 151.704 151.072 151.704C149.808 151.704 148.792 152.104 148.024 152.904C147.272 153.704 146.896 154.728 146.896 155.976ZM164.001 155.04V154.608C163.969 153.696 163.721 152.976 163.257 152.448C162.793 151.904 162.129 151.632 161.265 151.632C160.465 151.632 159.777 151.928 159.201 152.52C158.625 153.096 158.265 153.936 158.121 155.04H164.001ZM165.513 159.24V161.352C164.617 161.864 163.433 162.12 161.961 162.12C160.073 162.12 158.569 161.552 157.449 160.416C156.329 159.28 155.769 157.792 155.769 155.952C155.769 154 156.281 152.472 157.305 151.368C158.329 150.248 159.633 149.688 161.217 149.688C162.769 149.688 164.001 150.176 164.913 151.152C165.825 152.112 166.281 153.504 166.281 155.328C166.281 155.824 166.233 156.344 166.137 156.888H158.145C158.305 157.944 158.753 158.752 159.489 159.312C160.225 159.872 161.153 160.152 162.273 160.152C163.569 160.152 164.649 159.848 165.513 159.24Z" fill="#1A135A"/>
<rect width="242" height="88" transform="translate(0 224)" fill="#E8E7F0"/>
<path d="M76.4669 243.888H69.7709V249.192H75.6509V251.256H69.7709V258H67.2989V241.824H76.4669V243.888ZM85.4703 252.576H83.6463C82.7503 252.576 82.0703 252.752 81.6063 253.104C81.1583 253.456 80.9342 253.904 80.9342 254.448C80.9342 255.008 81.1103 255.448 81.4623 255.768C81.8143 256.088 82.3263 256.248 82.9983 256.248C83.7663 256.248 84.3663 256.04 84.7983 255.624C85.2463 255.192 85.4703 254.632 85.4703 253.944V252.576ZM79.3503 248.736V246.456C80.2943 245.912 81.5423 245.64 83.0943 245.64C86.2783 245.64 87.8703 247.184 87.8703 250.272V258H85.5423V256.56C84.9183 257.584 83.8223 258.096 82.2543 258.096C81.1023 258.096 80.1743 257.768 79.4703 257.112C78.7823 256.44 78.4383 255.592 78.4383 254.568C78.4383 253.4 78.8783 252.496 79.7583 251.856C80.6383 251.2 81.8703 250.872 83.4543 250.872H85.4703V250.176C85.4703 249.344 85.2703 248.72 84.8703 248.304C84.4703 247.872 83.8063 247.656 82.8783 247.656C81.5823 247.656 80.4062 248.016 79.3503 248.736ZM92.7908 251.976C92.8228 253.208 93.1988 254.224 93.9188 255.024C94.6388 255.808 95.6468 256.2 96.9428 256.2C97.9028 256.2 98.7988 255.936 99.6308 255.408V257.52C98.8468 258 97.8468 258.24 96.6308 258.24C94.7268 258.24 93.2068 257.64 92.0708 256.44C90.9348 255.24 90.3668 253.744 90.3668 251.952C90.3668 250.208 90.9348 248.72 92.0708 247.488C93.2228 246.24 94.7748 245.616 96.7268 245.616C97.7828 245.616 98.7508 245.84 99.6308 246.288V248.448C98.8468 247.952 97.9588 247.704 96.9668 247.704C95.7028 247.704 94.6868 248.104 93.9188 248.904C93.1668 249.704 92.7908 250.728 92.7908 251.976ZM109.896 251.04V250.608C109.864 249.696 109.616 248.976 109.152 248.448C108.688 247.904 108.024 247.632 107.16 247.632C106.36 247.632 105.672 247.928 105.096 248.52C104.52 249.096 104.16 249.936 104.016 251.04H109.896ZM111.408 255.24V257.352C110.512 257.864 109.328 258.12 107.856 258.12C105.968 258.12 104.464 257.552 103.344 256.416C102.224 255.28 101.664 253.792 101.664 251.952C101.664 250 102.176 248.472 103.2 247.368C104.224 246.248 105.528 245.688 107.112 245.688C108.664 245.688 109.896 246.176 110.808 247.152C111.72 248.112 112.176 249.504 112.176 251.328C112.176 251.824 112.128 252.344 112.032 252.888H104.04C104.2 253.944 104.648 254.752 105.384 255.312C106.12 255.872 107.048 256.152 108.168 256.152C109.464 256.152 110.544 255.848 111.408 255.24ZM120.681 256.104C121.577 256.104 122.329 255.728 122.937 254.976C123.545 254.208 123.849 253.224 123.849 252.024C123.849 250.648 123.545 249.592 122.937 248.856C122.329 248.104 121.553 247.728 120.609 247.728C119.777 247.728 119.025 248.064 118.353 248.736C117.697 249.408 117.369 250.44 117.369 251.832C117.369 253.272 117.689 254.344 118.329 255.048C118.969 255.752 119.753 256.104 120.681 256.104ZM117.369 241.032V247.68C118.233 246.336 119.457 245.664 121.041 245.664C122.577 245.664 123.833 246.24 124.809 247.392C125.785 248.544 126.273 250.072 126.273 251.976C126.273 253.688 125.809 255.152 124.881 256.368C123.953 257.568 122.681 258.168 121.065 258.168C119.449 258.168 118.217 257.496 117.369 256.152V258H114.993V241.032H117.369ZM134.002 258.216C132.21 258.216 130.802 257.632 129.778 256.464C128.754 255.296 128.242 253.816 128.242 252.024C128.242 250.2 128.77 248.688 129.826 247.488C130.882 246.272 132.274 245.664 134.002 245.664C135.858 245.664 137.29 246.256 138.298 247.44C139.306 248.608 139.81 250.104 139.81 251.928C139.81 253.752 139.29 255.256 138.25 256.44C137.226 257.624 135.81 258.216 134.002 258.216ZM133.978 247.656C132.938 247.656 132.13 248.072 131.554 248.904C130.978 249.72 130.69 250.736 130.69 251.952C130.69 253.152 130.986 254.168 131.578 255C132.17 255.816 132.978 256.224 134.002 256.224C135.09 256.224 135.914 255.824 136.474 255.024C137.05 254.224 137.338 253.208 137.338 251.976C137.338 250.712 137.066 249.68 136.522 248.88C135.978 248.064 135.13 247.656 133.978 247.656ZM147.549 258.216C145.757 258.216 144.349 257.632 143.325 256.464C142.301 255.296 141.789 253.816 141.789 252.024C141.789 250.2 142.317 248.688 143.373 247.488C144.429 246.272 145.821 245.664 147.549 245.664C149.405 245.664 150.837 246.256 151.845 247.44C152.853 248.608 153.357 250.104 153.357 251.928C153.357 253.752 152.837 255.256 151.797 256.44C150.773 257.624 149.357 258.216 147.549 258.216ZM147.525 247.656C146.485 247.656 145.677 248.072 145.101 248.904C144.525 249.72 144.237 250.736 144.237 251.952C144.237 253.152 144.533 254.168 145.125 255C145.717 255.816 146.525 256.224 147.549 256.224C148.637 256.224 149.461 255.824 150.021 255.024C150.597 254.224 150.885 253.208 150.885 251.976C150.885 250.712 150.613 249.68 150.069 248.88C149.525 248.064 148.677 247.656 147.525 247.656ZM156.008 258V241.2H158.36V258H156.008ZM161.168 251.64L165.944 258H163.136L158.456 251.64L163.04 245.832H165.8L161.168 251.64ZM166.184 260.448L174.896 241.032H177.32L168.608 260.448H166.184ZM70.9479 290V273.824H73.3959V290H70.9479ZM79.34 277.832V279.92C80.06 278.416 81.324 277.664 83.132 277.664C84.332 277.664 85.284 278.032 85.988 278.768C86.692 279.504 87.044 280.504 87.044 281.768V290H84.692V282.32C84.692 281.472 84.476 280.824 84.044 280.376C83.628 279.928 83.068 279.704 82.364 279.704C81.532 279.704 80.82 280.032 80.228 280.688C79.636 281.328 79.34 282.232 79.34 283.4V290H76.988V277.832H79.34ZM97.1428 278.24V280.376C96.3588 279.912 95.3508 279.68 94.1188 279.68C93.5588 279.68 93.1108 279.808 92.7748 280.064C92.4548 280.32 92.2948 280.656 92.2948 281.072C92.2948 281.184 92.3028 281.296 92.3188 281.408C92.3508 281.504 92.3988 281.608 92.4628 281.72C92.5268 281.816 92.5828 281.904 92.6308 281.984C92.6948 282.048 92.7908 282.12 92.9188 282.2C93.0468 282.28 93.1428 282.352 93.2068 282.416C93.2868 282.464 93.4068 282.528 93.5668 282.608C93.7428 282.688 93.8708 282.752 93.9508 282.8C94.0308 282.832 94.1668 282.896 94.3588 282.992C94.5668 283.072 94.7108 283.128 94.7908 283.16C95.7348 283.576 96.4708 284.048 96.9988 284.576C97.5428 285.088 97.8148 285.776 97.8148 286.64C97.8148 287.728 97.4308 288.584 96.6628 289.208C95.8948 289.816 94.8548 290.12 93.5428 290.12C92.1028 290.12 90.9028 289.88 89.9428 289.4V287.168C91.0628 287.856 92.2228 288.2 93.4228 288.2C94.0468 288.2 94.5268 288.072 94.8628 287.816C95.2148 287.56 95.3908 287.224 95.3908 286.808C95.3908 286.456 95.2548 286.144 94.9828 285.872C94.7108 285.584 94.4308 285.376 94.1428 285.248C93.8708 285.104 93.3988 284.888 92.7268 284.6C90.8228 283.816 89.8708 282.664 89.8708 281.144C89.8708 280.072 90.2708 279.232 91.0708 278.624C91.8708 278.016 92.8708 277.712 94.0708 277.712C95.3828 277.712 96.4068 277.888 97.1428 278.24ZM103.309 279.656V286.352C103.309 287.52 103.869 288.104 104.989 288.104C105.645 288.104 106.197 287.928 106.645 287.576V289.688C106.117 289.976 105.469 290.12 104.701 290.12C102.189 290.12 100.933 288.848 100.933 286.304V279.656H99.0375V277.832H100.933V274.856H103.309V277.832H106.501V279.656H103.309ZM115.646 284.576H113.822C112.926 284.576 112.246 284.752 111.782 285.104C111.334 285.456 111.11 285.904 111.11 286.448C111.11 287.008 111.286 287.448 111.638 287.768C111.99 288.088 112.502 288.248 113.174 288.248C113.942 288.248 114.542 288.04 114.974 287.624C115.422 287.192 115.646 286.632 115.646 285.944V284.576ZM109.526 280.736V278.456C110.47 277.912 111.718 277.64 113.27 277.64C116.454 277.64 118.046 279.184 118.046 282.272V290H115.718V288.56C115.094 289.584 113.998 290.096 112.43 290.096C111.278 290.096 110.35 289.768 109.646 289.112C108.958 288.44 108.614 287.592 108.614 286.568C108.614 285.4 109.054 284.496 109.934 283.856C110.814 283.2 112.046 282.872 113.63 282.872H115.646V282.176C115.646 281.344 115.446 280.72 115.046 280.304C114.646 279.872 113.982 279.656 113.054 279.656C111.758 279.656 110.582 280.016 109.526 280.736ZM126.015 287.648C126.847 287.648 127.567 287.328 128.175 286.688C128.799 286.032 129.111 285.12 129.111 283.952C129.111 282.512 128.815 281.448 128.223 280.76C127.647 280.072 126.943 279.728 126.111 279.728C125.167 279.728 124.423 280.104 123.879 280.856C123.335 281.592 123.063 282.568 123.063 283.784C123.063 285.048 123.351 286.008 123.927 286.664C124.519 287.32 125.215 287.648 126.015 287.648ZM129.111 277.832H131.463V288.968C131.463 290.84 130.927 292.248 129.855 293.192C128.799 294.152 127.439 294.632 125.775 294.632C124.207 294.632 122.887 294.368 121.815 293.84V291.464C122.839 292.136 124.079 292.472 125.535 292.472C127.919 292.472 129.111 291.296 129.111 288.944V287.696C128.327 289.008 127.151 289.664 125.583 289.664C124.207 289.664 123.031 289.16 122.055 288.152C121.079 287.128 120.591 285.688 120.591 283.832C120.591 282.04 121.047 280.568 121.959 279.416C122.871 278.248 124.079 277.664 125.583 277.664C127.199 277.664 128.375 278.352 129.111 279.728V277.832ZM136.973 277.832V279.968C137.565 278.464 138.629 277.712 140.165 277.712C140.389 277.712 140.637 277.736 140.909 277.784V280.088C140.573 279.944 140.197 279.872 139.781 279.872C138.965 279.872 138.293 280.232 137.765 280.952C137.237 281.672 136.973 282.528 136.973 283.52V290H134.621V277.832H136.973ZM149.162 284.576H147.338C146.442 284.576 145.762 284.752 145.298 285.104C144.85 285.456 144.626 285.904 144.626 286.448C144.626 287.008 144.802 287.448 145.154 287.768C145.506 288.088 146.018 288.248 146.69 288.248C147.458 288.248 148.058 288.04 148.49 287.624C148.938 287.192 149.162 286.632 149.162 285.944V284.576ZM143.042 280.736V278.456C143.986 277.912 145.234 277.64 146.786 277.64C149.97 277.64 151.562 279.184 151.562 282.272V290H149.234V288.56C148.61 289.584 147.514 290.096 145.946 290.096C144.794 290.096 143.866 289.768 143.162 289.112C142.474 288.44 142.13 287.592 142.13 286.568C142.13 285.4 142.57 284.496 143.45 283.856C144.33 283.2 145.562 282.872 147.146 282.872H149.162V282.176C149.162 281.344 148.962 280.72 148.562 280.304C148.162 279.872 147.498 279.656 146.57 279.656C145.274 279.656 144.098 280.016 143.042 280.736ZM157.082 277.832V279.776C157.77 278.368 158.914 277.664 160.514 277.664C162.338 277.664 163.506 278.448 164.018 280.016C164.354 279.264 164.842 278.688 165.482 278.288C166.122 277.872 166.842 277.664 167.642 277.664C168.89 277.664 169.834 278.032 170.474 278.768C171.13 279.504 171.458 280.52 171.458 281.816V290H169.106V282.32C169.106 280.576 168.402 279.704 166.994 279.704C166.29 279.704 165.658 280.016 165.098 280.64C164.554 281.264 164.282 282.184 164.282 283.4V290H161.93V282.32C161.93 280.576 161.218 279.704 159.794 279.704C159.106 279.704 158.482 280.016 157.922 280.64C157.362 281.264 157.082 282.184 157.082 283.4V290H154.73V277.832H157.082Z" fill="#1A135A"/>
<rect width="242" height="88" transform="translate(0 336)" fill="#E8E7F0"/>
<path d="M82.9372 370.472V372.92C81.8652 372.248 80.6492 371.912 79.2892 371.912C78.4092 371.912 77.7132 372.112 77.2012 372.512C76.7052 372.896 76.4572 373.408 76.4572 374.048C76.4572 374.688 76.7052 375.2 77.2012 375.584C77.6972 375.968 78.4572 376.384 79.4812 376.832C80.1532 377.12 80.6732 377.368 81.0412 377.576C81.4252 377.784 81.8572 378.08 82.3372 378.464C82.8332 378.832 83.1932 379.28 83.4172 379.808C83.6572 380.32 83.7772 380.912 83.7772 381.584C83.7772 383.008 83.2732 384.128 82.2652 384.944C81.2572 385.76 79.9532 386.168 78.3532 386.168C76.5772 386.168 75.1052 385.824 73.9372 385.136V382.568C75.2012 383.512 76.6652 383.984 78.3292 383.984C79.2092 383.984 79.9052 383.784 80.4172 383.384C80.9292 382.968 81.1852 382.4 81.1852 381.68C81.1852 381.248 81.0332 380.856 80.7292 380.504C80.4252 380.136 80.0972 379.864 79.7452 379.688C79.3932 379.496 78.8652 379.24 78.1612 378.92C77.7452 378.728 77.4492 378.592 77.2732 378.512C77.1132 378.432 76.8412 378.288 76.4572 378.08C76.0732 377.872 75.7852 377.696 75.5932 377.552C75.4172 377.408 75.1932 377.208 74.9212 376.952C74.6492 376.696 74.4492 376.44 74.3212 376.184C74.2092 375.928 74.0972 375.632 73.9852 375.296C73.8892 374.944 73.8412 374.568 73.8412 374.168C73.8412 372.792 74.3372 371.704 75.3292 370.904C76.3372 370.104 77.6332 369.704 79.2172 369.704C80.6732 369.704 81.9132 369.96 82.9372 370.472ZM88.9728 373.832V375.92C89.6928 374.416 90.9568 373.664 92.7648 373.664C93.9648 373.664 94.9168 374.032 95.6208 374.768C96.3248 375.504 96.6768 376.504 96.6768 377.768V386H94.3248V378.32C94.3248 377.472 94.1088 376.824 93.6768 376.376C93.2608 375.928 92.7008 375.704 91.9968 375.704C91.1648 375.704 90.4528 376.032 89.8608 376.688C89.2688 377.328 88.9728 378.232 88.9728 379.4V386H86.6208V373.832H88.9728ZM106.248 380.576H104.424C103.528 380.576 102.848 380.752 102.384 381.104C101.936 381.456 101.712 381.904 101.712 382.448C101.712 383.008 101.888 383.448 102.24 383.768C102.592 384.088 103.104 384.248 103.776 384.248C104.544 384.248 105.144 384.04 105.576 383.624C106.024 383.192 106.248 382.632 106.248 381.944V380.576ZM100.128 376.736V374.456C101.072 373.912 102.32 373.64 103.872 373.64C107.056 373.64 108.648 375.184 108.648 378.272V386H106.32V384.56C105.696 385.584 104.6 386.096 103.032 386.096C101.88 386.096 100.952 385.768 100.248 385.112C99.5596 384.44 99.2156 383.592 99.2156 382.568C99.2156 381.4 99.6556 380.496 100.536 379.856C101.416 379.2 102.648 378.872 104.232 378.872H106.248V378.176C106.248 377.344 106.048 376.72 105.648 376.304C105.248 375.872 104.584 375.656 103.656 375.656C102.36 375.656 101.184 376.016 100.128 376.736ZM117.432 384.104C118.376 384.104 119.152 383.736 119.76 383C120.368 382.248 120.672 381.2 120.672 379.856C120.672 378.592 120.376 377.592 119.784 376.856C119.192 376.104 118.44 375.728 117.528 375.728C116.616 375.728 115.824 376.064 115.152 376.736C114.496 377.392 114.168 378.44 114.168 379.88C114.168 381.288 114.496 382.344 115.152 383.048C115.824 383.752 116.584 384.104 117.432 384.104ZM114.168 373.832V375.704C115 374.344 116.248 373.664 117.912 373.664C119.512 373.664 120.776 374.248 121.704 375.416C122.632 376.568 123.096 378.04 123.096 379.832C123.096 381.672 122.616 383.192 121.656 384.392C120.712 385.576 119.448 386.168 117.864 386.168C116.248 386.168 115.016 385.496 114.168 384.152V390.656H111.816V373.832H114.168ZM127.49 379.976C127.522 381.208 127.898 382.224 128.618 383.024C129.338 383.808 130.346 384.2 131.642 384.2C132.602 384.2 133.498 383.936 134.33 383.408V385.52C133.546 386 132.546 386.24 131.33 386.24C129.426 386.24 127.906 385.64 126.77 384.44C125.634 383.24 125.066 381.744 125.066 379.952C125.066 378.208 125.634 376.72 126.77 375.488C127.922 374.24 129.474 373.616 131.426 373.616C132.482 373.616 133.45 373.84 134.33 374.288V376.448C133.546 375.952 132.658 375.704 131.666 375.704C130.402 375.704 129.386 376.104 128.618 376.904C127.866 377.704 127.49 378.728 127.49 379.976ZM139.387 369.032V375.92C140.075 374.416 141.331 373.664 143.155 373.664C144.339 373.664 145.291 374.032 146.011 374.768C146.731 375.504 147.091 376.528 147.091 377.84V386H144.739V378.32C144.739 377.488 144.523 376.848 144.091 376.4C143.675 375.936 143.123 375.704 142.435 375.704C141.635 375.704 140.923 376.008 140.299 376.616C139.691 377.224 139.387 378.152 139.387 379.4V386H137.035V369.032H139.387ZM156.662 380.576H154.838C153.942 380.576 153.262 380.752 152.798 381.104C152.35 381.456 152.126 381.904 152.126 382.448C152.126 383.008 152.302 383.448 152.654 383.768C153.006 384.088 153.518 384.248 154.19 384.248C154.958 384.248 155.558 384.04 155.99 383.624C156.438 383.192 156.662 382.632 156.662 381.944V380.576ZM150.542 376.736V374.456C151.486 373.912 152.734 373.64 154.286 373.64C157.47 373.64 159.062 375.184 159.062 378.272V386H156.734V384.56C156.11 385.584 155.014 386.096 153.446 386.096C152.294 386.096 151.366 385.768 150.662 385.112C149.974 384.44 149.63 383.592 149.63 382.568C149.63 381.4 150.07 380.496 150.95 379.856C151.83 379.2 153.062 378.872 154.646 378.872H156.662V378.176C156.662 377.344 156.462 376.72 156.062 376.304C155.662 375.872 154.998 375.656 154.07 375.656C152.774 375.656 151.598 376.016 150.542 376.736ZM165.278 375.656V382.352C165.278 383.52 165.838 384.104 166.958 384.104C167.614 384.104 168.166 383.928 168.614 383.576V385.688C168.086 385.976 167.438 386.12 166.67 386.12C164.158 386.12 162.902 384.848 162.902 382.304V375.656H161.006V373.832H162.902V370.856H165.278V373.832H168.47V375.656H165.278Z" fill="#1A135A"/>
<rect width="242" height="88" transform="translate(0 448)" fill="#E8E7F0"/>
<path d="M58.8733 488.76V496.512H58.8493L58.8733 496.68C57.4813 497.688 55.7373 498.192 53.6413 498.192C51.1133 498.192 49.0733 497.448 47.5213 495.96C45.9853 494.472 45.2173 492.448 45.2173 489.888C45.2173 487.408 45.9933 485.4 47.5453 483.864C49.1133 482.312 51.0973 481.536 53.4973 481.536C55.3693 481.536 56.9373 481.896 58.2013 482.616V485.16C56.8253 484.296 55.2893 483.864 53.5933 483.864C51.8653 483.864 50.4653 484.416 49.3933 485.52C48.3373 486.624 47.8093 488.08 47.8093 489.888C47.8093 491.744 48.3293 493.208 49.3693 494.28C50.4253 495.352 51.8733 495.888 53.7133 495.888C54.6733 495.888 55.5853 495.712 56.4493 495.36V490.896H53.1613V488.76H58.8733ZM67.1932 498.216C65.4012 498.216 63.9932 497.632 62.9692 496.464C61.9452 495.296 61.4332 493.816 61.4332 492.024C61.4332 490.2 61.9612 488.688 63.0172 487.488C64.0732 486.272 65.4652 485.664 67.1932 485.664C69.0492 485.664 70.4812 486.256 71.4892 487.44C72.4972 488.608 73.0012 490.104 73.0012 491.928C73.0012 493.752 72.4812 495.256 71.4412 496.44C70.4172 497.624 69.0012 498.216 67.1932 498.216ZM67.1692 487.656C66.1292 487.656 65.3212 488.072 64.7452 488.904C64.1692 489.72 63.8812 490.736 63.8812 491.952C63.8812 493.152 64.1772 494.168 64.7692 495C65.3612 495.816 66.1692 496.224 67.1932 496.224C68.2812 496.224 69.1052 495.824 69.6652 495.024C70.2412 494.224 70.5292 493.208 70.5292 491.976C70.5292 490.712 70.2572 489.68 69.7132 488.88C69.1692 488.064 68.3212 487.656 67.1692 487.656ZM80.7401 498.216C78.9481 498.216 77.5401 497.632 76.5161 496.464C75.4921 495.296 74.9801 493.816 74.9801 492.024C74.9801 490.2 75.5081 488.688 76.5641 487.488C77.6201 486.272 79.0121 485.664 80.7401 485.664C82.5961 485.664 84.0281 486.256 85.0361 487.44C86.0441 488.608 86.5481 490.104 86.5481 491.928C86.5481 493.752 86.0281 495.256 84.9881 496.44C83.9641 497.624 82.5481 498.216 80.7401 498.216ZM80.7161 487.656C79.6761 487.656 78.8681 488.072 78.2921 488.904C77.7161 489.72 77.4281 490.736 77.4281 491.952C77.4281 493.152 77.7241 494.168 78.3161 495C78.9081 495.816 79.7161 496.224 80.7401 496.224C81.8281 496.224 82.6521 495.824 83.2121 495.024C83.7881 494.224 84.0761 493.208 84.0761 491.976C84.0761 490.712 83.8041 489.68 83.2601 488.88C82.7161 488.064 81.8681 487.656 80.7161 487.656ZM93.999 495.648C94.831 495.648 95.551 495.328 96.159 494.688C96.783 494.032 97.095 493.12 97.095 491.952C97.095 490.512 96.799 489.448 96.207 488.76C95.631 488.072 94.927 487.728 94.095 487.728C93.151 487.728 92.407 488.104 91.863 488.856C91.319 489.592 91.047 490.568 91.047 491.784C91.047 493.048 91.335 494.008 91.911 494.664C92.503 495.32 93.199 495.648 93.999 495.648ZM97.095 485.832H99.447V496.968C99.447 498.84 98.911 500.248 97.839 501.192C96.783 502.152 95.423 502.632 93.759 502.632C92.191 502.632 90.871 502.368 89.799 501.84V499.464C90.823 500.136 92.063 500.472 93.519 500.472C95.903 500.472 97.095 499.296 97.095 496.944V495.696C96.311 497.008 95.135 497.664 93.567 497.664C92.191 497.664 91.015 497.16 90.039 496.152C89.063 495.128 88.575 493.688 88.575 491.832C88.575 490.04 89.031 488.568 89.943 487.416C90.855 486.248 92.063 485.664 93.567 485.664C95.183 485.664 96.359 486.352 97.095 487.728V485.832ZM102.701 498V481.032H105.077V498H102.701ZM116.048 491.04V490.608C116.016 489.696 115.768 488.976 115.304 488.448C114.84 487.904 114.176 487.632 113.312 487.632C112.512 487.632 111.824 487.928 111.248 488.52C110.672 489.096 110.312 489.936 110.168 491.04H116.048ZM117.56 495.24V497.352C116.664 497.864 115.48 498.12 114.008 498.12C112.12 498.12 110.616 497.552 109.496 496.416C108.376 495.28 107.816 493.792 107.816 491.952C107.816 490 108.328 488.472 109.352 487.368C110.376 486.248 111.68 485.688 113.264 485.688C114.816 485.688 116.048 486.176 116.96 487.152C117.872 488.112 118.328 489.504 118.328 491.328C118.328 491.824 118.28 492.344 118.184 492.888H110.192C110.352 493.944 110.8 494.752 111.536 495.312C112.272 495.872 113.2 496.152 114.32 496.152C115.616 496.152 116.696 495.848 117.56 495.24ZM129.572 490.224H131.684C132.852 490.224 133.74 489.936 134.348 489.36C134.972 488.784 135.284 488.024 135.284 487.08C135.284 486.088 134.972 485.304 134.348 484.728C133.724 484.152 132.82 483.864 131.636 483.864H129.572V490.224ZM127.1 481.824H131.732C133.588 481.824 135.06 482.32 136.148 483.312C137.236 484.288 137.78 485.544 137.78 487.08C137.78 488.616 137.228 489.864 136.124 490.824C135.036 491.784 133.62 492.264 131.876 492.264H129.572V498H127.1V481.824ZM142.551 481.032V487.92C143.239 486.416 144.495 485.664 146.319 485.664C147.503 485.664 148.455 486.032 149.175 486.768C149.895 487.504 150.255 488.528 150.255 489.84V498H147.903V490.32C147.903 489.488 147.687 488.848 147.255 488.4C146.839 487.936 146.287 487.704 145.599 487.704C144.799 487.704 144.087 488.008 143.463 488.616C142.855 489.224 142.551 490.152 142.551 491.4V498H140.199V481.032H142.551ZM158.506 498.216C156.714 498.216 155.306 497.632 154.282 496.464C153.258 495.296 152.746 493.816 152.746 492.024C152.746 490.2 153.274 488.688 154.33 487.488C155.386 486.272 156.778 485.664 158.506 485.664C160.362 485.664 161.794 486.256 162.802 487.44C163.81 488.608 164.314 490.104 164.314 491.928C164.314 493.752 163.794 495.256 162.754 496.44C161.73 497.624 160.314 498.216 158.506 498.216ZM158.482 487.656C157.442 487.656 156.634 488.072 156.058 488.904C155.482 489.72 155.194 490.736 155.194 491.952C155.194 493.152 155.49 494.168 156.082 495C156.674 495.816 157.482 496.224 158.506 496.224C159.594 496.224 160.418 495.824 160.978 495.024C161.554 494.224 161.842 493.208 161.842 491.976C161.842 490.712 161.57 489.68 161.026 488.88C160.482 488.064 159.634 487.656 158.482 487.656ZM170.013 487.656V494.352C170.013 495.52 170.573 496.104 171.693 496.104C172.349 496.104 172.901 495.928 173.349 495.576V497.688C172.821 497.976 172.173 498.12 171.405 498.12C168.893 498.12 167.637 496.848 167.637 494.304V487.656H165.741V485.832H167.637V482.856H170.013V485.832H173.205V487.656H170.013ZM181.029 498.216C179.237 498.216 177.829 497.632 176.805 496.464C175.781 495.296 175.269 493.816 175.269 492.024C175.269 490.2 175.797 488.688 176.853 487.488C177.909 486.272 179.301 485.664 181.029 485.664C182.885 485.664 184.317 486.256 185.325 487.44C186.333 488.608 186.837 490.104 186.837 491.928C186.837 493.752 186.317 495.256 185.277 496.44C184.253 497.624 182.837 498.216 181.029 498.216ZM181.005 487.656C179.965 487.656 179.157 488.072 178.581 488.904C178.005 489.72 177.717 490.736 177.717 491.952C177.717 493.152 178.013 494.168 178.605 495C179.197 495.816 180.005 496.224 181.029 496.224C182.117 496.224 182.941 495.824 183.501 495.024C184.077 494.224 184.365 493.208 184.365 491.976C184.365 490.712 184.093 489.68 183.549 488.88C183.005 488.064 182.157 487.656 181.005 487.656ZM196.424 486.24V488.376C195.64 487.912 194.632 487.68 193.4 487.68C192.84 487.68 192.392 487.808 192.056 488.064C191.736 488.32 191.576 488.656 191.576 489.072C191.576 489.184 191.584 489.296 191.6 489.408C191.632 489.504 191.68 489.608 191.744 489.72C191.808 489.816 191.864 489.904 191.912 489.984C191.976 490.048 192.072 490.12 192.2 490.2C192.328 490.28 192.424 490.352 192.488 490.416C192.568 490.464 192.688 490.528 192.848 490.608C193.024 490.688 193.152 490.752 193.232 490.8C193.312 490.832 193.448 490.896 193.64 490.992C193.848 491.072 193.992 491.128 194.072 491.16C195.016 491.576 195.752 492.048 196.28 492.576C196.824 493.088 197.096 493.776 197.096 494.64C197.096 495.728 196.712 496.584 195.944 497.208C195.176 497.816 194.136 498.12 192.824 498.12C191.384 498.12 190.184 497.88 189.224 497.4V495.168C190.344 495.856 191.504 496.2 192.704 496.2C193.328 496.2 193.808 496.072 194.144 495.816C194.496 495.56 194.672 495.224 194.672 494.808C194.672 494.456 194.536 494.144 194.264 493.872C193.992 493.584 193.712 493.376 193.424 493.248C193.152 493.104 192.68 492.888 192.008 492.6C190.104 491.816 189.152 490.664 189.152 489.144C189.152 488.072 189.552 487.232 190.352 486.624C191.152 486.016 192.152 485.712 193.352 485.712C194.664 485.712 195.688 485.888 196.424 486.24Z" fill="#1A135A"/>
<rect width="242" height="88" transform="translate(0 560)" fill="#E8E7F0"/>
<path d="M88.8021 602.224H90.9141C92.0821 602.224 92.9701 601.936 93.5781 601.36C94.2021 600.784 94.5141 600.024 94.5141 599.08C94.5141 598.088 94.2021 597.304 93.5781 596.728C92.9541 596.152 92.0501 595.864 90.8661 595.864H88.8021V602.224ZM86.3301 593.824H90.9621C92.8181 593.824 94.2901 594.32 95.3781 595.312C96.4661 596.288 97.0101 597.544 97.0101 599.08C97.0101 600.616 96.4581 601.864 95.3541 602.824C94.2661 603.784 92.8501 604.264 91.1061 604.264H88.8021V610H86.3301V593.824ZM99.5254 610V597.832H101.901V610H99.5254ZM99.6454 595.168C99.3734 594.88 99.2374 594.528 99.2374 594.112C99.2374 593.696 99.3734 593.344 99.6454 593.056C99.9334 592.768 100.285 592.624 100.701 592.624C101.117 592.624 101.469 592.768 101.757 593.056C102.045 593.344 102.189 593.696 102.189 594.112C102.189 594.512 102.045 594.856 101.757 595.144C101.469 595.432 101.117 595.576 100.701 595.576C100.285 595.576 99.9334 595.44 99.6454 595.168ZM107.064 603.976C107.096 605.208 107.472 606.224 108.192 607.024C108.912 607.808 109.92 608.2 111.216 608.2C112.176 608.2 113.072 607.936 113.904 607.408V609.52C113.12 610 112.12 610.24 110.904 610.24C109 610.24 107.48 609.64 106.344 608.44C105.208 607.24 104.64 605.744 104.64 603.952C104.64 602.208 105.208 600.72 106.344 599.488C107.496 598.24 109.048 597.616 111 597.616C112.056 597.616 113.024 597.84 113.904 598.288V600.448C113.12 599.952 112.232 599.704 111.24 599.704C109.976 599.704 108.96 600.104 108.192 600.904C107.44 601.704 107.064 602.728 107.064 603.976ZM126.425 593.824V595.888H122.177V610H119.705V595.888H115.481V593.824H126.425ZM135.017 604.576H133.193C132.297 604.576 131.617 604.752 131.153 605.104C130.705 605.456 130.481 605.904 130.481 606.448C130.481 607.008 130.657 607.448 131.009 607.768C131.361 608.088 131.873 608.248 132.545 608.248C133.313 608.248 133.913 608.04 134.345 607.624C134.793 607.192 135.017 606.632 135.017 605.944V604.576ZM128.897 600.736V598.456C129.841 597.912 131.089 597.64 132.641 597.64C135.825 597.64 137.417 599.184 137.417 602.272V610H135.089V608.56C134.465 609.584 133.369 610.096 131.801 610.096C130.649 610.096 129.721 609.768 129.017 609.112C128.329 608.44 127.985 607.592 127.985 606.568C127.985 605.4 128.425 604.496 129.305 603.856C130.185 603.2 131.417 602.872 133.001 602.872H135.017V602.176C135.017 601.344 134.817 600.72 134.417 600.304C134.017 599.872 133.353 599.656 132.425 599.656C131.129 599.656 129.953 600.016 128.897 600.736ZM140.682 610V593.032H143.058V610H140.682ZM154.029 603.04V602.608C153.997 601.696 153.749 600.976 153.285 600.448C152.821 599.904 152.157 599.632 151.293 599.632C150.493 599.632 149.805 599.928 149.229 600.52C148.653 601.096 148.293 601.936 148.149 603.04H154.029ZM155.541 607.24V609.352C154.645 609.864 153.461 610.12 151.989 610.12C150.101 610.12 148.597 609.552 147.477 608.416C146.357 607.28 145.797 605.792 145.797 603.952C145.797 602 146.309 600.472 147.333 599.368C148.357 598.248 149.661 597.688 151.245 597.688C152.797 597.688 154.029 598.176 154.941 599.152C155.853 600.112 156.309 601.504 156.309 603.328C156.309 603.824 156.261 604.344 156.165 604.888H148.173C148.333 605.944 148.781 606.752 149.517 607.312C150.253 607.872 151.181 608.152 152.301 608.152C153.597 608.152 154.677 607.848 155.541 607.24Z" fill="#1A135A"/>
</svg>
