<svg width="15" height="16" viewBox="0 0 15 16" fill="none" xmlns="http://www.w3.org/2000/svg">
<g clip-path="url(#clip0_2220_1335)">
<path d="M13.144 7.26575C13.1928 8.74154 12.3391 10.0782 11.0378 10.6795C10.9339 10.8519 10.8197 11.0212 10.6951 11.1853C9.79671 12.2757 8.23576 12.7151 6.8981 12.2238C7.31041 12.5998 7.77984 12.874 8.27523 13.0484C8.03844 13.145 7.79645 13.2271 7.54928 13.2925C8.27938 13.6352 9.11334 13.7785 9.97119 13.6601C12.3339 13.334 13.9842 11.1541 13.6581 8.79139C13.5812 8.23784 13.4026 7.72479 13.144 7.26575Z" fill="url(#paint0_linear_2220_1335)"/>
<path d="M11.6453 3.42101C11.1634 2.78853 10.5756 2.28275 9.92755 1.90991C9.98259 1.97534 10.0366 2.04181 10.0885 2.11035C12.1085 4.76075 11.718 8.49124 9.27326 10.6732L8.59404 11.204C8.59404 11.204 8.59301 11.204 8.59197 11.204C8.42476 11.3172 8.23366 11.4169 8.0353 11.5082C8.09761 11.4626 8.15993 11.4179 8.22016 11.3691C8.30948 11.2974 8.39776 11.2247 8.48396 11.1479C8.48396 11.1479 8.485 11.1479 8.48603 11.1479L9.08736 10.531C11.2185 8.04155 11.1084 4.29236 8.7519 1.93588C8.69063 1.8746 8.62832 1.81644 8.56496 1.75828L8.09034 1.44775V1.44983C8.89003 2.35753 9.38542 3.43971 9.57756 4.56342C9.78734 5.79619 9.63156 7.07985 9.10917 8.23784C9.03543 8.40089 8.95338 8.55979 8.86511 8.71661L8.06126 9.58588C8.08619 9.63158 8.10904 9.67935 8.12877 9.72816C8.38945 10.3939 8.06126 11.1458 7.39555 11.4065C6.99051 11.5654 6.55536 11.5051 6.21679 11.2839C6.22717 11.2902 6.10566 11.4314 6.11605 11.4376C6.20433 11.5768 6.1929 11.6671 6.29987 11.798C6.30922 11.8094 6.3196 11.8198 6.32895 11.8302L6.43488 11.8686C6.48577 11.9289 6.43177 11.9486 6.48474 12.0057C6.50135 12.0234 6.51797 12.04 6.53459 12.0576C6.53459 12.0576 6.82434 12.3349 6.8233 12.336C7.05283 12.6081 7.32285 12.4938 7.71958 12.7016C8.71555 12.5842 9.69387 12.2062 10.5496 11.5539C13.0983 9.61081 13.5895 5.96859 11.6464 3.41997L11.6453 3.42101ZM8.62832 9.51007C8.67817 9.33559 8.85991 9.23381 9.03439 9.28366C9.20887 9.33351 9.31065 9.51526 9.2608 9.68974C9.21095 9.86422 9.0292 9.96599 8.85472 9.91614C8.68024 9.86629 8.57847 9.68454 8.62832 9.51007Z" fill="url(#paint1_linear_2220_1335)"/>
<path d="M0.574337 10.2516C0.75444 10.2516 0.900443 10.1056 0.900443 9.92547C0.900443 9.74537 0.75444 9.59937 0.574337 9.59937C0.394233 9.59937 0.24823 9.74537 0.24823 9.92547C0.24823 10.1056 0.394233 10.2516 0.574337 10.2516Z" fill="url(#paint2_linear_2220_1335)"/>
<path d="M11.9662 2.56213C12.1463 2.56213 12.2923 2.41612 12.2923 2.23602C12.2923 2.05592 12.1463 1.90991 11.9662 1.90991C11.7861 1.90991 11.6401 2.05592 11.6401 2.23602C11.6401 2.41612 11.7861 2.56213 11.9662 2.56213Z" fill="url(#paint3_linear_2220_1335)"/>
<path d="M0.574322 12.0711C0.891511 12.0711 1.14864 11.814 1.14864 11.4968C1.14864 11.1796 0.891511 10.9225 0.574322 10.9225C0.257133 10.9225 0 11.1796 0 11.4968C0 11.814 0.257133 12.0711 0.574322 12.0711Z" fill="url(#paint4_linear_2220_1335)"/>
<path d="M13.09 4.00674C13.4072 4.00674 13.6643 3.7496 13.6643 3.43241C13.6643 3.11523 13.4072 2.85809 13.09 2.85809C12.7728 2.85809 12.5157 3.11523 12.5157 3.43241C12.5157 3.7496 12.7728 4.00674 13.09 4.00674Z" fill="url(#paint5_linear_2220_1335)"/>
<path d="M1.07907 14.0527C1.51499 14.0527 1.86837 13.6993 1.86837 13.2634C1.86837 12.8275 1.51499 12.4741 1.07907 12.4741C0.643147 12.4741 0.289764 12.8275 0.289764 13.2634C0.289764 13.6993 0.643147 14.0527 1.07907 14.0527Z" fill="url(#paint6_linear_2220_1335)"/>
<path d="M13.9042 6.10879C14.3401 6.10879 14.6935 5.75541 14.6935 5.31949C14.6935 4.88357 14.3401 4.53018 13.9042 4.53018C13.4683 4.53018 13.1149 4.88357 13.1149 5.31949C13.1149 5.75541 13.4683 6.10879 13.9042 6.10879Z" fill="url(#paint7_linear_2220_1335)"/>
<path d="M9.57756 4.56342C9.36466 3.31507 8.77891 2.11762 7.81409 1.15384C7.33739 0.67714 6.80254 0.292874 6.23237 -0.0010376C6.79215 1.10295 6.82538 2.40426 6.33207 3.53109L6.35076 4.53434L6.21679 5.28833C6.034 5.9582 5.67986 6.59172 5.15331 7.11827L4.37335 7.91588C2.53511 9.75412 2.34505 12.6153 3.80215 14.6665C4.63507 15.2855 5.63831 15.6874 6.72776 15.7923C6.84616 15.8037 6.96455 15.812 7.08502 15.8162C6.95624 15.8099 6.8285 15.7975 6.70283 15.7788C4.74204 14.7382 3.88419 12.3464 4.78774 10.2786C4.88017 10.0678 4.98818 9.86836 5.10865 9.68142H5.11488C5.33506 9.33766 5.67778 9.07283 6.10359 8.96067C6.2791 8.91497 6.45462 8.89835 6.62598 8.90874C6.69556 8.91289 6.76515 8.91393 6.83473 8.90874C7.37166 8.87239 7.89198 9.17461 8.11319 9.69181C8.23159 9.61703 8.35102 9.48825 8.45384 9.35739C8.45384 9.35739 8.45384 9.35843 8.45488 9.35947C8.46215 9.35012 8.46838 9.33974 8.47461 9.33039C8.62832 9.12995 8.73944 8.9347 8.73944 8.9347V8.93262C8.87653 8.70726 9.0022 8.47566 9.11021 8.23679C9.18291 8.07582 9.2473 7.91276 9.30546 7.74763C9.66791 6.72258 9.75931 5.62378 9.5786 4.56134L9.57756 4.56342ZM7.41528 8.22745C7.36543 8.40192 7.18369 8.5037 7.00921 8.45385C6.83473 8.404 6.73295 8.22225 6.7828 8.04777C6.83265 7.8733 7.0144 7.77152 7.18888 7.82137C7.36336 7.87122 7.46514 8.05297 7.41528 8.22745ZM8.66051 8.61171C8.61066 8.78619 8.42892 8.88797 8.25444 8.83812C8.07996 8.78827 7.97818 8.60652 8.02803 8.43204C8.07788 8.25756 8.25963 8.15578 8.43411 8.20564C8.60859 8.25549 8.71036 8.43723 8.66051 8.61171Z" fill="url(#paint8_linear_2220_1335)"/>
<path d="M13.6331 10.0397C13.5376 10.4676 13.3725 10.881 13.1398 11.2631C12.9072 11.6453 12.606 11.9953 12.2394 12.2934C11.1915 13.1471 9.84553 13.3891 8.63146 13.0661C7.83592 12.8542 7.09751 12.3993 6.53773 11.7118C6.43076 11.5809 6.33417 11.4449 6.24589 11.3047C6.12438 11.2299 6.01326 11.1354 5.91771 11.0191C5.65495 10.6971 5.57602 10.2869 5.66222 9.91095C5.31015 10.5112 5.10764 11.2091 5.10764 11.9548C5.10764 14.1171 6.80464 15.8837 8.93887 15.9948C8.96068 15.9948 8.98249 15.9959 9.0043 15.9969C9.04896 15.999 9.09465 16 9.13931 16C9.16839 16 9.19747 15.999 9.22759 15.999C10.2391 15.9834 11.2528 15.6417 12.0982 14.9531C13.5926 13.7349 14.1368 11.7824 13.6321 10.0408L13.6331 10.0397Z" fill="url(#paint9_linear_2220_1335)"/>
<path d="M5.15435 1.26806C5.07438 1.18809 4.99129 1.11332 4.90613 1.04062C5.23847 2.10202 5.13254 3.27144 4.58937 4.2643C4.34427 4.71192 3.99428 5.09203 3.59859 5.41398C2.27754 6.48889 1.43216 8.12565 1.43216 9.96182C1.43216 10.5891 1.53186 11.1925 1.71465 11.7596C2.09372 12.9352 2.83317 13.9478 3.80318 14.6675C2.34609 12.6164 2.53614 9.75515 4.37439 7.9169L5.15435 7.11929C5.96754 6.3061 6.3705 5.2395 6.36634 4.17498C6.36115 3.12189 5.95819 2.07087 5.15435 1.26806Z" fill="url(#paint10_linear_2220_1335)"/>
</g>
<defs>
<linearGradient id="paint0_linear_2220_1335" x1="6.8981" y1="10.4832" x2="13.6986" y2="10.4832" gradientUnits="userSpaceOnUse">
<stop stop-color="#1A135A"/>
<stop offset="1" stop-color="#0F39A4"/>
</linearGradient>
<linearGradient id="paint1_linear_2220_1335" x1="6.11501" y1="7.07569" x2="12.8345" y2="7.07569" gradientUnits="userSpaceOnUse">
<stop stop-color="#0F39A4"/>
<stop offset="1" stop-color="#007B88"/>
</linearGradient>
<linearGradient id="paint2_linear_2220_1335" x1="0.343777" y1="10.156" x2="0.803858" y2="9.69595" gradientUnits="userSpaceOnUse">
<stop stop-color="#1A135A"/>
<stop offset="1" stop-color="#0F39A4"/>
</linearGradient>
<linearGradient id="paint3_linear_2220_1335" x1="11.7367" y1="2.46554" x2="12.1968" y2="2.00546" gradientUnits="userSpaceOnUse">
<stop stop-color="#007B88"/>
<stop offset="1" stop-color="#82D742"/>
</linearGradient>
<linearGradient id="paint4_linear_2220_1335" x1="0.168246" y1="11.9029" x2="0.979359" y2="11.0907" gradientUnits="userSpaceOnUse">
<stop stop-color="#1A135A"/>
<stop offset="1" stop-color="#0F39A4"/>
</linearGradient>
<linearGradient id="paint5_linear_2220_1335" x1="12.6839" y1="3.83849" x2="13.4961" y2="3.02634" gradientUnits="userSpaceOnUse">
<stop stop-color="#007B88"/>
<stop offset="1" stop-color="#82D742"/>
</linearGradient>
<linearGradient id="paint6_linear_2220_1335" x1="0.521362" y1="13.8211" x2="1.63781" y2="12.7046" gradientUnits="userSpaceOnUse">
<stop stop-color="#1A135A"/>
<stop offset="1" stop-color="#0F39A4"/>
</linearGradient>
<linearGradient id="paint7_linear_2220_1335" x1="13.3455" y1="5.87823" x2="14.4619" y2="4.76178" gradientUnits="userSpaceOnUse">
<stop stop-color="#007B88"/>
<stop offset="1" stop-color="#82D742"/>
</linearGradient>
<linearGradient id="paint8_linear_2220_1335" x1="2.83629" y1="7.90861" x2="9.66791" y2="7.90861" gradientUnits="userSpaceOnUse">
<stop stop-color="#007B88"/>
<stop offset="1" stop-color="#82D742"/>
</linearGradient>
<linearGradient id="paint9_linear_2220_1335" x1="5.10764" y1="12.956" x2="13.8159" y2="12.956" gradientUnits="userSpaceOnUse">
<stop stop-color="#0F39A4"/>
<stop offset="1" stop-color="#651BB7"/>
</linearGradient>
<linearGradient id="paint10_linear_2220_1335" x1="1.43112" y1="7.85459" x2="6.3653" y2="7.85459" gradientUnits="userSpaceOnUse">
<stop stop-color="#82D742"/>
<stop offset="1" stop-color="#C0F962"/>
</linearGradient>
<clipPath id="clip0_2220_1335">
<rect width="14.6935" height="16" fill="white"/>
</clipPath>
</defs>
</svg>
