<?xml version="1.0" encoding="utf-8"?>
<!-- Generator: Adobe Illustrator 28.1.0, SVG Export Plug-In . SVG Version: 6.00 Build 0)  -->
<svg version="1.1" id="Layer_1" xmlns="http://www.w3.org/2000/svg" xmlns:xlink="http://www.w3.org/1999/xlink" x="0px" y="0px"
	 viewBox="0 0 1584 971" style="enable-background:new 0 0 1584 971;" xml:space="preserve">
<style type="text/css">
	.st0{fill:#D1EBEE;}
	.st1{fill:none;stroke:#1A135A;stroke-width:2.7714;stroke-miterlimit:10;}
	.st2{fill:#1A135A;}
	.st3{fill:#49C1CE;}
</style>
<polygon class="st0" points="557.3,162.8 412.1,361.8 529.5,570.9 793.3,485.1 792,643.2 1026.9,817.1 793.3,485.1 944.8,436.8 
	1026.9,162.8 792,209.5 "/>
<g>
	<g>
		<g>
			<line class="st1" x1="792.1" y1="86" x2="792.1" y2="886"/>
		</g>
		<g>
			<line class="st1" x1="1027.2" y1="809.6" x2="557" y2="162.4"/>
		</g>
		<g>
			<line class="st1" x1="412.1" y1="361.8" x2="1172.9" y2="609"/>
		</g>
		<g>
			<line class="st1" x1="1172.9" y1="361.8" x2="412.1" y2="609"/>
		</g>
		<g>
			<line class="st1" x1="557.4" y1="809" x2="1027.6" y2="161.8"/>
		</g>
	</g>
	<polygon class="st1" points="557,162.4 792.1,86 1027.6,161.8 1172.9,361.8 1172.9,609 1027.2,809.6 792.1,886 557.4,809 
		412.1,609 412.1,361.8 	"/>
	<polygon class="st1" points="629.7,262.3 792.2,209.5 955,261.9 1055.5,400.1 1055.5,571 954.8,709.7 792.2,762.5 630,709.3 
		529.5,571 529.5,400.1 	"/>
	<polygon class="st1" points="700,358.8 792.4,328.8 884.9,358.6 942,437.2 942,534.3 884.7,613.2 792.4,643.2 700.1,612.9 
		643,534.3 643,437.2 	"/>
</g>
<g>
	<path class="st2" d="M780,159.3c-0.6-0.3-1.1-0.7-1.4-1.2c-0.3-0.5-0.5-1.2-0.5-2h2.1c0,0.5,0.2,1,0.5,1.3c0.3,0.3,0.7,0.5,1.2,0.5
		h1c0.3,0,0.6-0.1,0.8-0.2c0.2-0.1,0.4-0.3,0.6-0.5c0.1-0.2,0.2-0.5,0.2-0.8c0-0.5-0.1-0.9-0.4-1.2s-0.7-0.4-1.2-0.4h-1.7v-1.6h1.6
		c0.3,0,0.6-0.1,0.8-0.2c0.2-0.1,0.4-0.3,0.5-0.5s0.2-0.4,0.2-0.7c0-0.4-0.1-0.7-0.4-1c-0.3-0.2-0.6-0.4-1-0.4h-0.9
		c-0.5,0-0.8,0.1-1.1,0.4s-0.5,0.7-0.5,1.1h-2.1c0.1-0.7,0.2-1.3,0.6-1.9c0.3-0.5,0.8-0.9,1.4-1.2c0.6-0.3,1.4-0.4,2.3-0.4
		c1.3,0,2.3,0.3,2.9,0.8c0.6,0.5,0.9,1.2,0.9,2c0,0.4-0.1,0.7-0.2,1c-0.1,0.3-0.3,0.6-0.5,0.8c-0.2,0.2-0.5,0.4-0.8,0.5v0.1
		c0.6,0.2,1,0.5,1.4,0.9c0.3,0.4,0.5,1,0.5,1.7c0,0.7-0.2,1.3-0.5,1.8c-0.3,0.5-0.8,0.9-1.4,1.1c-0.6,0.3-1.4,0.4-2.3,0.4
		C781.4,159.7,780.6,159.5,780,159.3z"/>
</g>
<g>
	<path class="st2" d="M778,279.6l4.9-3.6c0.4-0.3,0.7-0.6,0.9-0.9s0.3-0.6,0.3-0.9c0-0.3-0.1-0.5-0.2-0.7c-0.1-0.2-0.3-0.4-0.5-0.5
		s-0.4-0.2-0.7-0.2h-0.9c-0.4,0-0.8,0.2-1.1,0.5c-0.3,0.3-0.5,0.7-0.5,1.3h-2.1c0-0.8,0.2-1.4,0.6-2s0.8-1,1.5-1.2s1.4-0.4,2.2-0.4
		c1.3,0,2.3,0.3,2.9,0.9s1,1.4,1,2.4c0,0.6-0.1,1.2-0.4,1.7c-0.3,0.5-0.8,1-1.4,1.5l-3.3,2.5v0.2h5.3v1.8H778V279.6z"/>
</g>
<g>
	<path class="st2" d="M778.1,399.7h2.7v-5.8h-2.7v-1.8h2.7v-1.2h2.1v8.8h2.4v1.8h-7.2V399.7z"/>
</g>
<circle class="st3" cx="792" cy="209.5" r="17.2"/>
<circle class="st3" cx="1026.9" cy="162.8" r="17.2"/>
<circle class="st3" cx="557.3" cy="162.8" r="17.2"/>
<circle class="st3" cx="529.5" cy="570.9" r="17.2"/>
<circle class="st3" cx="412.1" cy="361.8" r="17.2"/>
<circle class="st3" cx="942" cy="436.8" r="17.2"/>
<circle class="st3" cx="793.3" cy="485.1" r="17.2"/>
<circle class="st3" cx="1026.9" cy="809.1" r="17.2"/>
<circle class="st3" cx="792" cy="760.8" r="17.2"/>
<g>
	<path class="st2" d="M645.3,927.9l-3.8-6.1h-2.1v6.1h-2.5v-16.2h4.5c1.9,0,3.3,0.5,4.3,1.4c1,0.9,1.5,2.1,1.5,3.7
		c0,1.1-0.3,2.1-0.9,2.9s-1.3,1.4-2.3,1.7l4.2,6.5H645.3z M639.4,913.8v5.9h2.2c1,0,1.8-0.3,2.3-0.8c0.5-0.5,0.8-1.3,0.8-2.1
		c0-2-1.1-3-3.2-3H639.4z"/>
	<path class="st2" d="M659.5,925.1v2.1c-0.9,0.5-2.1,0.8-3.6,0.8c-1.9,0-3.4-0.6-4.5-1.7c-1.1-1.1-1.7-2.6-1.7-4.5
		c0-2,0.5-3.5,1.5-4.6s2.3-1.7,3.9-1.7c1.6,0,2.8,0.5,3.7,1.5s1.4,2.4,1.4,4.2c0,0.5,0,1-0.1,1.6h-8c0.2,1.1,0.6,1.9,1.3,2.4
		c0.7,0.6,1.7,0.8,2.8,0.8C657.6,926.1,658.7,925.8,659.5,925.1z M658,920.9v-0.4c0-0.9-0.3-1.6-0.7-2.2c-0.5-0.5-1.1-0.8-2-0.8
		c-0.8,0-1.5,0.3-2.1,0.9c-0.6,0.6-0.9,1.4-1.1,2.5H658z"/>
	<path class="st2" d="M664.8,921.9c0,1.2,0.4,2.2,1.1,3c0.7,0.8,1.7,1.2,3,1.2c1,0,1.9-0.3,2.7-0.8v2.1c-0.8,0.5-1.8,0.7-3,0.7
		c-1.9,0-3.4-0.6-4.6-1.8c-1.1-1.2-1.7-2.7-1.7-4.5c0-1.7,0.6-3.2,1.7-4.5c1.1-1.2,2.7-1.9,4.6-1.9c1.1,0,2,0.2,2.9,0.7v2.2
		c-0.8-0.5-1.7-0.7-2.7-0.7c-1.3,0-2.3,0.4-3,1.2S664.8,920.6,664.8,921.9z"/>
	<path class="st2" d="M679.5,928.1c-1.8,0-3.2-0.6-4.2-1.8c-1-1.2-1.5-2.6-1.5-4.4c0-1.8,0.5-3.3,1.6-4.5c1.1-1.2,2.4-1.8,4.2-1.8
		c1.9,0,3.3,0.6,4.3,1.8c1,1.2,1.5,2.7,1.5,4.5c0,1.8-0.5,3.3-1.5,4.5C682.7,927.5,681.3,928.1,679.5,928.1z M679.4,917.6
		c-1,0-1.8,0.4-2.4,1.2c-0.6,0.8-0.9,1.8-0.9,3.1c0,1.2,0.3,2.2,0.9,3s1.4,1.2,2.4,1.2c1.1,0,1.9-0.4,2.5-1.2c0.6-0.8,0.9-1.8,0.9-3
		c0-1.3-0.3-2.3-0.8-3.1C681.4,918,680.6,917.6,679.4,917.6z"/>
	<path class="st2" d="M695.8,915.7h2.4v11.1c0,1.9-0.5,3.3-1.6,4.2c-1.1,1-2.4,1.4-4.1,1.4c-1.6,0-2.9-0.3-4-0.8v-2.4
		c1,0.7,2.3,1,3.7,1c2.4,0,3.6-1.2,3.6-3.5v-1.2c-0.8,1.3-2,2-3.5,2c-1.4,0-2.6-0.5-3.5-1.5c-1-1-1.5-2.5-1.5-4.3
		c0-1.8,0.5-3.3,1.4-4.4s2.1-1.7,3.6-1.7c1.6,0,2.8,0.7,3.5,2.1V915.7z M692.7,925.6c0.8,0,1.6-0.3,2.2-1c0.6-0.6,0.9-1.6,0.9-2.7
		c0-1.4-0.3-2.5-0.9-3.2c-0.6-0.7-1.3-1-2.1-1c-0.9,0-1.7,0.4-2.2,1.1c-0.5,0.7-0.8,1.7-0.8,2.9c0,1.3,0.3,2.2,0.9,2.9
		C691.2,925.2,691.9,925.6,692.7,925.6z"/>
	<path class="st2" d="M703.7,915.7v2.1c0.7-1.5,2-2.3,3.8-2.3c1.2,0,2.2,0.4,2.9,1.1c0.7,0.7,1.1,1.7,1.1,3v8.2H709v-7.7
		c0-0.8-0.2-1.5-0.6-1.9c-0.4-0.4-1-0.7-1.7-0.7c-0.8,0-1.5,0.3-2.1,1c-0.6,0.6-0.9,1.6-0.9,2.7v6.6h-2.4v-12.2H703.7z"/>
	<path class="st2" d="M714.8,913.1c-0.3-0.3-0.4-0.6-0.4-1s0.1-0.8,0.4-1.1s0.6-0.4,1-0.4c0.4,0,0.8,0.1,1.1,0.4s0.4,0.6,0.4,1.1
		c0,0.4-0.1,0.7-0.4,1s-0.6,0.4-1.1,0.4C715.4,913.5,715.1,913.3,714.8,913.1z M714.6,927.9v-12.2h2.4v12.2H714.6z"/>
	<path class="st2" d="M723.5,917.6v6.7c0,1.2,0.6,1.8,1.7,1.8c0.7,0,1.2-0.2,1.7-0.5v2.1c-0.5,0.3-1.2,0.4-1.9,0.4
		c-2.5,0-3.8-1.3-3.8-3.8v-6.6h-1.9v-1.8h1.9v-3h2.4v3h3.2v1.8H723.5z"/>
	<path class="st2" d="M729.6,913.1c-0.3-0.3-0.4-0.6-0.4-1s0.1-0.8,0.4-1.1s0.6-0.4,1-0.4c0.4,0,0.8,0.1,1.1,0.4s0.4,0.6,0.4,1.1
		c0,0.4-0.1,0.7-0.4,1s-0.6,0.4-1.1,0.4C730.3,913.5,729.9,913.3,729.6,913.1z M729.5,927.9v-12.2h2.4v12.2H729.5z"/>
	<path class="st2" d="M740.4,928.1c-1.8,0-3.2-0.6-4.2-1.8c-1-1.2-1.5-2.6-1.5-4.4c0-1.8,0.5-3.3,1.6-4.5c1.1-1.2,2.4-1.8,4.2-1.8
		c1.9,0,3.3,0.6,4.3,1.8c1,1.2,1.5,2.7,1.5,4.5c0,1.8-0.5,3.3-1.5,4.5C743.6,927.5,742.2,928.1,740.4,928.1z M740.3,917.6
		c-1,0-1.8,0.4-2.4,1.2c-0.6,0.8-0.9,1.8-0.9,3.1c0,1.2,0.3,2.2,0.9,3s1.4,1.2,2.4,1.2c1.1,0,1.9-0.4,2.5-1.2c0.6-0.8,0.9-1.8,0.9-3
		c0-1.3-0.3-2.3-0.8-3.1C742.3,918,741.5,917.6,740.3,917.6z"/>
	<path class="st2" d="M751.2,915.7v2.1c0.7-1.5,2-2.3,3.8-2.3c1.2,0,2.2,0.4,2.9,1.1c0.7,0.7,1.1,1.7,1.1,3v8.2h-2.4v-7.7
		c0-0.8-0.2-1.5-0.6-1.9c-0.4-0.4-1-0.7-1.7-0.7c-0.8,0-1.5,0.3-2.1,1c-0.6,0.6-0.9,1.6-0.9,2.7v6.6h-2.4v-12.2H751.2z"/>
	<path class="st2" d="M770.3,915.7v2.1c0.6-1.5,1.7-2.3,3.2-2.3c0.2,0,0.5,0,0.7,0.1v2.3c-0.3-0.1-0.7-0.2-1.1-0.2
		c-0.8,0-1.5,0.4-2,1.1c-0.5,0.7-0.8,1.6-0.8,2.6v6.5h-2.4v-12.2H770.3z"/>
	<path class="st2" d="M776.4,918.6v-2.3c0.9-0.5,2.2-0.8,3.7-0.8c3.2,0,4.8,1.5,4.8,4.6v7.7h-2.3v-1.4c-0.6,1-1.7,1.5-3.3,1.5
		c-1.2,0-2.1-0.3-2.8-1c-0.7-0.7-1-1.5-1-2.5c0-1.2,0.4-2.1,1.3-2.7c0.9-0.6,2.1-1,3.7-1h2v-0.7c0-0.8-0.2-1.5-0.6-1.9
		c-0.4-0.4-1.1-0.6-2-0.6C778.6,917.6,777.4,917.9,776.4,918.6z M782.5,922.5h-1.8c-0.9,0-1.6,0.2-2,0.5s-0.7,0.8-0.7,1.3
		c0,0.6,0.2,1,0.5,1.3c0.4,0.3,0.9,0.5,1.5,0.5c0.8,0,1.4-0.2,1.8-0.6s0.7-1,0.7-1.7V922.5z"/>
	<path class="st2" d="M791.1,917.6v6.7c0,1.2,0.6,1.8,1.7,1.8c0.7,0,1.2-0.2,1.7-0.5v2.1c-0.5,0.3-1.2,0.4-1.9,0.4
		c-2.5,0-3.8-1.3-3.8-3.8v-6.6h-1.9v-1.8h1.9v-3h2.4v3h3.2v1.8H791.1z"/>
	<path class="st2" d="M799.4,910.9v6.9c0.7-1.5,1.9-2.3,3.8-2.3c1.2,0,2.1,0.4,2.9,1.1c0.7,0.7,1.1,1.8,1.1,3.1v8.2h-2.4v-7.7
		c0-0.8-0.2-1.5-0.6-1.9c-0.4-0.5-1-0.7-1.7-0.7c-0.8,0-1.5,0.3-2.1,0.9c-0.6,0.6-0.9,1.5-0.9,2.8v6.6H797v-17H799.4z"/>
	<path class="st2" d="M819.3,925.1v2.1c-0.9,0.5-2.1,0.8-3.6,0.8c-1.9,0-3.4-0.6-4.5-1.7c-1.1-1.1-1.7-2.6-1.7-4.5
		c0-2,0.5-3.5,1.5-4.6c1-1.1,2.3-1.7,3.9-1.7c1.6,0,2.8,0.5,3.7,1.5s1.4,2.4,1.4,4.2c0,0.5,0,1-0.1,1.6h-8c0.2,1.1,0.6,1.9,1.3,2.4
		c0.7,0.6,1.7,0.8,2.8,0.8C817.4,926.1,818.5,925.8,819.3,925.1z M817.8,920.9v-0.4c0-0.9-0.3-1.6-0.7-2.2s-1.1-0.8-2-0.8
		c-0.8,0-1.5,0.3-2.1,0.9c-0.6,0.6-0.9,1.4-1.1,2.5H817.8z"/>
	<path class="st2" d="M825.2,915.7v2.1c0.6-1.5,1.7-2.3,3.2-2.3c0.2,0,0.5,0,0.7,0.1v2.3c-0.3-0.1-0.7-0.2-1.1-0.2
		c-0.8,0-1.5,0.4-2,1.1c-0.5,0.7-0.8,1.6-0.8,2.6v6.5h-2.4v-12.2H825.2z"/>
	<path class="st2" d="M839.9,917.6v6.7c0,1.2,0.6,1.8,1.7,1.8c0.7,0,1.2-0.2,1.7-0.5v2.1c-0.5,0.3-1.2,0.4-1.9,0.4
		c-2.5,0-3.8-1.3-3.8-3.8v-6.6h-1.9v-1.8h1.9v-3h2.4v3h3.2v1.8H839.9z"/>
	<path class="st2" d="M848.2,910.9v6.9c0.7-1.5,1.9-2.3,3.8-2.3c1.2,0,2.1,0.4,2.9,1.1c0.7,0.7,1.1,1.8,1.1,3.1v8.2h-2.4v-7.7
		c0-0.8-0.2-1.5-0.6-1.9s-1-0.7-1.7-0.7c-0.8,0-1.5,0.3-2.1,0.9c-0.6,0.6-0.9,1.5-0.9,2.8v6.6h-2.4v-17H848.2z"/>
	<path class="st2" d="M859.4,918.6v-2.3c0.9-0.5,2.2-0.8,3.7-0.8c3.2,0,4.8,1.5,4.8,4.6v7.7h-2.3v-1.4c-0.6,1-1.7,1.5-3.3,1.5
		c-1.2,0-2.1-0.3-2.8-1c-0.7-0.7-1-1.5-1-2.5c0-1.2,0.4-2.1,1.3-2.7c0.9-0.6,2.1-1,3.7-1h2v-0.7c0-0.8-0.2-1.5-0.6-1.9
		c-0.4-0.4-1.1-0.6-2-0.6C861.6,917.6,860.4,917.9,859.4,918.6z M865.5,922.5h-1.8c-0.9,0-1.6,0.2-2,0.5s-0.7,0.8-0.7,1.3
		c0,0.6,0.2,1,0.5,1.3s0.9,0.5,1.5,0.5c0.8,0,1.4-0.2,1.8-0.6c0.4-0.4,0.7-1,0.7-1.7V922.5z"/>
	<path class="st2" d="M873.4,915.7v2.1c0.7-1.5,2-2.3,3.8-2.3c1.2,0,2.2,0.4,2.9,1.1c0.7,0.7,1.1,1.7,1.1,3v8.2h-2.4v-7.7
		c0-0.8-0.2-1.5-0.6-1.9c-0.4-0.4-1-0.7-1.7-0.7c-0.8,0-1.5,0.3-2.1,1c-0.6,0.6-0.9,1.6-0.9,2.7v6.6h-2.4v-12.2H873.4z"/>
	<path class="st2" d="M898.7,927.9l-3.8-6.1h-2.1v6.1h-2.5v-16.2h4.5c1.9,0,3.3,0.5,4.3,1.4c1,0.9,1.5,2.1,1.5,3.7
		c0,1.1-0.3,2.1-0.9,2.9c-0.6,0.8-1.3,1.4-2.3,1.7l4.2,6.5H898.7z M892.8,913.8v5.9h2.2c1,0,1.8-0.3,2.3-0.8
		c0.5-0.5,0.8-1.3,0.8-2.1c0-2-1.1-3-3.2-3H892.8z"/>
	<path class="st2" d="M912.9,925.1v2.1c-0.9,0.5-2.1,0.8-3.6,0.8c-1.9,0-3.4-0.6-4.5-1.7c-1.1-1.1-1.7-2.6-1.7-4.5
		c0-2,0.5-3.5,1.5-4.6c1-1.1,2.3-1.7,3.9-1.7c1.6,0,2.8,0.5,3.7,1.5s1.4,2.4,1.4,4.2c0,0.5,0,1-0.1,1.6h-8c0.2,1.1,0.6,1.9,1.3,2.4
		c0.7,0.6,1.7,0.8,2.8,0.8C911,926.1,912,925.8,912.9,925.1z M911.4,920.9v-0.4c0-0.9-0.3-1.6-0.7-2.2s-1.1-0.8-2-0.8
		c-0.8,0-1.5,0.3-2.1,0.9c-0.6,0.6-0.9,1.4-1.1,2.5H911.4z"/>
	<path class="st2" d="M918.2,921.9c0,1.2,0.4,2.2,1.1,3s1.7,1.2,3,1.2c1,0,1.9-0.3,2.7-0.8v2.1c-0.8,0.5-1.8,0.7-3,0.7
		c-1.9,0-3.4-0.6-4.6-1.8c-1.1-1.2-1.7-2.7-1.7-4.5c0-1.7,0.6-3.2,1.7-4.5c1.1-1.2,2.7-1.9,4.6-1.9c1.1,0,2,0.2,2.9,0.7v2.2
		c-0.8-0.5-1.7-0.7-2.7-0.7c-1.3,0-2.3,0.4-3,1.2S918.2,920.6,918.2,921.9z"/>
	<path class="st2" d="M928,918.6v-2.3c0.9-0.5,2.2-0.8,3.7-0.8c3.2,0,4.8,1.5,4.8,4.6v7.7h-2.3v-1.4c-0.6,1-1.7,1.5-3.3,1.5
		c-1.2,0-2.1-0.3-2.8-1s-1-1.5-1-2.5c0-1.2,0.4-2.1,1.3-2.7c0.9-0.6,2.1-1,3.7-1h2v-0.7c0-0.8-0.2-1.5-0.6-1.9
		c-0.4-0.4-1.1-0.6-2-0.6C930.3,917.6,929.1,917.9,928,918.6z M934.1,922.5h-1.8c-0.9,0-1.6,0.2-2,0.5s-0.7,0.8-0.7,1.3
		c0,0.6,0.2,1,0.5,1.3c0.4,0.3,0.9,0.5,1.5,0.5c0.8,0,1.4-0.2,1.8-0.6c0.4-0.4,0.7-1,0.7-1.7V922.5z"/>
	<path class="st2" d="M939.8,927.9v-17h2.4v17H939.8z"/>
	<path class="st2" d="M945.7,927.9v-17h2.4v17H945.7z"/>
</g>
<g>
	<path class="st2" d="M671.7,27.9l-5.6,16.2h-2.9l-5.4-16.2h2.6l2.1,6.4c0.4,1.4,0.9,2.7,1.2,3.9c0.4,1.3,0.6,2.2,0.8,2.7l0.2,0.9
		c0.5-1.9,1.3-4.4,2.3-7.5l2.1-6.4H671.7z"/>
	<path class="st2" d="M674.3,29.2c-0.3-0.3-0.4-0.6-0.4-1s0.1-0.8,0.4-1.1s0.6-0.4,1-0.4c0.4,0,0.8,0.1,1.1,0.4s0.4,0.6,0.4,1.1
		c0,0.4-0.1,0.7-0.4,1s-0.6,0.4-1.1,0.4C674.9,29.7,674.6,29.5,674.3,29.2z M674.2,44.1V31.9h2.4v12.2H674.2z"/>
	<path class="st2" d="M686.9,32.3v2.1c-0.8-0.5-1.8-0.7-3-0.7c-0.6,0-1,0.1-1.3,0.4s-0.5,0.6-0.5,1c0,0.1,0,0.2,0,0.3
		c0,0.1,0.1,0.2,0.1,0.3c0.1,0.1,0.1,0.2,0.2,0.3c0.1,0.1,0.1,0.1,0.3,0.2c0.1,0.1,0.2,0.1,0.3,0.2c0.1,0.1,0.2,0.1,0.4,0.2
		s0.3,0.1,0.4,0.2s0.2,0.1,0.4,0.2s0.3,0.1,0.4,0.2c0.9,0.4,1.7,0.9,2.2,1.4s0.8,1.2,0.8,2.1c0,1.1-0.4,1.9-1.2,2.6
		c-0.8,0.6-1.8,0.9-3.1,0.9c-1.4,0-2.6-0.2-3.6-0.7v-2.2c1.1,0.7,2.3,1,3.5,1c0.6,0,1.1-0.1,1.5-0.4c0.3-0.3,0.5-0.6,0.5-1
		c0-0.4-0.1-0.7-0.4-0.9c-0.3-0.3-0.5-0.5-0.8-0.6c-0.3-0.1-0.8-0.3-1.4-0.6c-1.9-0.8-2.9-1.9-2.9-3.5c0-1.1,0.4-1.9,1.2-2.5
		c0.8-0.6,1.8-0.9,3-0.9C685.1,31.8,686.1,32,686.9,32.3z"/>
	<path class="st2" d="M690.2,29.2c-0.3-0.3-0.4-0.6-0.4-1s0.1-0.8,0.4-1.1s0.6-0.4,1-0.4c0.4,0,0.8,0.1,1.1,0.4s0.4,0.6,0.4,1.1
		c0,0.4-0.1,0.7-0.4,1s-0.6,0.4-1.1,0.4C690.9,29.7,690.5,29.5,690.2,29.2z M690.1,44.1V31.9h2.4v12.2H690.1z"/>
	<path class="st2" d="M698.3,27.1v6.6c0.9-1.3,2.1-2,3.7-2c1.5,0,2.8,0.6,3.8,1.7c1,1.2,1.5,2.7,1.5,4.6c0,1.7-0.5,3.2-1.4,4.4
		s-2.2,1.8-3.8,1.8s-2.8-0.7-3.7-2v1.8h-2.4v-17H698.3z M701.6,42.2c0.9,0,1.6-0.4,2.3-1.1c0.6-0.8,0.9-1.7,0.9-2.9
		c0-1.4-0.3-2.4-0.9-3.2c-0.6-0.7-1.4-1.1-2.3-1.1c-0.8,0-1.6,0.3-2.2,1c-0.7,0.7-1,1.7-1,3.1c0,1.4,0.3,2.5,1,3.2
		C699.9,41.8,700.7,42.2,701.6,42.2z"/>
	<path class="st2" d="M710.1,29.2c-0.3-0.3-0.4-0.6-0.4-1s0.1-0.8,0.4-1.1s0.6-0.4,1-0.4c0.4,0,0.8,0.1,1.1,0.4s0.4,0.6,0.4,1.1
		c0,0.4-0.1,0.7-0.4,1s-0.6,0.4-1.1,0.4C710.7,29.7,710.4,29.5,710.1,29.2z M709.9,44.1V31.9h2.4v12.2H709.9z"/>
	<path class="st2" d="M715.8,44.1v-17h2.4v17H715.8z"/>
	<path class="st2" d="M721.8,29.2c-0.3-0.3-0.4-0.6-0.4-1s0.1-0.8,0.4-1.1s0.6-0.4,1-0.4c0.4,0,0.8,0.1,1.1,0.4s0.4,0.6,0.4,1.1
		c0,0.4-0.1,0.7-0.4,1s-0.6,0.4-1.1,0.4C722.5,29.7,722.1,29.5,721.8,29.2z M721.7,44.1V31.9h2.4v12.2H721.7z"/>
	<path class="st2" d="M730.5,33.7v6.7c0,1.2,0.6,1.8,1.7,1.8c0.7,0,1.2-0.2,1.7-0.5v2.1c-0.5,0.3-1.2,0.4-1.9,0.4
		c-2.5,0-3.8-1.3-3.8-3.8v-6.6h-1.9v-1.8h1.9v-3h2.4v3h3.2v1.8H730.5z"/>
	<path class="st2" d="M739.8,43.8L735,31.9h2.6l1.5,4L741,41c0.1-0.5,0.7-2.2,1.7-5.1l1.4-4h2.5l-4.4,11.8c-1.2,3.1-3,4.7-5.4,4.7
		c-0.4,0-0.8,0-1.1-0.1v-2c0.3,0.1,0.5,0.1,0.8,0.1C738.1,46.4,739.2,45.5,739.8,43.8z"/>
	<path class="st2" d="M759.5,44.3c-1.8,0-3.2-0.6-4.2-1.8c-1-1.2-1.5-2.6-1.5-4.4c0-1.8,0.5-3.3,1.6-4.5c1.1-1.2,2.4-1.8,4.2-1.8
		c1.9,0,3.3,0.6,4.3,1.8c1,1.2,1.5,2.7,1.5,4.5c0,1.8-0.5,3.3-1.5,4.5C762.8,43.7,761.4,44.3,759.5,44.3z M759.5,33.7
		c-1,0-1.8,0.4-2.4,1.2c-0.6,0.8-0.9,1.8-0.9,3.1c0,1.2,0.3,2.2,0.9,3s1.4,1.2,2.4,1.2c1.1,0,1.9-0.4,2.5-1.2c0.6-0.8,0.9-1.8,0.9-3
		c0-1.3-0.3-2.3-0.8-3.1C761.5,34.2,760.7,33.7,759.5,33.7z"/>
	<path class="st2" d="M774.3,27.1v2.1c-0.4-0.2-0.8-0.2-1.2-0.2c-1.2,0-1.8,0.7-1.8,2.1v0.9h2.6v1.8h-2.6v10.3H769V33.7h-1.9v-1.8
		h1.9V31c0-1.3,0.3-2.3,1-3c0.7-0.7,1.6-1.1,2.9-1.1C773.3,26.9,773.8,27,774.3,27.1z"/>
	<path class="st2" d="M790.7,28.6V31c-1.1-0.7-2.3-1-3.6-1c-0.9,0-1.6,0.2-2.1,0.6c-0.5,0.4-0.8,0.9-0.8,1.5c0,0.6,0.2,1.2,0.7,1.5
		c0.5,0.4,1.3,0.8,2.3,1.2c0.7,0.3,1.2,0.5,1.6,0.7s0.8,0.5,1.3,0.9c0.5,0.4,0.8,0.8,1.1,1.3c0.2,0.5,0.3,1.1,0.3,1.8
		c0,1.4-0.5,2.5-1.5,3.4c-1,0.8-2.3,1.2-3.9,1.2c-1.8,0-3.2-0.3-4.4-1v-2.6c1.3,0.9,2.7,1.4,4.4,1.4c0.9,0,1.6-0.2,2.1-0.6
		s0.8-1,0.8-1.7c0-0.4-0.2-0.8-0.5-1.2c-0.3-0.4-0.6-0.6-1-0.8c-0.4-0.2-0.9-0.4-1.6-0.8c-0.4-0.2-0.7-0.3-0.9-0.4s-0.4-0.2-0.8-0.4
		c-0.4-0.2-0.7-0.4-0.9-0.5c-0.2-0.1-0.4-0.3-0.7-0.6c-0.3-0.3-0.5-0.5-0.6-0.8c-0.1-0.3-0.2-0.6-0.3-0.9c-0.1-0.3-0.2-0.7-0.2-1.1
		c0-1.4,0.5-2.5,1.5-3.3c1-0.8,2.3-1.2,3.9-1.2C788.5,27.8,789.7,28.1,790.7,28.6z"/>
	<path class="st2" d="M797.8,43.8l-4.8-11.9h2.6l1.5,4L799,41c0.1-0.5,0.7-2.2,1.7-5.1l1.4-4h2.5l-4.4,11.8c-1.2,3.1-3,4.7-5.4,4.7
		c-0.4,0-0.8,0-1.1-0.1v-2c0.3,0.1,0.5,0.1,0.8,0.1C796.1,46.4,797.2,45.5,797.8,43.8z"/>
	<path class="st2" d="M813.5,32.3v2.1c-0.8-0.5-1.8-0.7-3-0.7c-0.6,0-1,0.1-1.3,0.4s-0.5,0.6-0.5,1c0,0.1,0,0.2,0,0.3
		s0.1,0.2,0.1,0.3c0.1,0.1,0.1,0.2,0.2,0.3c0.1,0.1,0.1,0.1,0.3,0.2s0.2,0.1,0.3,0.2c0.1,0.1,0.2,0.1,0.4,0.2s0.3,0.1,0.4,0.2
		s0.2,0.1,0.4,0.2s0.3,0.1,0.4,0.2c0.9,0.4,1.7,0.9,2.2,1.4s0.8,1.2,0.8,2.1c0,1.1-0.4,1.9-1.2,2.6s-1.8,0.9-3.1,0.9
		c-1.4,0-2.6-0.2-3.6-0.7v-2.2c1.1,0.7,2.3,1,3.5,1c0.6,0,1.1-0.1,1.5-0.4s0.5-0.6,0.5-1c0-0.4-0.1-0.7-0.4-0.9
		c-0.3-0.3-0.5-0.5-0.8-0.6c-0.3-0.1-0.8-0.3-1.4-0.6c-1.9-0.8-2.9-1.9-2.9-3.5c0-1.1,0.4-1.9,1.2-2.5c0.8-0.6,1.8-0.9,3-0.9
		C811.7,31.8,812.7,32,813.5,32.3z"/>
	<path class="st2" d="M819.6,33.7v6.7c0,1.2,0.6,1.8,1.7,1.8c0.7,0,1.2-0.2,1.7-0.5v2.1c-0.5,0.3-1.2,0.4-1.9,0.4
		c-2.5,0-3.8-1.3-3.8-3.8v-6.6h-1.9v-1.8h1.9v-3h2.4v3h3.2v1.8H819.6z"/>
	<path class="st2" d="M834.6,41.3v2.1c-0.9,0.5-2.1,0.8-3.6,0.8c-1.9,0-3.4-0.6-4.5-1.7c-1.1-1.1-1.7-2.6-1.7-4.5
		c0-2,0.5-3.5,1.5-4.6c1-1.1,2.3-1.7,3.9-1.7c1.6,0,2.8,0.5,3.7,1.5s1.4,2.4,1.4,4.2c0,0.5,0,1-0.1,1.6h-8c0.2,1.1,0.6,1.9,1.3,2.4
		c0.7,0.6,1.7,0.8,2.8,0.8C832.7,42.2,833.8,41.9,834.6,41.3z M833.1,37.1v-0.4c0-0.9-0.3-1.6-0.7-2.2s-1.1-0.8-2-0.8
		c-0.8,0-1.5,0.3-2.1,0.9c-0.6,0.6-0.9,1.4-1.1,2.5H833.1z"/>
	<path class="st2" d="M840.5,31.9v1.9c0.7-1.4,1.8-2.1,3.4-2.1c1.8,0,3,0.8,3.5,2.4c0.3-0.8,0.8-1.3,1.5-1.7s1.4-0.6,2.2-0.6
		c1.2,0,2.2,0.4,2.8,1.1c0.6,0.7,1,1.8,1,3v8.2h-2.4v-7.7c0-1.7-0.7-2.6-2.1-2.6c-0.7,0-1.3,0.3-1.9,0.9s-0.8,1.5-0.8,2.8v6.6h-2.4
		v-7.7c0-1.7-0.7-2.6-2.1-2.6c-0.7,0-1.3,0.3-1.9,0.9c-0.6,0.6-0.8,1.5-0.8,2.8v6.6h-2.4V31.9H840.5z"/>
	<path class="st2" d="M872.8,28.6V31c-1.1-0.7-2.3-1-3.6-1c-0.9,0-1.6,0.2-2.1,0.6c-0.5,0.4-0.8,0.9-0.8,1.5c0,0.6,0.2,1.2,0.7,1.5
		s1.3,0.8,2.3,1.2c0.7,0.3,1.2,0.5,1.6,0.7s0.8,0.5,1.3,0.9c0.5,0.4,0.8,0.8,1.1,1.3c0.2,0.5,0.3,1.1,0.3,1.8c0,1.4-0.5,2.5-1.5,3.4
		c-1,0.8-2.3,1.2-3.9,1.2c-1.8,0-3.2-0.3-4.4-1v-2.6c1.3,0.9,2.7,1.4,4.4,1.4c0.9,0,1.6-0.2,2.1-0.6c0.5-0.4,0.8-1,0.8-1.7
		c0-0.4-0.2-0.8-0.5-1.2s-0.6-0.6-1-0.8c-0.4-0.2-0.9-0.4-1.6-0.8c-0.4-0.2-0.7-0.3-0.9-0.4s-0.4-0.2-0.8-0.4
		c-0.4-0.2-0.7-0.4-0.9-0.5c-0.2-0.1-0.4-0.3-0.7-0.6c-0.3-0.3-0.5-0.5-0.6-0.8c-0.1-0.3-0.2-0.6-0.3-0.9c-0.1-0.3-0.2-0.7-0.2-1.1
		c0-1.4,0.5-2.5,1.5-3.3c1-0.8,2.3-1.2,3.9-1.2C870.5,27.8,871.8,28.1,872.8,28.6z"/>
	<path class="st2" d="M879.5,33.7v6.7c0,1.2,0.6,1.8,1.7,1.8c0.7,0,1.2-0.2,1.7-0.5v2.1c-0.5,0.3-1.2,0.4-1.9,0.4
		c-2.5,0-3.8-1.3-3.8-3.8v-6.6h-1.9v-1.8h1.9v-3h2.4v3h3.2v1.8H879.5z"/>
	<path class="st2" d="M885.7,34.8v-2.3c0.9-0.5,2.2-0.8,3.7-0.8c3.2,0,4.8,1.5,4.8,4.6v7.7h-2.3v-1.4c-0.6,1-1.7,1.5-3.3,1.5
		c-1.2,0-2.1-0.3-2.8-1s-1-1.5-1-2.5c0-1.2,0.4-2.1,1.3-2.7c0.9-0.6,2.1-1,3.7-1h2v-0.7c0-0.8-0.2-1.5-0.6-1.9
		c-0.4-0.4-1.1-0.6-2-0.6C888,33.7,886.8,34.1,885.7,34.8z M891.9,38.7H890c-0.9,0-1.6,0.2-2,0.5s-0.7,0.8-0.7,1.3
		c0,0.6,0.2,1,0.5,1.3c0.4,0.3,0.9,0.5,1.5,0.5c0.8,0,1.4-0.2,1.8-0.6c0.4-0.4,0.7-1,0.7-1.7V38.7z"/>
	<path class="st2" d="M900.5,33.7v6.7c0,1.2,0.6,1.8,1.7,1.8c0.7,0,1.2-0.2,1.7-0.5v2.1c-0.5,0.3-1.2,0.4-1.9,0.4
		c-2.5,0-3.8-1.3-3.8-3.8v-6.6h-1.9v-1.8h1.9v-3h2.4v3h3.2v1.8H900.5z"/>
	<path class="st2" d="M914,31.9h2.4v12.2H914V42c-0.6,1.5-1.9,2.2-3.8,2.2c-1.2,0-2.2-0.4-2.9-1.1s-1.1-1.7-1.1-2.9v-8.3h2.4v7.7
		c0,0.8,0.2,1.5,0.6,1.9c0.4,0.4,1,0.7,1.7,0.7c0.9,0,1.6-0.3,2.2-1c0.6-0.6,0.8-1.5,0.8-2.7V31.9z"/>
	<path class="st2" d="M926.6,32.3v2.1c-0.8-0.5-1.8-0.7-3-0.7c-0.6,0-1,0.1-1.3,0.4s-0.5,0.6-0.5,1c0,0.1,0,0.2,0,0.3
		s0.1,0.2,0.1,0.3c0.1,0.1,0.1,0.2,0.2,0.3c0.1,0.1,0.1,0.1,0.3,0.2s0.2,0.1,0.3,0.2c0.1,0.1,0.2,0.1,0.4,0.2s0.3,0.1,0.4,0.2
		s0.2,0.1,0.4,0.2s0.3,0.1,0.4,0.2c0.9,0.4,1.7,0.9,2.2,1.4s0.8,1.2,0.8,2.1c0,1.1-0.4,1.9-1.2,2.6s-1.8,0.9-3.1,0.9
		c-1.4,0-2.6-0.2-3.6-0.7v-2.2c1.1,0.7,2.3,1,3.5,1c0.6,0,1.1-0.1,1.5-0.4s0.5-0.6,0.5-1c0-0.4-0.1-0.7-0.4-0.9
		c-0.3-0.3-0.5-0.5-0.8-0.6c-0.3-0.1-0.8-0.3-1.4-0.6c-1.9-0.8-2.9-1.9-2.9-3.5c0-1.1,0.4-1.9,1.2-2.5c0.8-0.6,1.8-0.9,3-0.9
		C924.8,31.8,925.8,32,926.6,32.3z"/>
</g>
<g>
	<path class="st2" d="M206,803h-6.7v5.3h5.9v2.1h-5.9v6.7h-2.5v-16.2h9.2V803z"/>
	<path class="st2" d="M208.7,817.1v-17h2.4v17H208.7z"/>
	<path class="st2" d="M223.6,814.3v2.1c-0.9,0.5-2.1,0.8-3.6,0.8c-1.9,0-3.4-0.6-4.5-1.7c-1.1-1.1-1.7-2.6-1.7-4.5
		c0-2,0.5-3.5,1.5-4.6c1-1.1,2.3-1.7,3.9-1.7c1.6,0,2.8,0.5,3.7,1.5s1.4,2.4,1.4,4.2c0,0.5,0,1-0.1,1.6h-8c0.2,1.1,0.6,1.9,1.3,2.4
		c0.7,0.6,1.7,0.8,2.8,0.8C221.6,815.2,222.7,814.9,223.6,814.3z M222.1,810.1v-0.4c0-0.9-0.3-1.6-0.7-2.2s-1.1-0.8-2-0.8
		c-0.8,0-1.5,0.3-2.1,0.9s-0.9,1.4-1.1,2.5H222.1z"/>
	<path class="st2" d="M232.7,810.9l4.1,6.2H234l-2.7-4.5l-2.8,4.5H226l4.2-6.2l-3.9-6h2.7l2.5,4.3l2.6-4.3h2.6L232.7,810.9z"/>
	<path class="st2" d="M239.1,802.2c-0.3-0.3-0.4-0.6-0.4-1s0.1-0.8,0.4-1.1c0.3-0.3,0.6-0.4,1-0.4c0.4,0,0.8,0.1,1.1,0.4
		s0.4,0.6,0.4,1.1c0,0.4-0.1,0.7-0.4,1s-0.6,0.4-1.1,0.4C239.8,802.6,239.4,802.5,239.1,802.2z M239,817.1v-12.2h2.4v12.2H239z"/>
	<path class="st2" d="M247.2,800.1v6.6c0.9-1.3,2.1-2,3.7-2c1.5,0,2.8,0.6,3.8,1.7c1,1.2,1.5,2.7,1.5,4.6c0,1.7-0.5,3.2-1.4,4.4
		c-0.9,1.2-2.2,1.8-3.8,1.8s-2.8-0.7-3.7-2v1.8h-2.4v-17H247.2z M250.5,815.2c0.9,0,1.6-0.4,2.3-1.1c0.6-0.8,0.9-1.7,0.9-2.9
		c0-1.4-0.3-2.4-0.9-3.2c-0.6-0.7-1.4-1.1-2.3-1.1c-0.8,0-1.6,0.3-2.2,1c-0.7,0.7-1,1.7-1,3.1c0,1.4,0.3,2.5,1,3.2
		C248.8,814.8,249.6,815.2,250.5,815.2z"/>
	<path class="st2" d="M259,802.2c-0.3-0.3-0.4-0.6-0.4-1s0.1-0.8,0.4-1.1c0.3-0.3,0.6-0.4,1-0.4c0.4,0,0.8,0.1,1.1,0.4
		s0.4,0.6,0.4,1.1c0,0.4-0.1,0.7-0.4,1s-0.6,0.4-1.1,0.4C259.6,802.6,259.3,802.5,259,802.2z M258.9,817.1v-12.2h2.4v12.2H258.9z"/>
	<path class="st2" d="M264.7,817.1v-17h2.4v17H264.7z"/>
	<path class="st2" d="M270.8,802.2c-0.3-0.3-0.4-0.6-0.4-1s0.1-0.8,0.4-1.1c0.3-0.3,0.6-0.4,1-0.4c0.4,0,0.8,0.1,1.1,0.4
		s0.4,0.6,0.4,1.1c0,0.4-0.1,0.7-0.4,1s-0.6,0.4-1.1,0.4C271.4,802.6,271,802.5,270.8,802.2z M270.6,817.1v-12.2h2.4v12.2H270.6z"/>
	<path class="st2" d="M279.5,806.7v6.7c0,1.2,0.6,1.8,1.7,1.8c0.7,0,1.2-0.2,1.7-0.5v2.1c-0.5,0.3-1.2,0.4-1.9,0.4
		c-2.5,0-3.8-1.3-3.8-3.8v-6.6h-1.9v-1.8h1.9v-3h2.4v3h3.2v1.8H279.5z"/>
	<path class="st2" d="M288.7,816.8l-4.8-11.9h2.6l1.5,4l1.9,5.1c0.1-0.5,0.7-2.2,1.7-5.1l1.4-4h2.5l-4.4,11.8
		c-1.2,3.1-3,4.7-5.4,4.7c-0.4,0-0.8,0-1.1-0.1v-2c0.3,0.1,0.5,0.1,0.8,0.1C287,819.4,288.1,818.5,288.7,816.8z"/>
	<path class="st2" d="M318.8,817.1h-3.1l-1.4-1.3c-1.3,1-2.9,1.5-4.9,1.5c-1.9,0-3.4-0.4-4.5-1.3c-1.1-0.8-1.7-1.9-1.7-3.2
		c0-1.9,1.2-3.3,3.7-4.2c-1.4-1.4-2.1-2.8-2.1-4c0-1.3,0.4-2.3,1.3-3c0.9-0.8,2-1.1,3.4-1.1c1.4,0,2.6,0.4,3.5,1.2
		c0.9,0.8,1.3,1.8,1.3,3.1c0,0.9-0.3,1.8-0.9,2.5c-0.6,0.7-1.5,1.4-2.8,2l3.6,3.4c0.4-0.7,0.6-1.4,0.6-2.3h2.2
		c-0.1,1.4-0.5,2.7-1.2,3.8c0.5,0.4,1.1,1,1.8,1.7C318.3,816.6,318.7,817,318.8,817.1z M308.4,810.1L308.4,810.1
		c-1,0.3-1.7,0.7-2.1,1.1c-0.4,0.4-0.6,0.9-0.6,1.5c0,0.8,0.4,1.4,1.1,1.8c0.7,0.4,1.6,0.7,2.7,0.7c1.3,0,2.4-0.3,3.3-0.9
		L308.4,810.1z M309.5,802.6c-0.7,0-1.2,0.2-1.6,0.6s-0.6,0.9-0.6,1.5c0,0.5,0.2,1,0.5,1.5c0.3,0.5,0.8,1.1,1.5,1.8
		c1.8-0.9,2.7-1.9,2.7-3.1c0-0.7-0.2-1.2-0.6-1.6S310.3,802.6,309.5,802.6z"/>
	<path class="st2" d="M152.6,843.8h6.9v2.1h-9.3v-16.2h9.2v2.1h-6.7v5h6v2.1h-6V843.8z"/>
	<path class="st2" d="M178.2,833.7v12.2h-2.4v-10.3H172v10.3h-2.4v-10.3h-3.9v10.3h-2.4v-10.3h-1.9v-1.8h1.9v-0.9c0-1.3,0.3-2.3,1-3
		c0.7-0.7,1.7-1.1,3-1.1c1.2,0,2.4,0.3,3.5,0.8c0.7-0.6,1.6-0.8,2.7-0.8c1.3,0,2.5,0.3,3.7,0.9v2c-1.3-0.6-2.4-0.9-3.5-0.9
		c-1.2,0-1.8,0.7-1.8,2.1v0.9H178.2z M169.6,833.7v-0.9c0-0.6,0.1-1.1,0.2-1.6c-0.8-0.3-1.6-0.5-2.2-0.5c-1.3,0-1.9,0.7-1.9,2.1v0.9
		H169.6z"/>
	<path class="st2" d="M184.2,839.8c0,1.2,0.4,2.2,1.1,3c0.7,0.8,1.7,1.2,3,1.2c1,0,1.9-0.3,2.7-0.8v2.1c-0.8,0.5-1.8,0.7-3,0.7
		c-1.9,0-3.4-0.6-4.6-1.8s-1.7-2.7-1.7-4.5c0-1.7,0.6-3.2,1.7-4.5c1.1-1.2,2.7-1.9,4.6-1.9c1.1,0,2,0.2,2.9,0.7v2.2
		c-0.8-0.5-1.7-0.7-2.7-0.7c-1.3,0-2.3,0.4-3,1.2C184.6,837.6,184.2,838.6,184.2,839.8z"/>
	<path class="st2" d="M194,831c-0.3-0.3-0.4-0.6-0.4-1c0-0.4,0.1-0.8,0.4-1.1c0.3-0.3,0.6-0.4,1-0.4c0.4,0,0.8,0.1,1.1,0.4
		s0.4,0.6,0.4,1.1c0,0.4-0.1,0.7-0.4,1s-0.6,0.4-1.1,0.4C194.6,831.4,194.3,831.3,194,831z M193.9,845.9v-12.2h2.4v12.2H193.9z"/>
	<path class="st2" d="M208.7,843.1v2.1c-0.9,0.5-2.1,0.8-3.6,0.8c-1.9,0-3.4-0.6-4.5-1.7c-1.1-1.1-1.7-2.6-1.7-4.5
		c0-2,0.5-3.5,1.5-4.6c1-1.1,2.3-1.7,3.9-1.7c1.6,0,2.8,0.5,3.7,1.5c0.9,1,1.4,2.4,1.4,4.2c0,0.5,0,1-0.1,1.6h-8
		c0.2,1.1,0.6,1.9,1.3,2.4s1.7,0.8,2.8,0.8C206.8,844,207.9,843.7,208.7,843.1z M207.2,838.9v-0.4c0-0.9-0.3-1.6-0.7-2.2
		c-0.5-0.5-1.1-0.8-2-0.8c-0.8,0-1.5,0.3-2.1,0.9c-0.6,0.6-0.9,1.4-1.1,2.5H207.2z"/>
	<path class="st2" d="M214.6,833.7v2.1c0.7-1.5,2-2.3,3.8-2.3c1.2,0,2.2,0.4,2.9,1.1s1.1,1.7,1.1,3v8.2H220v-7.7
		c0-0.8-0.2-1.5-0.6-1.9c-0.4-0.4-1-0.7-1.7-0.7c-0.8,0-1.5,0.3-2.1,1c-0.6,0.6-0.9,1.6-0.9,2.7v6.6h-2.4v-12.2H214.6z"/>
	<path class="st2" d="M227.2,839.8c0,1.2,0.4,2.2,1.1,3c0.7,0.8,1.7,1.2,3,1.2c1,0,1.9-0.3,2.7-0.8v2.1c-0.8,0.5-1.8,0.7-3,0.7
		c-1.9,0-3.4-0.6-4.6-1.8s-1.7-2.7-1.7-4.5c0-1.7,0.6-3.2,1.7-4.5c1.1-1.2,2.7-1.9,4.6-1.9c1.1,0,2,0.2,2.9,0.7v2.2
		c-0.8-0.5-1.7-0.7-2.7-0.7c-1.3,0-2.3,0.4-3,1.2C227.6,837.6,227.2,838.6,227.2,839.8z"/>
	<path class="st2" d="M240.1,845.6l-4.8-11.9h2.6l1.5,4l1.9,5.1c0.1-0.5,0.7-2.2,1.7-5.1l1.4-4h2.5l-4.4,11.8
		c-1.2,3.1-3,4.7-5.4,4.7c-0.4,0-0.8,0-1.1-0.1v-2c0.3,0.1,0.5,0.1,0.8,0.1C238.4,848.2,239.5,847.3,240.1,845.6z"/>
	<path class="st2" d="M259.9,846.1c-1.8,0-3.2-0.6-4.2-1.8c-1-1.2-1.5-2.6-1.5-4.4c0-1.8,0.5-3.3,1.6-4.5s2.4-1.8,4.2-1.8
		c1.9,0,3.3,0.6,4.3,1.8c1,1.2,1.5,2.7,1.5,4.5c0,1.8-0.5,3.3-1.5,4.5C263.1,845.5,261.7,846.1,259.9,846.1z M259.8,835.5
		c-1,0-1.8,0.4-2.4,1.2c-0.6,0.8-0.9,1.8-0.9,3.1c0,1.2,0.3,2.2,0.9,3s1.4,1.2,2.4,1.2c1.1,0,1.9-0.4,2.5-1.2c0.6-0.8,0.9-1.8,0.9-3
		c0-1.3-0.3-2.3-0.8-3.1C261.8,835.9,261,835.5,259.8,835.5z"/>
	<path class="st2" d="M274.6,828.9v2.1c-0.4-0.2-0.8-0.2-1.2-0.2c-1.2,0-1.8,0.7-1.8,2.1v0.9h2.6v1.8h-2.6v10.3h-2.4v-10.3h-1.9
		v-1.8h1.9v-0.9c0-1.3,0.3-2.3,1-3c0.7-0.7,1.6-1.1,2.9-1.1C273.7,828.7,274.1,828.7,274.6,828.9z"/>
	<path class="st2" d="M292.1,839.7v-10h2.5v10c0,2.1-0.5,3.7-1.6,4.8c-1.1,1.1-2.6,1.6-4.5,1.6c-1.9,0-3.4-0.5-4.5-1.6
		c-1.1-1.1-1.6-2.6-1.6-4.6v-10.2h2.5v10.2c0,1.4,0.3,2.4,1,3c0.7,0.6,1.5,0.9,2.6,0.9C290.8,843.8,292.1,842.4,292.1,839.7z"/>
	<path class="st2" d="M304.8,834.1v2.1c-0.8-0.5-1.8-0.7-3-0.7c-0.6,0-1,0.1-1.3,0.4s-0.5,0.6-0.5,1c0,0.1,0,0.2,0,0.3
		c0,0.1,0.1,0.2,0.1,0.3c0.1,0.1,0.1,0.2,0.2,0.3c0.1,0.1,0.1,0.1,0.3,0.2s0.2,0.1,0.3,0.2c0.1,0.1,0.2,0.1,0.4,0.2
		c0.2,0.1,0.3,0.1,0.4,0.2c0.1,0,0.2,0.1,0.4,0.2s0.3,0.1,0.4,0.2c0.9,0.4,1.7,0.9,2.2,1.4s0.8,1.2,0.8,2.1c0,1.1-0.4,1.9-1.2,2.6
		s-1.8,0.9-3.1,0.9c-1.4,0-2.6-0.2-3.6-0.7V843c1.1,0.7,2.3,1,3.5,1c0.6,0,1.1-0.1,1.5-0.4s0.5-0.6,0.5-1c0-0.4-0.1-0.7-0.4-0.9
		c-0.3-0.3-0.5-0.5-0.8-0.6c-0.3-0.1-0.8-0.3-1.4-0.6c-1.9-0.8-2.9-1.9-2.9-3.5c0-1.1,0.4-1.9,1.2-2.5c0.8-0.6,1.8-0.9,3-0.9
		C303.1,833.6,304.1,833.8,304.8,834.1z"/>
	<path class="st2" d="M317,843.1v2.1c-0.9,0.5-2.1,0.8-3.6,0.8c-1.9,0-3.4-0.6-4.5-1.7c-1.1-1.1-1.7-2.6-1.7-4.5
		c0-2,0.5-3.5,1.5-4.6c1-1.1,2.3-1.7,3.9-1.7c1.6,0,2.8,0.5,3.7,1.5c0.9,1,1.4,2.4,1.4,4.2c0,0.5,0,1-0.1,1.6h-8
		c0.2,1.1,0.6,1.9,1.3,2.4s1.7,0.8,2.8,0.8C315.1,844,316.2,843.7,317,843.1z M315.5,838.9v-0.4c0-0.9-0.3-1.6-0.7-2.2
		c-0.5-0.5-1.1-0.8-2-0.8c-0.8,0-1.5,0.3-2.1,0.9c-0.6,0.6-0.9,1.4-1.1,2.5H315.5z"/>
</g>
<g>
	<path class="st2" d="M208.8,593.1l-1.3-4H201l-1.3,4h-2.6l5.6-16.2h3.2l5.5,16.2H208.8z M201.7,587h5.2l-0.3-0.8
		c-0.6-1.9-1.1-3.5-1.5-4.7c-0.4-1.2-0.6-2-0.7-2.3l-0.1-0.5c-0.2,0.8-1,3.2-2.4,7.5L201.7,587z"/>
	<path class="st2" d="M222.9,590.3v2.1c-0.9,0.5-2.1,0.8-3.6,0.8c-1.9,0-3.4-0.6-4.5-1.7c-1.1-1.1-1.7-2.6-1.7-4.5
		c0-2,0.5-3.5,1.5-4.6c1-1.1,2.3-1.7,3.9-1.7c1.6,0,2.8,0.5,3.7,1.5c0.9,1,1.4,2.4,1.4,4.2c0,0.5,0,1-0.1,1.6h-8
		c0.2,1.1,0.6,1.9,1.3,2.4c0.7,0.6,1.7,0.8,2.8,0.8C221,591.2,222.1,590.9,222.9,590.3z M221.4,586.1v-0.4c0-0.9-0.3-1.6-0.7-2.2
		c-0.5-0.5-1.1-0.8-2-0.8c-0.8,0-1.5,0.3-2.1,0.9s-0.9,1.4-1.1,2.5H221.4z"/>
	<path class="st2" d="M233.4,581.3v2.1c-0.8-0.5-1.8-0.7-3-0.7c-0.6,0-1,0.1-1.3,0.4s-0.5,0.6-0.5,1c0,0.1,0,0.2,0,0.3
		c0,0.1,0.1,0.2,0.1,0.3c0.1,0.1,0.1,0.2,0.2,0.3c0.1,0.1,0.1,0.1,0.3,0.2s0.2,0.1,0.3,0.2c0.1,0.1,0.2,0.1,0.4,0.2
		c0.2,0.1,0.3,0.1,0.4,0.2s0.2,0.1,0.4,0.2s0.3,0.1,0.4,0.2c0.9,0.4,1.7,0.9,2.2,1.4s0.8,1.2,0.8,2.1c0,1.1-0.4,1.9-1.2,2.6
		c-0.8,0.6-1.8,0.9-3.1,0.9c-1.4,0-2.6-0.2-3.6-0.7v-2.2c1.1,0.7,2.3,1,3.5,1c0.6,0,1.1-0.1,1.5-0.4s0.5-0.6,0.5-1
		c0-0.4-0.1-0.7-0.4-0.9c-0.3-0.3-0.5-0.5-0.8-0.6c-0.3-0.1-0.8-0.3-1.4-0.6c-1.9-0.8-2.9-1.9-2.9-3.5c0-1.1,0.4-1.9,1.2-2.5
		c0.8-0.6,1.8-0.9,3-0.9C231.6,580.8,232.7,580.9,233.4,581.3z"/>
	<path class="st2" d="M239.6,582.7v6.7c0,1.2,0.6,1.8,1.7,1.8c0.7,0,1.2-0.2,1.7-0.5v2.1c-0.5,0.3-1.2,0.4-1.9,0.4
		c-2.5,0-3.8-1.3-3.8-3.8v-6.6h-1.9v-1.8h1.9v-3h2.4v3h3.2v1.8H239.6z"/>
	<path class="st2" d="M247.8,576.1v6.9c0.7-1.5,1.9-2.3,3.8-2.3c1.2,0,2.1,0.4,2.9,1.1c0.7,0.7,1.1,1.8,1.1,3.1v8.2h-2.4v-7.7
		c0-0.8-0.2-1.5-0.6-1.9c-0.4-0.5-1-0.7-1.7-0.7c-0.8,0-1.5,0.3-2.1,0.9s-0.9,1.5-0.9,2.8v6.6h-2.4v-17H247.8z"/>
	<path class="st2" d="M267.8,590.3v2.1c-0.9,0.5-2.1,0.8-3.6,0.8c-1.9,0-3.4-0.6-4.5-1.7c-1.1-1.1-1.7-2.6-1.7-4.5
		c0-2,0.5-3.5,1.5-4.6c1-1.1,2.3-1.7,3.9-1.7c1.6,0,2.8,0.5,3.7,1.5c0.9,1,1.4,2.4,1.4,4.2c0,0.5,0,1-0.1,1.6h-8
		c0.2,1.1,0.6,1.9,1.3,2.4c0.7,0.6,1.7,0.8,2.8,0.8C265.8,591.2,266.9,590.9,267.8,590.3z M266.3,586.1v-0.4c0-0.9-0.3-1.6-0.7-2.2
		c-0.5-0.5-1.1-0.8-2-0.8c-0.8,0-1.5,0.3-2.1,0.9s-0.9,1.4-1.1,2.5H266.3z"/>
	<path class="st2" d="M274.4,582.7v6.7c0,1.2,0.6,1.8,1.7,1.8c0.7,0,1.2-0.2,1.7-0.5v2.1c-0.5,0.3-1.2,0.4-1.9,0.4
		c-2.5,0-3.8-1.3-3.8-3.8v-6.6h-1.9v-1.8h1.9v-3h2.4v3h3.2v1.8H274.4z"/>
	<path class="st2" d="M280.5,578.2c-0.3-0.3-0.4-0.6-0.4-1c0-0.4,0.1-0.8,0.4-1.1c0.3-0.3,0.6-0.4,1-0.4s0.8,0.1,1.1,0.4
		c0.3,0.3,0.4,0.6,0.4,1.1c0,0.4-0.1,0.7-0.4,1c-0.3,0.3-0.6,0.4-1.1,0.4S280.8,578.5,280.5,578.2z M280.4,593.1v-12.2h2.4v12.2
		H280.4z"/>
	<path class="st2" d="M287.9,587c0,1.2,0.4,2.2,1.1,3c0.7,0.8,1.7,1.2,3,1.2c1,0,1.9-0.3,2.7-0.8v2.1c-0.8,0.5-1.8,0.7-3,0.7
		c-1.9,0-3.4-0.6-4.6-1.8c-1.1-1.2-1.7-2.7-1.7-4.5c0-1.7,0.6-3.2,1.7-4.5c1.1-1.2,2.7-1.9,4.6-1.9c1.1,0,2,0.2,2.9,0.7v2.2
		c-0.8-0.5-1.7-0.7-2.7-0.7c-1.3,0-2.3,0.4-3,1.2C288.3,584.8,287.9,585.8,287.9,587z"/>
	<path class="st2" d="M318.8,593.1h-3.1l-1.4-1.3c-1.3,1-2.9,1.5-4.9,1.5c-1.9,0-3.4-0.4-4.5-1.3c-1.1-0.8-1.7-1.9-1.7-3.2
		c0-1.9,1.2-3.3,3.7-4.2c-1.4-1.4-2.1-2.8-2.1-4c0-1.3,0.4-2.3,1.3-3c0.9-0.8,2-1.1,3.4-1.1c1.4,0,2.6,0.4,3.5,1.2s1.3,1.8,1.3,3.1
		c0,0.9-0.3,1.8-0.9,2.5c-0.6,0.7-1.5,1.4-2.8,2l3.6,3.4c0.4-0.7,0.6-1.4,0.6-2.3h2.2c-0.1,1.4-0.5,2.7-1.2,3.8
		c0.5,0.4,1.1,1,1.8,1.7C318.3,592.6,318.7,593,318.8,593.1z M308.4,586.1L308.4,586.1c-1,0.3-1.7,0.7-2.1,1.1
		c-0.4,0.4-0.6,0.9-0.6,1.5c0,0.8,0.4,1.4,1.1,1.8s1.6,0.7,2.7,0.7c1.3,0,2.4-0.3,3.3-0.9L308.4,586.1z M309.5,578.6
		c-0.7,0-1.2,0.2-1.6,0.6c-0.4,0.4-0.6,0.9-0.6,1.5c0,0.5,0.2,1,0.5,1.5c0.3,0.5,0.8,1.1,1.5,1.8c1.8-0.9,2.7-1.9,2.7-3.1
		c0-0.7-0.2-1.2-0.6-1.6S310.3,578.6,309.5,578.6z"/>
	<path class="st2" d="M134.8,621.9l1.2-16.2h2.9l2.2,5.9c0.4,1,0.8,2.1,1.2,3.2c0.4,1.1,0.7,2,0.9,2.6l0.3,0.9
		c0.7-2.2,1.5-4.4,2.4-6.8l2.3-5.9h2.9l1.5,16.2h-2.4l-0.6-6.3l-0.5-6.5c-0.7,2-1.5,4.2-2.4,6.5l-2.3,6h-1.9l-2.2-6l-2.2-6.4
		c0,0.7-0.1,2.8-0.4,6.4l-0.5,6.3H134.8z"/>
	<path class="st2" d="M156,607c-0.3-0.3-0.4-0.6-0.4-1s0.1-0.8,0.4-1.1c0.3-0.3,0.6-0.4,1-0.4s0.8,0.1,1.1,0.4
		c0.3,0.3,0.4,0.6,0.4,1.1c0,0.4-0.1,0.7-0.4,1c-0.3,0.3-0.6,0.4-1.1,0.4S156.3,607.3,156,607z M155.9,621.9v-12.2h2.4v12.2H155.9z"
		/>
	<path class="st2" d="M164,609.7v2.1c0.7-1.5,2-2.3,3.8-2.3c1.2,0,2.2,0.4,2.9,1.1c0.7,0.7,1.1,1.7,1.1,3v8.2h-2.4v-7.7
		c0-0.8-0.2-1.5-0.6-1.9c-0.4-0.4-1-0.7-1.7-0.7c-0.8,0-1.5,0.3-2.1,1c-0.6,0.6-0.9,1.6-0.9,2.7v6.6h-2.4v-12.2H164z"/>
	<path class="st2" d="M175.1,607c-0.3-0.3-0.4-0.6-0.4-1s0.1-0.8,0.4-1.1c0.3-0.3,0.6-0.4,1-0.4s0.8,0.1,1.1,0.4
		c0.3,0.3,0.4,0.6,0.4,1.1c0,0.4-0.1,0.7-0.4,1c-0.3,0.3-0.6,0.4-1.1,0.4S175.4,607.3,175.1,607z M175,621.9v-12.2h2.4v12.2H175z"/>
	<path class="st2" d="M183.1,609.7v1.9c0.7-1.4,1.8-2.1,3.4-2.1c1.8,0,3,0.8,3.5,2.4c0.3-0.8,0.8-1.3,1.5-1.7
		c0.6-0.4,1.4-0.6,2.2-0.6c1.2,0,2.2,0.4,2.8,1.1c0.6,0.7,1,1.8,1,3v8.2h-2.4v-7.7c0-1.7-0.7-2.6-2.1-2.6c-0.7,0-1.3,0.3-1.9,0.9
		c-0.6,0.6-0.8,1.5-0.8,2.8v6.6H188v-7.7c0-1.7-0.7-2.6-2.1-2.6c-0.7,0-1.3,0.3-1.9,0.9c-0.6,0.6-0.8,1.5-0.8,2.8v6.6h-2.4v-12.2
		H183.1z"/>
	<path class="st2" d="M201,612.6v-2.3c0.9-0.5,2.2-0.8,3.7-0.8c3.2,0,4.8,1.5,4.8,4.6v7.7h-2.3v-1.4c-0.6,1-1.7,1.5-3.3,1.5
		c-1.2,0-2.1-0.3-2.8-1c-0.7-0.7-1-1.5-1-2.5c0-1.2,0.4-2.1,1.3-2.7c0.9-0.6,2.1-1,3.7-1h2V614c0-0.8-0.2-1.5-0.6-1.9
		c-0.4-0.4-1.1-0.6-2-0.6C203.2,611.5,202,611.9,201,612.6z M207.1,616.4h-1.8c-0.9,0-1.6,0.2-2,0.5s-0.7,0.8-0.7,1.3
		c0,0.6,0.2,1,0.5,1.3s0.9,0.5,1.5,0.5c0.8,0,1.4-0.2,1.8-0.6c0.4-0.4,0.7-1,0.7-1.7V616.4z"/>
	<path class="st2" d="M212.8,621.9v-17h2.4v17H212.8z"/>
	<path class="st2" d="M218.8,607c-0.3-0.3-0.4-0.6-0.4-1s0.1-0.8,0.4-1.1c0.3-0.3,0.6-0.4,1-0.4s0.8,0.1,1.1,0.4
		c0.3,0.3,0.4,0.6,0.4,1.1c0,0.4-0.1,0.7-0.4,1c-0.3,0.3-0.6,0.4-1.1,0.4S219.1,607.3,218.8,607z M218.6,621.9v-12.2h2.4v12.2H218.6
		z"/>
	<path class="st2" d="M231.4,610.1v2.1c-0.8-0.5-1.8-0.7-3-0.7c-0.6,0-1,0.1-1.3,0.4c-0.3,0.3-0.5,0.6-0.5,1c0,0.1,0,0.2,0,0.3
		c0,0.1,0.1,0.2,0.1,0.3c0.1,0.1,0.1,0.2,0.2,0.3c0.1,0.1,0.1,0.1,0.3,0.2c0.1,0.1,0.2,0.1,0.3,0.2c0.1,0.1,0.2,0.1,0.4,0.2
		s0.3,0.1,0.4,0.2s0.2,0.1,0.4,0.2c0.2,0.1,0.3,0.1,0.4,0.2c0.9,0.4,1.7,0.9,2.2,1.4c0.5,0.5,0.8,1.2,0.8,2.1c0,1.1-0.4,1.9-1.2,2.6
		c-0.8,0.6-1.8,0.9-3.1,0.9c-1.4,0-2.6-0.2-3.6-0.7V619c1.1,0.7,2.3,1,3.5,1c0.6,0,1.1-0.1,1.5-0.4c0.3-0.3,0.5-0.6,0.5-1
		c0-0.4-0.1-0.7-0.4-0.9c-0.3-0.3-0.5-0.5-0.8-0.6c-0.3-0.1-0.8-0.3-1.4-0.6c-1.9-0.8-2.9-1.9-2.9-3.5c0-1.1,0.4-1.9,1.2-2.5
		c0.8-0.6,1.8-0.9,3-0.9C229.6,609.6,230.6,609.7,231.4,610.1z"/>
	<path class="st2" d="M237.5,611.5v6.7c0,1.2,0.6,1.8,1.7,1.8c0.7,0,1.2-0.2,1.7-0.5v2.1c-0.5,0.3-1.2,0.4-1.9,0.4
		c-2.5,0-3.8-1.3-3.8-3.8v-6.6h-1.9v-1.8h1.9v-3h2.4v3h3.2v1.8H237.5z"/>
	<path class="st2" d="M249.5,605.7h5c2.4,0,4.4,0.7,5.9,2.2c1.5,1.5,2.3,3.4,2.3,5.7c0,2.4-0.7,4.4-2.2,5.9c-1.4,1.6-3.4,2.3-6,2.3
		h-5.1V605.7z M252,619.8h2.5c1.8,0,3.2-0.6,4.2-1.7c1-1.2,1.4-2.6,1.4-4.4c0-1.7-0.5-3-1.6-4.2s-2.4-1.7-4.2-1.7H252V619.8z"/>
	<path class="st2" d="M274.4,619.1v2.1c-0.9,0.5-2.1,0.8-3.6,0.8c-1.9,0-3.4-0.6-4.5-1.7c-1.1-1.1-1.7-2.6-1.7-4.5
		c0-2,0.5-3.5,1.5-4.6c1-1.1,2.3-1.7,3.9-1.7c1.6,0,2.8,0.5,3.7,1.5c0.9,1,1.4,2.4,1.4,4.2c0,0.5,0,1-0.1,1.6h-8
		c0.2,1.1,0.6,1.9,1.3,2.4c0.7,0.6,1.7,0.8,2.8,0.8C272.5,620,273.6,619.7,274.4,619.1z M272.9,614.9v-0.4c0-0.9-0.3-1.6-0.7-2.2
		c-0.5-0.5-1.1-0.8-2-0.8c-0.8,0-1.5,0.3-2.1,0.9c-0.6,0.6-0.9,1.4-1.1,2.5H272.9z"/>
	<path class="st2" d="M284.9,610.1v2.1c-0.8-0.5-1.8-0.7-3-0.7c-0.6,0-1,0.1-1.3,0.4c-0.3,0.3-0.5,0.6-0.5,1c0,0.1,0,0.2,0,0.3
		c0,0.1,0.1,0.2,0.1,0.3c0.1,0.1,0.1,0.2,0.2,0.3c0.1,0.1,0.1,0.1,0.3,0.2c0.1,0.1,0.2,0.1,0.3,0.2c0.1,0.1,0.2,0.1,0.4,0.2
		s0.3,0.1,0.4,0.2s0.2,0.1,0.4,0.2c0.2,0.1,0.3,0.1,0.4,0.2c0.9,0.4,1.7,0.9,2.2,1.4c0.5,0.5,0.8,1.2,0.8,2.1c0,1.1-0.4,1.9-1.2,2.6
		c-0.8,0.6-1.8,0.9-3.1,0.9c-1.4,0-2.6-0.2-3.6-0.7V619c1.1,0.7,2.3,1,3.5,1c0.6,0,1.1-0.1,1.5-0.4c0.3-0.3,0.5-0.6,0.5-1
		c0-0.4-0.1-0.7-0.4-0.9c-0.3-0.3-0.5-0.5-0.8-0.6c-0.3-0.1-0.8-0.3-1.4-0.6c-1.9-0.8-2.9-1.9-2.9-3.5c0-1.1,0.4-1.9,1.2-2.5
		c0.8-0.6,1.8-0.9,3-0.9C283.1,609.6,284.2,609.7,284.9,610.1z"/>
	<path class="st2" d="M288.3,607c-0.3-0.3-0.4-0.6-0.4-1s0.1-0.8,0.4-1.1c0.3-0.3,0.6-0.4,1-0.4s0.8,0.1,1.1,0.4
		c0.3,0.3,0.4,0.6,0.4,1.1c0,0.4-0.1,0.7-0.4,1c-0.3,0.3-0.6,0.4-1.1,0.4S288.5,607.3,288.3,607z M288.1,621.9v-12.2h2.4v12.2H288.1
		z"/>
	<path class="st2" d="M301.8,609.7h2.4v11.1c0,1.9-0.5,3.3-1.6,4.2c-1.1,1-2.4,1.4-4.1,1.4c-1.6,0-2.9-0.3-4-0.8v-2.4
		c1,0.7,2.3,1,3.7,1c2.4,0,3.6-1.2,3.6-3.5v-1.2c-0.8,1.3-2,2-3.5,2c-1.4,0-2.6-0.5-3.5-1.5c-1-1-1.5-2.5-1.5-4.3
		c0-1.8,0.5-3.3,1.4-4.4c0.9-1.2,2.1-1.7,3.6-1.7c1.6,0,2.8,0.7,3.5,2.1V609.7z M298.7,619.5c0.8,0,1.6-0.3,2.2-1
		c0.6-0.6,0.9-1.6,0.9-2.7c0-1.4-0.3-2.5-0.9-3.2c-0.6-0.7-1.3-1-2.1-1c-0.9,0-1.7,0.4-2.2,1.1c-0.5,0.7-0.8,1.7-0.8,2.9
		c0,1.3,0.3,2.2,0.9,2.9C297.2,619.2,297.9,619.5,298.7,619.5z"/>
	<path class="st2" d="M309.7,609.7v2.1c0.7-1.5,2-2.3,3.8-2.3c1.2,0,2.2,0.4,2.9,1.1c0.7,0.7,1.1,1.7,1.1,3v8.2H315v-7.7
		c0-0.8-0.2-1.5-0.6-1.9c-0.4-0.4-1-0.7-1.7-0.7c-0.8,0-1.5,0.3-2.1,1c-0.6,0.6-0.9,1.6-0.9,2.7v6.6h-2.4v-12.2H309.7z"/>
</g>
<g>
	<path class="st2" d="M100.8,338.5h2.5v16.2h-2.5v-7.1h-7.3v7.1h-2.5v-16.2h2.5v7h7.3V338.5z"/>
	<path class="st2" d="M115.8,351.9v2.1c-0.9,0.5-2.1,0.8-3.6,0.8c-1.9,0-3.4-0.6-4.5-1.7c-1.1-1.1-1.7-2.6-1.7-4.5
		c0-2,0.5-3.5,1.5-4.6c1-1.1,2.3-1.7,3.9-1.7c1.6,0,2.8,0.5,3.7,1.5s1.4,2.4,1.4,4.2c0,0.5,0,1-0.1,1.6h-8c0.2,1.1,0.6,1.9,1.3,2.4
		c0.7,0.6,1.7,0.8,2.8,0.8C113.8,352.8,114.9,352.5,115.8,351.9z M114.3,347.7v-0.4c0-0.9-0.3-1.6-0.7-2.2c-0.5-0.5-1.1-0.8-2-0.8
		c-0.8,0-1.5,0.3-2.1,0.9c-0.6,0.6-0.9,1.4-1.1,2.5H114.3z"/>
	<path class="st2" d="M119.4,354.6v-17h2.4v17H119.4z"/>
	<path class="st2" d="M127.5,342.5v1.9c0.8-1.4,2.1-2,3.7-2c1.6,0,2.9,0.6,3.8,1.7c0.9,1.2,1.4,2.6,1.4,4.4c0,1.8-0.5,3.4-1.4,4.5
		c-1,1.2-2.2,1.8-3.8,1.8c-1.6,0-2.8-0.7-3.7-2v6.5h-2.4v-16.8H127.5z M130.8,352.7c0.9,0,1.7-0.4,2.3-1.1s0.9-1.8,0.9-3.1
		c0-1.3-0.3-2.3-0.9-3c-0.6-0.7-1.3-1.1-2.3-1.1c-0.9,0-1.7,0.3-2.4,1s-1,1.7-1,3.2c0,1.4,0.3,2.5,1,3.2
		C129.2,352.4,130,352.7,130.8,352.7z"/>
	<path class="st2" d="M146,342.9v2.1c-0.8-0.5-1.8-0.7-3-0.7c-0.6,0-1,0.1-1.3,0.4s-0.5,0.6-0.5,1c0,0.1,0,0.2,0,0.3
		s0.1,0.2,0.1,0.3c0.1,0.1,0.1,0.2,0.2,0.3c0.1,0.1,0.1,0.1,0.3,0.2s0.2,0.1,0.3,0.2c0.1,0.1,0.2,0.1,0.4,0.2s0.3,0.1,0.4,0.2
		s0.2,0.1,0.4,0.2s0.3,0.1,0.4,0.2c0.9,0.4,1.7,0.9,2.2,1.4s0.8,1.2,0.8,2.1c0,1.1-0.4,1.9-1.2,2.6s-1.8,0.9-3.1,0.9
		c-1.4,0-2.6-0.2-3.6-0.7v-2.2c1.1,0.7,2.3,1,3.5,1c0.6,0,1.1-0.1,1.5-0.4s0.5-0.6,0.5-1c0-0.4-0.1-0.7-0.4-0.9
		c-0.3-0.3-0.5-0.5-0.8-0.6c-0.3-0.1-0.8-0.3-1.4-0.6c-1.9-0.8-2.9-1.9-2.9-3.5c0-1.1,0.4-1.9,1.2-2.5c0.8-0.6,1.8-0.9,3-0.9
		C144.3,342.3,145.3,342.5,146,342.9z"/>
	<path class="st2" d="M164.9,348.5v-10h2.5v10c0,2.1-0.5,3.7-1.6,4.8c-1.1,1.1-2.6,1.6-4.5,1.6c-1.9,0-3.4-0.5-4.5-1.6
		c-1.1-1.1-1.6-2.6-1.6-4.6v-10.2h2.5v10.2c0,1.4,0.3,2.4,1,3s1.5,0.9,2.6,0.9C163.7,352.6,164.9,351.2,164.9,348.5z"/>
	<path class="st2" d="M177.6,342.9v2.1c-0.8-0.5-1.8-0.7-3-0.7c-0.6,0-1,0.1-1.3,0.4s-0.5,0.6-0.5,1c0,0.1,0,0.2,0,0.3
		s0.1,0.2,0.1,0.3c0.1,0.1,0.1,0.2,0.2,0.3c0.1,0.1,0.1,0.1,0.3,0.2s0.2,0.1,0.3,0.2c0.1,0.1,0.2,0.1,0.4,0.2s0.3,0.1,0.4,0.2
		s0.2,0.1,0.4,0.2s0.3,0.1,0.4,0.2c0.9,0.4,1.7,0.9,2.2,1.4s0.8,1.2,0.8,2.1c0,1.1-0.4,1.9-1.2,2.6s-1.8,0.9-3.1,0.9
		c-1.4,0-2.6-0.2-3.6-0.7v-2.2c1.1,0.7,2.3,1,3.5,1c0.6,0,1.1-0.1,1.5-0.4s0.5-0.6,0.5-1c0-0.4-0.1-0.7-0.4-0.9
		c-0.3-0.3-0.5-0.5-0.8-0.6c-0.3-0.1-0.8-0.3-1.4-0.6c-1.9-0.8-2.9-1.9-2.9-3.5c0-1.1,0.4-1.9,1.2-2.5c0.8-0.6,1.8-0.9,3-0.9
		C175.9,342.3,176.9,342.5,177.6,342.9z"/>
	<path class="st2" d="M189.8,351.9v2.1c-0.9,0.5-2.1,0.8-3.6,0.8c-1.9,0-3.4-0.6-4.5-1.7c-1.1-1.1-1.7-2.6-1.7-4.5
		c0-2,0.5-3.5,1.5-4.6c1-1.1,2.3-1.7,3.9-1.7c1.6,0,2.8,0.5,3.7,1.5s1.4,2.4,1.4,4.2c0,0.5,0,1-0.1,1.6h-8c0.2,1.1,0.6,1.9,1.3,2.4
		c0.7,0.6,1.7,0.8,2.8,0.8C187.9,352.8,189,352.5,189.8,351.9z M188.3,347.7v-0.4c0-0.9-0.3-1.6-0.7-2.2c-0.5-0.5-1.1-0.8-2-0.8
		c-0.8,0-1.5,0.3-2.1,0.9c-0.6,0.6-0.9,1.4-1.1,2.5H188.3z"/>
	<path class="st2" d="M195.7,342.5v2.1c0.6-1.5,1.7-2.3,3.2-2.3c0.2,0,0.5,0,0.7,0.1v2.3c-0.3-0.1-0.7-0.2-1.1-0.2
		c-0.8,0-1.5,0.4-2,1.1s-0.8,1.6-0.8,2.6v6.5h-2.4v-12.2H195.7z"/>
	<path class="st2" d="M215.9,354.6l-3.8-6.1H210v6.1h-2.5v-16.2h4.5c1.9,0,3.3,0.5,4.3,1.4c1,0.9,1.5,2.1,1.5,3.7
		c0,1.1-0.3,2.1-0.9,2.9c-0.6,0.8-1.3,1.4-2.3,1.7l4.2,6.5H215.9z M210,340.5v5.9h2.2c1,0,1.8-0.3,2.3-0.8c0.5-0.5,0.8-1.3,0.8-2.1
		c0-2-1.1-3-3.2-3H210z"/>
	<path class="st2" d="M230.1,351.9v2.1c-0.9,0.5-2.1,0.8-3.6,0.8c-1.9,0-3.4-0.6-4.5-1.7c-1.1-1.1-1.7-2.6-1.7-4.5
		c0-2,0.5-3.5,1.5-4.6c1-1.1,2.3-1.7,3.9-1.7c1.6,0,2.8,0.5,3.7,1.5s1.4,2.4,1.4,4.2c0,0.5,0,1-0.1,1.6h-8c0.2,1.1,0.6,1.9,1.3,2.4
		c0.7,0.6,1.7,0.8,2.8,0.8C228.2,352.8,229.2,352.5,230.1,351.9z M228.6,347.7v-0.4c0-0.9-0.3-1.6-0.7-2.2s-1.1-0.8-2-0.8
		c-0.8,0-1.5,0.3-2.1,0.9c-0.6,0.6-0.9,1.4-1.1,2.5H228.6z"/>
	<path class="st2" d="M235.4,348.6c0,1.2,0.4,2.2,1.1,3s1.7,1.2,3,1.2c1,0,1.9-0.3,2.7-0.8v2.1c-0.8,0.5-1.8,0.7-3,0.7
		c-1.9,0-3.4-0.6-4.6-1.8c-1.1-1.2-1.7-2.7-1.7-4.5c0-1.7,0.6-3.2,1.7-4.5c1.1-1.2,2.7-1.9,4.6-1.9c1.1,0,2,0.2,2.9,0.7v2.2
		c-0.8-0.5-1.7-0.7-2.7-0.7c-1.3,0-2.3,0.4-3,1.2S235.4,347.4,235.4,348.6z"/>
	<path class="st2" d="M250,354.9c-1.8,0-3.2-0.6-4.2-1.8c-1-1.2-1.5-2.6-1.5-4.4c0-1.8,0.5-3.3,1.6-4.5s2.4-1.8,4.2-1.8
		c1.9,0,3.3,0.6,4.3,1.8c1,1.2,1.5,2.7,1.5,4.5c0,1.8-0.5,3.3-1.5,4.5C253.3,354.3,251.8,354.9,250,354.9z M250,344.3
		c-1,0-1.8,0.4-2.4,1.2c-0.6,0.8-0.9,1.8-0.9,3.1c0,1.2,0.3,2.2,0.9,3s1.4,1.2,2.4,1.2c1.1,0,1.9-0.4,2.5-1.2c0.6-0.8,0.9-1.8,0.9-3
		c0-1.3-0.3-2.3-0.8-3.1C252,344.7,251.2,344.3,250,344.3z"/>
	<path class="st2" d="M266.4,342.5h2.4v11.1c0,1.9-0.5,3.3-1.6,4.2c-1.1,1-2.4,1.4-4.1,1.4c-1.6,0-2.9-0.3-4-0.8v-2.4
		c1,0.7,2.3,1,3.7,1c2.4,0,3.6-1.2,3.6-3.5v-1.2c-0.8,1.3-2,2-3.5,2c-1.4,0-2.6-0.5-3.5-1.5c-1-1-1.5-2.5-1.5-4.3
		c0-1.8,0.5-3.3,1.4-4.4s2.1-1.7,3.6-1.7c1.6,0,2.8,0.7,3.5,2.1V342.5z M263.3,352.3c0.8,0,1.6-0.3,2.2-1c0.6-0.6,0.9-1.6,0.9-2.7
		c0-1.4-0.3-2.5-0.9-3.2c-0.6-0.7-1.3-1-2.1-1c-0.9,0-1.7,0.4-2.2,1.1c-0.5,0.7-0.8,1.7-0.8,2.9c0,1.3,0.3,2.2,0.9,2.9
		C261.8,352,262.5,352.3,263.3,352.3z"/>
	<path class="st2" d="M274.2,342.5v2.1c0.7-1.5,2-2.3,3.8-2.3c1.2,0,2.2,0.4,2.9,1.1c0.7,0.7,1.1,1.7,1.1,3v8.2h-2.4V347
		c0-0.8-0.2-1.5-0.6-1.9c-0.4-0.4-1-0.7-1.7-0.7c-0.8,0-1.5,0.3-2.1,1c-0.6,0.6-0.9,1.6-0.9,2.7v6.6h-2.4v-12.2H274.2z"/>
	<path class="st2" d="M285.3,339.8c-0.3-0.3-0.4-0.6-0.4-1s0.1-0.8,0.4-1.1c0.3-0.3,0.6-0.4,1-0.4c0.4,0,0.8,0.1,1.1,0.4
		s0.4,0.6,0.4,1.1c0,0.4-0.1,0.7-0.4,1s-0.6,0.4-1.1,0.4C286,340.2,285.6,340.1,285.3,339.8z M285.2,354.6v-12.2h2.4v12.2H285.2z"/>
	<path class="st2" d="M299.1,342.5v1.7l-6,8.5h6.3v2h-9v-1.8l5.9-8.4h-5.7v-2H299.1z"/>
	<path class="st2" d="M311.1,351.9v2.1c-0.9,0.5-2.1,0.8-3.6,0.8c-1.9,0-3.4-0.6-4.5-1.7c-1.1-1.1-1.7-2.6-1.7-4.5
		c0-2,0.5-3.5,1.5-4.6c1-1.1,2.3-1.7,3.9-1.7c1.6,0,2.8,0.5,3.7,1.5s1.4,2.4,1.4,4.2c0,0.5,0,1-0.1,1.6h-8c0.2,1.1,0.6,1.9,1.3,2.4
		c0.7,0.6,1.7,0.8,2.8,0.8C309.2,352.8,310.3,352.5,311.1,351.9z M309.6,347.7v-0.4c0-0.9-0.3-1.6-0.7-2.2s-1.1-0.8-2-0.8
		c-0.8,0-1.5,0.3-2.1,0.9c-0.6,0.6-0.9,1.4-1.1,2.5H309.6z"/>
	<path class="st2" d="M312.8,357.6l2.3-5.6h2.9l-3.1,5.6H312.8z"/>
	<path class="st2" d="M104.9,367.3h5c2.4,0,4.4,0.7,5.9,2.2c1.5,1.5,2.3,3.4,2.3,5.7c0,2.4-0.7,4.4-2.2,5.9c-1.4,1.6-3.4,2.3-6,2.3
		h-5.1V367.3z M107.5,381.3h2.5c1.8,0,3.2-0.6,4.2-1.7c1-1.2,1.4-2.6,1.4-4.4c0-1.7-0.5-3-1.6-4.2c-1-1.1-2.4-1.7-4.2-1.7h-2.5
		V381.3z"/>
	<path class="st2" d="M121.1,368.6c-0.3-0.3-0.4-0.6-0.4-1s0.1-0.8,0.4-1.1c0.3-0.3,0.6-0.4,1-0.4c0.4,0,0.8,0.1,1.1,0.4
		s0.4,0.6,0.4,1.1c0,0.4-0.1,0.7-0.4,1s-0.6,0.4-1.1,0.4C121.7,369,121.3,368.9,121.1,368.6z M120.9,383.4v-12.2h2.4v12.2H120.9z"/>
	<path class="st2" d="M127,374.2v-2.3c0.9-0.5,2.2-0.8,3.7-0.8c3.2,0,4.8,1.5,4.8,4.6v7.7h-2.3V382c-0.6,1-1.7,1.5-3.3,1.5
		c-1.2,0-2.1-0.3-2.8-1s-1-1.5-1-2.5c0-1.2,0.4-2.1,1.3-2.7c0.9-0.6,2.1-1,3.7-1h2v-0.7c0-0.8-0.2-1.5-0.6-1.9
		c-0.4-0.4-1.1-0.6-2-0.6C129.2,373.1,128.1,373.5,127,374.2z M133.1,378h-1.8c-0.9,0-1.6,0.2-2,0.5s-0.7,0.8-0.7,1.3
		c0,0.6,0.2,1,0.5,1.3c0.4,0.3,0.9,0.5,1.5,0.5c0.8,0,1.4-0.2,1.8-0.6c0.4-0.4,0.7-1,0.7-1.7V378z"/>
	<path class="st2" d="M146.6,371.3h2.4v11.1c0,1.9-0.5,3.3-1.6,4.2c-1.1,1-2.4,1.4-4.1,1.4c-1.6,0-2.9-0.3-4-0.8v-2.4
		c1,0.7,2.3,1,3.7,1c2.4,0,3.6-1.2,3.6-3.5v-1.2c-0.8,1.3-2,2-3.5,2c-1.4,0-2.6-0.5-3.5-1.5c-1-1-1.5-2.5-1.5-4.3
		c0-1.8,0.5-3.3,1.4-4.4s2.1-1.7,3.6-1.7c1.6,0,2.8,0.7,3.5,2.1V371.3z M143.5,381.1c0.8,0,1.6-0.3,2.2-1c0.6-0.6,0.9-1.6,0.9-2.7
		c0-1.4-0.3-2.5-0.9-3.2c-0.6-0.7-1.3-1-2.1-1c-0.9,0-1.7,0.4-2.2,1.1c-0.5,0.7-0.8,1.7-0.8,2.9c0,1.3,0.3,2.2,0.9,2.9
		C142,380.8,142.7,381.1,143.5,381.1z"/>
	<path class="st2" d="M154.5,371.3v2.1c0.7-1.5,2-2.3,3.8-2.3c1.2,0,2.2,0.4,2.9,1.1c0.7,0.7,1.1,1.7,1.1,3v8.2h-2.4v-7.7
		c0-0.8-0.2-1.5-0.6-1.9c-0.4-0.4-1-0.7-1.7-0.7c-0.8,0-1.5,0.3-2.1,1c-0.6,0.6-0.9,1.6-0.9,2.7v6.6h-2.4v-12.2H154.5z"/>
	<path class="st2" d="M170.4,383.7c-1.8,0-3.2-0.6-4.2-1.8c-1-1.2-1.5-2.6-1.5-4.4c0-1.8,0.5-3.3,1.6-4.5s2.4-1.8,4.2-1.8
		c1.9,0,3.3,0.6,4.3,1.8c1,1.2,1.5,2.7,1.5,4.5c0,1.8-0.5,3.3-1.5,4.5C173.7,383.1,172.2,383.7,170.4,383.7z M170.4,373.1
		c-1,0-1.8,0.4-2.4,1.2c-0.6,0.8-0.9,1.8-0.9,3.1c0,1.2,0.3,2.2,0.9,3s1.4,1.2,2.4,1.2c1.1,0,1.9-0.4,2.5-1.2c0.6-0.8,0.9-1.8,0.9-3
		c0-1.3-0.3-2.3-0.8-3.1C172.4,373.5,171.6,373.1,170.4,373.1z"/>
	<path class="st2" d="M185.8,371.7v2.1c-0.8-0.5-1.8-0.7-3-0.7c-0.6,0-1,0.1-1.3,0.4s-0.5,0.6-0.5,1c0,0.1,0,0.2,0,0.3
		s0.1,0.2,0.1,0.3c0.1,0.1,0.1,0.2,0.2,0.3c0.1,0.1,0.1,0.1,0.3,0.2s0.2,0.1,0.3,0.2c0.1,0.1,0.2,0.1,0.4,0.2s0.3,0.1,0.4,0.2
		s0.2,0.1,0.4,0.2s0.3,0.1,0.4,0.2c0.9,0.4,1.7,0.9,2.2,1.4s0.8,1.2,0.8,2.1c0,1.1-0.4,1.9-1.2,2.6s-1.8,0.9-3.1,0.9
		c-1.4,0-2.6-0.2-3.6-0.7v-2.2c1.1,0.7,2.3,1,3.5,1c0.6,0,1.1-0.1,1.5-0.4s0.5-0.6,0.5-1c0-0.4-0.1-0.7-0.4-0.9
		c-0.3-0.3-0.5-0.5-0.8-0.6c-0.3-0.1-0.8-0.3-1.4-0.6c-1.9-0.8-2.9-1.9-2.9-3.5c0-1.1,0.4-1.9,1.2-2.5c0.8-0.6,1.8-0.9,3-0.9
		C184,371.1,185.1,371.3,185.8,371.7z"/>
	<path class="st2" d="M198,380.7v2.1c-0.9,0.5-2.1,0.8-3.6,0.8c-1.9,0-3.4-0.6-4.5-1.7c-1.1-1.1-1.7-2.6-1.7-4.5
		c0-2,0.5-3.5,1.5-4.6c1-1.1,2.3-1.7,3.9-1.7c1.6,0,2.8,0.5,3.7,1.5s1.4,2.4,1.4,4.2c0,0.5,0,1-0.1,1.6h-8c0.2,1.1,0.6,1.9,1.3,2.4
		c0.7,0.6,1.7,0.8,2.8,0.8C196.1,381.6,197.1,381.3,198,380.7z M196.5,376.5V376c0-0.9-0.3-1.6-0.7-2.2c-0.5-0.5-1.1-0.8-2-0.8
		c-0.8,0-1.5,0.3-2.1,0.9c-0.6,0.6-0.9,1.4-1.1,2.5H196.5z"/>
	<path class="st2" d="M222.9,383.4h-3.1l-1.4-1.3c-1.3,1-2.9,1.5-4.9,1.5c-1.9,0-3.4-0.4-4.5-1.3c-1.1-0.8-1.7-1.9-1.7-3.2
		c0-1.9,1.2-3.3,3.7-4.2c-1.4-1.4-2.1-2.8-2.1-4c0-1.3,0.4-2.3,1.3-3c0.9-0.8,2-1.1,3.4-1.1c1.4,0,2.6,0.4,3.5,1.2s1.3,1.8,1.3,3.1
		c0,0.9-0.3,1.8-0.9,2.5c-0.6,0.7-1.5,1.4-2.8,2l3.6,3.4c0.4-0.7,0.6-1.4,0.6-2.3h2.2c-0.1,1.4-0.5,2.7-1.2,3.8
		c0.5,0.4,1.1,1,1.8,1.7C222.3,382.9,222.8,383.3,222.9,383.4z M212.4,376.5L212.4,376.5c-1,0.3-1.7,0.7-2.1,1.1
		c-0.4,0.4-0.6,0.9-0.6,1.5c0,0.8,0.4,1.4,1.1,1.8c0.7,0.4,1.6,0.7,2.7,0.7c1.3,0,2.4-0.3,3.3-0.9L212.4,376.5z M213.6,368.9
		c-0.7,0-1.2,0.2-1.6,0.6s-0.6,0.9-0.6,1.5c0,0.5,0.2,1,0.5,1.5c0.3,0.5,0.8,1.1,1.5,1.8c1.8-0.9,2.7-1.9,2.7-3.1
		c0-0.7-0.2-1.2-0.6-1.6S214.3,368.9,213.6,368.9z"/>
	<path class="st2" d="M239,383.4l-3.8-6.1h-2.1v6.1h-2.5v-16.2h4.5c1.9,0,3.3,0.5,4.3,1.4c1,0.9,1.5,2.1,1.5,3.7
		c0,1.1-0.3,2.1-0.9,2.9c-0.6,0.8-1.3,1.4-2.3,1.7l4.2,6.5H239z M233.1,369.3v5.9h2.2c1,0,1.8-0.3,2.3-0.8c0.5-0.5,0.8-1.3,0.8-2.1
		c0-2-1.1-3-3.2-3H233.1z"/>
	<path class="st2" d="M253.2,380.7v2.1c-0.9,0.5-2.1,0.8-3.6,0.8c-1.9,0-3.4-0.6-4.5-1.7c-1.1-1.1-1.7-2.6-1.7-4.5
		c0-2,0.5-3.5,1.5-4.6c1-1.1,2.3-1.7,3.9-1.7c1.6,0,2.8,0.5,3.7,1.5s1.4,2.4,1.4,4.2c0,0.5,0,1-0.1,1.6h-8c0.2,1.1,0.6,1.9,1.3,2.4
		c0.7,0.6,1.7,0.8,2.8,0.8C251.3,381.6,252.3,381.3,253.2,380.7z M251.7,376.5V376c0-0.9-0.3-1.6-0.7-2.2s-1.1-0.8-2-0.8
		c-0.8,0-1.5,0.3-2.1,0.9c-0.6,0.6-0.9,1.4-1.1,2.5H251.7z"/>
	<path class="st2" d="M258.5,377.4c0,1.2,0.4,2.2,1.1,3s1.7,1.2,3,1.2c1,0,1.9-0.3,2.7-0.8v2.1c-0.8,0.5-1.8,0.7-3,0.7
		c-1.9,0-3.4-0.6-4.6-1.8c-1.1-1.2-1.7-2.7-1.7-4.5c0-1.7,0.6-3.2,1.7-4.5c1.1-1.2,2.7-1.9,4.6-1.9c1.1,0,2,0.2,2.9,0.7v2.2
		c-0.8-0.5-1.7-0.7-2.7-0.7c-1.3,0-2.3,0.4-3,1.2S258.5,376.2,258.5,377.4z"/>
	<path class="st2" d="M273.1,383.7c-1.8,0-3.2-0.6-4.2-1.8c-1-1.2-1.5-2.6-1.5-4.4c0-1.8,0.5-3.3,1.6-4.5s2.4-1.8,4.2-1.8
		c1.9,0,3.3,0.6,4.3,1.8c1,1.2,1.5,2.7,1.5,4.5c0,1.8-0.5,3.3-1.5,4.5C276.3,383.1,274.9,383.7,273.1,383.7z M273.1,373.1
		c-1,0-1.8,0.4-2.4,1.2c-0.6,0.8-0.9,1.8-0.9,3.1c0,1.2,0.3,2.2,0.9,3s1.4,1.2,2.4,1.2c1.1,0,1.9-0.4,2.5-1.2c0.6-0.8,0.9-1.8,0.9-3
		c0-1.3-0.3-2.3-0.8-3.1C275.1,373.5,274.2,373.1,273.1,373.1z"/>
	<path class="st2" d="M284.7,383.4l-4.3-12.2h2.5l1.7,5.1c0.4,1.2,0.7,2.2,1,3.1c0.3,0.9,0.4,1.4,0.5,1.7l0.1,0.4
		c0.1-0.8,0.7-2.5,1.6-5.2l1.7-5.1h2.4l-4.4,12.2H284.7z"/>
	<path class="st2" d="M303,380.7v2.1c-0.9,0.5-2.1,0.8-3.6,0.8c-1.9,0-3.4-0.6-4.5-1.7c-1.1-1.1-1.7-2.6-1.7-4.5
		c0-2,0.5-3.5,1.5-4.6c1-1.1,2.3-1.7,3.9-1.7c1.6,0,2.8,0.5,3.7,1.5s1.4,2.4,1.4,4.2c0,0.5,0,1-0.1,1.6h-8c0.2,1.1,0.6,1.9,1.3,2.4
		c0.7,0.6,1.7,0.8,2.8,0.8C301,381.6,302.1,381.3,303,380.7z M301.5,376.5V376c0-0.9-0.3-1.6-0.7-2.2s-1.1-0.8-2-0.8
		c-0.8,0-1.5,0.3-2.1,0.9c-0.6,0.6-0.9,1.4-1.1,2.5H301.5z"/>
	<path class="st2" d="M308.9,371.3v2.1c0.6-1.5,1.7-2.3,3.2-2.3c0.2,0,0.5,0,0.7,0.1v2.3c-0.3-0.1-0.7-0.2-1.1-0.2
		c-0.8,0-1.5,0.4-2,1.1c-0.5,0.7-0.8,1.6-0.8,2.6v6.5h-2.4v-12.2H308.9z"/>
	<path class="st2" d="M211,395.2v2.1c-0.4-0.2-0.8-0.2-1.2-0.2c-1.2,0-1.8,0.7-1.8,2.1v0.9h2.6v1.8h-2.6v10.3h-2.4v-10.3h-1.9v-1.8
		h1.9v-0.9c0-1.3,0.3-2.3,1-3c0.7-0.7,1.6-1.1,2.9-1.1C210,395.1,210.5,395.1,211,395.2z"/>
	<path class="st2" d="M215.1,400.1v2.1c0.6-1.5,1.7-2.3,3.2-2.3c0.2,0,0.5,0,0.7,0.1v2.3c-0.3-0.1-0.7-0.2-1.1-0.2
		c-0.8,0-1.5,0.4-2,1.1c-0.5,0.7-0.8,1.6-0.8,2.6v6.5h-2.4v-12.2H215.1z"/>
	<path class="st2" d="M225.9,412.5c-1.8,0-3.2-0.6-4.2-1.8c-1-1.2-1.5-2.6-1.5-4.4c0-1.8,0.5-3.3,1.6-4.5s2.4-1.8,4.2-1.8
		c1.9,0,3.3,0.6,4.3,1.8s1.5,2.7,1.5,4.5s-0.5,3.3-1.5,4.5C229.2,411.9,227.7,412.5,225.9,412.5z M225.9,401.9c-1,0-1.8,0.4-2.4,1.2
		c-0.6,0.8-0.9,1.8-0.9,3.1c0,1.2,0.3,2.2,0.9,3c0.6,0.8,1.4,1.2,2.4,1.2c1.1,0,1.9-0.4,2.5-1.2c0.6-0.8,0.9-1.8,0.9-3
		c0-1.3-0.3-2.3-0.8-3.1C227.9,402.3,227.1,401.9,225.9,401.9z"/>
	<path class="st2" d="M236.7,400.1v1.9c0.7-1.4,1.8-2.1,3.4-2.1c1.8,0,3,0.8,3.5,2.4c0.3-0.8,0.8-1.3,1.5-1.7
		c0.6-0.4,1.4-0.6,2.2-0.6c1.2,0,2.2,0.4,2.8,1.1c0.6,0.7,1,1.8,1,3v8.2h-2.4v-7.7c0-1.7-0.7-2.6-2.1-2.6c-0.7,0-1.3,0.3-1.9,0.9
		c-0.6,0.6-0.8,1.5-0.8,2.8v6.6h-2.4v-7.7c0-1.7-0.7-2.6-2.1-2.6c-0.7,0-1.3,0.3-1.9,0.9c-0.6,0.6-0.8,1.5-0.8,2.8v6.6h-2.4v-12.2
		H236.7z"/>
	<path class="st2" d="M262.8,410.2h6.9v2.1h-9.3v-16.2h9.2v2.1h-6.7v5h6v2.1h-6V410.2z"/>
	<path class="st2" d="M274.9,400.1v2.1c0.6-1.5,1.7-2.3,3.2-2.3c0.2,0,0.5,0,0.7,0.1v2.3c-0.3-0.1-0.7-0.2-1.1-0.2
		c-0.8,0-1.5,0.4-2,1.1c-0.5,0.7-0.8,1.6-0.8,2.6v6.5h-2.4v-12.2H274.9z"/>
	<path class="st2" d="M283,400.1v2.1c0.6-1.5,1.7-2.3,3.2-2.3c0.2,0,0.5,0,0.7,0.1v2.3c-0.3-0.1-0.7-0.2-1.1-0.2
		c-0.8,0-1.5,0.4-2,1.1c-0.5,0.7-0.8,1.6-0.8,2.6v6.5h-2.4v-12.2H283z"/>
	<path class="st2" d="M293.9,412.5c-1.8,0-3.2-0.6-4.2-1.8c-1-1.2-1.5-2.6-1.5-4.4c0-1.8,0.5-3.3,1.6-4.5c1.1-1.2,2.4-1.8,4.2-1.8
		c1.9,0,3.3,0.6,4.3,1.8s1.5,2.7,1.5,4.5s-0.5,3.3-1.5,4.5C297.1,411.9,295.7,412.5,293.9,412.5z M293.9,401.9c-1,0-1.8,0.4-2.4,1.2
		c-0.6,0.8-0.9,1.8-0.9,3.1c0,1.2,0.3,2.2,0.9,3c0.6,0.8,1.4,1.2,2.4,1.2c1.1,0,1.9-0.4,2.5-1.2c0.6-0.8,0.9-1.8,0.9-3
		c0-1.3-0.3-2.3-0.8-3.1C295.9,402.3,295,401.9,293.9,401.9z"/>
	<path class="st2" d="M304.7,400.1v2.1c0.6-1.5,1.7-2.3,3.2-2.3c0.2,0,0.5,0,0.7,0.1v2.3c-0.3-0.1-0.7-0.2-1.1-0.2
		c-0.8,0-1.5,0.4-2,1.1c-0.5,0.7-0.8,1.6-0.8,2.6v6.5h-2.4v-12.2H304.7z"/>
	<path class="st2" d="M317.4,400.5v2.1c-0.8-0.5-1.8-0.7-3-0.7c-0.6,0-1,0.1-1.3,0.4c-0.3,0.3-0.5,0.6-0.5,1c0,0.1,0,0.2,0,0.3
		c0,0.1,0.1,0.2,0.1,0.3c0.1,0.1,0.1,0.2,0.2,0.3c0.1,0.1,0.1,0.1,0.3,0.2c0.1,0.1,0.2,0.1,0.3,0.2c0.1,0.1,0.2,0.1,0.4,0.2
		c0.2,0.1,0.3,0.1,0.4,0.2s0.2,0.1,0.4,0.2c0.2,0.1,0.3,0.1,0.4,0.2c0.9,0.4,1.7,0.9,2.2,1.4c0.5,0.5,0.8,1.2,0.8,2.1
		c0,1.1-0.4,1.9-1.2,2.6c-0.8,0.6-1.8,0.9-3.1,0.9c-1.4,0-2.6-0.2-3.6-0.7v-2.2c1.1,0.7,2.3,1,3.5,1c0.6,0,1.1-0.1,1.5-0.4
		c0.3-0.3,0.5-0.6,0.5-1c0-0.4-0.1-0.7-0.4-0.9c-0.3-0.3-0.5-0.5-0.8-0.6c-0.3-0.1-0.8-0.3-1.4-0.6c-1.9-0.8-2.9-1.9-2.9-3.5
		c0-1.1,0.4-1.9,1.2-2.5s1.8-0.9,3-0.9C315.7,399.9,316.7,400.1,317.4,400.5z"/>
</g>
<g>
	<path class="st2" d="M90.9,143.2h2.5v16.2h-2.5v-7.1h-7.3v7.1h-2.5v-16.2h2.5v7h7.3V143.2z"/>
	<path class="st2" d="M105.9,156.7v2.1c-0.9,0.5-2.1,0.8-3.6,0.8c-1.9,0-3.4-0.6-4.5-1.7s-1.7-2.6-1.7-4.5c0-2,0.5-3.5,1.5-4.6
		c1-1.1,2.3-1.7,3.9-1.7c1.6,0,2.8,0.5,3.7,1.5c0.9,1,1.4,2.4,1.4,4.2c0,0.5,0,1-0.1,1.6h-8c0.2,1.1,0.6,1.9,1.3,2.4
		c0.7,0.6,1.7,0.8,2.8,0.8C103.9,157.6,105,157.3,105.9,156.7z M104.4,152.5V152c0-0.9-0.3-1.6-0.7-2.2c-0.5-0.5-1.1-0.8-2-0.8
		c-0.8,0-1.5,0.3-2.1,0.9s-0.9,1.4-1.1,2.5H104.4z"/>
	<path class="st2" d="M109.5,159.4v-17h2.4v17H109.5z"/>
	<path class="st2" d="M117.6,147.3v1.9c0.8-1.4,2.1-2,3.7-2c1.6,0,2.9,0.6,3.8,1.7c0.9,1.2,1.4,2.6,1.4,4.4c0,1.8-0.5,3.4-1.4,4.5
		c-1,1.2-2.2,1.8-3.8,1.8c-1.6,0-2.8-0.7-3.7-2v6.5h-2.4v-16.8H117.6z M120.9,157.5c0.9,0,1.7-0.4,2.3-1.1c0.6-0.7,0.9-1.8,0.9-3.1
		c0-1.3-0.3-2.3-0.9-3c-0.6-0.7-1.3-1.1-2.3-1.1c-0.9,0-1.7,0.3-2.4,1s-1,1.7-1,3.2c0,1.4,0.3,2.5,1,3.2S120,157.5,120.9,157.5z"/>
	<path class="st2" d="M150.5,159.4h-3.1l-1.4-1.3c-1.3,1-2.9,1.5-4.9,1.5c-1.9,0-3.4-0.4-4.5-1.3c-1.1-0.8-1.7-1.9-1.7-3.2
		c0-1.9,1.2-3.3,3.7-4.2c-1.4-1.4-2.1-2.8-2.1-4c0-1.3,0.4-2.3,1.3-3c0.9-0.8,2-1.1,3.4-1.1c1.4,0,2.6,0.4,3.5,1.2s1.3,1.8,1.3,3.1
		c0,0.9-0.3,1.8-0.9,2.5s-1.5,1.4-2.8,2l3.6,3.4c0.4-0.7,0.6-1.4,0.6-2.3h2.2c-0.1,1.4-0.5,2.7-1.2,3.8c0.5,0.4,1.1,1,1.8,1.7
		C150,158.9,150.4,159.3,150.5,159.4z M140.1,152.5L140.1,152.5c-1,0.3-1.7,0.7-2.1,1.1c-0.4,0.4-0.6,0.9-0.6,1.5
		c0,0.8,0.4,1.4,1.1,1.8s1.6,0.7,2.7,0.7c1.3,0,2.4-0.3,3.3-0.9L140.1,152.5z M141.2,144.9c-0.7,0-1.2,0.2-1.6,0.6s-0.6,0.9-0.6,1.5
		c0,0.5,0.2,1,0.5,1.5c0.3,0.5,0.8,1.1,1.5,1.8c1.8-0.9,2.7-1.9,2.7-3.1c0-0.7-0.2-1.2-0.6-1.6S142,144.9,141.2,144.9z"/>
	<path class="st2" d="M158.3,143.2h5c2.4,0,4.4,0.7,5.9,2.2c1.5,1.5,2.3,3.4,2.3,5.7c0,2.4-0.7,4.4-2.2,5.9c-1.4,1.6-3.4,2.3-6,2.3
		h-5.1V143.2z M160.8,157.3h2.5c1.8,0,3.2-0.6,4.2-1.7c1-1.2,1.4-2.6,1.4-4.4c0-1.7-0.5-3-1.6-4.2c-1-1.1-2.4-1.7-4.2-1.7h-2.5
		V157.3z"/>
	<path class="st2" d="M179.3,159.6c-1.8,0-3.2-0.6-4.2-1.8c-1-1.2-1.5-2.6-1.5-4.4c0-1.8,0.5-3.3,1.6-4.5c1.1-1.2,2.4-1.8,4.2-1.8
		c1.9,0,3.3,0.6,4.3,1.8s1.5,2.7,1.5,4.5s-0.5,3.3-1.5,4.5C182.5,159,181.1,159.6,179.3,159.6z M179.2,149.1c-1,0-1.8,0.4-2.4,1.2
		c-0.6,0.8-0.9,1.8-0.9,3.1c0,1.2,0.3,2.2,0.9,3c0.6,0.8,1.4,1.2,2.4,1.2c1.1,0,1.9-0.4,2.5-1.2c0.6-0.8,0.9-1.8,0.9-3
		c0-1.3-0.3-2.3-0.8-3.1C181.2,149.5,180.4,149.1,179.2,149.1z"/>
	<path class="st2" d="M189.5,153.4c0,1.2,0.4,2.2,1.1,3c0.7,0.8,1.7,1.2,3,1.2c1,0,1.9-0.3,2.7-0.8v2.1c-0.8,0.5-1.8,0.7-3,0.7
		c-1.9,0-3.4-0.6-4.6-1.8c-1.1-1.2-1.7-2.7-1.7-4.5c0-1.7,0.6-3.2,1.7-4.5c1.1-1.2,2.7-1.9,4.6-1.9c1.1,0,2,0.2,2.9,0.7v2.2
		c-0.8-0.5-1.7-0.7-2.7-0.7c-1.3,0-2.3,0.4-3,1.2C189.8,151.1,189.5,152.1,189.5,153.4z"/>
	<path class="st2" d="M206.6,147.3h2.4v12.2h-2.4v-2.1c-0.6,1.5-1.9,2.2-3.8,2.2c-1.2,0-2.2-0.4-2.9-1.1s-1.1-1.7-1.1-2.9v-8.3h2.4
		v7.7c0,0.8,0.2,1.5,0.6,1.9c0.4,0.4,1,0.7,1.7,0.7c0.9,0,1.6-0.3,2.2-1s0.8-1.5,0.8-2.7V147.3z"/>
	<path class="st2" d="M214.6,147.3v1.9c0.7-1.4,1.8-2.1,3.4-2.1c1.8,0,3,0.8,3.5,2.4c0.3-0.8,0.8-1.3,1.5-1.7
		c0.6-0.4,1.4-0.6,2.2-0.6c1.2,0,2.2,0.4,2.8,1.1c0.6,0.7,1,1.8,1,3v8.2h-2.4v-7.7c0-1.7-0.7-2.6-2.1-2.6c-0.7,0-1.3,0.3-1.9,0.9
		c-0.6,0.6-0.8,1.5-0.8,2.8v6.6h-2.4v-7.7c0-1.7-0.7-2.6-2.1-2.6c-0.7,0-1.3,0.3-1.9,0.9c-0.6,0.6-0.8,1.5-0.8,2.8v6.6h-2.4v-12.2
		H214.6z"/>
	<path class="st2" d="M241.2,156.7v2.1c-0.9,0.5-2.1,0.8-3.6,0.8c-1.9,0-3.4-0.6-4.5-1.7c-1.1-1.1-1.7-2.6-1.7-4.5
		c0-2,0.5-3.5,1.5-4.6c1-1.1,2.3-1.7,3.9-1.7c1.6,0,2.8,0.5,3.7,1.5c0.9,1,1.4,2.4,1.4,4.2c0,0.5,0,1-0.1,1.6h-8
		c0.2,1.1,0.6,1.9,1.3,2.4c0.7,0.6,1.7,0.8,2.8,0.8C239.3,157.6,240.4,157.3,241.2,156.7z M239.7,152.5V152c0-0.9-0.3-1.6-0.7-2.2
		s-1.1-0.8-2-0.8c-0.8,0-1.5,0.3-2.1,0.9s-0.9,1.4-1.1,2.5H239.7z"/>
	<path class="st2" d="M247.1,147.3v2.1c0.7-1.5,2-2.3,3.8-2.3c1.2,0,2.2,0.4,2.9,1.1c0.7,0.7,1.1,1.7,1.1,3v8.2h-2.4v-7.7
		c0-0.8-0.2-1.5-0.6-1.9s-1-0.7-1.7-0.7c-0.8,0-1.5,0.3-2.1,1s-0.9,1.6-0.9,2.7v6.6h-2.4v-12.2H247.1z"/>
	<path class="st2" d="M261,149.1v6.7c0,1.2,0.6,1.8,1.7,1.8c0.7,0,1.2-0.2,1.7-0.5v2.1c-0.5,0.3-1.2,0.4-1.9,0.4
		c-2.5,0-3.8-1.3-3.8-3.8v-6.6h-1.9v-1.8h1.9v-3h2.4v3h3.2v1.8H261z"/>
	<path class="st2" d="M267.2,150.2v-2.3c0.9-0.5,2.2-0.8,3.7-0.8c3.2,0,4.8,1.5,4.8,4.6v7.7h-2.3V158c-0.6,1-1.7,1.5-3.3,1.5
		c-1.2,0-2.1-0.3-2.8-1c-0.7-0.7-1-1.5-1-2.5c0-1.2,0.4-2.1,1.3-2.7s2.1-1,3.7-1h2v-0.7c0-0.8-0.2-1.5-0.6-1.9
		c-0.4-0.4-1.1-0.6-2-0.6C269.5,149.1,268.3,149.4,267.2,150.2z M273.4,154h-1.8c-0.9,0-1.6,0.2-2,0.5c-0.5,0.4-0.7,0.8-0.7,1.3
		c0,0.6,0.2,1,0.5,1.3c0.4,0.3,0.9,0.5,1.5,0.5c0.8,0,1.4-0.2,1.8-0.6c0.4-0.4,0.7-1,0.7-1.7V154z"/>
	<path class="st2" d="M282,149.1v6.7c0,1.2,0.6,1.8,1.7,1.8c0.7,0,1.2-0.2,1.7-0.5v2.1c-0.5,0.3-1.2,0.4-1.9,0.4
		c-2.5,0-3.8-1.3-3.8-3.8v-6.6h-1.9v-1.8h1.9v-3h2.4v3h3.2v1.8H282z"/>
	<path class="st2" d="M288.1,144.6c-0.3-0.3-0.4-0.6-0.4-1c0-0.4,0.1-0.8,0.4-1.1c0.3-0.3,0.6-0.4,1-0.4s0.8,0.1,1.1,0.4
		s0.4,0.6,0.4,1.1c0,0.4-0.1,0.7-0.4,1s-0.6,0.4-1.1,0.4S288.4,144.9,288.1,144.6z M288,159.4v-12.2h2.4v12.2H288z"/>
	<path class="st2" d="M298.9,159.6c-1.8,0-3.2-0.6-4.2-1.8c-1-1.2-1.5-2.6-1.5-4.4c0-1.8,0.5-3.3,1.6-4.5c1.1-1.2,2.4-1.8,4.2-1.8
		c1.9,0,3.3,0.6,4.3,1.8s1.5,2.7,1.5,4.5s-0.5,3.3-1.5,4.5C302.1,159,300.7,159.6,298.9,159.6z M298.8,149.1c-1,0-1.8,0.4-2.4,1.2
		c-0.6,0.8-0.9,1.8-0.9,3.1c0,1.2,0.3,2.2,0.9,3c0.6,0.8,1.4,1.2,2.4,1.2c1.1,0,1.9-0.4,2.5-1.2c0.6-0.8,0.9-1.8,0.9-3
		c0-1.3-0.3-2.3-0.8-3.1C300.8,149.5,300,149.1,298.8,149.1z"/>
	<path class="st2" d="M309.7,147.3v2.1c0.7-1.5,2-2.3,3.8-2.3c1.2,0,2.2,0.4,2.9,1.1c0.7,0.7,1.1,1.7,1.1,3v8.2H315v-7.7
		c0-0.8-0.2-1.5-0.6-1.9s-1-0.7-1.7-0.7c-0.8,0-1.5,0.3-2.1,1s-0.9,1.6-0.9,2.7v6.6h-2.4v-12.2H309.7z"/>
</g>
<g>
	<path class="st2" d="M1267.4,815h6.9v2.1h-9.3v-16.2h9.2v2.1h-6.7v5h6v2.1h-6V815z"/>
	<path class="st2" d="M1279.5,804.9v2.1c0.6-1.5,1.7-2.3,3.2-2.3c0.2,0,0.5,0,0.7,0.1v2.3c-0.3-0.1-0.7-0.2-1.1-0.2
		c-0.8,0-1.5,0.4-2,1.1c-0.5,0.7-0.8,1.6-0.8,2.6v6.5h-2.4v-12.2H1279.5z"/>
	<path class="st2" d="M1287.7,804.9v2.1c0.6-1.5,1.7-2.3,3.2-2.3c0.2,0,0.5,0,0.7,0.1v2.3c-0.3-0.1-0.7-0.2-1.1-0.2
		c-0.8,0-1.5,0.4-2,1.1c-0.5,0.7-0.8,1.6-0.8,2.6v6.5h-2.4v-12.2H1287.7z"/>
	<path class="st2" d="M1298.5,817.3c-1.8,0-3.2-0.6-4.2-1.8c-1-1.2-1.5-2.6-1.5-4.4c0-1.8,0.5-3.3,1.6-4.5c1.1-1.2,2.4-1.8,4.2-1.8
		c1.9,0,3.3,0.6,4.3,1.8s1.5,2.7,1.5,4.5s-0.5,3.3-1.5,4.5C1301.8,816.7,1300.3,817.3,1298.5,817.3z M1298.5,806.7
		c-1,0-1.8,0.4-2.4,1.2c-0.6,0.8-0.9,1.8-0.9,3.1c0,1.2,0.3,2.2,0.9,3c0.6,0.8,1.4,1.2,2.4,1.2c1.1,0,1.9-0.4,2.5-1.2
		c0.6-0.8,0.9-1.8,0.9-3c0-1.3-0.3-2.3-0.8-3.1C1300.5,807.1,1299.7,806.7,1298.5,806.7z"/>
	<path class="st2" d="M1309.3,804.9v2.1c0.6-1.5,1.7-2.3,3.2-2.3c0.2,0,0.5,0,0.7,0.1v2.3c-0.3-0.1-0.7-0.2-1.1-0.2
		c-0.8,0-1.5,0.4-2,1.1c-0.5,0.7-0.8,1.6-0.8,2.6v6.5h-2.4v-12.2H1309.3z"/>
	<path class="st2" d="M1321.1,800.9h4.6c1.9,0,3.3,0.5,4.4,1.5c1.1,1,1.6,2.2,1.6,3.8c0,1.5-0.5,2.8-1.6,3.7c-1.1,1-2.5,1.4-4.3,1.4
		h-2.3v5.7h-2.5V800.9z M1323.6,809.3h2.1c1.2,0,2.1-0.3,2.7-0.9c0.6-0.6,0.9-1.3,0.9-2.3c0-1-0.3-1.8-0.9-2.4
		c-0.6-0.6-1.5-0.9-2.7-0.9h-2.1V809.3z"/>
	<path class="st2" d="M1336.6,804.9v2.1c0.6-1.5,1.7-2.3,3.2-2.3c0.2,0,0.5,0,0.7,0.1v2.3c-0.3-0.1-0.7-0.2-1.1-0.2
		c-0.8,0-1.5,0.4-2,1.1c-0.5,0.7-0.8,1.6-0.8,2.6v6.5h-2.4v-12.2H1336.6z"/>
	<path class="st2" d="M1351.4,814.3v2.1c-0.9,0.5-2.1,0.8-3.6,0.8c-1.9,0-3.4-0.6-4.5-1.7c-1.1-1.1-1.7-2.6-1.7-4.5
		c0-2,0.5-3.5,1.5-4.6c1-1.1,2.3-1.7,3.9-1.7c1.6,0,2.8,0.5,3.7,1.5s1.4,2.4,1.4,4.2c0,0.5,0,1-0.1,1.6h-8c0.2,1.1,0.6,1.9,1.3,2.4
		s1.7,0.8,2.8,0.8C1349.5,815.2,1350.6,814.9,1351.4,814.3z M1349.9,810.1v-0.4c0-0.9-0.3-1.6-0.7-2.2c-0.5-0.5-1.1-0.8-2-0.8
		c-0.8,0-1.5,0.3-2.1,0.9s-0.9,1.4-1.1,2.5H1349.9z"/>
	<path class="st2" d="M1358.1,817.1l-4.3-12.2h2.5l1.7,5.1c0.4,1.2,0.7,2.2,1,3.1c0.3,0.9,0.4,1.4,0.5,1.7l0.1,0.4
		c0.1-0.8,0.7-2.5,1.6-5.2l1.7-5.1h2.4l-4.4,12.2H1358.1z"/>
	<path class="st2" d="M1376.4,814.3v2.1c-0.9,0.5-2.1,0.8-3.6,0.8c-1.9,0-3.4-0.6-4.5-1.7c-1.1-1.1-1.7-2.6-1.7-4.5
		c0-2,0.5-3.5,1.5-4.6c1-1.1,2.3-1.7,3.9-1.7c1.6,0,2.8,0.5,3.7,1.5s1.4,2.4,1.4,4.2c0,0.5,0,1-0.1,1.6h-8c0.2,1.1,0.6,1.9,1.3,2.4
		s1.7,0.8,2.8,0.8C1374.4,815.2,1375.5,814.9,1376.4,814.3z M1374.8,810.1v-0.4c0-0.9-0.3-1.6-0.7-2.2c-0.5-0.5-1.1-0.8-2-0.8
		c-0.8,0-1.5,0.3-2.1,0.9s-0.9,1.4-1.1,2.5H1374.8z"/>
	<path class="st2" d="M1382.2,804.9v2.1c0.7-1.5,2-2.3,3.8-2.3c1.2,0,2.2,0.4,2.9,1.1s1.1,1.7,1.1,3v8.2h-2.4v-7.7
		c0-0.8-0.2-1.5-0.6-1.9c-0.4-0.4-1-0.7-1.7-0.7c-0.8,0-1.5,0.3-2.1,1c-0.6,0.6-0.9,1.6-0.9,2.7v6.6h-2.4v-12.2H1382.2z"/>
	<path class="st2" d="M1396.2,806.7v6.7c0,1.2,0.6,1.8,1.7,1.8c0.7,0,1.2-0.2,1.7-0.5v2.1c-0.5,0.3-1.2,0.4-1.9,0.4
		c-2.5,0-3.8-1.3-3.8-3.8v-6.6h-1.9v-1.8h1.9v-3h2.4v3h3.2v1.8H1396.2z"/>
	<path class="st2" d="M1402.3,802.2c-0.3-0.3-0.4-0.6-0.4-1s0.1-0.8,0.4-1.1s0.6-0.4,1-0.4s0.8,0.1,1.1,0.4c0.3,0.3,0.4,0.6,0.4,1.1
		c0,0.4-0.1,0.7-0.4,1c-0.3,0.3-0.6,0.4-1.1,0.4S1402.6,802.5,1402.3,802.2z M1402.2,817.1v-12.2h2.4v12.2H1402.2z"/>
	<path class="st2" d="M1413.1,817.3c-1.8,0-3.2-0.6-4.2-1.8c-1-1.2-1.5-2.6-1.5-4.4c0-1.8,0.5-3.3,1.6-4.5c1.1-1.2,2.4-1.8,4.2-1.8
		c1.9,0,3.3,0.6,4.3,1.8s1.5,2.7,1.5,4.5s-0.5,3.3-1.5,4.5S1414.9,817.3,1413.1,817.3z M1413,806.7c-1,0-1.8,0.4-2.4,1.2
		c-0.6,0.8-0.9,1.8-0.9,3.1c0,1.2,0.3,2.2,0.9,3c0.6,0.8,1.4,1.2,2.4,1.2c1.1,0,1.9-0.4,2.5-1.2c0.6-0.8,0.9-1.8,0.9-3
		c0-1.3-0.3-2.3-0.8-3.1C1415,807.1,1414.2,806.7,1413,806.7z"/>
	<path class="st2" d="M1423.9,804.9v2.1c0.7-1.5,2-2.3,3.8-2.3c1.2,0,2.2,0.4,2.9,1.1s1.1,1.7,1.1,3v8.2h-2.4v-7.7
		c0-0.8-0.2-1.5-0.6-1.9c-0.4-0.4-1-0.7-1.7-0.7c-0.8,0-1.5,0.3-2.1,1c-0.6,0.6-0.9,1.6-0.9,2.7v6.6h-2.4v-12.2H1423.9z"/>
</g>
<g>
	<path class="st2" d="M1276.6,565v2.4c-0.7-0.4-1.3-0.7-1.9-0.8c-0.6-0.2-1.3-0.2-2.2-0.2c-1.6,0-3,0.5-4,1.6
		c-1.1,1.1-1.6,2.5-1.6,4.4c0,1.8,0.5,3.3,1.6,4.4c1.1,1.1,2.5,1.6,4.2,1.6c1.6,0,2.9-0.4,3.9-1.2v2.5c-1,0.7-2.4,1-4.1,1
		c-2.4,0-4.4-0.8-5.9-2.3c-1.5-1.5-2.3-3.5-2.3-6c0-2.4,0.8-4.4,2.3-6c1.5-1.5,3.5-2.3,5.9-2.3
		C1274.2,564.1,1275.6,564.4,1276.6,565z"/>
	<path class="st2" d="M1284.4,580.7c-1.8,0-3.2-0.6-4.2-1.8c-1-1.2-1.5-2.6-1.5-4.4c0-1.8,0.5-3.3,1.6-4.5c1.1-1.2,2.4-1.8,4.2-1.8
		c1.9,0,3.3,0.6,4.3,1.8s1.5,2.7,1.5,4.5s-0.5,3.3-1.5,4.5C1287.7,580.1,1286.2,580.7,1284.4,580.7z M1284.4,570.2
		c-1,0-1.8,0.4-2.4,1.2c-0.6,0.8-0.9,1.8-0.9,3.1c0,1.2,0.3,2.2,0.9,3c0.6,0.8,1.4,1.2,2.4,1.2c1.1,0,1.9-0.4,2.5-1.2
		c0.6-0.8,0.9-1.8,0.9-3c0-1.3-0.3-2.3-0.8-3.1C1286.4,570.6,1285.6,570.2,1284.4,570.2z"/>
	<path class="st2" d="M1295.2,568.3v2.1c0.7-1.5,2-2.3,3.8-2.3c1.2,0,2.2,0.4,2.9,1.1c0.7,0.7,1.1,1.7,1.1,3v8.2h-2.4v-7.7
		c0-0.8-0.2-1.5-0.6-1.9c-0.4-0.4-1-0.7-1.7-0.7c-0.8,0-1.5,0.3-2.1,1c-0.6,0.6-0.9,1.6-0.9,2.7v6.6h-2.4v-12.2H1295.2z"/>
	<path class="st2" d="M1313,568.7v2.1c-0.8-0.5-1.8-0.7-3-0.7c-0.6,0-1,0.1-1.3,0.4c-0.3,0.3-0.5,0.6-0.5,1c0,0.1,0,0.2,0,0.3
		c0,0.1,0.1,0.2,0.1,0.3c0.1,0.1,0.1,0.2,0.2,0.3s0.1,0.1,0.3,0.2c0.1,0.1,0.2,0.1,0.3,0.2c0.1,0.1,0.2,0.1,0.4,0.2
		c0.2,0.1,0.3,0.1,0.4,0.2s0.2,0.1,0.4,0.2c0.2,0.1,0.3,0.1,0.4,0.2c0.9,0.4,1.7,0.9,2.2,1.4c0.5,0.5,0.8,1.2,0.8,2.1
		c0,1.1-0.4,1.9-1.2,2.6c-0.8,0.6-1.8,0.9-3.1,0.9c-1.4,0-2.6-0.2-3.6-0.7v-2.2c1.1,0.7,2.3,1,3.5,1c0.6,0,1.1-0.1,1.5-0.4
		c0.3-0.3,0.5-0.6,0.5-1c0-0.4-0.1-0.7-0.4-0.9c-0.3-0.3-0.5-0.5-0.8-0.6c-0.3-0.1-0.8-0.3-1.4-0.6c-1.9-0.8-2.9-1.9-2.9-3.5
		c0-1.1,0.4-1.9,1.2-2.5c0.8-0.6,1.8-0.9,3-0.9C1311.3,568.2,1312.3,568.4,1313,568.7z"/>
	<path class="st2" d="M1316.4,565.7c-0.3-0.3-0.4-0.6-0.4-1c0-0.4,0.1-0.8,0.4-1.1s0.6-0.4,1-0.4s0.8,0.1,1.1,0.4
		c0.3,0.3,0.4,0.6,0.4,1.1c0,0.4-0.1,0.7-0.4,1c-0.3,0.3-0.6,0.4-1.1,0.4S1316.7,565.9,1316.4,565.7z M1316.3,580.5v-12.2h2.4v12.2
		H1316.3z"/>
	<path class="st2" d="M1329,568.7v2.1c-0.8-0.5-1.8-0.7-3-0.7c-0.6,0-1,0.1-1.3,0.4c-0.3,0.3-0.5,0.6-0.5,1c0,0.1,0,0.2,0,0.3
		c0,0.1,0.1,0.2,0.1,0.3c0.1,0.1,0.1,0.2,0.2,0.3s0.1,0.1,0.3,0.2c0.1,0.1,0.2,0.1,0.3,0.2c0.1,0.1,0.2,0.1,0.4,0.2
		c0.2,0.1,0.3,0.1,0.4,0.2s0.2,0.1,0.4,0.2c0.2,0.1,0.3,0.1,0.4,0.2c0.9,0.4,1.7,0.9,2.2,1.4c0.5,0.5,0.8,1.2,0.8,2.1
		c0,1.1-0.4,1.9-1.2,2.6c-0.8,0.6-1.8,0.9-3.1,0.9c-1.4,0-2.6-0.2-3.6-0.7v-2.2c1.1,0.7,2.3,1,3.5,1c0.6,0,1.1-0.1,1.5-0.4
		c0.3-0.3,0.5-0.6,0.5-1c0-0.4-0.1-0.7-0.4-0.9c-0.3-0.3-0.5-0.5-0.8-0.6c-0.3-0.1-0.8-0.3-1.4-0.6c-1.9-0.8-2.9-1.9-2.9-3.5
		c0-1.1,0.4-1.9,1.2-2.5c0.8-0.6,1.8-0.9,3-0.9C1327.2,568.2,1328.2,568.4,1329,568.7z"/>
	<path class="st2" d="M1335.1,570.2v6.7c0,1.2,0.6,1.8,1.7,1.8c0.7,0,1.2-0.2,1.7-0.5v2.1c-0.5,0.3-1.2,0.4-1.9,0.4
		c-2.5,0-3.8-1.3-3.8-3.8v-6.6h-1.9v-1.8h1.9v-3h2.4v3h3.2v1.8H1335.1z"/>
	<path class="st2" d="M1350.1,577.7v2.1c-0.9,0.5-2.1,0.8-3.6,0.8c-1.9,0-3.4-0.6-4.5-1.7c-1.1-1.1-1.7-2.6-1.7-4.5
		c0-2,0.5-3.5,1.5-4.6c1-1.1,2.3-1.7,3.9-1.7c1.6,0,2.8,0.5,3.7,1.5c0.9,1,1.4,2.4,1.4,4.2c0,0.5,0,1-0.1,1.6h-8
		c0.2,1.1,0.6,1.9,1.3,2.4c0.7,0.6,1.7,0.8,2.8,0.8C1348.2,578.7,1349.3,578.3,1350.1,577.7z M1348.6,573.5v-0.4
		c0-0.9-0.3-1.6-0.7-2.2s-1.1-0.8-2-0.8c-0.8,0-1.5,0.3-2.1,0.9s-0.9,1.4-1.1,2.5H1348.6z"/>
	<path class="st2" d="M1356,568.3v2.1c0.7-1.5,2-2.3,3.8-2.3c1.2,0,2.2,0.4,2.9,1.1c0.7,0.7,1.1,1.7,1.1,3v8.2h-2.4v-7.7
		c0-0.8-0.2-1.5-0.6-1.9c-0.4-0.4-1-0.7-1.7-0.7c-0.8,0-1.5,0.3-2.1,1c-0.6,0.6-0.9,1.6-0.9,2.7v6.6h-2.4v-12.2H1356z"/>
	<path class="st2" d="M1368.7,574.5c0,1.2,0.4,2.2,1.1,3c0.7,0.8,1.7,1.2,3,1.2c1,0,1.9-0.3,2.7-0.8v2.1c-0.8,0.5-1.8,0.7-3,0.7
		c-1.9,0-3.4-0.6-4.6-1.8c-1.1-1.2-1.7-2.7-1.7-4.5c0-1.7,0.6-3.2,1.7-4.5c1.1-1.2,2.7-1.9,4.6-1.9c1.1,0,2,0.2,2.9,0.7v2.2
		c-0.8-0.5-1.7-0.7-2.7-0.7c-1.3,0-2.3,0.4-3,1.2C1369,572.2,1368.7,573.2,1368.7,574.5z"/>
	<path class="st2" d="M1381.6,580.2l-4.8-11.9h2.6l1.5,4l1.9,5.1c0.1-0.5,0.7-2.2,1.7-5.1l1.4-4h2.5l-4.4,11.8
		c-1.2,3.1-3,4.7-5.4,4.7c-0.4,0-0.8,0-1.1-0.1v-2c0.3,0.1,0.5,0.1,0.8,0.1C1379.9,582.8,1380.9,581.9,1381.6,580.2z"/>
	<path class="st2" d="M1280.3,609.3h-3.1l-1.4-1.3c-1.3,1-2.9,1.5-4.9,1.5c-1.9,0-3.4-0.4-4.5-1.3c-1.1-0.8-1.7-1.9-1.7-3.2
		c0-1.9,1.2-3.3,3.7-4.2c-1.4-1.4-2.1-2.8-2.1-4c0-1.3,0.4-2.3,1.3-3c0.9-0.8,2-1.1,3.4-1.1c1.4,0,2.6,0.4,3.5,1.2s1.3,1.8,1.3,3.1
		c0,0.9-0.3,1.8-0.9,2.5s-1.5,1.4-2.8,2l3.6,3.4c0.4-0.7,0.6-1.4,0.6-2.3h2.2c-0.1,1.4-0.5,2.7-1.2,3.8c0.5,0.4,1.1,1,1.8,1.7
		C1279.7,608.8,1280.2,609.2,1280.3,609.3z M1269.8,602.3L1269.8,602.3c-1,0.3-1.7,0.7-2.1,1.1c-0.4,0.4-0.6,0.9-0.6,1.5
		c0,0.8,0.4,1.4,1.1,1.8c0.7,0.4,1.6,0.7,2.7,0.7c1.3,0,2.4-0.3,3.3-0.9L1269.8,602.3z M1271,594.8c-0.7,0-1.2,0.2-1.6,0.6
		s-0.6,0.9-0.6,1.5c0,0.5,0.2,1,0.5,1.5c0.3,0.5,0.8,1.1,1.5,1.8c1.8-0.9,2.7-1.9,2.7-3.1c0-0.7-0.2-1.2-0.6-1.6
		S1271.7,594.8,1271,594.8z"/>
	<path class="st2" d="M1296.7,593.8v2.4c-1.1-0.7-2.3-1-3.6-1c-0.9,0-1.6,0.2-2.1,0.6c-0.5,0.4-0.8,0.9-0.8,1.5s0.2,1.2,0.7,1.5
		c0.5,0.4,1.3,0.8,2.3,1.2c0.7,0.3,1.2,0.5,1.6,0.7s0.8,0.5,1.3,0.9c0.5,0.4,0.8,0.8,1.1,1.3s0.3,1.1,0.3,1.8c0,1.4-0.5,2.5-1.5,3.4
		c-1,0.8-2.3,1.2-3.9,1.2c-1.8,0-3.2-0.3-4.4-1v-2.6c1.3,0.9,2.7,1.4,4.4,1.4c0.9,0,1.6-0.2,2.1-0.6c0.5-0.4,0.8-1,0.8-1.7
		c0-0.4-0.2-0.8-0.5-1.2c-0.3-0.4-0.6-0.6-1-0.8c-0.4-0.2-0.9-0.4-1.6-0.8c-0.4-0.2-0.7-0.3-0.9-0.4s-0.4-0.2-0.8-0.4
		c-0.4-0.2-0.7-0.4-0.9-0.5s-0.4-0.3-0.7-0.6c-0.3-0.3-0.5-0.5-0.6-0.8c-0.1-0.3-0.2-0.6-0.3-0.9c-0.1-0.3-0.2-0.7-0.2-1.1
		c0-1.4,0.5-2.5,1.5-3.3c1-0.8,2.3-1.2,3.9-1.2C1294.5,593,1295.7,593.3,1296.7,593.8z"/>
	<path class="st2" d="M1303.4,599v6.7c0,1.2,0.6,1.8,1.7,1.8c0.7,0,1.2-0.2,1.7-0.5v2.1c-0.5,0.3-1.2,0.4-1.9,0.4
		c-2.5,0-3.8-1.3-3.8-3.8V599h-1.9v-1.8h1.9v-3h2.4v3h3.2v1.8H1303.4z"/>
	<path class="st2" d="M1309.7,600v-2.3c0.9-0.5,2.2-0.8,3.7-0.8c3.2,0,4.8,1.5,4.8,4.6v7.7h-2.3v-1.4c-0.6,1-1.7,1.5-3.3,1.5
		c-1.2,0-2.1-0.3-2.8-1s-1-1.5-1-2.5c0-1.2,0.4-2.1,1.3-2.7c0.9-0.6,2.1-1,3.7-1h2v-0.7c0-0.8-0.2-1.5-0.6-1.9s-1.1-0.6-2-0.6
		C1311.9,599,1310.7,599.3,1309.7,600z M1315.8,603.9h-1.8c-0.9,0-1.6,0.2-2,0.5c-0.5,0.4-0.7,0.8-0.7,1.3c0,0.6,0.2,1,0.5,1.3
		c0.4,0.3,0.9,0.5,1.5,0.5c0.8,0,1.4-0.2,1.8-0.6c0.4-0.4,0.7-1,0.7-1.7V603.9z"/>
	<path class="st2" d="M1323.7,597.1v2.1c0.7-1.5,2-2.3,3.8-2.3c1.2,0,2.2,0.4,2.9,1.1c0.7,0.7,1.1,1.7,1.1,3v8.2h-2.4v-7.7
		c0-0.8-0.2-1.5-0.6-1.9c-0.4-0.4-1-0.7-1.7-0.7c-0.8,0-1.5,0.3-2.1,1c-0.6,0.6-0.9,1.6-0.9,2.7v6.6h-2.4v-12.2H1323.7z"/>
	<path class="st2" d="M1342.8,592.3h2.4v17h-2.4v-1.8c-0.8,1.3-2.1,2-3.7,2c-1.6,0-2.9-0.6-3.8-1.8c-0.9-1.2-1.4-2.7-1.4-4.4
		c0-1.9,0.5-3.4,1.5-4.6c1-1.2,2.2-1.7,3.8-1.7c1.6,0,2.8,0.7,3.7,2V592.3z M1339.5,607.4c0.9,0,1.7-0.4,2.4-1.1
		c0.6-0.7,1-1.8,1-3.2c0-1.4-0.3-2.4-1-3.1c-0.7-0.7-1.4-1-2.2-1c-0.9,0-1.7,0.4-2.3,1.1s-0.9,1.8-0.9,3.2c0,1.2,0.3,2.2,0.9,3
		S1338.6,607.4,1339.5,607.4z"/>
	<path class="st2" d="M1348.8,600v-2.3c0.9-0.5,2.2-0.8,3.7-0.8c3.2,0,4.8,1.5,4.8,4.6v7.7h-2.3v-1.4c-0.6,1-1.7,1.5-3.3,1.5
		c-1.2,0-2.1-0.3-2.8-1s-1-1.5-1-2.5c0-1.2,0.4-2.1,1.3-2.7c0.9-0.6,2.1-1,3.7-1h2v-0.7c0-0.8-0.2-1.5-0.6-1.9s-1.1-0.6-2-0.6
		C1351,599,1349.8,599.3,1348.8,600z M1354.9,603.9h-1.8c-0.9,0-1.6,0.2-2,0.5c-0.5,0.4-0.7,0.8-0.7,1.3c0,0.6,0.2,1,0.5,1.3
		c0.4,0.3,0.9,0.5,1.5,0.5c0.8,0,1.4-0.2,1.8-0.6c0.4-0.4,0.7-1,0.7-1.7V603.9z"/>
	<path class="st2" d="M1362.8,597.1v2.1c0.6-1.5,1.7-2.3,3.2-2.3c0.2,0,0.5,0,0.7,0.1v2.3c-0.3-0.1-0.7-0.2-1.1-0.2
		c-0.8,0-1.5,0.4-2,1.1c-0.5,0.7-0.8,1.6-0.8,2.6v6.5h-2.4v-12.2H1362.8z"/>
	<path class="st2" d="M1376.8,592.3h2.4v17h-2.4v-1.8c-0.8,1.3-2.1,2-3.7,2c-1.6,0-2.9-0.6-3.8-1.8c-0.9-1.2-1.4-2.7-1.4-4.4
		c0-1.9,0.5-3.4,1.5-4.6c1-1.2,2.2-1.7,3.8-1.7c1.6,0,2.8,0.7,3.7,2V592.3z M1373.5,607.4c0.9,0,1.7-0.4,2.4-1.1
		c0.6-0.7,1-1.8,1-3.2c0-1.4-0.3-2.4-1-3.1c-0.7-0.7-1.4-1-2.2-1c-0.9,0-1.7,0.4-2.3,1.1s-0.9,1.8-0.9,3.2c0,1.2,0.3,2.2,0.9,3
		S1372.6,607.4,1373.5,607.4z"/>
	<path class="st2" d="M1389.5,597.5v2.1c-0.8-0.5-1.8-0.7-3-0.7c-0.6,0-1,0.1-1.3,0.4c-0.3,0.3-0.5,0.6-0.5,1c0,0.1,0,0.2,0,0.3
		c0,0.1,0.1,0.2,0.1,0.3c0.1,0.1,0.1,0.2,0.2,0.3s0.1,0.1,0.3,0.2c0.1,0.1,0.2,0.1,0.3,0.2c0.1,0.1,0.2,0.1,0.4,0.2
		c0.2,0.1,0.3,0.1,0.4,0.2s0.2,0.1,0.4,0.2c0.2,0.1,0.3,0.1,0.4,0.2c0.9,0.4,1.7,0.9,2.2,1.4c0.5,0.5,0.8,1.2,0.8,2.1
		c0,1.1-0.4,1.9-1.2,2.6c-0.8,0.6-1.8,0.9-3.1,0.9c-1.4,0-2.6-0.2-3.6-0.7v-2.2c1.1,0.7,2.3,1,3.5,1c0.6,0,1.1-0.1,1.5-0.4
		c0.3-0.3,0.5-0.6,0.5-1c0-0.4-0.1-0.7-0.4-0.9c-0.3-0.3-0.5-0.5-0.8-0.6c-0.3-0.1-0.8-0.3-1.4-0.6c-1.9-0.8-2.9-1.9-2.9-3.5
		c0-1.1,0.4-1.9,1.2-2.5c0.8-0.6,1.8-0.9,3-0.9C1387.7,597,1388.7,597.2,1389.5,597.5z"/>
</g>
<g>
	<path class="st2" d="M1274.6,352.2v-10h2.5v10c0,2.1-0.5,3.7-1.6,4.8c-1.1,1.1-2.6,1.6-4.5,1.6c-1.9,0-3.4-0.5-4.5-1.6
		c-1.1-1.1-1.6-2.6-1.6-4.6v-10.2h2.5v10.2c0,1.4,0.3,2.4,1,3s1.5,0.9,2.6,0.9C1273.4,356.3,1274.6,354.9,1274.6,352.2z"/>
	<path class="st2" d="M1287.4,346.6v2.1c-0.8-0.5-1.8-0.7-3-0.7c-0.6,0-1,0.1-1.3,0.4s-0.5,0.6-0.5,1c0,0.1,0,0.2,0,0.3
		c0,0.1,0.1,0.2,0.1,0.3c0.1,0.1,0.1,0.2,0.2,0.3c0.1,0.1,0.1,0.1,0.3,0.2s0.2,0.1,0.3,0.2c0.1,0.1,0.2,0.1,0.4,0.2s0.3,0.1,0.4,0.2
		s0.2,0.1,0.4,0.2c0.2,0.1,0.3,0.1,0.4,0.2c0.9,0.4,1.7,0.9,2.2,1.4s0.8,1.2,0.8,2.1c0,1.1-0.4,1.9-1.2,2.6
		c-0.8,0.6-1.8,0.9-3.1,0.9c-1.4,0-2.6-0.2-3.6-0.7v-2.2c1.1,0.7,2.3,1,3.5,1c0.6,0,1.1-0.1,1.5-0.4s0.5-0.6,0.5-1
		c0-0.4-0.1-0.7-0.4-0.9c-0.3-0.3-0.5-0.5-0.8-0.6c-0.3-0.1-0.8-0.3-1.4-0.6c-1.9-0.8-2.9-1.9-2.9-3.5c0-1.1,0.4-1.9,1.2-2.5
		c0.8-0.6,1.8-0.9,3-0.9C1285.7,346,1286.7,346.2,1287.4,346.6z"/>
	<path class="st2" d="M1299.6,355.6v2.1c-0.9,0.5-2.1,0.8-3.6,0.8c-1.9,0-3.4-0.6-4.5-1.7c-1.1-1.1-1.7-2.6-1.7-4.5
		c0-2,0.5-3.5,1.5-4.6c1-1.1,2.3-1.7,3.9-1.7c1.6,0,2.8,0.5,3.7,1.5s1.4,2.4,1.4,4.2c0,0.5,0,1-0.1,1.6h-8c0.2,1.1,0.6,1.9,1.3,2.4
		c0.7,0.6,1.7,0.8,2.8,0.8C1297.7,356.5,1298.7,356.2,1299.6,355.6z M1298.1,351.4v-0.4c0-0.9-0.3-1.6-0.7-2.2
		c-0.5-0.5-1.1-0.8-2-0.8c-0.8,0-1.5,0.3-2.1,0.9c-0.6,0.6-0.9,1.4-1.1,2.5H1298.1z"/>
	<path class="st2" d="M1305.5,346.2v2.1c0.6-1.5,1.7-2.3,3.2-2.3c0.2,0,0.5,0,0.7,0.1v2.3c-0.3-0.1-0.7-0.2-1.1-0.2
		c-0.8,0-1.5,0.4-2,1.1c-0.5,0.7-0.8,1.6-0.8,2.6v6.5h-2.4v-12.2H1305.5z"/>
	<path class="st2" d="M1329,342.8v2.4c-0.7-0.4-1.3-0.7-1.9-0.8c-0.6-0.2-1.3-0.2-2.2-0.2c-1.6,0-3,0.5-4,1.6s-1.6,2.5-1.6,4.4
		c0,1.8,0.5,3.3,1.6,4.4c1.1,1.1,2.5,1.6,4.2,1.6c1.6,0,2.9-0.4,3.9-1.2v2.5c-1,0.7-2.4,1-4.1,1c-2.4,0-4.4-0.8-5.9-2.3
		c-1.5-1.5-2.3-3.5-2.3-6c0-2.4,0.8-4.4,2.3-6c1.5-1.5,3.5-2.3,5.9-2.3C1326.5,341.9,1327.9,342.2,1329,342.8z"/>
	<path class="st2" d="M1336.8,358.6c-1.8,0-3.2-0.6-4.2-1.8c-1-1.2-1.5-2.6-1.5-4.4c0-1.8,0.5-3.3,1.6-4.5c1.1-1.2,2.4-1.8,4.2-1.8
		c1.9,0,3.3,0.6,4.3,1.8c1,1.2,1.5,2.7,1.5,4.5c0,1.8-0.5,3.3-1.5,4.5C1340,358,1338.6,358.6,1336.8,358.6z M1336.8,348
		c-1,0-1.8,0.4-2.4,1.2c-0.6,0.8-0.9,1.8-0.9,3.1c0,1.2,0.3,2.2,0.9,3s1.4,1.2,2.4,1.2c1.1,0,1.9-0.4,2.5-1.2c0.6-0.8,0.9-1.8,0.9-3
		c0-1.3-0.3-2.3-0.8-3.1C1338.8,348.4,1337.9,348,1336.8,348z"/>
	<path class="st2" d="M1347.6,346.2v2.1c0.7-1.5,2-2.3,3.8-2.3c1.2,0,2.2,0.4,2.9,1.1c0.7,0.7,1.1,1.7,1.1,3v8.2h-2.4v-7.7
		c0-0.8-0.2-1.5-0.6-1.9c-0.4-0.4-1-0.7-1.7-0.7c-0.8,0-1.5,0.3-2.1,1c-0.6,0.6-0.9,1.6-0.9,2.7v6.6h-2.4v-12.2H1347.6z"/>
	<path class="st2" d="M1361.5,348v6.7c0,1.2,0.6,1.8,1.7,1.8c0.7,0,1.2-0.2,1.7-0.5v2.1c-0.5,0.3-1.2,0.4-1.9,0.4
		c-2.5,0-3.8-1.3-3.8-3.8V348h-1.9v-1.8h1.9v-3h2.4v3h3.2v1.8H1361.5z"/>
	<path class="st2" d="M1369.8,346.2v2.1c0.6-1.5,1.7-2.3,3.2-2.3c0.2,0,0.5,0,0.7,0.1v2.3c-0.3-0.1-0.7-0.2-1.1-0.2
		c-0.8,0-1.5,0.4-2,1.1c-0.5,0.7-0.8,1.6-0.8,2.6v6.5h-2.4v-12.2H1369.8z"/>
	<path class="st2" d="M1380.7,358.6c-1.8,0-3.2-0.6-4.2-1.8c-1-1.2-1.5-2.6-1.5-4.4c0-1.8,0.5-3.3,1.6-4.5c1.1-1.2,2.4-1.8,4.2-1.8
		c1.9,0,3.3,0.6,4.3,1.8c1,1.2,1.5,2.7,1.5,4.5c0,1.8-0.5,3.3-1.5,4.5C1383.9,358,1382.5,358.6,1380.7,358.6z M1380.6,348
		c-1,0-1.8,0.4-2.4,1.2s-0.9,1.8-0.9,3.1c0,1.2,0.3,2.2,0.9,3s1.4,1.2,2.4,1.2c1.1,0,1.9-0.4,2.5-1.2s0.9-1.8,0.9-3
		c0-1.3-0.3-2.3-0.8-3.1C1382.6,348.4,1381.8,348,1380.6,348z"/>
	<path class="st2" d="M1389.2,358.3v-17h2.4v17H1389.2z"/>
	<path class="st2" d="M1280.3,387.1h-3.1l-1.4-1.3c-1.3,1-2.9,1.5-4.9,1.5c-1.9,0-3.4-0.4-4.5-1.3c-1.1-0.8-1.7-1.9-1.7-3.2
		c0-1.9,1.2-3.3,3.7-4.2c-1.4-1.4-2.1-2.8-2.1-4c0-1.3,0.4-2.3,1.3-3c0.9-0.8,2-1.1,3.4-1.1c1.4,0,2.6,0.4,3.5,1.2s1.3,1.8,1.3,3.1
		c0,0.9-0.3,1.8-0.9,2.5c-0.6,0.7-1.5,1.4-2.8,2l3.6,3.4c0.4-0.7,0.6-1.4,0.6-2.3h2.2c-0.1,1.4-0.5,2.7-1.2,3.8
		c0.5,0.4,1.1,1,1.8,1.7C1279.7,386.6,1280.2,387,1280.3,387.1z M1269.8,380.2L1269.8,380.2c-1,0.3-1.7,0.7-2.1,1.1
		c-0.4,0.4-0.6,0.9-0.6,1.5c0,0.8,0.4,1.4,1.1,1.8c0.7,0.4,1.6,0.7,2.7,0.7c1.3,0,2.4-0.3,3.3-0.9L1269.8,380.2z M1271,372.6
		c-0.7,0-1.2,0.2-1.6,0.6s-0.6,0.9-0.6,1.5c0,0.5,0.2,1,0.5,1.5c0.3,0.5,0.8,1.1,1.5,1.8c1.8-0.9,2.7-1.9,2.7-3.1
		c0-0.7-0.2-1.2-0.6-1.6S1271.7,372.6,1271,372.6z"/>
	<path class="st2" d="M1297.2,373h-6.7v5.3h5.9v2.1h-5.9v6.7h-2.5V371h9.2V373z"/>
	<path class="st2" d="M1302.1,375v2.1c0.6-1.5,1.7-2.3,3.2-2.3c0.2,0,0.5,0,0.7,0.1v2.3c-0.3-0.1-0.7-0.2-1.1-0.2
		c-0.8,0-1.5,0.4-2,1.1s-0.8,1.6-0.8,2.6v6.5h-2.4V375H1302.1z"/>
	<path class="st2" d="M1317,384.4v2.1c-0.9,0.5-2.1,0.8-3.6,0.8c-1.9,0-3.4-0.6-4.5-1.7c-1.1-1.1-1.7-2.6-1.7-4.5
		c0-2,0.5-3.5,1.5-4.6c1-1.1,2.3-1.7,3.9-1.7c1.6,0,2.8,0.5,3.7,1.5s1.4,2.4,1.4,4.2c0,0.5,0,1-0.1,1.6h-8c0.2,1.1,0.6,1.9,1.3,2.4
		c0.7,0.6,1.7,0.8,2.8,0.8C1315,385.3,1316.1,385,1317,384.4z M1315.4,380.2v-0.4c0-0.9-0.3-1.6-0.7-2.2c-0.5-0.5-1.1-0.8-2-0.8
		c-0.8,0-1.5,0.3-2.1,0.9c-0.6,0.6-0.9,1.4-1.1,2.5H1315.4z"/>
	<path class="st2" d="M1329.6,384.4v2.1c-0.9,0.5-2.1,0.8-3.6,0.8c-1.9,0-3.4-0.6-4.5-1.7c-1.1-1.1-1.7-2.6-1.7-4.5
		c0-2,0.5-3.5,1.5-4.6c1-1.1,2.3-1.7,3.9-1.7c1.6,0,2.8,0.5,3.7,1.5s1.4,2.4,1.4,4.2c0,0.5,0,1-0.1,1.6h-8c0.2,1.1,0.6,1.9,1.3,2.4
		c0.7,0.6,1.7,0.8,2.8,0.8C1327.6,385.3,1328.7,385,1329.6,384.4z M1328,380.2v-0.4c0-0.9-0.3-1.6-0.7-2.2c-0.5-0.5-1.1-0.8-2-0.8
		c-0.8,0-1.5,0.3-2.1,0.9c-0.6,0.6-0.9,1.4-1.1,2.5H1328z"/>
	<path class="st2" d="M1341.3,370.2h2.4v17h-2.4v-1.8c-0.8,1.3-2.1,2-3.7,2c-1.6,0-2.9-0.6-3.8-1.8s-1.4-2.7-1.4-4.4
		c0-1.9,0.5-3.4,1.5-4.6c1-1.2,2.2-1.7,3.8-1.7c1.6,0,2.8,0.7,3.7,2V370.2z M1338,385.2c0.9,0,1.7-0.4,2.4-1.1c0.6-0.7,1-1.8,1-3.2
		c0-1.4-0.3-2.4-1-3.1c-0.7-0.7-1.4-1-2.2-1c-0.9,0-1.7,0.4-2.3,1.1c-0.6,0.7-0.9,1.8-0.9,3.2c0,1.2,0.3,2.2,0.9,3
		S1337.1,385.2,1338,385.2z"/>
	<path class="st2" d="M1352.1,387.4c-1.8,0-3.2-0.6-4.2-1.8c-1-1.2-1.5-2.6-1.5-4.4c0-1.8,0.5-3.3,1.6-4.5c1.1-1.2,2.4-1.8,4.2-1.8
		c1.9,0,3.3,0.6,4.3,1.8c1,1.2,1.5,2.7,1.5,4.5c0,1.8-0.5,3.3-1.5,4.5S1353.9,387.4,1352.1,387.4z M1352.1,376.8
		c-1,0-1.8,0.4-2.4,1.2s-0.9,1.8-0.9,3.1c0,1.2,0.3,2.2,0.9,3s1.4,1.2,2.4,1.2c1.1,0,1.9-0.4,2.5-1.2s0.9-1.8,0.9-3
		c0-1.3-0.3-2.3-0.8-3.1C1354.1,377.2,1353.2,376.8,1352.1,376.8z"/>
	<path class="st2" d="M1362.9,375v1.9c0.7-1.4,1.8-2.1,3.4-2.1c1.8,0,3,0.8,3.5,2.4c0.3-0.8,0.8-1.3,1.5-1.7
		c0.6-0.4,1.4-0.6,2.2-0.6c1.2,0,2.2,0.4,2.8,1.1c0.6,0.7,1,1.8,1,3v8.2h-2.4v-7.7c0-1.7-0.7-2.6-2.1-2.6c-0.7,0-1.3,0.3-1.9,0.9
		s-0.8,1.5-0.8,2.8v6.6h-2.4v-7.7c0-1.7-0.7-2.6-2.1-2.6c-0.7,0-1.3,0.3-1.9,0.9s-0.8,1.5-0.8,2.8v6.6h-2.4V375H1362.9z"/>
</g>
<g>
	<path class="st2" d="M1264.7,121.8l1.2-16.2h2.9l2.2,5.9c0.4,1,0.8,2.1,1.2,3.2c0.4,1.1,0.7,2,0.9,2.6l0.3,0.9
		c0.7-2.2,1.5-4.4,2.4-6.8l2.3-5.9h2.9l1.5,16.2h-2.4l-0.6-6.3l-0.5-6.5c-0.7,2-1.5,4.2-2.4,6.5l-2.3,6h-1.9l-2.2-6l-2.2-6.4
		c0,0.7-0.1,2.8-0.4,6.4l-0.5,6.3H1264.7z"/>
	<path class="st2" d="M1286,112.5v-2.3c0.9-0.5,2.2-0.8,3.7-0.8c3.2,0,4.8,1.5,4.8,4.6v7.7h-2.3v-1.4c-0.6,1-1.7,1.5-3.3,1.5
		c-1.2,0-2.1-0.3-2.8-1c-0.7-0.7-1-1.5-1-2.5c0-1.2,0.4-2.1,1.3-2.7s2.1-1,3.7-1h2v-0.7c0-0.8-0.2-1.5-0.6-1.9
		c-0.4-0.4-1.1-0.6-2-0.6C1288.2,111.4,1287,111.8,1286,112.5z M1292.1,116.3h-1.8c-0.9,0-1.6,0.2-2,0.5c-0.5,0.4-0.7,0.8-0.7,1.3
		c0,0.6,0.2,1,0.5,1.3c0.4,0.3,0.9,0.5,1.5,0.5c0.8,0,1.4-0.2,1.8-0.6c0.4-0.4,0.7-1,0.7-1.7V116.3z"/>
	<path class="st2" d="M1300.7,111.4v6.7c0,1.2,0.6,1.8,1.7,1.8c0.7,0,1.2-0.2,1.7-0.5v2.1c-0.5,0.3-1.2,0.4-1.9,0.4
		c-2.5,0-3.8-1.3-3.8-3.8v-6.6h-1.9v-1.8h1.9v-3h2.4v3h3.2v1.8H1300.7z"/>
	<path class="st2" d="M1308.4,115.7c0,1.2,0.4,2.2,1.1,3c0.7,0.8,1.7,1.2,3,1.2c1,0,1.9-0.3,2.7-0.8v2.1c-0.8,0.5-1.8,0.7-3,0.7
		c-1.9,0-3.4-0.6-4.6-1.8c-1.1-1.2-1.7-2.7-1.7-4.5c0-1.7,0.6-3.2,1.7-4.5c1.1-1.2,2.7-1.9,4.6-1.9c1.1,0,2,0.2,2.9,0.7v2.2
		c-0.8-0.5-1.7-0.7-2.7-0.7c-1.3,0-2.3,0.4-3,1.2C1308.7,113.5,1308.4,114.5,1308.4,115.7z"/>
	<path class="st2" d="M1320.3,104.8v6.9c0.7-1.5,1.9-2.3,3.8-2.3c1.2,0,2.1,0.4,2.9,1.1c0.7,0.7,1.1,1.8,1.1,3.1v8.2h-2.4v-7.7
		c0-0.8-0.2-1.5-0.6-1.9c-0.4-0.5-1-0.7-1.7-0.7c-0.8,0-1.5,0.3-2.1,0.9c-0.6,0.6-0.9,1.5-0.9,2.8v6.6h-2.4v-17H1320.3z"/>
	<path class="st2" d="M1339.5,104.8v6.6c0.9-1.3,2.1-2,3.7-2c1.5,0,2.8,0.6,3.8,1.7c1,1.2,1.5,2.7,1.5,4.6c0,1.7-0.5,3.2-1.4,4.4
		c-0.9,1.2-2.2,1.8-3.8,1.8s-2.8-0.7-3.7-2v1.8h-2.4v-17H1339.5z M1342.8,119.9c0.9,0,1.6-0.4,2.3-1.1c0.6-0.8,0.9-1.7,0.9-2.9
		c0-1.4-0.3-2.4-0.9-3.2c-0.6-0.7-1.4-1.1-2.3-1.1c-0.8,0-1.6,0.3-2.2,1s-1,1.7-1,3.1c0,1.4,0.3,2.5,1,3.2
		C1341.1,119.5,1341.9,119.9,1342.8,119.9z"/>
	<path class="st2" d="M1360.1,119v2.1c-0.9,0.5-2.1,0.8-3.6,0.8c-1.9,0-3.4-0.6-4.5-1.7c-1.1-1.1-1.7-2.6-1.7-4.5
		c0-2,0.5-3.5,1.5-4.6c1-1.1,2.3-1.7,3.9-1.7c1.6,0,2.8,0.5,3.7,1.5c0.9,1,1.4,2.4,1.4,4.2c0,0.5,0,1-0.1,1.6h-8
		c0.2,1.1,0.6,1.9,1.3,2.4c0.7,0.6,1.7,0.8,2.8,0.8C1358.1,119.9,1359.2,119.6,1360.1,119z M1358.6,114.8v-0.4
		c0-0.9-0.3-1.6-0.7-2.2c-0.5-0.5-1.1-0.8-2-0.8c-0.8,0-1.5,0.3-2.1,0.9s-0.9,1.4-1.1,2.5H1358.6z"/>
	<path class="st2" d="M1366.7,111.4v6.7c0,1.2,0.6,1.8,1.7,1.8c0.7,0,1.2-0.2,1.7-0.5v2.1c-0.5,0.3-1.2,0.4-1.9,0.4
		c-2.5,0-3.8-1.3-3.8-3.8v-6.6h-1.9v-1.8h1.9v-3h2.4v3h3.2v1.8H1366.7z"/>
	<path class="st2" d="M1375.2,121.8l-3.8-12.2h2.5l1.1,4c0.4,1.3,0.7,2.4,0.9,3.4c0.3,1,0.4,1.6,0.5,2l0.1,0.5c0.2-1,0.7-3,1.6-5.9
		l1.2-4h2.3l1.2,4c0.4,1.3,0.7,2.5,1,3.5c0.3,1,0.4,1.6,0.5,2l0.1,0.5c0.2-0.9,0.7-2.9,1.6-5.9l1.2-4h2.4l-3.9,12.2h-2.7l-1.1-4
		c-0.3-1.2-0.6-2.3-0.9-3.2s-0.4-1.6-0.5-1.9l-0.1-0.5c-0.2,1-0.7,2.9-1.5,5.6l-1.1,4H1375.2z"/>
	<path class="st2" d="M1400.8,119v2.1c-0.9,0.5-2.1,0.8-3.6,0.8c-1.9,0-3.4-0.6-4.5-1.7c-1.1-1.1-1.7-2.6-1.7-4.5
		c0-2,0.5-3.5,1.5-4.6c1-1.1,2.3-1.7,3.9-1.7c1.6,0,2.8,0.5,3.7,1.5c0.9,1,1.4,2.4,1.4,4.2c0,0.5,0,1-0.1,1.6h-8
		c0.2,1.1,0.6,1.9,1.3,2.4c0.7,0.6,1.7,0.8,2.8,0.8C1398.8,119.9,1399.9,119.6,1400.8,119z M1399.3,114.8v-0.4
		c0-0.9-0.3-1.6-0.7-2.2c-0.5-0.5-1.1-0.8-2-0.8c-0.8,0-1.5,0.3-2.1,0.9s-0.9,1.4-1.1,2.5H1399.3z"/>
	<path class="st2" d="M1413.4,119v2.1c-0.9,0.5-2.1,0.8-3.6,0.8c-1.9,0-3.4-0.6-4.5-1.7c-1.1-1.1-1.7-2.6-1.7-4.5
		c0-2,0.5-3.5,1.5-4.6c1-1.1,2.3-1.7,3.9-1.7c1.6,0,2.8,0.5,3.7,1.5c0.9,1,1.4,2.4,1.4,4.2c0,0.5,0,1-0.1,1.6h-8
		c0.2,1.1,0.6,1.9,1.3,2.4c0.7,0.6,1.7,0.8,2.8,0.8C1411.4,119.9,1412.5,119.6,1413.4,119z M1411.9,114.8v-0.4
		c0-0.9-0.3-1.6-0.7-2.2c-0.5-0.5-1.1-0.8-2-0.8c-0.8,0-1.5,0.3-2.1,0.9s-0.9,1.4-1.1,2.5H1411.9z"/>
	<path class="st2" d="M1419.2,109.6v2.1c0.7-1.5,2-2.3,3.8-2.3c1.2,0,2.2,0.4,2.9,1.1c0.7,0.7,1.1,1.7,1.1,3v8.2h-2.4v-7.7
		c0-0.8-0.2-1.5-0.6-1.9c-0.4-0.4-1-0.7-1.7-0.7c-0.8,0-1.5,0.3-2.1,1c-0.6,0.6-0.9,1.6-0.9,2.7v6.6h-2.4v-12.2H1419.2z"/>
	<path class="st2" d="M1267.9,140.2v6.7c0,1.2,0.6,1.8,1.7,1.8c0.7,0,1.2-0.2,1.7-0.5v2.1c-0.5,0.3-1.2,0.4-1.9,0.4
		c-2.5,0-3.8-1.3-3.8-3.8v-6.6h-1.9v-1.8h1.9v-3h2.4v3h3.2v1.8H1267.9z"/>
	<path class="st2" d="M1276.2,133.6v6.9c0.7-1.5,1.9-2.3,3.8-2.3c1.2,0,2.1,0.4,2.9,1.1c0.7,0.7,1.1,1.8,1.1,3.1v8.2h-2.4v-7.7
		c0-0.8-0.2-1.5-0.6-1.9c-0.4-0.5-1-0.7-1.7-0.7c-0.8,0-1.5,0.3-2.1,0.9c-0.6,0.6-0.9,1.5-0.9,2.8v6.6h-2.4v-17H1276.2z"/>
	<path class="st2" d="M1296.1,147.8v2.1c-0.9,0.5-2.1,0.8-3.6,0.8c-1.9,0-3.4-0.6-4.5-1.7s-1.7-2.6-1.7-4.5c0-2,0.5-3.5,1.5-4.6
		c1-1.1,2.3-1.7,3.9-1.7c1.6,0,2.8,0.5,3.7,1.5c0.9,1,1.4,2.4,1.4,4.2c0,0.5,0,1-0.1,1.6h-8c0.2,1.1,0.6,1.9,1.3,2.4
		c0.7,0.6,1.7,0.8,2.8,0.8C1294.2,148.7,1295.2,148.4,1296.1,147.8z M1294.6,143.6v-0.4c0-0.9-0.3-1.6-0.7-2.2
		c-0.5-0.5-1.1-0.8-2-0.8c-0.8,0-1.5,0.3-2.1,0.9c-0.6,0.6-0.9,1.4-1.1,2.5H1294.6z"/>
	<path class="st2" d="M1314.4,135v2.4c-1.1-0.7-2.3-1-3.6-1c-0.9,0-1.6,0.2-2.1,0.6c-0.5,0.4-0.8,0.9-0.8,1.5c0,0.6,0.2,1.2,0.7,1.5
		s1.3,0.8,2.3,1.2c0.7,0.3,1.2,0.5,1.6,0.7s0.8,0.5,1.3,0.9s0.8,0.8,1.1,1.3s0.3,1.1,0.3,1.8c0,1.4-0.5,2.5-1.5,3.4
		c-1,0.8-2.3,1.2-3.9,1.2c-1.8,0-3.2-0.3-4.4-1v-2.6c1.3,0.9,2.7,1.4,4.4,1.4c0.9,0,1.6-0.2,2.1-0.6c0.5-0.4,0.8-1,0.8-1.7
		c0-0.4-0.2-0.8-0.5-1.2s-0.6-0.6-1-0.8c-0.4-0.2-0.9-0.4-1.6-0.8c-0.4-0.2-0.7-0.3-0.9-0.4s-0.4-0.2-0.8-0.4
		c-0.4-0.2-0.7-0.4-0.9-0.5c-0.2-0.1-0.4-0.3-0.7-0.6c-0.3-0.3-0.5-0.5-0.6-0.8c-0.1-0.3-0.2-0.6-0.3-0.9c-0.1-0.3-0.2-0.7-0.2-1.1
		c0-1.4,0.5-2.5,1.5-3.3c1-0.8,2.3-1.2,3.9-1.2C1312.1,134.3,1313.3,134.5,1314.4,135z"/>
	<path class="st2" d="M1321.4,150.3l-4.8-11.9h2.6l1.5,4l1.9,5.1c0.1-0.5,0.7-2.2,1.7-5.1l1.4-4h2.5l-4.4,11.8
		c-1.2,3.1-3,4.7-5.4,4.7c-0.4,0-0.8,0-1.1-0.1v-2c0.3,0.1,0.5,0.1,0.8,0.1C1319.7,152.9,1320.8,152,1321.4,150.3z"/>
	<path class="st2" d="M1337.1,138.8v2.1c-0.8-0.5-1.8-0.7-3-0.7c-0.6,0-1,0.1-1.3,0.4c-0.3,0.3-0.5,0.6-0.5,1c0,0.1,0,0.2,0,0.3
		c0,0.1,0.1,0.2,0.1,0.3c0.1,0.1,0.1,0.2,0.2,0.3s0.1,0.1,0.3,0.2c0.1,0.1,0.2,0.1,0.3,0.2c0.1,0.1,0.2,0.1,0.4,0.2s0.3,0.1,0.4,0.2
		s0.2,0.1,0.4,0.2c0.2,0.1,0.3,0.1,0.4,0.2c0.9,0.4,1.7,0.9,2.2,1.4c0.5,0.5,0.8,1.2,0.8,2.1c0,1.1-0.4,1.9-1.2,2.6
		c-0.8,0.6-1.8,0.9-3.1,0.9c-1.4,0-2.6-0.2-3.6-0.7v-2.2c1.1,0.7,2.3,1,3.5,1c0.6,0,1.1-0.1,1.5-0.4c0.3-0.3,0.5-0.6,0.5-1
		c0-0.4-0.1-0.7-0.4-0.9c-0.3-0.3-0.5-0.5-0.8-0.6c-0.3-0.1-0.8-0.3-1.4-0.6c-1.9-0.8-2.9-1.9-2.9-3.5c0-1.1,0.4-1.9,1.2-2.5
		c0.8-0.6,1.8-0.9,3-0.9C1335.3,138.3,1336.3,138.5,1337.1,138.8z"/>
	<path class="st2" d="M1343.2,140.2v6.7c0,1.2,0.6,1.8,1.7,1.8c0.7,0,1.2-0.2,1.7-0.5v2.1c-0.5,0.3-1.2,0.4-1.9,0.4
		c-2.5,0-3.8-1.3-3.8-3.8v-6.6h-1.9v-1.8h1.9v-3h2.4v3h3.2v1.8H1343.2z"/>
	<path class="st2" d="M1358.2,147.8v2.1c-0.9,0.5-2.1,0.8-3.6,0.8c-1.9,0-3.4-0.6-4.5-1.7c-1.1-1.1-1.7-2.6-1.7-4.5
		c0-2,0.5-3.5,1.5-4.6c1-1.1,2.3-1.7,3.9-1.7c1.6,0,2.8,0.5,3.7,1.5c0.9,1,1.4,2.4,1.4,4.2c0,0.5,0,1-0.1,1.6h-8
		c0.2,1.1,0.6,1.9,1.3,2.4c0.7,0.6,1.7,0.8,2.8,0.8C1356.3,148.7,1357.4,148.4,1358.2,147.8z M1356.7,143.6v-0.4
		c0-0.9-0.3-1.6-0.7-2.2c-0.5-0.5-1.1-0.8-2-0.8c-0.8,0-1.5,0.3-2.1,0.9c-0.6,0.6-0.9,1.4-1.1,2.5H1356.7z"/>
	<path class="st2" d="M1364.1,138.4v1.9c0.7-1.4,1.8-2.1,3.4-2.1c1.8,0,3,0.8,3.5,2.4c0.3-0.8,0.8-1.3,1.5-1.7
		c0.6-0.4,1.4-0.6,2.2-0.6c1.2,0,2.2,0.4,2.8,1.1c0.6,0.7,1,1.8,1,3v8.2h-2.4v-7.7c0-1.7-0.7-2.6-2.1-2.6c-0.7,0-1.3,0.3-1.9,0.9
		c-0.6,0.6-0.8,1.5-0.8,2.8v6.6h-2.4v-7.7c0-1.7-0.7-2.6-2.1-2.6c-0.7,0-1.3,0.3-1.9,0.9c-0.6,0.6-0.8,1.5-0.8,2.8v6.6h-2.4v-12.2
		H1364.1z"/>
	<path class="st2" d="M1403,150.6h-3.1l-1.4-1.3c-1.3,1-2.9,1.5-4.9,1.5c-1.9,0-3.4-0.4-4.5-1.3c-1.1-0.8-1.7-1.9-1.7-3.2
		c0-1.9,1.2-3.3,3.7-4.2c-1.4-1.4-2.1-2.8-2.1-4c0-1.3,0.4-2.3,1.3-3c0.9-0.8,2-1.1,3.4-1.1c1.4,0,2.6,0.4,3.5,1.2s1.3,1.8,1.3,3.1
		c0,0.9-0.3,1.8-0.9,2.5s-1.5,1.4-2.8,2l3.6,3.4c0.4-0.7,0.6-1.4,0.6-2.3h2.2c-0.1,1.4-0.5,2.7-1.2,3.8c0.5,0.4,1.1,1,1.8,1.7
		S1402.9,150.5,1403,150.6z M1392.6,143.6L1392.6,143.6c-1,0.3-1.7,0.7-2.1,1.1c-0.4,0.4-0.6,0.9-0.6,1.5c0,0.8,0.4,1.4,1.1,1.8
		c0.7,0.4,1.6,0.7,2.7,0.7c1.3,0,2.4-0.3,3.3-0.9L1392.6,143.6z M1393.7,136.1c-0.7,0-1.2,0.2-1.6,0.6c-0.4,0.4-0.6,0.9-0.6,1.5
		c0,0.5,0.2,1,0.5,1.5c0.3,0.5,0.8,1.1,1.5,1.8c1.8-0.9,2.7-1.9,2.7-3.1c0-0.7-0.2-1.2-0.6-1.6S1394.5,136.1,1393.7,136.1z"/>
	<path class="st2" d="M1267.9,169v6.7c0,1.2,0.6,1.8,1.7,1.8c0.7,0,1.2-0.2,1.7-0.5v2.1c-0.5,0.3-1.2,0.4-1.9,0.4
		c-2.5,0-3.8-1.3-3.8-3.8V169h-1.9v-1.8h1.9v-3h2.4v3h3.2v1.8H1267.9z"/>
	<path class="st2" d="M1276.2,162.4v6.9c0.7-1.5,1.9-2.3,3.8-2.3c1.2,0,2.1,0.4,2.9,1.1c0.7,0.7,1.1,1.8,1.1,3.1v8.2h-2.4v-7.7
		c0-0.8-0.2-1.5-0.6-1.9c-0.4-0.5-1-0.7-1.7-0.7c-0.8,0-1.5,0.3-2.1,0.9c-0.6,0.6-0.9,1.5-0.9,2.8v6.6h-2.4v-17H1276.2z"/>
	<path class="st2" d="M1296.1,176.6v2.1c-0.9,0.5-2.1,0.8-3.6,0.8c-1.9,0-3.4-0.6-4.5-1.7c-1.1-1.1-1.7-2.6-1.7-4.5
		c0-2,0.5-3.5,1.5-4.6c1-1.1,2.3-1.7,3.9-1.7c1.6,0,2.8,0.5,3.7,1.5c0.9,1,1.4,2.4,1.4,4.2c0,0.5,0,1-0.1,1.6h-8
		c0.2,1.1,0.6,1.9,1.3,2.4s1.7,0.8,2.8,0.8C1294.2,177.5,1295.2,177.2,1296.1,176.6z M1294.6,172.4V172c0-0.9-0.3-1.6-0.7-2.2
		c-0.5-0.5-1.1-0.8-2-0.8c-0.8,0-1.5,0.3-2.1,0.9c-0.6,0.6-0.9,1.4-1.1,2.5H1294.6z"/>
	<path class="st2" d="M1314,179.4l-3.8-6.1h-2.1v6.1h-2.5v-16.2h4.5c1.9,0,3.3,0.5,4.3,1.4s1.5,2.1,1.5,3.7c0,1.1-0.3,2.1-0.9,2.9
		c-0.6,0.8-1.3,1.4-2.3,1.7l4.2,6.5H1314z M1308.1,165.3v5.9h2.2c1,0,1.8-0.3,2.3-0.8c0.5-0.5,0.8-1.3,0.8-2.1c0-2-1.1-3-3.2-3
		H1308.1z"/>
	<path class="st2" d="M1328.2,176.6v2.1c-0.9,0.5-2.1,0.8-3.6,0.8c-1.9,0-3.4-0.6-4.5-1.7c-1.1-1.1-1.7-2.6-1.7-4.5
		c0-2,0.5-3.5,1.5-4.6s2.3-1.7,3.9-1.7c1.6,0,2.8,0.5,3.7,1.5c0.9,1,1.4,2.4,1.4,4.2c0,0.5,0,1-0.1,1.6h-8c0.2,1.1,0.6,1.9,1.3,2.4
		s1.7,0.8,2.8,0.8C1326.3,177.5,1327.4,177.2,1328.2,176.6z M1326.7,172.4V172c0-0.9-0.3-1.6-0.7-2.2s-1.1-0.8-2-0.8
		c-0.8,0-1.5,0.3-2.1,0.9c-0.6,0.6-0.9,1.4-1.1,2.5H1326.7z"/>
	<path class="st2" d="M1332.1,170.1v-2.3c0.9-0.5,2.2-0.8,3.7-0.8c3.2,0,4.8,1.5,4.8,4.6v7.7h-2.3v-1.4c-0.6,1-1.7,1.5-3.3,1.5
		c-1.2,0-2.1-0.3-2.8-1c-0.7-0.7-1-1.5-1-2.5c0-1.2,0.4-2.1,1.3-2.7c0.9-0.6,2.1-1,3.7-1h2v-0.7c0-0.8-0.2-1.5-0.6-1.9
		s-1.1-0.6-2-0.6C1334.3,169,1333.1,169.4,1332.1,170.1z M1338.2,173.9h-1.8c-0.9,0-1.6,0.2-2,0.5c-0.5,0.4-0.7,0.8-0.7,1.3
		c0,0.6,0.2,1,0.5,1.3c0.4,0.3,0.9,0.5,1.5,0.5c0.8,0,1.4-0.2,1.8-0.6c0.4-0.4,0.7-1,0.7-1.7V173.9z"/>
	<path class="st2" d="M1343.8,179.4v-17h2.4v17H1343.8z"/>
	<path class="st2" d="M1364.2,163.4h2.2l1.7,5.8l2.2,7.6c0.6-2.9,1.1-5.4,1.7-7.6l1.4-6h2.5l-4,16.2h-3l-1.5-5.1l-2.1-7.2
		c-0.4,1.5-1,3.9-2,7.2l-1.5,5.1h-3l-4.2-16.2h2.6l1.5,6l1.8,7.6c0.7-2.7,1.4-5.2,2.1-7.6L1364.2,163.4z"/>
	<path class="st2" d="M1383.3,179.6c-1.8,0-3.2-0.6-4.2-1.8s-1.5-2.6-1.5-4.4c0-1.8,0.5-3.3,1.6-4.5c1.1-1.2,2.4-1.8,4.2-1.8
		c1.9,0,3.3,0.6,4.3,1.8c1,1.2,1.5,2.7,1.5,4.5c0,1.8-0.5,3.3-1.5,4.5C1386.6,179,1385.1,179.6,1383.3,179.6z M1383.3,169
		c-1,0-1.8,0.4-2.4,1.2s-0.9,1.8-0.9,3.1c0,1.2,0.3,2.2,0.9,3s1.4,1.2,2.4,1.2c1.1,0,1.9-0.4,2.5-1.2s0.9-1.8,0.9-3
		c0-1.3-0.3-2.3-0.8-3.1C1385.3,169.4,1384.5,169,1383.3,169z"/>
	<path class="st2" d="M1394.1,167.2v2.1c0.6-1.5,1.7-2.3,3.2-2.3c0.2,0,0.5,0,0.7,0.1v2.3c-0.3-0.1-0.7-0.2-1.1-0.2
		c-0.8,0-1.5,0.4-2,1.1c-0.5,0.7-0.8,1.6-0.8,2.6v6.5h-2.4v-12.2H1394.1z"/>
	<path class="st2" d="M1400,179.4v-17h2.4v17H1400z"/>
	<path class="st2" d="M1414,162.4h2.4v17h-2.4v-1.8c-0.8,1.3-2.1,2-3.7,2c-1.6,0-2.9-0.6-3.8-1.8s-1.4-2.7-1.4-4.4
		c0-1.9,0.5-3.4,1.5-4.6s2.2-1.7,3.8-1.7c1.6,0,2.8,0.7,3.7,2V162.4z M1410.7,177.5c0.9,0,1.7-0.4,2.4-1.1c0.6-0.7,1-1.8,1-3.2
		c0-1.4-0.3-2.4-1-3.1c-0.7-0.7-1.4-1-2.2-1c-0.9,0-1.7,0.4-2.3,1.1c-0.6,0.7-0.9,1.8-0.9,3.2c0,1.2,0.3,2.2,0.9,3
		S1409.8,177.5,1410.7,177.5z"/>
</g>
</svg>
