<?xml version="1.0" encoding="utf-8"?>
<!-- Generator: Adobe Illustrator 28.1.0, SVG Export Plug-In . SVG Version: 6.00 Build 0)  -->
<svg version="1.1" id="Layer_1" xmlns="http://www.w3.org/2000/svg" xmlns:xlink="http://www.w3.org/1999/xlink" x="0px" y="0px"
	 viewBox="0 0 1584 971" style="enable-background:new 0 0 1584 971;" xml:space="preserve">
<style type="text/css">
	.st0{fill:#FFFFFF;}
	.st1{fill:#D1EBEE;}
	.st2{fill:none;stroke:#1A135A;stroke-width:2.7714;stroke-miterlimit:10;}
	.st3{fill:#1A135A;}
	.st4{fill:#49C1CE;}
	.st5{font-family:'Hind-Medium';}
	.st6{font-size:24px;}
</style>
<rect class="st0" width="1584" height="971"/>
<polygon class="st1" points="557.3,162.8 412.1,361.8 529.5,570.9 793.3,485.1 792,762.5 1026.9,817.1 793.3,485.1 944.8,436.8 
	1026.9,162.8 792,209.5 "/>
<g>
	<g>
		<g>
			<line class="st2" x1="792.1" y1="86" x2="792.1" y2="886"/>
		</g>
		<g>
			<line class="st2" x1="1027.2" y1="809.6" x2="557" y2="162.4"/>
		</g>
		<g>
			<line class="st2" x1="412.1" y1="361.8" x2="1172.9" y2="609"/>
		</g>
		<g>
			<line class="st2" x1="1172.9" y1="361.8" x2="412.1" y2="609"/>
		</g>
		<g>
			<line class="st2" x1="557.4" y1="809" x2="1027.6" y2="161.8"/>
		</g>
	</g>
	<polygon class="st2" points="557,162.4 792.1,86 1027.6,161.8 1172.9,361.8 1172.9,609 1027.2,809.6 792.1,886 557.4,809 
		412.1,609 412.1,361.8 	"/>
	<polygon class="st2" points="629.7,262.3 792.2,209.5 955,261.9 1055.5,400.1 1055.5,571 954.8,709.7 792.2,762.5 630,709.3 
		529.5,571 529.5,400.1 	"/>
	<polygon class="st2" points="700,358.8 792.4,328.8 884.9,358.6 942,437.2 942,534.3 884.7,613.2 792.4,643.2 700.1,612.9 
		643,534.3 643,437.2 	"/>
</g>
<g>
	<g>
		<path class="st3" d="M780,159.3c-0.6-0.3-1.1-0.7-1.4-1.2c-0.3-0.5-0.5-1.2-0.5-2h2.1c0,0.5,0.2,1,0.5,1.3
			c0.3,0.3,0.7,0.5,1.2,0.5h1c0.3,0,0.6-0.1,0.8-0.2c0.2-0.1,0.4-0.3,0.6-0.5c0.1-0.2,0.2-0.5,0.2-0.8c0-0.5-0.1-0.9-0.4-1.2
			s-0.7-0.4-1.2-0.4h-1.7v-1.6h1.6c0.3,0,0.6-0.1,0.8-0.2c0.2-0.1,0.4-0.3,0.5-0.5s0.2-0.4,0.2-0.7c0-0.4-0.1-0.7-0.4-1
			c-0.3-0.2-0.6-0.4-1-0.4h-0.9c-0.5,0-0.8,0.1-1.1,0.4s-0.5,0.7-0.5,1.1h-2.1c0.1-0.7,0.2-1.3,0.6-1.9c0.3-0.5,0.8-0.9,1.4-1.2
			c0.6-0.3,1.4-0.4,2.3-0.4c1.3,0,2.3,0.3,2.9,0.8c0.6,0.5,0.9,1.2,0.9,2c0,0.4-0.1,0.7-0.2,1c-0.1,0.3-0.3,0.6-0.5,0.8
			c-0.2,0.2-0.5,0.4-0.8,0.5v0.1c0.6,0.2,1,0.5,1.4,0.9c0.3,0.4,0.5,1,0.5,1.7c0,0.7-0.2,1.3-0.5,1.8c-0.3,0.5-0.8,0.9-1.4,1.1
			c-0.6,0.3-1.4,0.4-2.3,0.4C781.4,159.7,780.6,159.5,780,159.3z"/>
	</g>
</g>
<g>
	<g>
		<path class="st3" d="M778,279.6l4.9-3.6c0.4-0.3,0.7-0.6,0.9-0.9s0.3-0.6,0.3-0.9c0-0.3-0.1-0.5-0.2-0.7c-0.1-0.2-0.3-0.4-0.5-0.5
			s-0.4-0.2-0.7-0.2h-0.9c-0.4,0-0.8,0.2-1.1,0.5c-0.3,0.3-0.5,0.7-0.5,1.3h-2.1c0-0.8,0.2-1.4,0.6-2s0.8-1,1.5-1.2s1.4-0.4,2.2-0.4
			c1.3,0,2.3,0.3,2.9,0.9s1,1.4,1,2.4c0,0.6-0.1,1.2-0.4,1.7c-0.3,0.5-0.8,1-1.4,1.5l-3.3,2.5v0.2h5.3v1.8H778V279.6z"/>
	</g>
</g>
<g>
	<g>
		<path class="st3" d="M778.1,399.7h2.7v-5.8h-2.7v-1.8h2.7v-1.2h2.1v8.8h2.4v1.8h-7.2V399.7z"/>
	</g>
</g>
<circle class="st4" cx="792" cy="209.5" r="17.2"/>
<circle class="st4" cx="1026.9" cy="162.8" r="17.2"/>
<circle class="st4" cx="557.3" cy="162.8" r="17.2"/>
<circle class="st4" cx="529.5" cy="570.9" r="17.2"/>
<circle class="st4" cx="412.1" cy="361.8" r="17.2"/>
<circle class="st4" cx="942" cy="436.8" r="17.2"/>
<circle class="st4" cx="793.3" cy="485.1" r="17.2"/>
<circle class="st4" cx="1026.9" cy="809.1" r="17.2"/>
<circle class="st4" cx="792" cy="760.8" r="17.2"/>
<text transform="matrix(1 0 0 1 635.1828 927.9061)" class="st3 st5 st6">Recognition rather than Recall</text>
<text transform="matrix(1 0 0 1 656.9743 44.0924)" class="st3 st5 st6">Visibility of System Status</text>
<text transform="matrix(1 0 0 1 195.1208 817.0655)"><tspan x="0" y="0" class="st3 st5 st6">Flexibility &amp; </tspan><tspan x="-52.7" y="28.8" class="st3 st5 st6"> Efficiency of Use</tspan></text>
<text transform="matrix(1 0 0 1 196.3684 593.0504)"><tspan x="0" y="0" class="st3 st5 st6">Aesthetic &amp; </tspan><tspan x="-63.1" y="28.8" class="st3 st5 st6">Minimalist Design</tspan></text>
<text transform="matrix(1 0 0 1 89.3064 354.6354)"><tspan x="0" y="0" class="st3 st5 st6">Helps User Recognize, </tspan><tspan x="8" y="28.8" class="st3 st5 st6"> Diagnose &amp; Recover  </tspan><tspan x="113.7" y="57.6" class="st3 st5 st6">from Errors</tspan></text>
<text transform="matrix(1 0 0 1 79.3943 159.4203)" class="st3 st5 st6">Help &amp; Documentation</text>
<text transform="matrix(1 0 0 1 1263.1743 817.0655)" class="st3 st5 st6">Error Prevention</text>
<text transform="matrix(1 0 0 1 1263.1743 580.5004)"><tspan x="0" y="0" class="st3 st5 st6">Consistency  </tspan><tspan x="0" y="28.8" class="st3 st5 st6">&amp; Standards</tspan></text>
<text transform="matrix(1 0 0 1 1263.1743 358.3346)"><tspan x="0" y="0" class="st3 st5 st6">User Control  </tspan><tspan x="0" y="28.8" class="st3 st5 st6">&amp; Freedom</tspan></text>
<text transform="matrix(1 0 0 1 1263.1743 121.7691)"><tspan x="0" y="0" class="st3 st5 st6">Match between  </tspan><tspan x="0" y="28.8" class="st3 st5 st6">the System &amp;  </tspan><tspan x="0" y="57.6" class="st3 st5 st6">the Real World</tspan></text>
</svg>
