<svg width="19" height="25" viewBox="0 0 19 25" fill="none" xmlns="http://www.w3.org/2000/svg">
<path d="M3.125 0C1.40137 0 0 1.40137 0 3.125V21.875C0 23.5986 1.40137 25 3.125 25H15.625C17.3486 25 18.75 23.5986 18.75 21.875V7.8125H12.5C11.6357 7.8125 10.9375 7.11426 10.9375 6.25V0H3.125ZM12.5 0V6.25H18.75L12.5 0ZM10.5469 11.3281V16.3135L12.0605 14.7998C12.5195 14.3408 13.2617 14.3408 13.7158 14.7998C14.1699 15.2588 14.1748 16.001 13.7158 16.4551L10.2002 19.9707C9.74121 20.4297 8.99902 20.4297 8.54492 19.9707L5.0293 16.4551C4.57031 15.9961 4.57031 15.2539 5.0293 14.7998C5.48828 14.3457 6.23047 14.3408 6.68457 14.7998L8.19824 16.3135V11.3281C8.19824 10.6787 8.7207 10.1562 9.37012 10.1562C10.0195 10.1562 10.542 10.6787 10.542 11.3281H10.5469Z" fill="white"/>
</svg>
