<svg width="510" height="110" viewBox="0 0 510 110" fill="none" xmlns="http://www.w3.org/2000/svg">
<g clip-path="url(#clip0_2230_1392)">
<path d="M90.3648 49.952C90.7004 60.098 84.8312 69.2873 75.8847 73.4214C75.1707 74.6066 74.3853 75.7705 73.5285 76.8986C67.3523 84.3957 56.6208 87.4159 47.4244 84.0387C50.259 86.6234 53.4863 88.5084 56.8921 89.7079C55.2642 90.3719 53.6005 90.936 51.9012 91.3858C56.9207 93.742 62.6542 94.7274 68.5519 93.9134C84.7955 91.6714 96.1411 76.6844 93.8991 60.4407C93.3708 56.6351 92.1427 53.1079 90.3648 49.952Z" fill="url(#paint0_linear_2230_1392)"/>
<path d="M80.0617 23.5194C76.7487 19.1711 72.7074 15.6939 68.252 13.1306C68.6304 13.5804 69.0017 14.0374 69.3587 14.5086C83.2461 32.7301 80.5615 58.3773 63.7537 73.3786L59.0841 77.0271C59.0841 77.0271 59.077 77.0271 59.0699 77.0271C57.9203 77.8054 56.6065 78.4909 55.2428 79.1192C55.6712 78.805 56.0996 78.498 56.5137 78.1624C57.1278 77.6698 57.7347 77.1699 58.3273 76.6416C58.3273 76.6416 58.3344 76.6416 58.3416 76.6416L62.4757 72.4004C77.1271 55.2856 76.3703 29.5099 60.1694 13.3091C59.7482 12.8878 59.3198 12.488 58.8842 12.0882L55.6212 9.95328V9.96756C61.1191 16.208 64.5249 23.6479 65.8458 31.3735C67.2881 39.8488 66.2171 48.6739 62.6256 56.6351C62.1187 57.7561 61.5546 58.8485 60.9477 59.9267L55.4213 65.9029C55.5926 66.2171 55.7497 66.5455 55.8854 66.8811C57.6775 71.4579 55.4213 76.6273 50.8445 78.4195C48.0599 79.5119 45.0682 79.0978 42.7405 77.5769C42.8119 77.6198 41.9765 78.5908 42.0479 78.6337C42.6548 79.5904 42.5763 80.2116 43.3117 81.1113C43.376 81.1898 43.4474 81.2612 43.5116 81.3326L44.2399 81.5968C44.5898 82.0109 44.2185 82.1466 44.5826 82.5393C44.6969 82.6607 44.8111 82.7749 44.9254 82.8963C44.9254 82.8963 46.9174 84.8027 46.9103 84.8098C48.4883 86.6805 50.3447 85.8951 53.0722 87.3231C59.9195 86.5163 66.6455 83.9173 72.5289 79.4334C90.0506 66.0743 93.4279 41.034 80.0688 23.5123L80.0617 23.5194ZM59.3198 65.3817C59.6625 64.1821 60.912 63.4824 62.1115 63.8251C63.3111 64.1679 64.0108 65.4174 63.6681 66.6169C63.3253 67.8165 62.0758 68.5162 60.8763 68.1735C59.6768 67.8307 58.977 66.5812 59.3198 65.3817Z" fill="url(#paint1_linear_2230_1392)"/>
<path d="M3.94847 70.4797C5.18668 70.4797 6.19045 69.4759 6.19045 68.2377C6.19045 66.9995 5.18668 65.9957 3.94847 65.9957C2.71025 65.9957 1.70648 66.9995 1.70648 68.2377C1.70648 69.4759 2.71025 70.4797 3.94847 70.4797Z" fill="url(#paint2_linear_2230_1392)"/>
<path d="M82.268 17.6146C83.5062 17.6146 84.5099 16.6108 84.5099 15.3726C84.5099 14.1344 83.5062 13.1306 82.268 13.1306C81.0297 13.1306 80.026 14.1344 80.026 15.3726C80.026 16.6108 81.0297 17.6146 82.268 17.6146Z" fill="url(#paint3_linear_2230_1392)"/>
<path d="M3.94846 82.9891C6.12914 82.9891 7.89692 81.2213 7.89692 79.0406C7.89692 76.8599 6.12914 75.0922 3.94846 75.0922C1.76779 75.0922 0 76.8599 0 79.0406C0 81.2213 1.76779 82.9891 3.94846 82.9891Z" fill="url(#paint4_linear_2230_1392)"/>
<path d="M89.9935 27.5464C92.1742 27.5464 93.942 25.7786 93.942 23.5979C93.942 21.4173 92.1742 19.6495 89.9935 19.6495C87.8128 19.6495 86.045 21.4173 86.045 23.5979C86.045 25.7786 87.8128 27.5464 89.9935 27.5464Z" fill="url(#paint5_linear_2230_1392)"/>
<path d="M7.41855 96.6124C10.4155 96.6124 12.845 94.1829 12.845 91.1859C12.845 88.189 10.4155 85.7595 7.41855 85.7595C4.4216 85.7595 1.9921 88.189 1.9921 91.1859C1.9921 94.1829 4.4216 96.6124 7.41855 96.6124Z" fill="url(#paint6_linear_2230_1392)"/>
<path d="M95.5913 41.9979C98.5883 41.9979 101.018 39.5684 101.018 36.5715C101.018 33.5745 98.5883 31.145 95.5913 31.145C92.5944 31.145 90.1649 33.5745 90.1649 36.5715C90.1649 39.5684 92.5944 41.9979 95.5913 41.9979Z" fill="url(#paint7_linear_2230_1392)"/>
<path d="M65.8458 31.3735C64.3821 22.7911 60.3551 14.5586 53.7219 7.93262C50.4446 4.65533 46.7675 2.0135 42.8476 -0.00714111C46.6961 7.58276 46.9246 16.5293 43.533 24.2763L43.6616 31.1736L42.7405 36.3573C41.4838 40.9626 39.0491 45.3181 35.4291 48.9381L30.0669 54.4217C17.4289 67.0596 16.1223 86.7305 26.1398 100.832C31.8662 105.088 38.7635 107.851 46.2534 108.572C47.0674 108.651 47.8814 108.708 48.7096 108.736C47.8242 108.693 46.946 108.608 46.0821 108.479C32.6016 101.325 26.7039 84.8812 32.9158 70.6653C33.5512 69.2159 34.2938 67.845 35.122 66.5598H35.1649C36.6786 64.1964 39.0348 62.3757 41.9622 61.6046C43.1689 61.2904 44.3756 61.1762 45.5537 61.2476C46.0321 61.2761 46.5105 61.2833 46.9888 61.2476C50.6803 60.9977 54.2574 63.0754 55.7783 66.6312C56.5922 66.1171 57.4134 65.2317 58.1202 64.3321C58.1202 64.3321 58.1202 64.3392 58.1274 64.3464C58.1773 64.2821 58.2202 64.2107 58.263 64.1464C59.3198 62.7684 60.0837 61.4261 60.0837 61.4261V61.4118C61.0262 59.8624 61.8902 58.2702 62.6327 56.6279C63.1326 55.5212 63.5752 54.4002 63.9751 53.265C66.467 46.2177 67.0953 38.6635 65.8529 31.3592L65.8458 31.3735ZM50.9801 56.5637C50.6374 57.7632 49.3879 58.4629 48.1884 58.1202C46.9888 57.7775 46.2891 56.528 46.6318 55.3284C46.9746 54.1289 48.2241 53.4292 49.4236 53.7719C50.6231 54.1146 51.3229 55.3641 50.9801 56.5637ZM59.5411 59.2055C59.1984 60.405 57.9489 61.1048 56.7493 60.762C55.5498 60.4193 54.8501 59.1698 55.1928 57.9703C55.5355 56.7707 56.785 56.071 57.9846 56.4137C59.1841 56.7565 59.8838 58.006 59.5411 59.2055Z" fill="url(#paint8_linear_2230_1392)"/>
<path d="M93.7278 69.0231C93.0709 71.9648 91.9356 74.8066 90.3362 77.4341C88.7369 80.0617 86.6662 82.4679 84.1458 84.5171C76.9415 90.3862 67.6879 92.0499 59.3412 89.8293C53.8719 88.3727 48.7953 85.2454 44.9468 80.5186C44.2114 79.619 43.5473 78.6836 42.9404 77.7197C42.105 77.2057 41.341 76.5559 40.6842 75.7562C38.8777 73.5428 38.3351 70.7225 38.9277 68.1378C36.5072 72.2647 35.1149 77.0629 35.1149 82.1894C35.1149 97.0551 46.7818 109.2 61.4546 109.964C61.6046 109.964 61.7545 109.971 61.9045 109.979C62.2115 109.993 62.5256 110 62.8327 110C63.0326 110 63.2325 109.993 63.4396 109.993C70.394 109.886 77.3627 107.537 83.1747 102.803C93.4493 94.4275 97.1907 81.0042 93.7206 69.0303L93.7278 69.0231Z" fill="url(#paint9_linear_2230_1392)"/>
<path d="M35.4362 8.71803C34.8864 8.16825 34.3152 7.65416 33.7297 7.15436C36.0145 14.4515 35.2862 22.4912 31.552 29.3172C29.8669 32.3945 27.4607 35.0078 24.7404 37.2212C15.6582 44.6112 9.84616 55.8639 9.84616 68.4876C9.84616 72.8002 10.5316 76.9486 11.7883 80.8471C14.3944 88.9296 19.4781 95.8912 26.147 100.839C16.1294 86.7376 17.4361 67.0667 30.074 54.4288L35.4362 48.9452C41.0269 43.3545 43.7972 36.0217 43.7687 28.7031C43.733 21.4631 40.9626 14.2373 35.4362 8.71803Z" fill="url(#paint10_linear_2230_1392)"/>
</g>
<path d="M146.378 19.492V25.348C143.978 23.908 141.418 23.188 138.698 23.188C137.194 23.188 136.01 23.524 135.146 24.196C134.314 24.868 133.898 25.732 133.898 26.788C133.898 27.844 134.346 28.724 135.242 29.428C136.17 30.1 137.546 30.852 139.37 31.684C140.65 32.26 141.69 32.772 142.49 33.22C143.29 33.636 144.154 34.228 145.082 34.996C146.042 35.764 146.746 36.692 147.194 37.78C147.674 38.836 147.914 40.052 147.914 41.428C147.914 44.308 146.874 46.612 144.794 48.34C142.746 50.036 140.042 50.884 136.682 50.884C133.034 50.884 130.01 50.196 127.61 48.82V42.628C130.362 44.612 133.37 45.604 136.634 45.604C138.106 45.604 139.29 45.252 140.186 44.548C141.082 43.812 141.53 42.836 141.53 41.62C141.53 41.044 141.418 40.532 141.194 40.084C140.97 39.636 140.506 39.188 139.802 38.74C139.13 38.292 138.602 37.972 138.218 37.78C137.866 37.588 137.114 37.236 135.962 36.724C135.642 36.564 135.402 36.452 135.242 36.388C134.058 35.844 133.098 35.364 132.362 34.948C131.626 34.5 130.826 33.908 129.962 33.172C129.098 32.436 128.442 31.556 127.994 30.532C127.578 29.508 127.37 28.34 127.37 27.028C127.37 24.276 128.378 22.068 130.394 20.404C132.442 18.74 135.146 17.908 138.506 17.908C141.546 17.908 144.17 18.436 146.378 19.492ZM159.99 30.484V42.868C159.99 43.892 160.262 44.676 160.806 45.22C161.35 45.732 162.102 45.988 163.062 45.988C164.278 45.988 165.398 45.652 166.422 44.98V49.924C165.302 50.468 163.862 50.74 162.102 50.74C156.854 50.74 154.23 48.084 154.23 42.772V30.484H150.582V26.164H154.23V20.308H159.99V26.164H166.038V30.484H159.99ZM185.809 36.34V35.62C185.745 34.052 185.313 32.804 184.513 31.876C183.745 30.916 182.609 30.436 181.105 30.436C179.729 30.436 178.529 30.948 177.505 31.972C176.513 32.964 175.873 34.42 175.585 36.34H185.809ZM189.745 44.164V49.156C188.049 50.212 185.601 50.74 182.401 50.74C178.529 50.74 175.473 49.588 173.233 47.284C170.993 44.98 169.873 42.004 169.873 38.356C169.873 34.484 170.929 31.444 173.041 29.236C175.153 27.028 177.793 25.924 180.961 25.924C184.129 25.924 186.641 26.884 188.497 28.804C190.353 30.724 191.281 33.524 191.281 37.204C191.281 38.1 191.169 39.252 190.945 40.66H175.681C176.097 42.42 176.961 43.764 178.273 44.692C179.617 45.62 181.281 46.084 183.265 46.084C185.825 46.084 187.985 45.444 189.745 44.164ZM208.383 45.892C210.111 45.892 211.519 45.236 212.607 43.924C213.695 42.58 214.239 40.708 214.239 38.308C214.239 35.908 213.695 34.052 212.607 32.74C211.519 31.396 210.143 30.724 208.479 30.724C206.815 30.724 205.375 31.348 204.159 32.596C202.943 33.844 202.335 35.7 202.335 38.164C202.335 40.628 202.927 42.532 204.111 43.876C205.295 45.22 206.719 45.892 208.383 45.892ZM202.335 26.164V29.908C204.063 27.188 206.543 25.828 209.775 25.828C212.943 25.828 215.455 26.964 217.311 29.236C219.199 31.508 220.143 34.5 220.143 38.212C220.143 41.86 219.199 44.884 217.311 47.284C215.455 49.652 212.927 50.836 209.727 50.836C206.463 50.836 203.999 49.508 202.335 46.852V59.668H196.575V26.164H202.335ZM230.835 16.564V30.292C232.147 27.348 234.627 25.876 238.275 25.876C240.643 25.876 242.547 26.628 243.987 28.132C245.459 29.604 246.195 31.748 246.195 34.564V50.5H240.435V35.572C240.435 34.036 240.035 32.836 239.235 31.972C238.467 31.108 237.459 30.676 236.211 30.676C234.835 30.676 233.587 31.204 232.467 32.26C231.379 33.316 230.835 35.044 230.835 37.444V50.5H225.075V16.564H230.835ZM264.648 40.036H261.672C260.168 40.036 259.016 40.356 258.216 40.996C257.416 41.604 257.016 42.388 257.016 43.348C257.016 45.396 258.2 46.42 260.568 46.42C261.848 46.42 262.84 46.052 263.544 45.316C264.28 44.548 264.648 43.556 264.648 42.34V40.036ZM252.84 32.74V27.412C254.664 26.292 257.288 25.732 260.712 25.732C267.304 25.732 270.6 28.804 270.6 34.948V50.5H264.888V47.572C263.768 49.652 261.656 50.692 258.552 50.692C256.248 50.692 254.408 50.02 253.032 48.676C251.688 47.332 251.016 45.636 251.016 43.588C251.016 41.284 251.88 39.476 253.608 38.164C255.336 36.852 257.832 36.196 261.096 36.196H264.648V34.708C264.648 33.364 264.296 32.34 263.592 31.636C262.888 30.932 261.688 30.58 259.992 30.58C257.4 30.58 255.016 31.3 252.84 32.74ZM282.304 26.164V30.34C283.68 27.364 286.176 25.876 289.792 25.876C292.224 25.876 294.144 26.612 295.552 28.084C296.96 29.556 297.664 31.636 297.664 34.324V50.5H291.904V35.524C291.904 33.924 291.52 32.724 290.752 31.924C289.984 31.092 288.944 30.676 287.632 30.676C286.128 30.676 284.864 31.268 283.84 32.452C282.816 33.604 282.304 35.268 282.304 37.444V50.5H276.544V26.164H282.304ZM303.925 50.5V26.164H309.685V50.5H303.925ZM303.349 18.868C303.349 17.908 303.685 17.092 304.357 16.42C305.029 15.748 305.845 15.412 306.805 15.412C307.765 15.412 308.581 15.748 309.253 16.42C309.925 17.092 310.261 17.908 310.261 18.868C310.261 19.86 309.925 20.692 309.253 21.364C308.581 22.036 307.765 22.372 306.805 22.372C305.845 22.372 305.029 22.036 304.357 21.364C303.685 20.692 303.349 19.86 303.349 18.868ZM330.793 36.34V35.62C330.729 34.052 330.297 32.804 329.497 31.876C328.729 30.916 327.593 30.436 326.089 30.436C324.713 30.436 323.513 30.948 322.489 31.972C321.497 32.964 320.857 34.42 320.569 36.34H330.793ZM334.729 44.164V49.156C333.033 50.212 330.585 50.74 327.385 50.74C323.513 50.74 320.457 49.588 318.217 47.284C315.977 44.98 314.857 42.004 314.857 38.356C314.857 34.484 315.913 31.444 318.025 29.236C320.137 27.028 322.777 25.924 325.945 25.924C329.113 25.924 331.625 26.884 333.481 28.804C335.337 30.724 336.265 33.524 336.265 37.204C336.265 38.1 336.153 39.252 335.929 40.66H320.665C321.081 42.42 321.945 43.764 323.257 44.692C324.601 45.62 326.265 46.084 328.249 46.084C330.809 46.084 332.969 45.444 334.729 44.164ZM377.274 19.492V25.396C374.842 23.988 372.154 23.284 369.21 23.284C366.266 23.284 363.802 24.292 361.818 26.308C359.866 28.292 358.89 30.964 358.89 34.324C358.89 37.684 359.866 40.356 361.818 42.34C363.802 44.324 366.378 45.316 369.546 45.316C372.586 45.316 375.178 44.516 377.322 42.916V48.964C375.338 50.244 372.554 50.884 368.97 50.884C364.17 50.884 360.202 49.38 357.066 46.372C353.962 43.332 352.41 39.316 352.41 34.324C352.41 29.428 353.946 25.444 357.018 22.372C360.122 19.268 364.106 17.716 368.97 17.716C372.522 17.716 375.29 18.308 377.274 19.492ZM395.148 40.036H392.172C390.668 40.036 389.516 40.356 388.716 40.996C387.916 41.604 387.516 42.388 387.516 43.348C387.516 45.396 388.7 46.42 391.068 46.42C392.348 46.42 393.34 46.052 394.044 45.316C394.78 44.548 395.148 43.556 395.148 42.34V40.036ZM383.34 32.74V27.412C385.164 26.292 387.788 25.732 391.212 25.732C397.804 25.732 401.1 28.804 401.1 34.948V50.5H395.388V47.572C394.268 49.652 392.156 50.692 389.052 50.692C386.748 50.692 384.908 50.02 383.532 48.676C382.188 47.332 381.516 45.636 381.516 43.588C381.516 41.284 382.38 39.476 384.108 38.164C385.836 36.852 388.332 36.196 391.596 36.196H395.148V34.708C395.148 33.364 394.796 32.34 394.092 31.636C393.388 30.932 392.188 30.58 390.492 30.58C387.9 30.58 385.516 31.3 383.34 32.74ZM412.804 26.164V30.484C413.924 27.476 415.972 25.972 418.948 25.972C419.62 25.972 420.164 26.02 420.58 26.116V31.684C419.844 31.364 419.028 31.204 418.132 31.204C416.564 31.204 415.284 31.844 414.292 33.124C413.3 34.404 412.804 36.004 412.804 37.924V50.5H406.996L407.044 26.164H412.804ZM424.206 50.5V16.564H429.966V50.5H424.206ZM450.979 26.932V32.02C449.379 31.06 447.379 30.58 444.979 30.58C443.987 30.58 443.203 30.804 442.627 31.252C442.083 31.668 441.811 32.212 441.811 32.884C441.811 33.14 441.843 33.38 441.907 33.604C442.003 33.828 442.147 34.052 442.339 34.276C442.563 34.468 442.771 34.644 442.963 34.804C443.155 34.964 443.427 35.14 443.779 35.332C444.131 35.492 444.435 35.636 444.691 35.764C444.947 35.892 445.299 36.052 445.747 36.244C446.195 36.436 446.547 36.596 446.803 36.724C448.499 37.556 449.843 38.484 450.835 39.508C451.827 40.532 452.323 41.86 452.323 43.492C452.323 45.764 451.507 47.54 449.875 48.82C448.243 50.1 446.067 50.74 443.347 50.74C440.339 50.74 437.907 50.244 436.051 49.252V43.972C438.195 45.412 440.515 46.132 443.011 46.132C444.067 46.132 444.883 45.94 445.459 45.556C446.067 45.14 446.371 44.58 446.371 43.876C446.371 43.46 446.275 43.092 446.083 42.772C445.891 42.42 445.523 42.084 444.979 41.764C444.435 41.444 444.003 41.22 443.683 41.092C443.395 40.932 442.803 40.66 441.907 40.276C441.811 40.244 441.731 40.212 441.667 40.18C441.635 40.148 441.571 40.116 441.475 40.084C441.379 40.052 441.299 40.02 441.235 39.988C437.683 38.388 435.907 36.084 435.907 33.076C435.907 30.836 436.755 29.076 438.451 27.796C440.147 26.516 442.275 25.876 444.835 25.876C447.299 25.876 449.347 26.228 450.979 26.932ZM467.335 50.884C463.655 50.884 460.775 49.732 458.695 47.428C456.647 45.124 455.623 42.18 455.623 38.596C455.623 34.884 456.695 31.828 458.839 29.428C460.983 26.996 463.815 25.78 467.335 25.78C471.079 25.78 473.975 26.964 476.023 29.332C478.071 31.668 479.095 34.644 479.095 38.26C479.095 41.94 478.055 44.964 475.975 47.332C473.927 49.7 471.047 50.884 467.335 50.884ZM467.335 30.484C465.511 30.484 464.103 31.236 463.111 32.74C462.151 34.244 461.671 36.132 461.671 38.404C461.671 40.644 462.167 42.516 463.159 44.02C464.151 45.524 465.559 46.276 467.383 46.276C469.271 46.276 470.695 45.54 471.655 44.068C472.615 42.596 473.095 40.724 473.095 38.452C473.095 36.116 472.631 34.212 471.703 32.74C470.775 31.236 469.319 30.484 467.335 30.484ZM489.82 26.164V30.34C491.196 27.364 493.692 25.876 497.308 25.876C499.74 25.876 501.66 26.612 503.068 28.084C504.476 29.556 505.18 31.636 505.18 34.324V50.5H499.42V35.524C499.42 33.924 499.036 32.724 498.268 31.924C497.5 31.092 496.46 30.676 495.148 30.676C493.644 30.676 492.38 31.268 491.356 32.452C490.332 33.604 489.82 35.268 489.82 37.444V50.5H484.06V26.164H489.82Z" fill="white"/>
<path d="M136.49 86.356V76.324H138.962V86.308C138.962 88.404 138.418 89.996 137.33 91.084C136.242 92.172 134.738 92.716 132.818 92.716C130.93 92.716 129.442 92.188 128.354 91.132C127.266 90.06 126.722 88.516 126.722 86.5V76.324H129.194V86.476C129.194 87.852 129.522 88.86 130.178 89.5C130.85 90.124 131.73 90.436 132.818 90.436C135.266 90.436 136.49 89.076 136.49 86.356ZM142.618 92.5V76.324H145.066V92.5H142.618ZM146.834 94.948L155.546 75.532H157.97L149.258 94.948H146.834ZM168.576 86.356V76.324H171.048V86.308C171.048 88.404 170.504 89.996 169.416 91.084C168.328 92.172 166.824 92.716 164.904 92.716C163.016 92.716 161.528 92.188 160.44 91.132C159.352 90.06 158.808 88.516 158.808 86.5V76.324H161.28V86.476C161.28 87.852 161.608 88.86 162.264 89.5C162.936 90.124 163.816 90.436 164.904 90.436C167.352 90.436 168.576 89.076 168.576 86.356ZM178.784 84.316L173.888 76.324H176.744L180.176 82.132C180.304 81.876 180.872 80.892 181.88 79.18C182.904 77.452 183.464 76.5 183.56 76.324H186.512L181.616 84.34L186.968 92.5H184.064L180.224 86.428C180.08 86.7 179.464 87.724 178.376 89.5C177.288 91.276 176.68 92.276 176.552 92.5H173.6L178.784 84.316ZM205.977 83.284V85.42H201.537V89.884H199.353V85.42H195.009V83.284H199.353V78.796H201.537V83.284H205.977ZM227.95 83.26V91.012H227.926L227.95 91.18C226.558 92.188 224.814 92.692 222.718 92.692C220.19 92.692 218.15 91.948 216.598 90.46C215.062 88.972 214.294 86.948 214.294 84.388C214.294 81.908 215.07 79.9 216.622 78.364C218.19 76.812 220.174 76.036 222.574 76.036C224.446 76.036 226.014 76.396 227.278 77.116V79.66C225.902 78.796 224.366 78.364 222.67 78.364C220.942 78.364 219.542 78.916 218.47 80.02C217.414 81.124 216.886 82.58 216.886 84.388C216.886 86.244 217.406 87.708 218.446 88.78C219.502 89.852 220.95 90.388 222.79 90.388C223.75 90.388 224.662 90.212 225.526 89.86V85.396H222.238V83.26H227.95ZM233.534 80.332V82.468C234.126 80.964 235.19 80.212 236.726 80.212C236.95 80.212 237.198 80.236 237.47 80.284V82.588C237.134 82.444 236.758 82.372 236.342 82.372C235.526 82.372 234.854 82.732 234.326 83.452C233.798 84.172 233.534 85.028 233.534 86.02V92.5H231.182V80.332H233.534ZM245.722 87.076H243.898C243.002 87.076 242.322 87.252 241.858 87.604C241.41 87.956 241.186 88.404 241.186 88.948C241.186 89.508 241.362 89.948 241.714 90.268C242.066 90.588 242.578 90.748 243.25 90.748C244.018 90.748 244.618 90.54 245.05 90.124C245.498 89.692 245.722 89.132 245.722 88.444V87.076ZM239.602 83.236V80.956C240.546 80.412 241.794 80.14 243.346 80.14C246.53 80.14 248.122 81.684 248.122 84.772V92.5H245.794V91.06C245.17 92.084 244.074 92.596 242.506 92.596C241.354 92.596 240.426 92.268 239.722 91.612C239.034 90.94 238.69 90.092 238.69 89.068C238.69 87.9 239.13 86.996 240.01 86.356C240.89 85.7 242.122 85.372 243.706 85.372H245.722V84.676C245.722 83.844 245.522 83.22 245.122 82.804C244.722 82.372 244.058 82.156 243.13 82.156C241.834 82.156 240.658 82.516 239.602 83.236ZM256.907 90.604C257.851 90.604 258.627 90.236 259.235 89.5C259.843 88.748 260.147 87.7 260.147 86.356C260.147 85.092 259.851 84.092 259.259 83.356C258.667 82.604 257.915 82.228 257.003 82.228C256.091 82.228 255.299 82.564 254.627 83.236C253.971 83.892 253.643 84.94 253.643 86.38C253.643 87.788 253.971 88.844 254.627 89.548C255.299 90.252 256.059 90.604 256.907 90.604ZM253.643 80.332V82.204C254.475 80.844 255.723 80.164 257.387 80.164C258.987 80.164 260.251 80.748 261.179 81.916C262.107 83.068 262.571 84.54 262.571 86.332C262.571 88.172 262.091 89.692 261.131 90.892C260.187 92.076 258.923 92.668 257.339 92.668C255.723 92.668 254.491 91.996 253.643 90.652V97.156H251.291V80.332H253.643ZM267.565 75.532V82.42C268.253 80.916 269.509 80.164 271.333 80.164C272.517 80.164 273.469 80.532 274.189 81.268C274.909 82.004 275.269 83.028 275.269 84.34V92.5H272.917V84.82C272.917 83.988 272.701 83.348 272.269 82.9C271.853 82.436 271.301 82.204 270.613 82.204C269.813 82.204 269.101 82.508 268.477 83.116C267.869 83.724 267.565 84.652 267.565 85.9V92.5H265.213V75.532H267.565ZM278.528 92.5V80.332H280.904V92.5H278.528ZM278.648 77.668C278.376 77.38 278.24 77.028 278.24 76.612C278.24 76.196 278.376 75.844 278.648 75.556C278.936 75.268 279.288 75.124 279.704 75.124C280.12 75.124 280.472 75.268 280.76 75.556C281.048 75.844 281.192 76.196 281.192 76.612C281.192 77.012 281.048 77.356 280.76 77.644C280.472 77.932 280.12 78.076 279.704 78.076C279.288 78.076 278.936 77.94 278.648 77.668ZM286.066 86.476C286.098 87.708 286.474 88.724 287.194 89.524C287.914 90.308 288.922 90.7 290.218 90.7C291.178 90.7 292.074 90.436 292.906 89.908V92.02C292.122 92.5 291.122 92.74 289.906 92.74C288.002 92.74 286.482 92.14 285.346 90.94C284.21 89.74 283.642 88.244 283.642 86.452C283.642 84.708 284.21 83.22 285.346 81.988C286.498 80.74 288.05 80.116 290.002 80.116C291.058 80.116 292.026 80.34 292.906 80.788V82.948C292.122 82.452 291.234 82.204 290.242 82.204C288.978 82.204 287.962 82.604 287.194 83.404C286.442 84.204 286.066 85.228 286.066 86.476ZM304.134 90.412H306.678C308.518 90.412 309.918 89.836 310.878 88.684C311.838 87.532 312.318 86.052 312.318 84.244C312.318 82.58 311.798 81.196 310.758 80.092C309.718 78.988 308.334 78.436 306.606 78.436H304.134V90.412ZM301.614 76.324H306.654C309.054 76.324 311.022 77.068 312.558 78.556C314.094 80.044 314.862 81.94 314.862 84.244C314.862 86.644 314.134 88.62 312.678 90.172C311.238 91.724 309.246 92.5 306.702 92.5H301.614V76.324ZM325.085 85.54V85.108C325.053 84.196 324.805 83.476 324.341 82.948C323.877 82.404 323.213 82.132 322.349 82.132C321.549 82.132 320.861 82.428 320.285 83.02C319.709 83.596 319.349 84.436 319.205 85.54H325.085ZM326.597 89.74V91.852C325.701 92.364 324.517 92.62 323.045 92.62C321.157 92.62 319.653 92.052 318.533 90.916C317.413 89.78 316.853 88.292 316.853 86.452C316.853 84.5 317.365 82.972 318.389 81.868C319.413 80.748 320.717 80.188 322.301 80.188C323.853 80.188 325.085 80.676 325.997 81.652C326.909 82.612 327.365 84.004 327.365 85.828C327.365 86.324 327.317 86.844 327.221 87.388H319.229C319.389 88.444 319.837 89.252 320.573 89.812C321.309 90.372 322.237 90.652 323.357 90.652C324.653 90.652 325.733 90.348 326.597 89.74ZM337.071 80.74V82.876C336.287 82.412 335.279 82.18 334.047 82.18C333.487 82.18 333.039 82.308 332.703 82.564C332.383 82.82 332.223 83.156 332.223 83.572C332.223 83.684 332.231 83.796 332.247 83.908C332.279 84.004 332.327 84.108 332.391 84.22C332.455 84.316 332.511 84.404 332.559 84.484C332.623 84.548 332.719 84.62 332.847 84.7C332.975 84.78 333.071 84.852 333.135 84.916C333.215 84.964 333.335 85.028 333.495 85.108C333.671 85.188 333.799 85.252 333.879 85.3C333.959 85.332 334.095 85.396 334.287 85.492C334.495 85.572 334.639 85.628 334.719 85.66C335.663 86.076 336.399 86.548 336.927 87.076C337.471 87.588 337.743 88.276 337.743 89.14C337.743 90.228 337.359 91.084 336.591 91.708C335.823 92.316 334.783 92.62 333.471 92.62C332.031 92.62 330.831 92.38 329.871 91.9V89.668C330.991 90.356 332.151 90.7 333.351 90.7C333.975 90.7 334.455 90.572 334.791 90.316C335.143 90.06 335.319 89.724 335.319 89.308C335.319 88.956 335.183 88.644 334.911 88.372C334.639 88.084 334.359 87.876 334.071 87.748C333.799 87.604 333.327 87.388 332.655 87.1C330.751 86.316 329.799 85.164 329.799 83.644C329.799 82.572 330.199 81.732 330.999 81.124C331.799 80.516 332.799 80.212 333.999 80.212C335.311 80.212 336.335 80.388 337.071 80.74ZM340.285 92.5V80.332H342.661V92.5H340.285ZM340.405 77.668C340.133 77.38 339.997 77.028 339.997 76.612C339.997 76.196 340.133 75.844 340.405 75.556C340.693 75.268 341.045 75.124 341.461 75.124C341.877 75.124 342.229 75.268 342.517 75.556C342.805 75.844 342.949 76.196 342.949 76.612C342.949 77.012 342.805 77.356 342.517 77.644C342.229 77.932 341.877 78.076 341.461 78.076C341.045 78.076 340.693 77.94 340.405 77.668ZM350.872 90.148C351.704 90.148 352.424 89.828 353.032 89.188C353.656 88.532 353.968 87.62 353.968 86.452C353.968 85.012 353.672 83.948 353.08 83.26C352.504 82.572 351.8 82.228 350.968 82.228C350.024 82.228 349.28 82.604 348.736 83.356C348.192 84.092 347.92 85.068 347.92 86.284C347.92 87.548 348.208 88.508 348.784 89.164C349.376 89.82 350.072 90.148 350.872 90.148ZM353.968 80.332H356.32V91.468C356.32 93.34 355.784 94.748 354.712 95.692C353.656 96.652 352.296 97.132 350.632 97.132C349.064 97.132 347.744 96.868 346.672 96.34V93.964C347.696 94.636 348.936 94.972 350.392 94.972C352.776 94.972 353.968 93.796 353.968 91.444V90.196C353.184 91.508 352.008 92.164 350.44 92.164C349.064 92.164 347.888 91.66 346.912 90.652C345.936 89.628 345.448 88.188 345.448 86.332C345.448 84.54 345.904 83.068 346.816 81.916C347.728 80.748 348.936 80.164 350.44 80.164C352.056 80.164 353.232 80.852 353.968 82.228V80.332ZM361.83 80.332V82.42C362.55 80.916 363.814 80.164 365.622 80.164C366.822 80.164 367.774 80.532 368.478 81.268C369.182 82.004 369.534 83.004 369.534 84.268V92.5H367.182V84.82C367.182 83.972 366.966 83.324 366.534 82.876C366.118 82.428 365.558 82.204 364.854 82.204C364.022 82.204 363.31 82.532 362.718 83.188C362.126 83.828 361.83 84.732 361.83 85.9V92.5H359.478V80.332H361.83ZM380.257 85.54V85.108C380.225 84.196 379.977 83.476 379.513 82.948C379.049 82.404 378.385 82.132 377.521 82.132C376.721 82.132 376.033 82.428 375.457 83.02C374.881 83.596 374.521 84.436 374.377 85.54H380.257ZM381.769 89.74V91.852C380.873 92.364 379.689 92.62 378.217 92.62C376.329 92.62 374.825 92.052 373.705 90.916C372.585 89.78 372.025 88.292 372.025 86.452C372.025 84.5 372.537 82.972 373.561 81.868C374.585 80.748 375.889 80.188 377.473 80.188C379.025 80.188 380.257 80.676 381.169 81.652C382.081 82.612 382.537 84.004 382.537 85.828C382.537 86.324 382.489 86.844 382.393 87.388H374.401C374.561 88.444 375.009 89.252 375.745 89.812C376.481 90.372 377.409 90.652 378.529 90.652C379.825 90.652 380.905 90.348 381.769 89.74ZM387.659 80.332V82.468C388.251 80.964 389.315 80.212 390.851 80.212C391.075 80.212 391.323 80.236 391.595 80.284V82.588C391.259 82.444 390.883 82.372 390.467 82.372C389.651 82.372 388.979 82.732 388.451 83.452C387.923 84.172 387.659 85.028 387.659 86.02V92.5H385.307V80.332H387.659Z" fill="#E8E7F0"/>
<defs>
<linearGradient id="paint0_linear_2230_1392" x1="47.4244" y1="72.0719" x2="94.1776" y2="72.0719" gradientUnits="userSpaceOnUse">
<stop stop-color="#B4BED8"/>
<stop offset="1" stop-color="white"/>
</linearGradient>
<linearGradient id="paint1_linear_2230_1392" x1="49.9805" y1="79.2549" x2="84.6099" y2="42.4835" gradientUnits="userSpaceOnUse">
<stop stop-color="white"/>
<stop offset="1" stop-color="#B4BED8"/>
</linearGradient>
<linearGradient id="paint2_linear_2230_1392" x1="1.70648" y1="68.2381" x2="6.19059" y2="68.2381" gradientUnits="userSpaceOnUse">
<stop stop-color="white"/>
<stop offset="1" stop-color="#B4BED8"/>
</linearGradient>
<linearGradient id="paint3_linear_2230_1392" x1="80.026" y1="15.373" x2="84.5101" y2="15.373" gradientUnits="userSpaceOnUse">
<stop stop-color="white"/>
<stop offset="1" stop-color="#B4BED8"/>
</linearGradient>
<linearGradient id="paint4_linear_2230_1392" x1="0" y1="79.0413" x2="7.89717" y2="79.0413" gradientUnits="userSpaceOnUse">
<stop stop-color="white"/>
<stop offset="1" stop-color="#B4BED8"/>
</linearGradient>
<linearGradient id="paint5_linear_2230_1392" x1="86.045" y1="23.5986" x2="93.9422" y2="23.5986" gradientUnits="userSpaceOnUse">
<stop stop-color="white"/>
<stop offset="1" stop-color="#B4BED8"/>
</linearGradient>
<linearGradient id="paint6_linear_2230_1392" x1="1.9921" y1="91.1868" x2="12.8453" y2="91.1868" gradientUnits="userSpaceOnUse">
<stop stop-color="white"/>
<stop offset="1" stop-color="#B4BED8"/>
</linearGradient>
<linearGradient id="paint7_linear_2230_1392" x1="91.75" y1="40.4128" x2="99.4255" y2="32.7373" gradientUnits="userSpaceOnUse">
<stop stop-color="white"/>
<stop offset="1" stop-color="#B4BED8"/>
</linearGradient>
<linearGradient id="paint8_linear_2230_1392" x1="54.9786" y1="32.8443" x2="38.9134" y2="106.387" gradientUnits="userSpaceOnUse">
<stop stop-color="white"/>
<stop offset="1" stop-color="#B4BED8"/>
</linearGradient>
<linearGradient id="paint9_linear_2230_1392" x1="35.1149" y1="89.0725" x2="94.9844" y2="89.0725" gradientUnits="userSpaceOnUse">
<stop stop-color="white"/>
<stop offset="1" stop-color="#B4BED8"/>
</linearGradient>
<linearGradient id="paint10_linear_2230_1392" x1="12.4951" y1="90.3219" x2="38.9134" y2="21.4202" gradientUnits="userSpaceOnUse">
<stop stop-color="white"/>
<stop offset="1" stop-color="#B4BED8"/>
</linearGradient>
<clipPath id="clip0_2230_1392">
<rect width="101.018" height="110" fill="white"/>
</clipPath>
</defs>
</svg>
