<svg width="510" height="110" viewBox="0 0 510 110" fill="none" xmlns="http://www.w3.org/2000/svg">
<g clip-path="url(#clip0_30_857)">
<path d="M90.3649 49.952C90.7004 60.098 84.8313 69.2873 75.8848 73.4214C75.1708 74.6066 74.3854 75.7705 73.5286 76.8986C67.3524 84.3957 56.6209 87.4159 47.4244 84.0387C50.259 86.6234 53.4864 88.5084 56.8922 89.7079C55.2642 90.3719 53.6006 90.936 51.9013 91.3858C56.9207 93.742 62.6542 94.7274 68.5519 93.9134C84.7956 91.6714 96.1412 76.6844 93.8992 60.4407C93.3708 56.6351 92.1427 53.1079 90.3649 49.952Z" fill="url(#paint0_linear_30_857)"/>
<path d="M80.0617 23.5194C76.7487 19.1711 72.7074 15.6939 68.252 13.1306C68.6304 13.5804 69.0017 14.0374 69.3587 14.5086C83.2461 32.7301 80.5615 58.3772 63.7537 73.3785L59.0841 77.0271C59.0841 77.0271 59.077 77.0271 59.0699 77.0271C57.9203 77.8054 56.6065 78.4908 55.2428 79.1192C55.6712 78.805 56.0996 78.498 56.5137 78.1624C57.1278 77.6697 57.7347 77.1699 58.3273 76.6415C58.3273 76.6415 58.3344 76.6415 58.3416 76.6415L62.4757 72.4003C77.1271 55.2856 76.3703 29.5099 60.1694 13.3091C59.7482 12.8878 59.3198 12.488 58.8842 12.0881L55.6212 9.95325V9.96753C61.1191 16.208 64.5249 23.6479 65.8458 31.3735C67.2881 39.8487 66.2171 48.6739 62.6256 56.6351C62.1187 57.7561 61.5546 58.8485 60.9477 59.9266L55.4213 65.9029C55.5926 66.217 55.7497 66.5455 55.8854 66.8811C57.6775 71.4579 55.4213 76.6273 50.8445 78.4194C48.0599 79.5119 45.0682 79.0977 42.7405 77.5769C42.8119 77.6197 41.9765 78.5908 42.0479 78.6336C42.6548 79.5904 42.5763 80.2116 43.3117 81.1112C43.376 81.1898 43.4474 81.2612 43.5116 81.3326L44.2399 81.5968C44.5898 82.0109 44.2185 82.1465 44.5826 82.5393C44.6969 82.6606 44.8111 82.7749 44.9254 82.8963C44.9254 82.8963 46.9174 84.8027 46.9103 84.8098C48.4883 86.6805 50.3447 85.8951 53.0722 87.3231C59.9195 86.5163 66.6455 83.9173 72.5289 79.4333C90.0506 66.0742 93.4279 41.034 80.0688 23.5123L80.0617 23.5194ZM59.3198 65.3817C59.6625 64.1821 60.912 63.4824 62.1115 63.8251C63.3111 64.1678 64.0108 65.4174 63.6681 66.6169C63.3253 67.8164 62.0758 68.5161 60.8763 68.1734C59.6768 67.8307 58.977 66.5812 59.3198 65.3817Z" fill="url(#paint1_linear_30_857)"/>
<path d="M3.9484 70.4797C5.18662 70.4797 6.19039 69.4759 6.19039 68.2377C6.19039 66.9995 5.18662 65.9957 3.9484 65.9957C2.71019 65.9957 1.70642 66.9995 1.70642 68.2377C1.70642 69.4759 2.71019 70.4797 3.9484 70.4797Z" fill="url(#paint2_linear_30_857)"/>
<path d="M82.268 17.6146C83.5062 17.6146 84.51 16.6108 84.51 15.3726C84.51 14.1344 83.5062 13.1306 82.268 13.1306C81.0298 13.1306 80.026 14.1344 80.026 15.3726C80.026 16.6108 81.0298 17.6146 82.268 17.6146Z" fill="url(#paint3_linear_30_857)"/>
<path d="M3.94846 82.9891C6.12914 82.9891 7.89692 81.2213 7.89692 79.0406C7.89692 76.8599 6.12914 75.0922 3.94846 75.0922C1.76779 75.0922 0 76.8599 0 79.0406C0 81.2213 1.76779 82.9891 3.94846 82.9891Z" fill="url(#paint4_linear_30_857)"/>
<path d="M89.9935 27.5464C92.1742 27.5464 93.942 25.7786 93.942 23.5979C93.942 21.4173 92.1742 19.6495 89.9935 19.6495C87.8128 19.6495 86.045 21.4173 86.045 23.5979C86.045 25.7786 87.8128 27.5464 89.9935 27.5464Z" fill="url(#paint5_linear_30_857)"/>
<path d="M7.41852 96.6124C10.4155 96.6124 12.845 94.1829 12.845 91.1859C12.845 88.189 10.4155 85.7595 7.41852 85.7595C4.42157 85.7595 1.99207 88.189 1.99207 91.1859C1.99207 94.1829 4.42157 96.6124 7.41852 96.6124Z" fill="url(#paint6_linear_30_857)"/>
<path d="M95.5914 41.9979C98.5883 41.9979 101.018 39.5684 101.018 36.5715C101.018 33.5745 98.5883 31.145 95.5914 31.145C92.5944 31.145 90.1649 33.5745 90.1649 36.5715C90.1649 39.5684 92.5944 41.9979 95.5914 41.9979Z" fill="url(#paint7_linear_30_857)"/>
<path d="M65.8457 31.3735C64.382 22.7911 60.355 14.5586 53.7219 7.93262C50.4446 4.65533 46.7674 2.0135 42.8475 -0.00714111C46.696 7.58276 46.9245 16.5293 43.533 24.2763L43.6615 31.1736L42.7404 36.3573C41.4838 40.9626 39.049 45.3181 35.429 48.9381L30.0668 54.4217C17.4289 67.0596 16.1222 86.7305 26.1398 100.832C31.8661 105.088 38.7634 107.851 46.2534 108.572C47.0673 108.651 47.8813 108.708 48.7095 108.736C47.8242 108.693 46.9459 108.608 46.082 108.479C32.6015 101.325 26.7038 84.8812 32.9157 70.6653C33.5512 69.2159 34.2937 67.845 35.122 66.5598H35.1648C36.6785 64.1964 39.0347 62.3757 41.9622 61.6046C43.1688 61.2904 44.3755 61.1762 45.5536 61.2476C46.032 61.2761 46.5104 61.2833 46.9888 61.2476C50.6802 60.9977 54.2574 63.0754 55.7782 66.6312C56.5922 66.1171 57.4133 65.2317 58.1202 64.3321C58.1202 64.3321 58.1202 64.3392 58.1273 64.3464C58.1773 64.2821 58.2201 64.2107 58.263 64.1464C59.3197 62.7684 60.0837 61.4261 60.0837 61.4261V61.4118C61.0262 59.8624 61.8901 58.2702 62.6327 56.6279C63.1325 55.5212 63.5752 54.4002 63.975 53.265C66.4669 46.2177 67.0952 38.6635 65.8529 31.3592L65.8457 31.3735ZM50.9801 56.5637C50.6374 57.7632 49.3878 58.4629 48.1883 58.1202C46.9888 57.7775 46.2891 56.528 46.6318 55.3284C46.9745 54.1289 48.224 53.4292 49.4235 53.7719C50.6231 54.1146 51.3228 55.3641 50.9801 56.5637ZM59.541 59.2055C59.1983 60.405 57.9488 61.1048 56.7493 60.762C55.5497 60.4193 54.85 59.1698 55.1927 57.9703C55.5355 56.7707 56.785 56.071 57.9845 56.4137C59.184 56.7565 59.8838 58.006 59.541 59.2055Z" fill="url(#paint8_linear_30_857)"/>
<path d="M93.7278 69.0231C93.0709 71.9648 91.9356 74.8066 90.3362 77.4341C88.7368 80.0617 86.6662 82.4679 84.1458 84.5171C76.9414 90.3862 67.6879 92.0499 59.3411 89.8293C53.8718 88.3727 48.7953 85.2454 44.9468 80.5186C44.2113 79.619 43.5473 78.6836 42.9404 77.7197C42.105 77.2057 41.341 76.5559 40.6841 75.7562C38.8777 73.5428 38.335 70.7225 38.9277 68.1378C36.5072 72.2647 35.1149 77.0628 35.1149 82.1894C35.1149 97.0551 46.7818 109.2 61.4546 109.964C61.6045 109.964 61.7545 109.971 61.9044 109.979C62.2115 109.993 62.5256 110 62.8326 110C63.0326 110 63.2325 109.993 63.4395 109.993C70.394 109.886 77.3627 107.537 83.1747 102.803C93.4493 94.4275 97.1907 81.0042 93.7206 69.0303L93.7278 69.0231Z" fill="url(#paint9_linear_30_857)"/>
<path d="M35.4362 8.71803C34.8864 8.16825 34.3152 7.65416 33.7297 7.15436C36.0146 14.4515 35.2863 22.4912 31.552 29.3172C29.867 32.3945 27.4608 35.0078 24.7404 37.2212C15.6582 44.6112 9.84619 55.8639 9.84619 68.4876C9.84619 72.8002 10.5316 76.9486 11.7883 80.8471C14.3944 88.9296 19.4782 95.8912 26.147 100.839C16.1295 86.7376 17.4361 67.0667 30.074 54.4288L35.4362 48.9452C41.0269 43.3545 43.7972 36.0217 43.7687 28.7031C43.733 21.4631 40.9626 14.2373 35.4362 8.71803Z" fill="url(#paint10_linear_30_857)"/>
</g>
<path d="M146.378 19.492V25.348C143.978 23.908 141.418 23.188 138.698 23.188C137.194 23.188 136.01 23.524 135.146 24.196C134.314 24.868 133.898 25.732 133.898 26.788C133.898 27.844 134.346 28.724 135.242 29.428C136.17 30.1 137.546 30.852 139.37 31.684C140.65 32.26 141.69 32.772 142.49 33.22C143.29 33.636 144.154 34.228 145.082 34.996C146.042 35.764 146.746 36.692 147.194 37.78C147.674 38.836 147.914 40.052 147.914 41.428C147.914 44.308 146.874 46.612 144.794 48.34C142.746 50.036 140.042 50.884 136.682 50.884C133.034 50.884 130.01 50.196 127.61 48.82V42.628C130.362 44.612 133.37 45.604 136.634 45.604C138.106 45.604 139.29 45.252 140.186 44.548C141.082 43.812 141.53 42.836 141.53 41.62C141.53 41.044 141.418 40.532 141.194 40.084C140.97 39.636 140.506 39.188 139.802 38.74C139.13 38.292 138.602 37.972 138.218 37.78C137.866 37.588 137.114 37.236 135.962 36.724C135.642 36.564 135.402 36.452 135.242 36.388C134.058 35.844 133.098 35.364 132.362 34.948C131.626 34.5 130.826 33.908 129.962 33.172C129.098 32.436 128.442 31.556 127.994 30.532C127.578 29.508 127.37 28.34 127.37 27.028C127.37 24.276 128.378 22.068 130.394 20.404C132.442 18.74 135.146 17.908 138.506 17.908C141.546 17.908 144.17 18.436 146.378 19.492ZM159.99 30.484V42.868C159.99 43.892 160.262 44.676 160.806 45.22C161.35 45.732 162.102 45.988 163.062 45.988C164.278 45.988 165.398 45.652 166.422 44.98V49.924C165.302 50.468 163.862 50.74 162.102 50.74C156.854 50.74 154.23 48.084 154.23 42.772V30.484H150.582V26.164H154.23V20.308H159.99V26.164H166.038V30.484H159.99ZM185.809 36.34V35.62C185.745 34.052 185.313 32.804 184.513 31.876C183.745 30.916 182.609 30.436 181.105 30.436C179.729 30.436 178.529 30.948 177.505 31.972C176.513 32.964 175.873 34.42 175.585 36.34H185.809ZM189.745 44.164V49.156C188.049 50.212 185.601 50.74 182.401 50.74C178.529 50.74 175.473 49.588 173.233 47.284C170.993 44.98 169.873 42.004 169.873 38.356C169.873 34.484 170.929 31.444 173.041 29.236C175.153 27.028 177.793 25.924 180.961 25.924C184.129 25.924 186.641 26.884 188.497 28.804C190.353 30.724 191.281 33.524 191.281 37.204C191.281 38.1 191.169 39.252 190.945 40.66H175.681C176.097 42.42 176.961 43.764 178.273 44.692C179.617 45.62 181.281 46.084 183.265 46.084C185.825 46.084 187.985 45.444 189.745 44.164ZM208.383 45.892C210.111 45.892 211.519 45.236 212.607 43.924C213.695 42.58 214.239 40.708 214.239 38.308C214.239 35.908 213.695 34.052 212.607 32.74C211.519 31.396 210.143 30.724 208.479 30.724C206.815 30.724 205.375 31.348 204.159 32.596C202.943 33.844 202.335 35.7 202.335 38.164C202.335 40.628 202.927 42.532 204.111 43.876C205.295 45.22 206.719 45.892 208.383 45.892ZM202.335 26.164V29.908C204.063 27.188 206.543 25.828 209.775 25.828C212.943 25.828 215.455 26.964 217.311 29.236C219.199 31.508 220.143 34.5 220.143 38.212C220.143 41.86 219.199 44.884 217.311 47.284C215.455 49.652 212.927 50.836 209.727 50.836C206.463 50.836 203.999 49.508 202.335 46.852V59.668H196.575V26.164H202.335ZM230.835 16.564V30.292C232.147 27.348 234.627 25.876 238.275 25.876C240.643 25.876 242.547 26.628 243.987 28.132C245.459 29.604 246.195 31.748 246.195 34.564V50.5H240.435V35.572C240.435 34.036 240.035 32.836 239.235 31.972C238.467 31.108 237.459 30.676 236.211 30.676C234.835 30.676 233.587 31.204 232.467 32.26C231.379 33.316 230.835 35.044 230.835 37.444V50.5H225.075V16.564H230.835ZM264.648 40.036H261.672C260.168 40.036 259.016 40.356 258.216 40.996C257.416 41.604 257.016 42.388 257.016 43.348C257.016 45.396 258.2 46.42 260.568 46.42C261.848 46.42 262.84 46.052 263.544 45.316C264.28 44.548 264.648 43.556 264.648 42.34V40.036ZM252.84 32.74V27.412C254.664 26.292 257.288 25.732 260.712 25.732C267.304 25.732 270.6 28.804 270.6 34.948V50.5H264.888V47.572C263.768 49.652 261.656 50.692 258.552 50.692C256.248 50.692 254.408 50.02 253.032 48.676C251.688 47.332 251.016 45.636 251.016 43.588C251.016 41.284 251.88 39.476 253.608 38.164C255.336 36.852 257.832 36.196 261.096 36.196H264.648V34.708C264.648 33.364 264.296 32.34 263.592 31.636C262.888 30.932 261.688 30.58 259.992 30.58C257.4 30.58 255.016 31.3 252.84 32.74ZM282.304 26.164V30.34C283.68 27.364 286.176 25.876 289.792 25.876C292.224 25.876 294.144 26.612 295.552 28.084C296.96 29.556 297.664 31.636 297.664 34.324V50.5H291.904V35.524C291.904 33.924 291.52 32.724 290.752 31.924C289.984 31.092 288.944 30.676 287.632 30.676C286.128 30.676 284.864 31.268 283.84 32.452C282.816 33.604 282.304 35.268 282.304 37.444V50.5H276.544V26.164H282.304ZM303.925 50.5V26.164H309.685V50.5H303.925ZM303.349 18.868C303.349 17.908 303.685 17.092 304.357 16.42C305.029 15.748 305.845 15.412 306.805 15.412C307.765 15.412 308.581 15.748 309.253 16.42C309.925 17.092 310.261 17.908 310.261 18.868C310.261 19.86 309.925 20.692 309.253 21.364C308.581 22.036 307.765 22.372 306.805 22.372C305.845 22.372 305.029 22.036 304.357 21.364C303.685 20.692 303.349 19.86 303.349 18.868ZM330.793 36.34V35.62C330.729 34.052 330.297 32.804 329.497 31.876C328.729 30.916 327.593 30.436 326.089 30.436C324.713 30.436 323.513 30.948 322.489 31.972C321.497 32.964 320.857 34.42 320.569 36.34H330.793ZM334.729 44.164V49.156C333.033 50.212 330.585 50.74 327.385 50.74C323.513 50.74 320.457 49.588 318.217 47.284C315.977 44.98 314.857 42.004 314.857 38.356C314.857 34.484 315.913 31.444 318.025 29.236C320.137 27.028 322.777 25.924 325.945 25.924C329.113 25.924 331.625 26.884 333.481 28.804C335.337 30.724 336.265 33.524 336.265 37.204C336.265 38.1 336.153 39.252 335.929 40.66H320.665C321.081 42.42 321.945 43.764 323.257 44.692C324.601 45.62 326.265 46.084 328.249 46.084C330.809 46.084 332.969 45.444 334.729 44.164ZM377.274 19.492V25.396C374.842 23.988 372.154 23.284 369.21 23.284C366.266 23.284 363.802 24.292 361.818 26.308C359.866 28.292 358.89 30.964 358.89 34.324C358.89 37.684 359.866 40.356 361.818 42.34C363.802 44.324 366.378 45.316 369.546 45.316C372.586 45.316 375.178 44.516 377.322 42.916V48.964C375.338 50.244 372.554 50.884 368.97 50.884C364.17 50.884 360.202 49.38 357.066 46.372C353.962 43.332 352.41 39.316 352.41 34.324C352.41 29.428 353.946 25.444 357.018 22.372C360.122 19.268 364.106 17.716 368.97 17.716C372.522 17.716 375.29 18.308 377.274 19.492ZM395.148 40.036H392.172C390.668 40.036 389.516 40.356 388.716 40.996C387.916 41.604 387.516 42.388 387.516 43.348C387.516 45.396 388.7 46.42 391.068 46.42C392.348 46.42 393.34 46.052 394.044 45.316C394.78 44.548 395.148 43.556 395.148 42.34V40.036ZM383.34 32.74V27.412C385.164 26.292 387.788 25.732 391.212 25.732C397.804 25.732 401.1 28.804 401.1 34.948V50.5H395.388V47.572C394.268 49.652 392.156 50.692 389.052 50.692C386.748 50.692 384.908 50.02 383.532 48.676C382.188 47.332 381.516 45.636 381.516 43.588C381.516 41.284 382.38 39.476 384.108 38.164C385.836 36.852 388.332 36.196 391.596 36.196H395.148V34.708C395.148 33.364 394.796 32.34 394.092 31.636C393.388 30.932 392.188 30.58 390.492 30.58C387.9 30.58 385.516 31.3 383.34 32.74ZM412.804 26.164V30.484C413.924 27.476 415.972 25.972 418.948 25.972C419.62 25.972 420.164 26.02 420.58 26.116V31.684C419.844 31.364 419.028 31.204 418.132 31.204C416.564 31.204 415.284 31.844 414.292 33.124C413.3 34.404 412.804 36.004 412.804 37.924V50.5H406.996L407.044 26.164H412.804ZM424.206 50.5V16.564H429.966V50.5H424.206ZM450.979 26.932V32.02C449.379 31.06 447.379 30.58 444.979 30.58C443.987 30.58 443.203 30.804 442.627 31.252C442.083 31.668 441.811 32.212 441.811 32.884C441.811 33.14 441.843 33.38 441.907 33.604C442.003 33.828 442.147 34.052 442.339 34.276C442.563 34.468 442.771 34.644 442.963 34.804C443.155 34.964 443.427 35.14 443.779 35.332C444.131 35.492 444.435 35.636 444.691 35.764C444.947 35.892 445.299 36.052 445.747 36.244C446.195 36.436 446.547 36.596 446.803 36.724C448.499 37.556 449.843 38.484 450.835 39.508C451.827 40.532 452.323 41.86 452.323 43.492C452.323 45.764 451.507 47.54 449.875 48.82C448.243 50.1 446.067 50.74 443.347 50.74C440.339 50.74 437.907 50.244 436.051 49.252V43.972C438.195 45.412 440.515 46.132 443.011 46.132C444.067 46.132 444.883 45.94 445.459 45.556C446.067 45.14 446.371 44.58 446.371 43.876C446.371 43.46 446.275 43.092 446.083 42.772C445.891 42.42 445.523 42.084 444.979 41.764C444.435 41.444 444.003 41.22 443.683 41.092C443.395 40.932 442.803 40.66 441.907 40.276C441.811 40.244 441.731 40.212 441.667 40.18C441.635 40.148 441.571 40.116 441.475 40.084C441.379 40.052 441.299 40.02 441.235 39.988C437.683 38.388 435.907 36.084 435.907 33.076C435.907 30.836 436.755 29.076 438.451 27.796C440.147 26.516 442.275 25.876 444.835 25.876C447.299 25.876 449.347 26.228 450.979 26.932ZM467.335 50.884C463.655 50.884 460.775 49.732 458.695 47.428C456.647 45.124 455.623 42.18 455.623 38.596C455.623 34.884 456.695 31.828 458.839 29.428C460.983 26.996 463.815 25.78 467.335 25.78C471.079 25.78 473.975 26.964 476.023 29.332C478.071 31.668 479.095 34.644 479.095 38.26C479.095 41.94 478.055 44.964 475.975 47.332C473.927 49.7 471.047 50.884 467.335 50.884ZM467.335 30.484C465.511 30.484 464.103 31.236 463.111 32.74C462.151 34.244 461.671 36.132 461.671 38.404C461.671 40.644 462.167 42.516 463.159 44.02C464.151 45.524 465.559 46.276 467.383 46.276C469.271 46.276 470.695 45.54 471.655 44.068C472.615 42.596 473.095 40.724 473.095 38.452C473.095 36.116 472.631 34.212 471.703 32.74C470.775 31.236 469.319 30.484 467.335 30.484ZM489.82 26.164V30.34C491.196 27.364 493.692 25.876 497.308 25.876C499.74 25.876 501.66 26.612 503.068 28.084C504.476 29.556 505.18 31.636 505.18 34.324V50.5H499.42V35.524C499.42 33.924 499.036 32.724 498.268 31.924C497.5 31.092 496.46 30.676 495.148 30.676C493.644 30.676 492.38 31.268 491.356 32.452C490.332 33.604 489.82 35.268 489.82 37.444V50.5H484.06V26.164H489.82Z" fill="#1A135A"/>
<path d="M136.49 86.356V76.324H138.962V86.308C138.962 88.404 138.418 89.996 137.33 91.084C136.242 92.172 134.738 92.716 132.818 92.716C130.93 92.716 129.442 92.188 128.354 91.132C127.266 90.06 126.722 88.516 126.722 86.5V76.324H129.194V86.476C129.194 87.852 129.522 88.86 130.178 89.5C130.85 90.124 131.73 90.436 132.818 90.436C135.266 90.436 136.49 89.076 136.49 86.356ZM142.618 92.5V76.324H145.066V92.5H142.618ZM146.834 94.948L155.546 75.532H157.97L149.258 94.948H146.834ZM168.576 86.356V76.324H171.048V86.308C171.048 88.404 170.504 89.996 169.416 91.084C168.328 92.172 166.824 92.716 164.904 92.716C163.016 92.716 161.528 92.188 160.44 91.132C159.352 90.06 158.808 88.516 158.808 86.5V76.324H161.28V86.476C161.28 87.852 161.608 88.86 162.264 89.5C162.936 90.124 163.816 90.436 164.904 90.436C167.352 90.436 168.576 89.076 168.576 86.356ZM178.784 84.316L173.888 76.324H176.744L180.176 82.132C180.304 81.876 180.872 80.892 181.88 79.18C182.904 77.452 183.464 76.5 183.56 76.324H186.512L181.616 84.34L186.968 92.5H184.064L180.224 86.428C180.08 86.7 179.464 87.724 178.376 89.5C177.288 91.276 176.68 92.276 176.552 92.5H173.6L178.784 84.316ZM200.361 85.54L200.337 85.516C199.393 85.868 198.705 86.252 198.273 86.668C197.841 87.068 197.625 87.564 197.625 88.156C197.625 88.908 197.985 89.508 198.705 89.956C199.425 90.404 200.337 90.628 201.441 90.628C202.705 90.628 203.809 90.316 204.753 89.692L200.361 85.54ZM201.513 78.004C200.857 78.004 200.321 78.188 199.905 78.556C199.489 78.924 199.281 79.436 199.281 80.092C199.281 80.572 199.433 81.06 199.737 81.556C200.041 82.036 200.529 82.636 201.201 83.356C203.009 82.476 203.913 81.452 203.913 80.284C203.913 79.612 203.705 79.068 203.289 78.652C202.873 78.22 202.281 78.004 201.513 78.004ZM210.825 92.5H207.753L206.337 91.18C205.025 92.188 203.401 92.692 201.465 92.692C199.577 92.692 198.057 92.268 196.905 91.42C195.769 90.572 195.201 89.508 195.201 88.228C195.201 86.34 196.441 84.956 198.921 84.076C197.545 82.652 196.857 81.324 196.857 80.092C196.857 78.828 197.289 77.82 198.153 77.068C199.017 76.316 200.145 75.94 201.537 75.94C202.977 75.94 204.129 76.34 204.993 77.14C205.873 77.924 206.313 78.948 206.313 80.212C206.313 81.14 206.025 81.972 205.449 82.708C204.889 83.444 203.945 84.116 202.617 84.724L206.169 88.132C206.537 87.46 206.745 86.7 206.793 85.852H209.001C208.937 87.26 208.529 88.524 207.777 89.644C208.241 90.076 208.833 90.636 209.553 91.324C210.289 92.012 210.713 92.404 210.825 92.5ZM231.559 83.26V91.012H231.535L231.559 91.18C230.167 92.188 228.423 92.692 226.327 92.692C223.799 92.692 221.759 91.948 220.207 90.46C218.671 88.972 217.903 86.948 217.903 84.388C217.903 81.908 218.679 79.9 220.231 78.364C221.799 76.812 223.783 76.036 226.183 76.036C228.055 76.036 229.623 76.396 230.887 77.116V79.66C229.511 78.796 227.975 78.364 226.279 78.364C224.551 78.364 223.151 78.916 222.079 80.02C221.023 81.124 220.495 82.58 220.495 84.388C220.495 86.244 221.015 87.708 222.055 88.78C223.111 89.852 224.559 90.388 226.399 90.388C227.359 90.388 228.271 90.212 229.135 89.86V85.396H225.847V83.26H231.559ZM237.143 80.332V82.468C237.735 80.964 238.799 80.212 240.335 80.212C240.559 80.212 240.807 80.236 241.079 80.284V82.588C240.743 82.444 240.367 82.372 239.951 82.372C239.135 82.372 238.463 82.732 237.935 83.452C237.407 84.172 237.143 85.028 237.143 86.02V92.5H234.791V80.332H237.143ZM249.332 87.076H247.508C246.612 87.076 245.932 87.252 245.468 87.604C245.02 87.956 244.796 88.404 244.796 88.948C244.796 89.508 244.972 89.948 245.324 90.268C245.676 90.588 246.188 90.748 246.86 90.748C247.628 90.748 248.228 90.54 248.66 90.124C249.108 89.692 249.332 89.132 249.332 88.444V87.076ZM243.212 83.236V80.956C244.156 80.412 245.404 80.14 246.956 80.14C250.14 80.14 251.732 81.684 251.732 84.772V92.5H249.404V91.06C248.78 92.084 247.684 92.596 246.116 92.596C244.964 92.596 244.036 92.268 243.332 91.612C242.644 90.94 242.3 90.092 242.3 89.068C242.3 87.9 242.74 86.996 243.62 86.356C244.5 85.7 245.732 85.372 247.316 85.372H249.332V84.676C249.332 83.844 249.132 83.22 248.732 82.804C248.332 82.372 247.668 82.156 246.74 82.156C245.444 82.156 244.268 82.516 243.212 83.236ZM260.516 90.604C261.46 90.604 262.236 90.236 262.844 89.5C263.452 88.748 263.756 87.7 263.756 86.356C263.756 85.092 263.46 84.092 262.868 83.356C262.276 82.604 261.524 82.228 260.612 82.228C259.7 82.228 258.908 82.564 258.236 83.236C257.58 83.892 257.252 84.94 257.252 86.38C257.252 87.788 257.58 88.844 258.236 89.548C258.908 90.252 259.668 90.604 260.516 90.604ZM257.252 80.332V82.204C258.084 80.844 259.332 80.164 260.996 80.164C262.596 80.164 263.86 80.748 264.788 81.916C265.716 83.068 266.18 84.54 266.18 86.332C266.18 88.172 265.7 89.692 264.74 90.892C263.796 92.076 262.532 92.668 260.948 92.668C259.332 92.668 258.1 91.996 257.252 90.652V97.156H254.9V80.332H257.252ZM271.174 75.532V82.42C271.862 80.916 273.118 80.164 274.942 80.164C276.126 80.164 277.078 80.532 277.798 81.268C278.518 82.004 278.878 83.028 278.878 84.34V92.5H276.526V84.82C276.526 83.988 276.31 83.348 275.878 82.9C275.462 82.436 274.91 82.204 274.222 82.204C273.422 82.204 272.71 82.508 272.086 83.116C271.478 83.724 271.174 84.652 271.174 85.9V92.5H268.822V75.532H271.174ZM282.137 92.5V80.332H284.513V92.5H282.137ZM282.257 77.668C281.985 77.38 281.849 77.028 281.849 76.612C281.849 76.196 281.985 75.844 282.257 75.556C282.545 75.268 282.897 75.124 283.313 75.124C283.729 75.124 284.081 75.268 284.369 75.556C284.657 75.844 284.801 76.196 284.801 76.612C284.801 77.012 284.657 77.356 284.369 77.644C284.081 77.932 283.729 78.076 283.313 78.076C282.897 78.076 282.545 77.94 282.257 77.668ZM289.676 86.476C289.708 87.708 290.084 88.724 290.804 89.524C291.524 90.308 292.532 90.7 293.828 90.7C294.788 90.7 295.684 90.436 296.516 89.908V92.02C295.732 92.5 294.732 92.74 293.516 92.74C291.612 92.74 290.092 92.14 288.956 90.94C287.82 89.74 287.252 88.244 287.252 86.452C287.252 84.708 287.82 83.22 288.956 81.988C290.108 80.74 291.66 80.116 293.612 80.116C294.668 80.116 295.636 80.34 296.516 80.788V82.948C295.732 82.452 294.844 82.204 293.852 82.204C292.588 82.204 291.572 82.604 290.804 83.404C290.052 84.204 289.676 85.228 289.676 86.476ZM307.743 90.412H310.287C312.127 90.412 313.527 89.836 314.487 88.684C315.447 87.532 315.927 86.052 315.927 84.244C315.927 82.58 315.407 81.196 314.367 80.092C313.327 78.988 311.943 78.436 310.215 78.436H307.743V90.412ZM305.223 76.324H310.263C312.663 76.324 314.631 77.068 316.167 78.556C317.703 80.044 318.471 81.94 318.471 84.244C318.471 86.644 317.743 88.62 316.287 90.172C314.847 91.724 312.855 92.5 310.311 92.5H305.223V76.324ZM328.695 85.54V85.108C328.663 84.196 328.415 83.476 327.951 82.948C327.487 82.404 326.823 82.132 325.959 82.132C325.159 82.132 324.471 82.428 323.895 83.02C323.319 83.596 322.959 84.436 322.815 85.54H328.695ZM330.207 89.74V91.852C329.311 92.364 328.127 92.62 326.655 92.62C324.767 92.62 323.263 92.052 322.143 90.916C321.023 89.78 320.463 88.292 320.463 86.452C320.463 84.5 320.975 82.972 321.999 81.868C323.023 80.748 324.327 80.188 325.911 80.188C327.463 80.188 328.695 80.676 329.607 81.652C330.519 82.612 330.975 84.004 330.975 85.828C330.975 86.324 330.927 86.844 330.831 87.388H322.839C322.999 88.444 323.447 89.252 324.183 89.812C324.919 90.372 325.847 90.652 326.967 90.652C328.263 90.652 329.343 90.348 330.207 89.74ZM340.68 80.74V82.876C339.896 82.412 338.888 82.18 337.656 82.18C337.096 82.18 336.648 82.308 336.312 82.564C335.992 82.82 335.832 83.156 335.832 83.572C335.832 83.684 335.84 83.796 335.856 83.908C335.888 84.004 335.936 84.108 336 84.22C336.064 84.316 336.12 84.404 336.168 84.484C336.232 84.548 336.328 84.62 336.456 84.7C336.584 84.78 336.68 84.852 336.744 84.916C336.824 84.964 336.944 85.028 337.104 85.108C337.28 85.188 337.408 85.252 337.488 85.3C337.568 85.332 337.704 85.396 337.896 85.492C338.104 85.572 338.248 85.628 338.328 85.66C339.272 86.076 340.008 86.548 340.536 87.076C341.08 87.588 341.352 88.276 341.352 89.14C341.352 90.228 340.968 91.084 340.2 91.708C339.432 92.316 338.392 92.62 337.08 92.62C335.64 92.62 334.44 92.38 333.48 91.9V89.668C334.6 90.356 335.76 90.7 336.96 90.7C337.584 90.7 338.064 90.572 338.4 90.316C338.752 90.06 338.928 89.724 338.928 89.308C338.928 88.956 338.792 88.644 338.52 88.372C338.248 88.084 337.968 87.876 337.68 87.748C337.408 87.604 336.936 87.388 336.264 87.1C334.36 86.316 333.408 85.164 333.408 83.644C333.408 82.572 333.808 81.732 334.608 81.124C335.408 80.516 336.408 80.212 337.608 80.212C338.92 80.212 339.944 80.388 340.68 80.74ZM343.895 92.5V80.332H346.271V92.5H343.895ZM344.015 77.668C343.743 77.38 343.607 77.028 343.607 76.612C343.607 76.196 343.743 75.844 344.015 75.556C344.303 75.268 344.655 75.124 345.071 75.124C345.487 75.124 345.839 75.268 346.127 75.556C346.415 75.844 346.559 76.196 346.559 76.612C346.559 77.012 346.415 77.356 346.127 77.644C345.839 77.932 345.487 78.076 345.071 78.076C344.655 78.076 344.303 77.94 344.015 77.668ZM354.482 90.148C355.314 90.148 356.034 89.828 356.642 89.188C357.266 88.532 357.578 87.62 357.578 86.452C357.578 85.012 357.282 83.948 356.69 83.26C356.114 82.572 355.41 82.228 354.578 82.228C353.634 82.228 352.89 82.604 352.346 83.356C351.802 84.092 351.53 85.068 351.53 86.284C351.53 87.548 351.818 88.508 352.394 89.164C352.986 89.82 353.682 90.148 354.482 90.148ZM357.578 80.332H359.93V91.468C359.93 93.34 359.394 94.748 358.322 95.692C357.266 96.652 355.906 97.132 354.242 97.132C352.674 97.132 351.354 96.868 350.282 96.34V93.964C351.306 94.636 352.546 94.972 354.002 94.972C356.386 94.972 357.578 93.796 357.578 91.444V90.196C356.794 91.508 355.618 92.164 354.05 92.164C352.674 92.164 351.498 91.66 350.522 90.652C349.546 89.628 349.058 88.188 349.058 86.332C349.058 84.54 349.514 83.068 350.426 81.916C351.338 80.748 352.546 80.164 354.05 80.164C355.666 80.164 356.842 80.852 357.578 82.228V80.332ZM365.44 80.332V82.42C366.16 80.916 367.424 80.164 369.232 80.164C370.432 80.164 371.384 80.532 372.088 81.268C372.792 82.004 373.144 83.004 373.144 84.268V92.5H370.792V84.82C370.792 83.972 370.576 83.324 370.144 82.876C369.728 82.428 369.168 82.204 368.464 82.204C367.632 82.204 366.92 82.532 366.328 83.188C365.736 83.828 365.44 84.732 365.44 85.9V92.5H363.088V80.332H365.44ZM383.867 85.54V85.108C383.835 84.196 383.587 83.476 383.123 82.948C382.659 82.404 381.995 82.132 381.131 82.132C380.331 82.132 379.643 82.428 379.067 83.02C378.491 83.596 378.131 84.436 377.987 85.54H383.867ZM385.379 89.74V91.852C384.483 92.364 383.299 92.62 381.827 92.62C379.939 92.62 378.435 92.052 377.315 90.916C376.195 89.78 375.635 88.292 375.635 86.452C375.635 84.5 376.147 82.972 377.171 81.868C378.195 80.748 379.499 80.188 381.083 80.188C382.635 80.188 383.867 80.676 384.779 81.652C385.691 82.612 386.147 84.004 386.147 85.828C386.147 86.324 386.099 86.844 386.003 87.388H378.011C378.171 88.444 378.619 89.252 379.355 89.812C380.091 90.372 381.019 90.652 382.139 90.652C383.435 90.652 384.515 90.348 385.379 89.74ZM391.268 80.332V82.468C391.86 80.964 392.924 80.212 394.46 80.212C394.684 80.212 394.932 80.236 395.204 80.284V82.588C394.868 82.444 394.492 82.372 394.076 82.372C393.26 82.372 392.588 82.732 392.06 83.452C391.532 84.172 391.268 85.028 391.268 86.02V92.5H388.916V80.332H391.268Z" fill="#1A135A"/>
<defs>
<linearGradient id="paint0_linear_30_857" x1="47.4244" y1="72.0719" x2="94.1777" y2="72.0719" gradientUnits="userSpaceOnUse">
<stop stop-color="#1A135A"/>
<stop offset="1" stop-color="#0F39A4"/>
</linearGradient>
<linearGradient id="paint1_linear_30_857" x1="42.0408" y1="48.6453" x2="88.2371" y2="48.6453" gradientUnits="userSpaceOnUse">
<stop stop-color="#0F39A4"/>
<stop offset="1" stop-color="#007B88"/>
</linearGradient>
<linearGradient id="paint2_linear_30_857" x1="2.36331" y1="69.8228" x2="5.52636" y2="66.6598" gradientUnits="userSpaceOnUse">
<stop stop-color="#1A135A"/>
<stop offset="1" stop-color="#0F39A4"/>
</linearGradient>
<linearGradient id="paint3_linear_30_857" x1="80.69" y1="16.9506" x2="83.8531" y2="13.7875" gradientUnits="userSpaceOnUse">
<stop stop-color="#007B88"/>
<stop offset="1" stop-color="#82D742"/>
</linearGradient>
<linearGradient id="paint4_linear_30_857" x1="1.15669" y1="81.8324" x2="6.73309" y2="76.2489" gradientUnits="userSpaceOnUse">
<stop stop-color="#1A135A"/>
<stop offset="1" stop-color="#0F39A4"/>
</linearGradient>
<linearGradient id="paint5_linear_30_857" x1="87.2017" y1="26.3897" x2="92.7853" y2="20.8062" gradientUnits="userSpaceOnUse">
<stop stop-color="#007B88"/>
<stop offset="1" stop-color="#82D742"/>
</linearGradient>
<linearGradient id="paint6_linear_30_857" x1="3.5843" y1="95.0201" x2="11.2599" y2="87.3446" gradientUnits="userSpaceOnUse">
<stop stop-color="#1A135A"/>
<stop offset="1" stop-color="#0F39A4"/>
</linearGradient>
<linearGradient id="paint7_linear_30_857" x1="91.75" y1="40.4128" x2="99.4256" y2="32.7373" gradientUnits="userSpaceOnUse">
<stop stop-color="#007B88"/>
<stop offset="1" stop-color="#82D742"/>
</linearGradient>
<linearGradient id="paint8_linear_30_857" x1="19.4995" y1="54.3717" x2="66.4669" y2="54.3717" gradientUnits="userSpaceOnUse">
<stop stop-color="#007B88"/>
<stop offset="1" stop-color="#82D742"/>
</linearGradient>
<linearGradient id="paint9_linear_30_857" x1="35.1149" y1="89.0725" x2="94.9844" y2="89.0725" gradientUnits="userSpaceOnUse">
<stop stop-color="#0F39A4"/>
<stop offset="1" stop-color="#651BB7"/>
</linearGradient>
<linearGradient id="paint10_linear_30_857" x1="9.83905" y1="54.0004" x2="43.7615" y2="54.0004" gradientUnits="userSpaceOnUse">
<stop stop-color="#82D742"/>
<stop offset="1" stop-color="#C0F962"/>
</linearGradient>
<clipPath id="clip0_30_857">
<rect width="101.018" height="110" fill="white"/>
</clipPath>
</defs>
</svg>
