<svg width="378" height="110" viewBox="0 0 378 110" fill="none" xmlns="http://www.w3.org/2000/svg">
<g clip-path="url(#clip0_2230_1432)">
<path d="M90.3647 49.9512C90.7003 60.0972 84.8312 69.2865 75.8847 73.4206C75.1706 74.6059 74.3852 75.7697 73.5284 76.8978C67.3523 84.3949 56.6207 87.4151 47.4243 84.0379C50.2589 86.6226 53.4862 88.5076 56.8921 89.7071C55.2641 90.3711 53.6005 90.9352 51.9011 91.385C56.9206 93.7413 62.6541 94.7266 68.5518 93.9126C84.7955 91.6706 96.141 76.6836 93.8991 60.4399C93.3707 56.6343 92.1426 53.1071 90.3647 49.9512Z" fill="url(#paint0_linear_2230_1432)"/>
<path d="M80.0616 23.5193C76.7486 19.171 72.7073 15.6937 68.2519 13.1305C68.6303 13.5803 69.0016 14.0372 69.3586 14.5085C83.246 32.73 80.5614 58.3771 63.7536 73.3784L59.084 77.027C59.084 77.027 59.0769 77.027 59.0697 77.027C57.9202 77.8053 56.6064 78.4907 55.2427 79.119C55.6711 78.8049 56.0995 78.4978 56.5136 78.1623C57.1276 77.6696 57.7345 77.1698 58.3272 76.6414C58.3272 76.6414 58.3343 76.6414 58.3414 76.6414L62.4755 72.4002C77.127 55.2855 76.3701 29.5098 60.1693 13.309C59.748 12.8877 59.3196 12.4879 58.8841 12.088L55.6211 9.95312V9.96741C61.1189 16.2078 64.5247 23.6478 65.8457 31.3734C67.288 39.8486 66.2169 48.6738 62.6255 56.6349C62.1185 57.7559 61.5545 58.8484 60.9476 59.9265L55.4212 65.9028C55.5925 66.2169 55.7496 66.5454 55.8853 66.8809C57.6774 71.4577 55.4212 76.6272 50.8444 78.4193C48.0597 79.5117 45.068 79.0976 42.7404 77.5768C42.8118 77.6196 41.9764 78.5907 42.0478 78.6335C42.6547 79.5903 42.5762 80.2115 43.3116 81.1111C43.3758 81.1897 43.4472 81.2611 43.5115 81.3325L44.2398 81.5966C44.5897 82.0108 44.2184 82.1464 44.5825 82.5391C44.6968 82.6605 44.811 82.7748 44.9252 82.8961C44.9252 82.8961 46.9173 84.8025 46.9102 84.8097C48.4881 86.6804 50.3446 85.895 53.0721 87.323C59.9194 86.5162 66.6454 83.9172 72.5288 79.4332C90.0505 66.0741 93.4278 41.0339 80.0687 23.5121L80.0616 23.5193ZM59.3196 65.3815C59.6624 64.182 60.9119 63.4823 62.1114 63.825C63.3109 64.1677 64.0107 65.4172 63.6679 66.6168C63.3252 67.8163 62.0757 68.516 60.8762 68.1733C59.6766 67.8306 58.9769 66.5811 59.3196 65.3815Z" fill="url(#paint1_linear_2230_1432)"/>
<path d="M3.94853 70.4801C5.18674 70.4801 6.19051 69.4763 6.19051 68.2381C6.19051 66.9999 5.18674 65.9961 3.94853 65.9961C2.71031 65.9961 1.70654 66.9999 1.70654 68.2381C1.70654 69.4763 2.71031 70.4801 3.94853 70.4801Z" fill="url(#paint2_linear_2230_1432)"/>
<path d="M82.2679 17.6148C83.5061 17.6148 84.5098 16.6111 84.5098 15.3728C84.5098 14.1346 83.5061 13.1309 82.2679 13.1309C81.0296 13.1309 80.0259 14.1346 80.0259 15.3728C80.0259 16.6111 81.0296 17.6148 82.2679 17.6148Z" fill="url(#paint3_linear_2230_1432)"/>
<path d="M3.94846 82.9887C6.12914 82.9887 7.89692 81.2209 7.89692 79.0403C7.89692 76.8596 6.12914 75.0918 3.94846 75.0918C1.76779 75.0918 0 76.8596 0 79.0403C0 81.2209 1.76779 82.9887 3.94846 82.9887Z" fill="url(#paint4_linear_2230_1432)"/>
<path d="M89.9936 27.5473C92.1743 27.5473 93.9421 25.7795 93.9421 23.5989C93.9421 21.4182 92.1743 19.6504 89.9936 19.6504C87.813 19.6504 86.0452 21.4182 86.0452 23.5989C86.0452 25.7795 87.813 27.5473 89.9936 27.5473Z" fill="url(#paint5_linear_2230_1432)"/>
<path d="M7.41865 96.6127C10.4156 96.6127 12.8451 94.1832 12.8451 91.1862C12.8451 88.1893 10.4156 85.7598 7.41865 85.7598C4.4217 85.7598 1.99219 88.1893 1.99219 91.1862C1.99219 94.1832 4.4217 96.6127 7.41865 96.6127Z" fill="url(#paint6_linear_2230_1432)"/>
<path d="M95.5913 41.9974C98.5882 41.9974 101.018 39.5679 101.018 36.571C101.018 33.574 98.5882 31.1445 95.5913 31.1445C92.5943 31.1445 90.1648 33.574 90.1648 36.571C90.1648 39.5679 92.5943 41.9974 95.5913 41.9974Z" fill="url(#paint7_linear_2230_1432)"/>
<path d="M65.8457 31.3728C64.382 22.7904 60.355 14.5579 53.7219 7.93195C50.4446 4.65466 46.7674 2.01283 42.8475 -0.0078125C46.696 7.58209 46.9245 16.5286 43.533 24.2756L43.6615 31.1729L42.7404 36.3566C41.4838 40.9619 39.049 45.3174 35.429 48.9374L30.0668 54.421C17.4289 67.0589 16.1222 86.7298 26.1398 100.831C31.8661 105.087 38.7634 107.85 46.2534 108.571C47.0673 108.65 47.8813 108.707 48.7095 108.736C47.8242 108.693 46.9459 108.607 46.082 108.478C32.6015 101.324 26.7038 84.8805 32.9157 70.6647C33.5512 69.2152 34.2937 67.8443 35.122 66.5591H35.1648C36.6785 64.1957 39.0347 62.375 41.9622 61.6039C43.1688 61.2897 44.3755 61.1755 45.5536 61.2469C46.032 61.2755 46.5104 61.2826 46.9888 61.2469C50.6802 60.997 54.2574 63.0748 55.7782 66.6305C56.5922 66.1164 57.4133 65.2311 58.1202 64.3314C58.1202 64.3314 58.1202 64.3386 58.1273 64.3457C58.1773 64.2814 58.2201 64.21 58.263 64.1458C59.3197 62.7677 60.0837 61.4254 60.0837 61.4254V61.4111C61.0262 59.8617 61.8901 58.2695 62.6327 56.6273C63.1325 55.5206 63.5752 54.3996 63.975 53.2643C66.4669 46.217 67.0952 38.6628 65.8529 31.3585L65.8457 31.3728ZM50.9801 56.563C50.6374 57.7625 49.3878 58.4623 48.1883 58.1195C46.9888 57.7768 46.2891 56.5273 46.6318 55.3278C46.9745 54.1282 48.224 53.4285 49.4235 53.7712C50.6231 54.114 51.3228 55.3635 50.9801 56.563ZM59.541 59.2048C59.1983 60.4044 57.9488 61.1041 56.7493 60.7614C55.5497 60.4186 54.85 59.1691 55.1927 57.9696C55.5355 56.7701 56.785 56.0703 57.9845 56.4131C59.184 56.7558 59.8838 58.0053 59.541 59.2048Z" fill="url(#paint8_linear_2230_1432)"/>
<path d="M93.7279 69.024C93.071 71.9658 91.9357 74.8075 90.3363 77.435C88.737 80.0626 86.6663 82.4688 84.1459 84.518C76.9416 90.3871 67.688 92.0508 59.3413 89.8302C53.872 88.3736 48.7954 85.2463 44.9469 80.5196C44.2114 79.6199 43.5474 78.6846 42.9405 77.7207C42.1051 77.2066 41.3411 76.5568 40.6842 75.7571C38.8778 73.5437 38.3352 70.7234 38.9278 68.1387C36.5073 72.2656 35.115 77.0638 35.115 82.1903C35.115 97.056 46.7819 109.201 61.4547 109.965C61.6047 109.965 61.7546 109.972 61.9046 109.98C62.2116 109.994 62.5257 110.001 62.8328 110.001C63.0327 110.001 63.2326 109.994 63.4397 109.994C70.3941 109.887 77.3628 107.538 83.1748 102.804C93.4494 94.4284 97.1908 81.0051 93.7207 69.0312L93.7279 69.024Z" fill="url(#paint9_linear_2230_1432)"/>
<path d="M35.4362 8.71797C34.8864 8.16819 34.3152 7.6541 33.7297 7.1543C36.0146 14.4515 35.2863 22.4912 31.552 29.3171C29.867 32.3945 27.4608 35.0077 24.7404 37.2212C15.6582 44.6111 9.84619 55.8639 9.84619 68.4875C9.84619 72.8001 10.5316 76.9485 11.7883 80.847C14.3944 88.9296 19.4782 95.8911 26.147 100.839C16.1295 86.7376 17.4361 67.0667 30.074 54.4287L35.4362 48.9452C41.0269 43.3545 43.7972 36.0216 43.7687 28.703C43.733 21.463 40.9626 14.2373 35.4362 8.71797Z" fill="url(#paint10_linear_2230_1432)"/>
</g>
<path d="M146.378 9.992V15.848C143.978 14.408 141.418 13.688 138.698 13.688C137.194 13.688 136.01 14.024 135.146 14.696C134.314 15.368 133.898 16.232 133.898 17.288C133.898 18.344 134.346 19.224 135.242 19.928C136.17 20.6 137.546 21.352 139.37 22.184C140.65 22.76 141.69 23.272 142.49 23.72C143.29 24.136 144.154 24.728 145.082 25.496C146.042 26.264 146.746 27.192 147.194 28.28C147.674 29.336 147.914 30.552 147.914 31.928C147.914 34.808 146.874 37.112 144.794 38.84C142.746 40.536 140.042 41.384 136.682 41.384C133.034 41.384 130.01 40.696 127.61 39.32V33.128C130.362 35.112 133.37 36.104 136.634 36.104C138.106 36.104 139.29 35.752 140.186 35.048C141.082 34.312 141.53 33.336 141.53 32.12C141.53 31.544 141.418 31.032 141.194 30.584C140.97 30.136 140.506 29.688 139.802 29.24C139.13 28.792 138.602 28.472 138.218 28.28C137.866 28.088 137.114 27.736 135.962 27.224C135.642 27.064 135.402 26.952 135.242 26.888C134.058 26.344 133.098 25.864 132.362 25.448C131.626 25 130.826 24.408 129.962 23.672C129.098 22.936 128.442 22.056 127.994 21.032C127.578 20.008 127.37 18.84 127.37 17.528C127.37 14.776 128.378 12.568 130.394 10.904C132.442 9.24 135.146 8.408 138.506 8.408C141.546 8.408 144.17 8.936 146.378 9.992ZM159.99 20.984V33.368C159.99 34.392 160.262 35.176 160.806 35.72C161.35 36.232 162.102 36.488 163.062 36.488C164.278 36.488 165.398 36.152 166.422 35.48V40.424C165.302 40.968 163.862 41.24 162.102 41.24C156.854 41.24 154.23 38.584 154.23 33.272V20.984H150.582V16.664H154.23V10.808H159.99V16.664H166.038V20.984H159.99ZM185.809 26.84V26.12C185.745 24.552 185.313 23.304 184.513 22.376C183.745 21.416 182.609 20.936 181.105 20.936C179.729 20.936 178.529 21.448 177.505 22.472C176.513 23.464 175.873 24.92 175.585 26.84H185.809ZM189.745 34.664V39.656C188.049 40.712 185.601 41.24 182.401 41.24C178.529 41.24 175.473 40.088 173.233 37.784C170.993 35.48 169.873 32.504 169.873 28.856C169.873 24.984 170.929 21.944 173.041 19.736C175.153 17.528 177.793 16.424 180.961 16.424C184.129 16.424 186.641 17.384 188.497 19.304C190.353 21.224 191.281 24.024 191.281 27.704C191.281 28.6 191.169 29.752 190.945 31.16H175.681C176.097 32.92 176.961 34.264 178.273 35.192C179.617 36.12 181.281 36.584 183.265 36.584C185.825 36.584 187.985 35.944 189.745 34.664ZM208.383 36.392C210.111 36.392 211.519 35.736 212.607 34.424C213.695 33.08 214.239 31.208 214.239 28.808C214.239 26.408 213.695 24.552 212.607 23.24C211.519 21.896 210.143 21.224 208.479 21.224C206.815 21.224 205.375 21.848 204.159 23.096C202.943 24.344 202.335 26.2 202.335 28.664C202.335 31.128 202.927 33.032 204.111 34.376C205.295 35.72 206.719 36.392 208.383 36.392ZM202.335 16.664V20.408C204.063 17.688 206.543 16.328 209.775 16.328C212.943 16.328 215.455 17.464 217.311 19.736C219.199 22.008 220.143 25 220.143 28.712C220.143 32.36 219.199 35.384 217.311 37.784C215.455 40.152 212.927 41.336 209.727 41.336C206.463 41.336 203.999 40.008 202.335 37.352V50.168H196.575V16.664H202.335ZM230.835 7.064V20.792C232.147 17.848 234.627 16.376 238.275 16.376C240.643 16.376 242.547 17.128 243.987 18.632C245.459 20.104 246.195 22.248 246.195 25.064V41H240.435V26.072C240.435 24.536 240.035 23.336 239.235 22.472C238.467 21.608 237.459 21.176 236.211 21.176C234.835 21.176 233.587 21.704 232.467 22.76C231.379 23.816 230.835 25.544 230.835 27.944V41H225.075V7.064H230.835ZM264.648 30.536H261.672C260.168 30.536 259.016 30.856 258.216 31.496C257.416 32.104 257.016 32.888 257.016 33.848C257.016 35.896 258.2 36.92 260.568 36.92C261.848 36.92 262.84 36.552 263.544 35.816C264.28 35.048 264.648 34.056 264.648 32.84V30.536ZM252.84 23.24V17.912C254.664 16.792 257.288 16.232 260.712 16.232C267.304 16.232 270.6 19.304 270.6 25.448V41H264.888V38.072C263.768 40.152 261.656 41.192 258.552 41.192C256.248 41.192 254.408 40.52 253.032 39.176C251.688 37.832 251.016 36.136 251.016 34.088C251.016 31.784 251.88 29.976 253.608 28.664C255.336 27.352 257.832 26.696 261.096 26.696H264.648V25.208C264.648 23.864 264.296 22.84 263.592 22.136C262.888 21.432 261.688 21.08 259.992 21.08C257.4 21.08 255.016 21.8 252.84 23.24ZM282.304 16.664V20.84C283.68 17.864 286.176 16.376 289.792 16.376C292.224 16.376 294.144 17.112 295.552 18.584C296.96 20.056 297.664 22.136 297.664 24.824V41H291.904V26.024C291.904 24.424 291.52 23.224 290.752 22.424C289.984 21.592 288.944 21.176 287.632 21.176C286.128 21.176 284.864 21.768 283.84 22.952C282.816 24.104 282.304 25.768 282.304 27.944V41H276.544V16.664H282.304ZM303.925 41V16.664H309.685V41H303.925ZM303.349 9.368C303.349 8.408 303.685 7.592 304.357 6.92C305.029 6.248 305.845 5.912 306.805 5.912C307.765 5.912 308.581 6.248 309.253 6.92C309.925 7.592 310.261 8.408 310.261 9.368C310.261 10.36 309.925 11.192 309.253 11.864C308.581 12.536 307.765 12.872 306.805 12.872C305.845 12.872 305.029 12.536 304.357 11.864C303.685 11.192 303.349 10.36 303.349 9.368ZM330.793 26.84V26.12C330.729 24.552 330.297 23.304 329.497 22.376C328.729 21.416 327.593 20.936 326.089 20.936C324.713 20.936 323.513 21.448 322.489 22.472C321.497 23.464 320.857 24.92 320.569 26.84H330.793ZM334.729 34.664V39.656C333.033 40.712 330.585 41.24 327.385 41.24C323.513 41.24 320.457 40.088 318.217 37.784C315.977 35.48 314.857 32.504 314.857 28.856C314.857 24.984 315.913 21.944 318.025 19.736C320.137 17.528 322.777 16.424 325.945 16.424C329.113 16.424 331.625 17.384 333.481 19.304C335.337 21.224 336.265 24.024 336.265 27.704C336.265 28.6 336.153 29.752 335.929 31.16H320.665C321.081 32.92 321.945 34.264 323.257 35.192C324.601 36.12 326.265 36.584 328.249 36.584C330.809 36.584 332.969 35.944 334.729 34.664ZM151.946 65.992V71.896C149.514 70.488 146.826 69.784 143.882 69.784C140.938 69.784 138.474 70.792 136.49 72.808C134.538 74.792 133.562 77.464 133.562 80.824C133.562 84.184 134.538 86.856 136.49 88.84C138.474 90.824 141.05 91.816 144.218 91.816C147.258 91.816 149.85 91.016 151.994 89.416V95.464C150.01 96.744 147.226 97.384 143.642 97.384C138.842 97.384 134.874 95.88 131.738 92.872C128.634 89.832 127.082 85.816 127.082 80.824C127.082 75.928 128.618 71.944 131.69 68.872C134.794 65.768 138.778 64.216 143.642 64.216C147.194 64.216 149.962 64.808 151.946 65.992ZM169.82 86.536H166.844C165.34 86.536 164.188 86.856 163.388 87.496C162.588 88.104 162.188 88.888 162.188 89.848C162.188 91.896 163.372 92.92 165.74 92.92C167.02 92.92 168.012 92.552 168.716 91.816C169.452 91.048 169.82 90.056 169.82 88.84V86.536ZM158.012 79.24V73.912C159.836 72.792 162.46 72.232 165.884 72.232C172.476 72.232 175.772 75.304 175.772 81.448V97H170.06V94.072C168.94 96.152 166.828 97.192 163.724 97.192C161.42 97.192 159.58 96.52 158.204 95.176C156.86 93.832 156.188 92.136 156.188 90.088C156.188 87.784 157.052 85.976 158.78 84.664C160.508 83.352 163.004 82.696 166.268 82.696H169.82V81.208C169.82 79.864 169.468 78.84 168.764 78.136C168.06 77.432 166.86 77.08 165.164 77.08C162.572 77.08 160.188 77.8 158.012 79.24ZM187.476 72.664V76.984C188.596 73.976 190.644 72.472 193.62 72.472C194.292 72.472 194.836 72.52 195.252 72.616V78.184C194.516 77.864 193.7 77.704 192.804 77.704C191.236 77.704 189.956 78.344 188.964 79.624C187.972 80.904 187.476 82.504 187.476 84.424V97H181.668L181.716 72.664H187.476ZM198.878 97V63.064H204.638V97H198.878ZM225.651 73.432V78.52C224.051 77.56 222.051 77.08 219.651 77.08C218.659 77.08 217.875 77.304 217.299 77.752C216.755 78.168 216.483 78.712 216.483 79.384C216.483 79.64 216.515 79.88 216.579 80.104C216.675 80.328 216.819 80.552 217.011 80.776C217.235 80.968 217.443 81.144 217.635 81.304C217.827 81.464 218.099 81.64 218.451 81.832C218.803 81.992 219.107 82.136 219.363 82.264C219.619 82.392 219.971 82.552 220.419 82.744C220.867 82.936 221.219 83.096 221.475 83.224C223.171 84.056 224.515 84.984 225.507 86.008C226.499 87.032 226.995 88.36 226.995 89.992C226.995 92.264 226.179 94.04 224.547 95.32C222.915 96.6 220.739 97.24 218.019 97.24C215.011 97.24 212.579 96.744 210.723 95.752V90.472C212.867 91.912 215.187 92.632 217.683 92.632C218.739 92.632 219.555 92.44 220.131 92.056C220.739 91.64 221.043 91.08 221.043 90.376C221.043 89.96 220.947 89.592 220.755 89.272C220.563 88.92 220.195 88.584 219.651 88.264C219.107 87.944 218.675 87.72 218.355 87.592C218.067 87.432 217.475 87.16 216.579 86.776C216.483 86.744 216.403 86.712 216.339 86.68C216.307 86.648 216.243 86.616 216.147 86.584C216.051 86.552 215.971 86.52 215.907 86.488C212.355 84.888 210.579 82.584 210.579 79.576C210.579 77.336 211.427 75.576 213.123 74.296C214.819 73.016 216.947 72.376 219.507 72.376C221.971 72.376 224.019 72.728 225.651 73.432ZM242.007 97.384C238.327 97.384 235.447 96.232 233.367 93.928C231.319 91.624 230.295 88.68 230.295 85.096C230.295 81.384 231.367 78.328 233.511 75.928C235.655 73.496 238.487 72.28 242.007 72.28C245.751 72.28 248.647 73.464 250.695 75.832C252.743 78.168 253.767 81.144 253.767 84.76C253.767 88.44 252.727 91.464 250.647 93.832C248.599 96.2 245.719 97.384 242.007 97.384ZM242.007 76.984C240.183 76.984 238.775 77.736 237.783 79.24C236.823 80.744 236.343 82.632 236.343 84.904C236.343 87.144 236.839 89.016 237.831 90.52C238.823 92.024 240.231 92.776 242.055 92.776C243.943 92.776 245.367 92.04 246.327 90.568C247.287 89.096 247.767 87.224 247.767 84.952C247.767 82.616 247.303 80.712 246.375 79.24C245.447 77.736 243.991 76.984 242.007 76.984ZM264.492 72.664V76.84C265.868 73.864 268.364 72.376 271.98 72.376C274.412 72.376 276.332 73.112 277.74 74.584C279.148 76.056 279.852 78.136 279.852 80.824V97H274.092V82.024C274.092 80.424 273.708 79.224 272.94 78.424C272.172 77.592 271.132 77.176 269.82 77.176C268.316 77.176 267.052 77.768 266.028 78.952C265.004 80.104 264.492 81.768 264.492 83.944V97H258.732V72.664H264.492Z" fill="white"/>
<defs>
<linearGradient id="paint0_linear_2230_1432" x1="47.4243" y1="72.0711" x2="94.1775" y2="72.0711" gradientUnits="userSpaceOnUse">
<stop stop-color="#B4BED8"/>
<stop offset="1" stop-color="white"/>
</linearGradient>
<linearGradient id="paint1_linear_2230_1432" x1="49.9804" y1="79.2547" x2="84.6098" y2="42.4833" gradientUnits="userSpaceOnUse">
<stop stop-color="white"/>
<stop offset="1" stop-color="#B4BED8"/>
</linearGradient>
<linearGradient id="paint2_linear_2230_1432" x1="1.70654" y1="68.2385" x2="6.19065" y2="68.2385" gradientUnits="userSpaceOnUse">
<stop stop-color="white"/>
<stop offset="1" stop-color="#B4BED8"/>
</linearGradient>
<linearGradient id="paint3_linear_2230_1432" x1="80.0259" y1="15.3732" x2="84.51" y2="15.3732" gradientUnits="userSpaceOnUse">
<stop stop-color="white"/>
<stop offset="1" stop-color="#B4BED8"/>
</linearGradient>
<linearGradient id="paint4_linear_2230_1432" x1="0" y1="79.0409" x2="7.89717" y2="79.0409" gradientUnits="userSpaceOnUse">
<stop stop-color="white"/>
<stop offset="1" stop-color="#B4BED8"/>
</linearGradient>
<linearGradient id="paint5_linear_2230_1432" x1="86.0452" y1="23.5995" x2="93.9423" y2="23.5995" gradientUnits="userSpaceOnUse">
<stop stop-color="white"/>
<stop offset="1" stop-color="#B4BED8"/>
</linearGradient>
<linearGradient id="paint6_linear_2230_1432" x1="1.99219" y1="91.1871" x2="12.8454" y2="91.1871" gradientUnits="userSpaceOnUse">
<stop stop-color="white"/>
<stop offset="1" stop-color="#B4BED8"/>
</linearGradient>
<linearGradient id="paint7_linear_2230_1432" x1="91.7499" y1="40.4123" x2="99.4255" y2="32.7368" gradientUnits="userSpaceOnUse">
<stop stop-color="white"/>
<stop offset="1" stop-color="#B4BED8"/>
</linearGradient>
<linearGradient id="paint8_linear_2230_1432" x1="54.9785" y1="32.8437" x2="38.9134" y2="106.386" gradientUnits="userSpaceOnUse">
<stop stop-color="white"/>
<stop offset="1" stop-color="#B4BED8"/>
</linearGradient>
<linearGradient id="paint9_linear_2230_1432" x1="35.115" y1="89.0734" x2="94.9845" y2="89.0734" gradientUnits="userSpaceOnUse">
<stop stop-color="white"/>
<stop offset="1" stop-color="#B4BED8"/>
</linearGradient>
<linearGradient id="paint10_linear_2230_1432" x1="12.4952" y1="90.3219" x2="38.9134" y2="21.4202" gradientUnits="userSpaceOnUse">
<stop stop-color="white"/>
<stop offset="1" stop-color="#B4BED8"/>
</linearGradient>
<clipPath id="clip0_2230_1432">
<rect width="101.018" height="110" fill="white"/>
</clipPath>
</defs>
</svg>
