<svg width="464" height="208" viewBox="0 0 464 208" fill="none" xmlns="http://www.w3.org/2000/svg">
<path d="M5.784 15.856H10.344L10.128 15.136C9.584 13.408 9.136 11.96 8.784 10.792C8.448 9.608 8.24 8.864 8.16 8.56L8.064 8.08C7.92 8.88 7.232 11.24 6 15.16L5.784 15.856ZM12.264 22L11.112 18.328H4.992L3.84 22H0.672L6.144 5.824H10.056L15.528 22H12.264ZM20.6119 9.832V11.92C21.2999 10.432 22.5479 9.688 24.3559 9.688C25.5719 9.688 26.5319 10.056 27.2359 10.792C27.9399 11.528 28.2919 12.568 28.2919 13.912V22H25.4119V14.512C25.4119 13.712 25.2199 13.112 24.8359 12.712C24.4519 12.296 23.9319 12.088 23.2759 12.088C22.5239 12.088 21.8919 12.384 21.3799 12.976C20.8679 13.552 20.6119 14.384 20.6119 15.472V22H17.7319V9.832H20.6119ZM31.4222 22V9.832H34.3022V22H31.4222ZM31.1342 6.184C31.1342 5.704 31.3022 5.296 31.6382 4.96C31.9742 4.624 32.3822 4.456 32.8622 4.456C33.3422 4.456 33.7502 4.624 34.0862 4.96C34.4222 5.296 34.5902 5.704 34.5902 6.184C34.5902 6.68 34.4222 7.096 34.0862 7.432C33.7502 7.768 33.3422 7.936 32.8622 7.936C32.3822 7.936 31.9742 7.768 31.6382 7.432C31.3022 7.096 31.1342 6.68 31.1342 6.184ZM40.4166 9.832V11.752C41.1046 10.376 42.2486 9.688 43.8486 9.688C45.6246 9.688 46.7766 10.456 47.3046 11.992C47.6246 11.256 48.1046 10.688 48.7446 10.288C49.3846 9.888 50.1126 9.688 50.9286 9.688C52.1606 9.688 53.1126 10.064 53.7846 10.816C54.4566 11.552 54.7926 12.608 54.7926 13.984V22H51.8886V14.536C51.8886 12.904 51.2646 12.088 50.0166 12.088C49.3926 12.088 48.8326 12.36 48.3366 12.904C47.8566 13.448 47.6166 14.304 47.6166 15.472V22H44.7126V14.536C44.7126 12.904 44.0886 12.088 42.8406 12.088C42.2166 12.088 41.6566 12.36 41.1606 12.904C40.6646 13.448 40.4166 14.304 40.4166 15.472V22H37.5366V9.832H40.4166ZM63.9791 16.768H62.4911C61.7391 16.768 61.1631 16.928 60.7631 17.248C60.3631 17.552 60.1631 17.944 60.1631 18.424C60.1631 19.448 60.7551 19.96 61.9391 19.96C62.5791 19.96 63.0751 19.776 63.4271 19.408C63.7951 19.024 63.9791 18.528 63.9791 17.92V16.768ZM58.0751 13.12V10.456C58.9871 9.896 60.2991 9.616 62.0111 9.616C65.3071 9.616 66.9551 11.152 66.9551 14.224V22H64.0991V20.536C63.5391 21.576 62.4831 22.096 60.9311 22.096C59.7791 22.096 58.8591 21.76 58.1711 21.088C57.4991 20.416 57.1631 19.568 57.1631 18.544C57.1631 17.392 57.5951 16.488 58.4591 15.832C59.3231 15.176 60.5711 14.848 62.2031 14.848H63.9791V14.104C63.9791 13.432 63.8031 12.92 63.4511 12.568C63.0991 12.216 62.4991 12.04 61.6511 12.04C60.3551 12.04 59.1631 12.4 58.0751 13.12ZM70.0472 22V5.032H72.9272V22H70.0472ZM83.4336 10.216V12.76C82.6336 12.28 81.6336 12.04 80.4336 12.04C79.9376 12.04 79.5456 12.152 79.2576 12.376C78.9856 12.584 78.8496 12.856 78.8496 13.192C78.8496 13.32 78.8656 13.44 78.8976 13.552C78.9456 13.664 79.0176 13.776 79.1136 13.888C79.2256 13.984 79.3296 14.072 79.4256 14.152C79.5216 14.232 79.6576 14.32 79.8336 14.416C80.0096 14.496 80.1616 14.568 80.2896 14.632C80.4176 14.696 80.5936 14.776 80.8176 14.872C81.0416 14.968 81.2176 15.048 81.3456 15.112C82.1936 15.528 82.8656 15.992 83.3616 16.504C83.8576 17.016 84.1056 17.68 84.1056 18.496C84.1056 19.632 83.6976 20.52 82.8816 21.16C82.0656 21.8 80.9776 22.12 79.6176 22.12C78.1136 22.12 76.8976 21.872 75.9696 21.376V18.736C77.0416 19.456 78.2016 19.816 79.4496 19.816C79.9776 19.816 80.3856 19.72 80.6736 19.528C80.9776 19.32 81.1296 19.04 81.1296 18.688C81.1296 18.48 81.0816 18.296 80.9856 18.136C80.8896 17.96 80.7056 17.792 80.4336 17.632C80.1616 17.472 79.9456 17.36 79.7856 17.296C79.6416 17.216 79.3456 17.08 78.8976 16.888C78.8496 16.872 78.8096 16.856 78.7776 16.84C78.7616 16.824 78.7296 16.808 78.6816 16.792C78.6336 16.776 78.5936 16.76 78.5616 16.744C76.7856 15.944 75.8976 14.792 75.8976 13.288C75.8976 12.168 76.3216 11.288 77.1696 10.648C78.0176 10.008 79.0816 9.688 80.3616 9.688C81.5936 9.688 82.6176 9.864 83.4336 10.216ZM15.12 56.568V64.344H15.096L15.12 64.608C13.648 65.664 11.808 66.192 9.6 66.192C7.04 66.192 4.968 65.448 3.384 63.96C1.816 62.472 1.032 60.448 1.032 57.888C1.032 55.392 1.84 53.376 3.456 51.84C5.088 50.304 7.144 49.536 9.624 49.536C11.464 49.536 13.04 49.88 14.352 50.568V53.664C12.88 52.784 11.32 52.344 9.672 52.344C8.056 52.344 6.752 52.848 5.76 53.856C4.768 54.864 4.272 56.208 4.272 57.888C4.272 59.6 4.752 60.952 5.712 61.944C6.688 62.92 8.024 63.408 9.72 63.408C10.552 63.408 11.36 63.264 12.144 62.976V59.16H9.168V56.568H15.12ZM18.3206 66V53.832H21.2006V66H18.3206ZM18.0326 50.184C18.0326 49.704 18.2006 49.296 18.5366 48.96C18.8726 48.624 19.2806 48.456 19.7606 48.456C20.2406 48.456 20.6486 48.624 20.9846 48.96C21.3206 49.296 21.4886 49.704 21.4886 50.184C21.4886 50.68 21.3206 51.096 20.9846 51.432C20.6486 51.768 20.2406 51.936 19.7606 51.936C19.2806 51.936 18.8726 51.768 18.5366 51.432C18.2006 51.096 18.0326 50.68 18.0326 50.184ZM27.579 66L23.187 53.832H26.211L27.819 58.992C28.139 60 28.411 60.904 28.635 61.704C28.859 62.488 29.003 63.024 29.067 63.312L29.139 63.744C29.299 62.848 29.755 61.264 30.507 58.992L32.187 53.832H35.163L30.699 66H27.579ZM37.1409 66V53.832H40.0209V66H37.1409ZM36.8529 50.184C36.8529 49.704 37.0209 49.296 37.3569 48.96C37.6929 48.624 38.1009 48.456 38.5809 48.456C39.0609 48.456 39.4689 48.624 39.8049 48.96C40.1409 49.296 40.3089 49.704 40.3089 50.184C40.3089 50.68 40.1409 51.096 39.8049 51.432C39.4689 51.768 39.0609 51.936 38.5809 51.936C38.1009 51.936 37.6929 51.768 37.3569 51.432C37.0209 51.096 36.8529 50.68 36.8529 50.184ZM46.1353 53.832V55.92C46.8233 54.432 48.0713 53.688 49.8793 53.688C51.0953 53.688 52.0553 54.056 52.7593 54.792C53.4633 55.528 53.8153 56.568 53.8153 57.912V66H50.9353V58.512C50.9353 57.712 50.7433 57.112 50.3593 56.712C49.9753 56.296 49.4553 56.088 48.7993 56.088C48.0473 56.088 47.4153 56.384 46.9033 56.976C46.3913 57.552 46.1353 58.384 46.1353 59.472V66H43.2553V53.832H46.1353ZM61.9136 63.264C62.6976 63.264 63.3536 62.96 63.8816 62.352C64.4096 61.728 64.6736 60.92 64.6736 59.928C64.6736 58.632 64.4176 57.68 63.9056 57.072C63.3936 56.464 62.7456 56.16 61.9616 56.16C61.1296 56.16 60.4736 56.488 59.9936 57.144C59.5136 57.784 59.2736 58.656 59.2736 59.76C59.2736 60.896 59.5216 61.768 60.0176 62.376C60.5136 62.968 61.1456 63.264 61.9136 63.264ZM64.6736 53.832H67.5536V64.896C67.5536 66.816 66.9936 68.256 65.8736 69.216C64.7696 70.192 63.3616 70.68 61.6496 70.68C60.0496 70.68 58.6496 70.392 57.4496 69.816V66.888C58.5376 67.656 59.8416 68.04 61.3616 68.04C63.5696 68.04 64.6736 66.984 64.6736 64.872V63.816C63.9376 65.016 62.7856 65.616 61.2176 65.616C59.8576 65.616 58.6896 65.12 57.7136 64.128C56.7536 63.12 56.2736 61.664 56.2736 59.76C56.2736 58 56.7296 56.552 57.6416 55.416C58.5696 54.264 59.7856 53.688 61.2896 53.688C62.8096 53.688 63.9376 54.32 64.6736 55.584V53.832ZM79.6337 63.528H82.2257C84.1617 63.528 85.1297 62.792 85.1297 61.32C85.1297 59.816 84.1217 59.064 82.1057 59.064H79.6337V63.528ZM79.6337 52.296V56.64H81.4577C82.5457 56.64 83.3617 56.424 83.9057 55.992C84.4497 55.56 84.7217 55.008 84.7217 54.336C84.7217 53.712 84.4897 53.216 84.0257 52.848C83.5777 52.48 82.8897 52.296 81.9617 52.296H79.6337ZM76.6097 49.824H82.3457C84.0737 49.824 85.4177 50.232 86.3777 51.048C87.3377 51.864 87.8177 52.92 87.8177 54.216C87.8177 55.096 87.5777 55.864 87.0977 56.52C86.6177 57.16 86.0017 57.584 85.2497 57.792C86.1137 58 86.8257 58.424 87.3857 59.064C87.9457 59.688 88.2257 60.544 88.2257 61.632C88.2257 62.912 87.7777 63.96 86.8817 64.776C85.9857 65.592 84.7457 66 83.1617 66H76.6097V49.824ZM96.9088 60.768H95.4208C94.6688 60.768 94.0928 60.928 93.6928 61.248C93.2928 61.552 93.0928 61.944 93.0928 62.424C93.0928 63.448 93.6848 63.96 94.8688 63.96C95.5088 63.96 96.0048 63.776 96.3568 63.408C96.7248 63.024 96.9088 62.528 96.9088 61.92V60.768ZM91.0048 57.12V54.456C91.9168 53.896 93.2288 53.616 94.9408 53.616C98.2368 53.616 99.8848 55.152 99.8848 58.224V66H97.0288V64.536C96.4688 65.576 95.4128 66.096 93.8608 66.096C92.7088 66.096 91.7888 65.76 91.1008 65.088C90.4288 64.416 90.0928 63.568 90.0928 62.544C90.0928 61.392 90.5248 60.488 91.3888 59.832C92.2528 59.176 93.5008 58.848 95.1328 58.848H96.9088V58.104C96.9088 57.432 96.7328 56.92 96.3808 56.568C96.0288 56.216 95.4288 56.04 94.5808 56.04C93.2848 56.04 92.0928 56.4 91.0048 57.12ZM105.161 59.952C105.193 61.104 105.537 62.032 106.193 62.736C106.865 63.44 107.769 63.792 108.905 63.792C109.897 63.792 110.817 63.52 111.665 62.976V65.472C110.817 65.968 109.761 66.216 108.497 66.216C106.625 66.216 105.105 65.624 103.937 64.44C102.785 63.256 102.209 61.76 102.209 59.952C102.225 58.176 102.801 56.68 103.937 55.464C105.089 54.248 106.657 53.64 108.641 53.64C109.825 53.64 110.833 53.864 111.665 54.312V56.856C110.865 56.344 109.953 56.088 108.929 56.088C107.809 56.088 106.905 56.44 106.217 57.144C105.529 57.848 105.177 58.784 105.161 59.952ZM124.762 66H121.378L117.01 59.712V66H114.13V49.32H117.01V59.544L121.306 53.832H124.666L120.202 59.64L124.762 66ZM13.464 94.496V97.448C12.248 96.744 10.904 96.392 9.432 96.392C7.96 96.392 6.728 96.896 5.736 97.904C4.76 98.896 4.272 100.232 4.272 101.912C4.272 103.592 4.76 104.928 5.736 105.92C6.728 106.912 8.016 107.408 9.6 107.408C11.12 107.408 12.416 107.008 13.488 106.208V109.232C12.496 109.872 11.104 110.192 9.312 110.192C6.912 110.192 4.928 109.44 3.36 107.936C1.808 106.416 1.032 104.408 1.032 101.912C1.032 99.464 1.8 97.472 3.336 95.936C4.888 94.384 6.88 93.608 9.312 93.608C11.088 93.608 12.472 93.904 13.464 94.496ZM19.065 93.032V99.896C19.721 98.424 20.961 97.688 22.785 97.688C23.969 97.688 24.921 98.064 25.641 98.816C26.377 99.552 26.745 100.624 26.745 102.032V110H23.865V102.536C23.865 101.768 23.665 101.168 23.265 100.736C22.881 100.304 22.377 100.088 21.753 100.088C21.065 100.088 20.441 100.352 19.881 100.88C19.337 101.408 19.065 102.272 19.065 103.472V110H16.185V93.032H19.065ZM35.9713 104.768H34.4833C33.7313 104.768 33.1553 104.928 32.7553 105.248C32.3553 105.552 32.1553 105.944 32.1553 106.424C32.1553 107.448 32.7473 107.96 33.9313 107.96C34.5713 107.96 35.0673 107.776 35.4193 107.408C35.7873 107.024 35.9713 106.528 35.9713 105.92V104.768ZM30.0673 101.12V98.456C30.9793 97.896 32.2913 97.616 34.0033 97.616C37.2993 97.616 38.9473 99.152 38.9473 102.224V110H36.0913V108.536C35.5313 109.576 34.4753 110.096 32.9233 110.096C31.7713 110.096 30.8513 109.76 30.1633 109.088C29.4913 108.416 29.1553 107.568 29.1553 106.544C29.1553 105.392 29.5873 104.488 30.4513 103.832C31.3153 103.176 32.5633 102.848 34.1953 102.848H35.9713V102.104C35.9713 101.432 35.7953 100.92 35.4433 100.568C35.0913 100.216 34.4913 100.04 33.6433 100.04C32.3473 100.04 31.1553 100.4 30.0673 101.12ZM44.7994 97.832V99.992C45.3594 98.488 46.3834 97.736 47.8714 97.736C48.2074 97.736 48.4794 97.76 48.6874 97.808V100.592C48.3194 100.432 47.9114 100.352 47.4634 100.352C46.6794 100.352 46.0394 100.672 45.5434 101.312C45.0474 101.952 44.7994 102.752 44.7994 103.712V110H41.8954L41.9194 97.832H44.7994ZM50.5003 110V97.832H53.3803V110H50.5003ZM50.2123 94.184C50.2123 93.704 50.3803 93.296 50.7163 92.96C51.0523 92.624 51.4603 92.456 51.9403 92.456C52.4203 92.456 52.8283 92.624 53.1643 92.96C53.5003 93.296 53.6683 93.704 53.6683 94.184C53.6683 94.68 53.5003 95.096 53.1643 95.432C52.8283 95.768 52.4203 95.936 51.9403 95.936C51.4603 95.936 51.0523 95.768 50.7163 95.432C50.3803 95.096 50.2123 94.68 50.2123 94.184ZM60.1187 99.992V106.184C60.1187 106.696 60.2547 107.088 60.5267 107.36C60.7987 107.616 61.1747 107.744 61.6547 107.744C62.2627 107.744 62.8227 107.576 63.3347 107.24V109.712C62.7747 109.984 62.0547 110.12 61.1747 110.12C58.5507 110.12 57.2387 108.792 57.2387 106.136V99.992H55.4147V97.832H57.2387V94.904H60.1187V97.832H63.1427V99.992H60.1187ZM65.8284 110V97.832H68.7084V110H65.8284ZM65.5404 94.184C65.5404 93.704 65.7084 93.296 66.0444 92.96C66.3804 92.624 66.7884 92.456 67.2684 92.456C67.7484 92.456 68.1564 92.624 68.4924 92.96C68.8284 93.296 68.9964 93.704 68.9964 94.184C68.9964 94.68 68.8284 95.096 68.4924 95.432C68.1564 95.768 67.7484 95.936 67.2684 95.936C66.7884 95.936 66.3804 95.768 66.0444 95.432C65.7084 95.096 65.5404 94.68 65.5404 94.184ZM79.2628 102.92V102.56C79.2308 101.776 79.0148 101.152 78.6148 100.688C78.2308 100.208 77.6628 99.968 76.9108 99.968C76.2228 99.968 75.6228 100.224 75.1108 100.736C74.6148 101.232 74.2948 101.96 74.1508 102.92H79.2628ZM81.2308 106.832V109.328C80.3828 109.856 79.1588 110.12 77.5588 110.12C75.6228 110.12 74.0948 109.544 72.9748 108.392C71.8548 107.24 71.2948 105.752 71.2948 103.928C71.2948 101.992 71.8228 100.472 72.8788 99.368C73.9348 98.264 75.2548 97.712 76.8388 97.712C78.4228 97.712 79.6788 98.192 80.6068 99.152C81.5348 100.112 81.9988 101.512 81.9988 103.352C81.9988 103.8 81.9428 104.376 81.8308 105.08H74.1988C74.4068 105.96 74.8388 106.632 75.4948 107.096C76.1668 107.56 76.9988 107.792 77.9908 107.792C79.2708 107.792 80.3508 107.472 81.2308 106.832ZM91.9179 98.216V100.76C91.1179 100.28 90.1179 100.04 88.9179 100.04C88.4219 100.04 88.0299 100.152 87.7419 100.376C87.4699 100.584 87.3339 100.856 87.3339 101.192C87.3339 101.32 87.3499 101.44 87.3819 101.552C87.4299 101.664 87.5019 101.776 87.5979 101.888C87.7099 101.984 87.8139 102.072 87.9099 102.152C88.0059 102.232 88.1419 102.32 88.3179 102.416C88.4939 102.496 88.6459 102.568 88.7739 102.632C88.9019 102.696 89.0779 102.776 89.3019 102.872C89.5259 102.968 89.7019 103.048 89.8299 103.112C90.6779 103.528 91.3499 103.992 91.8459 104.504C92.3419 105.016 92.5899 105.68 92.5899 106.496C92.5899 107.632 92.1819 108.52 91.3659 109.16C90.5499 109.8 89.4619 110.12 88.1019 110.12C86.5979 110.12 85.3819 109.872 84.4539 109.376V106.736C85.5259 107.456 86.6859 107.816 87.9339 107.816C88.4619 107.816 88.8699 107.72 89.1579 107.528C89.4619 107.32 89.6139 107.04 89.6139 106.688C89.6139 106.48 89.5659 106.296 89.4699 106.136C89.3739 105.96 89.1899 105.792 88.9179 105.632C88.6459 105.472 88.4299 105.36 88.2699 105.296C88.1259 105.216 87.8299 105.08 87.3819 104.888C87.3339 104.872 87.2939 104.856 87.2619 104.84C87.2459 104.824 87.2139 104.808 87.1659 104.792C87.1179 104.776 87.0779 104.76 87.0459 104.744C85.2699 103.944 84.3819 102.792 84.3819 101.288C84.3819 100.168 84.8059 99.288 85.6539 98.648C86.5019 98.008 87.5659 97.688 88.8459 97.688C90.0779 97.688 91.1019 97.864 91.9179 98.216ZM10.68 138.496V141.424C9.48 140.704 8.2 140.344 6.84 140.344C6.088 140.344 5.496 140.512 5.064 140.848C4.648 141.184 4.44 141.616 4.44 142.144C4.44 142.672 4.664 143.112 5.112 143.464C5.576 143.8 6.264 144.176 7.176 144.592C7.816 144.88 8.336 145.136 8.736 145.36C9.136 145.568 9.568 145.864 10.032 146.248C10.512 146.632 10.864 147.096 11.088 147.64C11.328 148.168 11.448 148.776 11.448 149.464C11.448 150.904 10.928 152.056 9.888 152.92C8.864 153.768 7.512 154.192 5.832 154.192C4.008 154.192 2.496 153.848 1.296 153.16V150.064C2.672 151.056 4.176 151.552 5.808 151.552C6.544 151.552 7.136 151.376 7.584 151.024C8.032 150.656 8.256 150.168 8.256 149.56C8.256 149.272 8.2 149.016 8.088 148.792C7.976 148.568 7.744 148.344 7.392 148.12C7.056 147.896 6.792 147.736 6.6 147.64C6.424 147.544 6.048 147.368 5.472 147.112C5.312 147.032 5.192 146.976 5.112 146.944C4.52 146.672 4.04 146.432 3.672 146.224C3.304 146 2.904 145.704 2.472 145.336C2.04 144.968 1.712 144.528 1.488 144.016C1.28 143.504 1.176 142.92 1.176 142.264C1.176 140.888 1.68 139.784 2.688 138.952C3.712 138.12 5.064 137.704 6.744 137.704C8.264 137.704 9.576 137.968 10.68 138.496ZM19.1899 154.192C17.3499 154.192 15.9099 153.616 14.8699 152.464C13.8459 151.312 13.3339 149.84 13.3339 148.048C13.3339 146.192 13.8699 144.664 14.9419 143.464C16.0139 142.248 17.4299 141.64 19.1899 141.64C21.0619 141.64 22.5099 142.232 23.5339 143.416C24.5579 144.584 25.0699 146.072 25.0699 147.88C25.0699 149.72 24.5499 151.232 23.5099 152.416C22.4859 153.6 21.0459 154.192 19.1899 154.192ZM19.1899 143.992C18.2779 143.992 17.5739 144.368 17.0779 145.12C16.5979 145.872 16.3579 146.816 16.3579 147.952C16.3579 149.072 16.6059 150.008 17.1019 150.76C17.5979 151.512 18.3019 151.888 19.2139 151.888C20.1579 151.888 20.8699 151.52 21.3499 150.784C21.8299 150.048 22.0699 149.112 22.0699 147.976C22.0699 146.808 21.8379 145.856 21.3739 145.12C20.9099 144.368 20.1819 143.992 19.1899 143.992ZM29.8562 147.952C29.8882 149.104 30.2322 150.032 30.8882 150.736C31.5602 151.44 32.4642 151.792 33.6002 151.792C34.5922 151.792 35.5122 151.52 36.3602 150.976V153.472C35.5122 153.968 34.4562 154.216 33.1922 154.216C31.3202 154.216 29.8002 153.624 28.6322 152.44C27.4802 151.256 26.9042 149.76 26.9042 147.952C26.9202 146.176 27.4962 144.68 28.6322 143.464C29.7842 142.248 31.3522 141.64 33.3362 141.64C34.5202 141.64 35.5282 141.864 36.3602 142.312V144.856C35.5602 144.344 34.6482 144.088 33.6242 144.088C32.5042 144.088 31.6002 144.44 30.9122 145.144C30.2242 145.848 29.8722 146.784 29.8562 147.952ZM38.9456 154V141.832H41.8256V154H38.9456ZM38.6576 138.184C38.6576 137.704 38.8256 137.296 39.1616 136.96C39.4976 136.624 39.9056 136.456 40.3856 136.456C40.8656 136.456 41.2736 136.624 41.6096 136.96C41.9456 137.296 42.1136 137.704 42.1136 138.184C42.1136 138.68 41.9456 139.096 41.6096 139.432C41.2736 139.768 40.8656 139.936 40.3856 139.936C39.9056 139.936 39.4976 139.768 39.1616 139.432C38.8256 139.096 38.6576 138.68 38.6576 138.184ZM51.276 148.768H49.788C49.036 148.768 48.46 148.928 48.06 149.248C47.66 149.552 47.46 149.944 47.46 150.424C47.46 151.448 48.052 151.96 49.236 151.96C49.876 151.96 50.372 151.776 50.724 151.408C51.092 151.024 51.276 150.528 51.276 149.92V148.768ZM45.372 145.12V142.456C46.284 141.896 47.596 141.616 49.308 141.616C52.604 141.616 54.252 143.152 54.252 146.224V154H51.396V152.536C50.836 153.576 49.78 154.096 48.228 154.096C47.076 154.096 46.156 153.76 45.468 153.088C44.796 152.416 44.46 151.568 44.46 150.544C44.46 149.392 44.892 148.488 45.756 147.832C46.62 147.176 47.868 146.848 49.5 146.848H51.276V146.104C51.276 145.432 51.1 144.92 50.748 144.568C50.396 144.216 49.796 144.04 48.948 144.04C47.652 144.04 46.46 144.4 45.372 145.12ZM57.3441 154V137.032H60.2241V154H57.3441ZM72.5796 151.528H79.1796V154H69.5316V137.824H79.0836V140.296H72.5796V144.688H78.3636V147.136H72.5796V151.528ZM85.2353 154L80.8433 141.832H83.8673L85.4753 146.992C85.7953 148 86.0673 148.904 86.2913 149.704C86.5153 150.488 86.6593 151.024 86.7233 151.312L86.7953 151.744C86.9553 150.848 87.4113 149.264 88.1633 146.992L89.8433 141.832H92.8193L88.3553 154H85.2353ZM101.997 146.92V146.56C101.965 145.776 101.749 145.152 101.349 144.688C100.965 144.208 100.397 143.968 99.6452 143.968C98.9572 143.968 98.3572 144.224 97.8452 144.736C97.3492 145.232 97.0292 145.96 96.8852 146.92H101.997ZM103.965 150.832V153.328C103.117 153.856 101.893 154.12 100.293 154.12C98.3572 154.12 96.8292 153.544 95.7092 152.392C94.5892 151.24 94.0292 149.752 94.0292 147.928C94.0292 145.992 94.5572 144.472 95.6132 143.368C96.6692 142.264 97.9892 141.712 99.5732 141.712C101.157 141.712 102.413 142.192 103.341 143.152C104.269 144.112 104.733 145.512 104.733 147.352C104.733 147.8 104.677 148.376 104.565 149.08H96.9332C97.1412 149.96 97.5732 150.632 98.2292 151.096C98.9012 151.56 99.7332 151.792 100.725 151.792C102.005 151.792 103.085 151.472 103.965 150.832ZM110.26 141.832V143.92C110.948 142.432 112.196 141.688 114.004 141.688C115.22 141.688 116.18 142.056 116.884 142.792C117.588 143.528 117.94 144.568 117.94 145.912V154H115.06V146.512C115.06 145.712 114.868 145.112 114.484 144.712C114.1 144.296 113.58 144.088 112.924 144.088C112.172 144.088 111.54 144.384 111.028 144.976C110.516 145.552 110.26 146.384 110.26 147.472V154H107.38V141.832H110.26ZM124.455 143.992V150.184C124.455 150.696 124.591 151.088 124.863 151.36C125.135 151.616 125.511 151.744 125.991 151.744C126.599 151.744 127.159 151.576 127.671 151.24V153.712C127.111 153.984 126.391 154.12 125.511 154.12C122.887 154.12 121.575 152.792 121.575 150.136V143.992H119.751V141.832H121.575V138.904H124.455V141.832H127.479V143.992H124.455ZM137.316 142.216V144.76C136.516 144.28 135.516 144.04 134.316 144.04C133.82 144.04 133.428 144.152 133.14 144.376C132.868 144.584 132.732 144.856 132.732 145.192C132.732 145.32 132.748 145.44 132.78 145.552C132.828 145.664 132.9 145.776 132.996 145.888C133.108 145.984 133.212 146.072 133.308 146.152C133.404 146.232 133.54 146.32 133.716 146.416C133.892 146.496 134.044 146.568 134.172 146.632C134.3 146.696 134.476 146.776 134.7 146.872C134.924 146.968 135.1 147.048 135.228 147.112C136.076 147.528 136.748 147.992 137.244 148.504C137.74 149.016 137.988 149.68 137.988 150.496C137.988 151.632 137.58 152.52 136.764 153.16C135.948 153.8 134.86 154.12 133.5 154.12C131.996 154.12 130.78 153.872 129.852 153.376V150.736C130.924 151.456 132.084 151.816 133.332 151.816C133.86 151.816 134.268 151.72 134.556 151.528C134.86 151.32 135.012 151.04 135.012 150.688C135.012 150.48 134.964 150.296 134.868 150.136C134.772 149.96 134.588 149.792 134.316 149.632C134.044 149.472 133.828 149.36 133.668 149.296C133.524 149.216 133.228 149.08 132.78 148.888C132.732 148.872 132.692 148.856 132.66 148.84C132.644 148.824 132.612 148.808 132.564 148.792C132.516 148.776 132.476 148.76 132.444 148.744C130.668 147.944 129.78 146.792 129.78 145.288C129.78 144.168 130.204 143.288 131.052 142.648C131.9 142.008 132.964 141.688 134.244 141.688C135.476 141.688 136.5 141.864 137.316 142.216ZM1.032 189.864C1.032 187.352 1.72 185.336 3.096 183.816C4.488 182.296 6.344 181.536 8.664 181.536C11.016 181.536 12.88 182.296 14.256 183.816C15.632 185.32 16.32 187.336 16.32 189.864C16.32 192.36 15.624 194.368 14.232 195.888C12.856 197.408 11.008 198.168 8.688 198.168C6.368 198.168 4.512 197.408 3.12 195.888C1.728 194.368 1.032 192.36 1.032 189.864ZM4.272 189.864C4.272 191.56 4.672 192.904 5.472 193.896C6.272 194.888 7.344 195.384 8.688 195.384C10.048 195.384 11.12 194.896 11.904 193.92C12.688 192.928 13.08 191.576 13.08 189.864C13.08 188.152 12.688 186.8 11.904 185.808C11.12 184.816 10.04 184.32 8.664 184.32C7.304 184.32 6.232 184.816 5.448 185.808C4.664 186.8 4.272 188.152 4.272 189.864ZM26.4398 185.832H29.3438V198H26.4398V196.008C25.7998 197.416 24.5518 198.12 22.6958 198.12C21.4638 198.12 20.5038 197.768 19.8158 197.064C19.1278 196.36 18.7838 195.36 18.7838 194.064V185.832H21.6638V193.392C21.6638 194.16 21.8478 194.744 22.2158 195.144C22.5998 195.544 23.1198 195.744 23.7758 195.744C24.6078 195.744 25.2558 195.464 25.7198 194.904C26.1998 194.344 26.4398 193.496 26.4398 192.36V185.832ZM35.9781 187.992V194.184C35.9781 194.696 36.1141 195.088 36.3861 195.36C36.6581 195.616 37.0341 195.744 37.5141 195.744C38.1221 195.744 38.6821 195.576 39.1941 195.24V197.712C38.6341 197.984 37.9141 198.12 37.0341 198.12C34.4101 198.12 33.0981 196.792 33.0981 194.136V187.992H31.2741V185.832H33.0981V182.904H35.9781V185.832H39.0021V187.992H35.9781ZM46.7998 195.696C47.6638 195.696 48.3838 195.368 48.9598 194.712C49.5358 194.04 49.8238 193.072 49.8238 191.808C49.8238 190.576 49.5198 189.656 48.9118 189.048C48.3038 188.424 47.6078 188.112 46.8238 188.112C45.9918 188.112 45.2878 188.456 44.7118 189.144C44.1518 189.816 43.8718 190.76 43.8718 191.976C43.8718 193.08 44.1518 193.976 44.7118 194.664C45.2718 195.352 45.9678 195.696 46.7998 195.696ZM49.8238 181.032H52.7038V198H49.8238V196.104C48.9918 197.48 47.7598 198.168 46.1278 198.168C44.5278 198.168 43.2558 197.56 42.3118 196.344C41.3838 195.128 40.9198 193.656 40.9198 191.928C40.9198 190.008 41.4078 188.488 42.3838 187.368C43.3758 186.232 44.6398 185.664 46.1758 185.664C47.7598 185.664 48.9758 186.344 49.8238 187.704V181.032ZM61.0258 198.192C59.1858 198.192 57.7458 197.616 56.7058 196.464C55.6818 195.312 55.1698 193.84 55.1698 192.048C55.1698 190.192 55.7058 188.664 56.7778 187.464C57.8498 186.248 59.2658 185.64 61.0258 185.64C62.8978 185.64 64.3458 186.232 65.3698 187.416C66.3938 188.584 66.9058 190.072 66.9058 191.88C66.9058 193.72 66.3858 195.232 65.3458 196.416C64.3218 197.6 62.8818 198.192 61.0258 198.192ZM61.0258 187.992C60.1138 187.992 59.4098 188.368 58.9138 189.12C58.4338 189.872 58.1938 190.816 58.1938 191.952C58.1938 193.072 58.4418 194.008 58.9378 194.76C59.4338 195.512 60.1378 195.888 61.0498 195.888C61.9938 195.888 62.7058 195.52 63.1858 194.784C63.6658 194.048 63.9058 193.112 63.9058 191.976C63.9058 190.808 63.6738 189.856 63.2098 189.12C62.7458 188.368 62.0178 187.992 61.0258 187.992ZM74.5961 198.192C72.7561 198.192 71.3161 197.616 70.2761 196.464C69.2521 195.312 68.7401 193.84 68.7401 192.048C68.7401 190.192 69.2761 188.664 70.3481 187.464C71.4201 186.248 72.8361 185.64 74.5961 185.64C76.4681 185.64 77.9161 186.232 78.9401 187.416C79.9641 188.584 80.4761 190.072 80.4761 191.88C80.4761 193.72 79.9561 195.232 78.9161 196.416C77.8921 197.6 76.4521 198.192 74.5961 198.192ZM74.5961 187.992C73.6841 187.992 72.9801 188.368 72.4841 189.12C72.0041 189.872 71.7641 190.816 71.7641 191.952C71.7641 193.072 72.0121 194.008 72.5081 194.76C73.0041 195.512 73.7081 195.888 74.6201 195.888C75.5641 195.888 76.2761 195.52 76.7561 194.784C77.2361 194.048 77.4761 193.112 77.4761 191.976C77.4761 190.808 77.2441 189.856 76.7801 189.12C76.3161 188.368 75.5881 187.992 74.5961 187.992ZM85.8384 185.832V187.992C86.3984 186.488 87.4224 185.736 88.9104 185.736C89.2464 185.736 89.5184 185.76 89.7264 185.808V188.592C89.3584 188.432 88.9504 188.352 88.5024 188.352C87.7184 188.352 87.0784 188.672 86.5824 189.312C86.0864 189.952 85.8384 190.752 85.8384 191.712V198H82.9344L82.9584 185.832H85.8384ZM101.597 191.856H106.157L105.941 191.136C105.397 189.408 104.949 187.96 104.597 186.792C104.261 185.608 104.053 184.864 103.973 184.56L103.877 184.08C103.733 184.88 103.045 187.24 101.812 191.16L101.597 191.856ZM108.077 198L106.925 194.328H100.805L99.6525 198H96.4845L101.957 181.824H105.869L111.341 198H108.077ZM115.848 191.952C115.88 193.104 116.224 194.032 116.88 194.736C117.552 195.44 118.456 195.792 119.592 195.792C120.584 195.792 121.504 195.52 122.352 194.976V197.472C121.504 197.968 120.448 198.216 119.184 198.216C117.312 198.216 115.792 197.624 114.624 196.44C113.472 195.256 112.896 193.76 112.896 191.952C112.912 190.176 113.488 188.68 114.624 187.464C115.776 186.248 117.344 185.64 119.328 185.64C120.512 185.64 121.52 185.864 122.352 186.312V188.856C121.552 188.344 120.64 188.088 119.616 188.088C118.496 188.088 117.592 188.44 116.904 189.144C116.216 189.848 115.864 190.784 115.848 191.952ZM128.322 187.992V194.184C128.322 194.696 128.458 195.088 128.73 195.36C129.002 195.616 129.378 195.744 129.858 195.744C130.466 195.744 131.026 195.576 131.538 195.24V197.712C130.978 197.984 130.258 198.12 129.378 198.12C126.754 198.12 125.442 196.792 125.442 194.136V187.992H123.618V185.832H125.442V182.904H128.322V185.832H131.346V187.992H128.322ZM134.032 198V185.832H136.912V198H134.032ZM133.744 182.184C133.744 181.704 133.912 181.296 134.248 180.96C134.584 180.624 134.992 180.456 135.472 180.456C135.952 180.456 136.36 180.624 136.696 180.96C137.032 181.296 137.2 181.704 137.2 182.184C137.2 182.68 137.032 183.096 136.696 183.432C136.36 183.768 135.952 183.936 135.472 183.936C134.992 183.936 134.584 183.768 134.248 183.432C133.912 183.096 133.744 182.68 133.744 182.184ZM143.29 198L138.898 185.832H141.922L143.53 190.992C143.85 192 144.122 192.904 144.346 193.704C144.57 194.488 144.714 195.024 144.778 195.312L144.85 195.744C145.01 194.848 145.466 193.264 146.218 190.992L147.898 185.832H150.874L146.41 198H143.29ZM152.852 198V185.832H155.732V198H152.852ZM152.564 182.184C152.564 181.704 152.732 181.296 153.068 180.96C153.404 180.624 153.812 180.456 154.292 180.456C154.772 180.456 155.18 180.624 155.516 180.96C155.852 181.296 156.02 181.704 156.02 182.184C156.02 182.68 155.852 183.096 155.516 183.432C155.18 183.768 154.772 183.936 154.292 183.936C153.812 183.936 153.404 183.768 153.068 183.432C152.732 183.096 152.564 182.68 152.564 182.184ZM162.47 187.992V194.184C162.47 194.696 162.606 195.088 162.878 195.36C163.15 195.616 163.526 195.744 164.006 195.744C164.614 195.744 165.174 195.576 165.686 195.24V197.712C165.126 197.984 164.406 198.12 163.526 198.12C160.902 198.12 159.59 196.792 159.59 194.136V187.992H157.766V185.832H159.59V182.904H162.47V185.832H165.494V187.992H162.47ZM168.18 198V185.832H171.06V198H168.18ZM167.892 182.184C167.892 181.704 168.06 181.296 168.396 180.96C168.732 180.624 169.14 180.456 169.62 180.456C170.1 180.456 170.508 180.624 170.844 180.96C171.18 181.296 171.348 181.704 171.348 182.184C171.348 182.68 171.18 183.096 170.844 183.432C170.508 183.768 170.1 183.936 169.62 183.936C169.14 183.936 168.732 183.768 168.396 183.432C168.06 183.096 167.892 182.68 167.892 182.184ZM181.614 190.92V190.56C181.582 189.776 181.366 189.152 180.966 188.688C180.582 188.208 180.014 187.968 179.262 187.968C178.574 187.968 177.974 188.224 177.462 188.736C176.966 189.232 176.646 189.96 176.502 190.92H181.614ZM183.582 194.832V197.328C182.734 197.856 181.51 198.12 179.91 198.12C177.974 198.12 176.446 197.544 175.326 196.392C174.206 195.24 173.646 193.752 173.646 191.928C173.646 189.992 174.174 188.472 175.23 187.368C176.286 186.264 177.606 185.712 179.19 185.712C180.774 185.712 182.03 186.192 182.958 187.152C183.886 188.112 184.35 189.512 184.35 191.352C184.35 191.8 184.294 192.376 184.182 193.08H176.55C176.758 193.96 177.19 194.632 177.846 195.096C178.518 195.56 179.35 195.792 180.342 195.792C181.622 195.792 182.702 195.472 183.582 194.832ZM194.27 186.216V188.76C193.47 188.28 192.47 188.04 191.27 188.04C190.774 188.04 190.382 188.152 190.094 188.376C189.822 188.584 189.686 188.856 189.686 189.192C189.686 189.32 189.702 189.44 189.734 189.552C189.782 189.664 189.854 189.776 189.95 189.888C190.062 189.984 190.166 190.072 190.262 190.152C190.358 190.232 190.494 190.32 190.67 190.416C190.846 190.496 190.998 190.568 191.126 190.632C191.254 190.696 191.43 190.776 191.654 190.872C191.878 190.968 192.054 191.048 192.182 191.112C193.03 191.528 193.702 191.992 194.198 192.504C194.694 193.016 194.942 193.68 194.942 194.496C194.942 195.632 194.534 196.52 193.718 197.16C192.902 197.8 191.814 198.12 190.454 198.12C188.95 198.12 187.734 197.872 186.806 197.376V194.736C187.878 195.456 189.038 195.816 190.286 195.816C190.814 195.816 191.222 195.72 191.51 195.528C191.814 195.32 191.966 195.04 191.966 194.688C191.966 194.48 191.918 194.296 191.822 194.136C191.726 193.96 191.542 193.792 191.27 193.632C190.998 193.472 190.782 193.36 190.622 193.296C190.478 193.216 190.182 193.08 189.734 192.888C189.686 192.872 189.646 192.856 189.614 192.84C189.598 192.824 189.566 192.808 189.518 192.792C189.47 192.776 189.43 192.76 189.398 192.744C187.622 191.944 186.734 190.792 186.734 189.288C186.734 188.168 187.158 187.288 188.006 186.648C188.854 186.008 189.918 185.688 191.198 185.688C192.43 185.688 193.454 185.864 194.27 186.216Z" fill="#1A135A"/>
<circle cx="256" cy="14" r="12" fill="#A4CCD1"/>
<circle cx="305" cy="14" r="12" fill="#A4CCD1"/>
<circle cx="354" cy="14" r="12" fill="#A4CCD1"/>
<circle cx="403" cy="14" r="12" fill="#A4CCD1"/>
<circle cx="452" cy="14" r="12" fill="#A4CCD1"/>
<circle cx="256" cy="59" r="12" fill="#A4CCD1"/>
<circle cx="305" cy="59" r="12" fill="#A4CCD1"/>
<circle cx="354" cy="59" r="12" fill="#A4CCD1"/>
<circle cx="403" cy="59" r="12" fill="#A4CCD1"/>
<circle cx="452" cy="59" r="12" fill="#E8E7F0"/>
<circle cx="256" cy="104" r="12" fill="#A4CCD1"/>
<circle cx="305" cy="104" r="12" fill="#A4CCD1"/>
<circle cx="354" cy="104" r="12" fill="#A4CCD1"/>
<circle cx="403" cy="104" r="12" fill="#A4CCD1"/>
<circle cx="452" cy="104" r="12" fill="#E8E7F0"/>
<circle cx="256" cy="149" r="12" fill="#A4CCD1"/>
<circle cx="305" cy="149" r="12" fill="#A4CCD1"/>
<circle cx="354" cy="149" r="12" fill="#A4CCD1"/>
<circle cx="403" cy="149" r="12" fill="#A4CCD1"/>
<circle cx="452" cy="149" r="12" fill="#A4CCD1"/>
<circle cx="256" cy="194" r="12" fill="#A4CCD1"/>
<circle cx="305" cy="194" r="12" fill="#A4CCD1"/>
<circle cx="354" cy="194" r="12" fill="#A4CCD1"/>
<circle cx="403" cy="194" r="12" fill="#E8E7F0"/>
<circle cx="452" cy="194" r="12" fill="#E8E7F0"/>
</svg>
