<svg width="536" height="957" viewBox="0 0 536 957" fill="none" xmlns="http://www.w3.org/2000/svg">
<rect width="244" height="153" transform="translate(292 200)" fill="#D1EBEE"/>
<path d="M362.171 243.328V247.264C360.549 246.325 358.757 245.856 356.795 245.856C354.832 245.856 353.189 246.528 351.867 247.872C350.565 249.195 349.915 250.976 349.915 253.216C349.915 255.456 350.565 257.237 351.867 258.56C353.189 259.883 354.907 260.544 357.019 260.544C359.045 260.544 360.773 260.011 362.203 258.944V262.976C360.88 263.829 359.024 264.256 356.635 264.256C353.435 264.256 350.789 263.253 348.699 261.248C346.629 259.221 345.595 256.544 345.595 253.216C345.595 249.952 346.619 247.296 348.667 245.248C350.736 243.179 353.392 242.144 356.635 242.144C359.003 242.144 360.848 242.539 362.171 243.328ZM372.743 264.256C370.289 264.256 368.369 263.488 366.983 261.952C365.617 260.416 364.935 258.453 364.935 256.064C364.935 253.589 365.649 251.552 367.079 249.952C368.508 248.331 370.396 247.52 372.743 247.52C375.239 247.52 377.169 248.309 378.535 249.888C379.9 251.445 380.583 253.429 380.583 255.84C380.583 258.293 379.889 260.309 378.503 261.888C377.137 263.467 375.217 264.256 372.743 264.256ZM372.743 250.656C371.527 250.656 370.588 251.157 369.927 252.16C369.287 253.163 368.967 254.421 368.967 255.936C368.967 257.429 369.297 258.677 369.959 259.68C370.62 260.683 371.559 261.184 372.775 261.184C374.033 261.184 374.983 260.693 375.623 259.712C376.263 258.731 376.583 257.483 376.583 255.968C376.583 254.411 376.273 253.141 375.655 252.16C375.036 251.157 374.065 250.656 372.743 250.656ZM392.181 257.024H390.197C389.194 257.024 388.426 257.237 387.893 257.664C387.359 258.069 387.093 258.592 387.093 259.232C387.093 260.597 387.882 261.28 389.461 261.28C390.314 261.28 390.975 261.035 391.445 260.544C391.935 260.032 392.181 259.371 392.181 258.56V257.024ZM384.309 252.16V248.608C385.525 247.861 387.274 247.488 389.557 247.488C393.951 247.488 396.149 249.536 396.149 253.632V264H392.341V262.048C391.594 263.435 390.186 264.128 388.117 264.128C386.581 264.128 385.354 263.68 384.437 262.784C383.541 261.888 383.093 260.757 383.093 259.392C383.093 257.856 383.669 256.651 384.821 255.776C385.973 254.901 387.637 254.464 389.812 254.464H392.181V253.472C392.181 252.576 391.946 251.893 391.477 251.424C391.007 250.955 390.207 250.72 389.077 250.72C387.349 250.72 385.759 251.2 384.309 252.16ZM403.183 255.936C403.226 257.472 403.685 258.709 404.559 259.648C405.455 260.587 406.661 261.056 408.175 261.056C409.498 261.056 410.725 260.693 411.855 259.968V263.296C410.725 263.957 409.317 264.288 407.631 264.288C405.135 264.288 403.109 263.499 401.551 261.92C400.015 260.341 399.247 258.347 399.247 255.936C399.269 253.568 400.037 251.573 401.551 249.952C403.087 248.331 405.178 247.52 407.823 247.52C409.402 247.52 410.746 247.819 411.855 248.416V251.808C410.789 251.125 409.573 250.784 408.207 250.784C406.714 250.784 405.509 251.253 404.591 252.192C403.674 253.131 403.205 254.379 403.183 255.936ZM418.983 241.376V250.528C419.857 248.565 421.511 247.584 423.943 247.584C425.521 247.584 426.791 248.085 427.751 249.088C428.732 250.069 429.222 251.499 429.222 253.376V264H425.383V254.048C425.383 253.024 425.116 252.224 424.583 251.648C424.071 251.072 423.399 250.784 422.567 250.784C421.649 250.784 420.817 251.136 420.071 251.84C419.345 252.544 418.983 253.696 418.983 255.296V264H415.143V241.376H418.983ZM433.396 264V247.776H437.236V264H433.396ZM433.012 242.912C433.012 242.272 433.236 241.728 433.684 241.28C434.132 240.832 434.676 240.608 435.316 240.608C435.956 240.608 436.5 240.832 436.948 241.28C437.396 241.728 437.62 242.272 437.62 242.912C437.62 243.573 437.396 244.128 436.948 244.576C436.5 245.024 435.956 245.248 435.316 245.248C434.676 245.248 434.132 245.024 433.684 244.576C433.236 244.128 433.012 243.573 433.012 242.912ZM445.389 247.776V250.56C446.306 248.576 447.97 247.584 450.381 247.584C452.002 247.584 453.282 248.075 454.221 249.056C455.159 250.037 455.629 251.424 455.629 253.216V264H451.789V254.016C451.789 252.949 451.533 252.149 451.021 251.616C450.509 251.061 449.815 250.784 448.941 250.784C447.938 250.784 447.095 251.179 446.413 251.968C445.73 252.736 445.389 253.845 445.389 255.296V264H441.549V247.776H445.389ZM466.427 260.352C467.472 260.352 468.347 259.947 469.051 259.136C469.755 258.304 470.107 257.227 470.107 255.904C470.107 254.176 469.765 252.907 469.083 252.096C468.4 251.285 467.536 250.88 466.491 250.88C465.381 250.88 464.507 251.317 463.867 252.192C463.227 253.045 462.907 254.208 462.907 255.68C462.907 257.195 463.237 258.357 463.899 259.168C464.56 259.957 465.403 260.352 466.427 260.352ZM470.107 247.776H473.947V262.528C473.947 265.088 473.2 267.008 471.707 268.288C470.235 269.589 468.357 270.24 466.075 270.24C463.941 270.24 462.075 269.856 460.475 269.088V265.184C461.925 266.208 463.664 266.72 465.691 266.72C468.635 266.72 470.107 265.312 470.107 262.496V261.088C469.125 262.688 467.589 263.488 465.499 263.488C463.685 263.488 462.128 262.827 460.827 261.504C459.547 260.16 458.907 258.219 458.907 255.68C458.907 253.333 459.515 251.403 460.731 249.888C461.968 248.352 463.589 247.584 465.595 247.584C467.621 247.584 469.125 248.427 470.107 250.112V247.776ZM380.818 284.328V288.232C379.218 287.272 377.511 286.792 375.698 286.792C374.695 286.792 373.906 287.016 373.33 287.464C372.775 287.912 372.498 288.488 372.498 289.192C372.498 289.896 372.797 290.483 373.394 290.952C374.013 291.4 374.93 291.901 376.146 292.456C376.999 292.84 377.693 293.181 378.226 293.48C378.759 293.757 379.335 294.152 379.954 294.664C380.594 295.176 381.063 295.795 381.362 296.52C381.682 297.224 381.842 298.035 381.842 298.952C381.842 300.872 381.149 302.408 379.762 303.56C378.397 304.691 376.594 305.256 374.354 305.256C371.922 305.256 369.906 304.797 368.306 303.88V299.752C370.141 301.075 372.146 301.736 374.322 301.736C375.303 301.736 376.093 301.501 376.69 301.032C377.287 300.541 377.586 299.891 377.586 299.08C377.586 298.696 377.511 298.355 377.362 298.056C377.213 297.757 376.903 297.459 376.434 297.16C375.986 296.861 375.634 296.648 375.378 296.52C375.143 296.392 374.642 296.157 373.874 295.816C373.661 295.709 373.501 295.635 373.394 295.592C372.605 295.229 371.965 294.909 371.474 294.632C370.983 294.333 370.45 293.939 369.874 293.448C369.298 292.957 368.861 292.371 368.562 291.688C368.285 291.005 368.146 290.227 368.146 289.352C368.146 287.517 368.818 286.045 370.162 284.936C371.527 283.827 373.33 283.272 375.57 283.272C377.597 283.272 379.346 283.624 380.818 284.328ZM388.293 296.936C388.335 298.472 388.794 299.709 389.669 300.648C390.565 301.587 391.77 302.056 393.285 302.056C394.607 302.056 395.834 301.693 396.965 300.968V304.296C395.834 304.957 394.426 305.288 392.741 305.288C390.245 305.288 388.218 304.499 386.661 302.92C385.125 301.341 384.357 299.347 384.357 296.936C384.378 294.568 385.146 292.573 386.661 290.952C388.197 289.331 390.287 288.52 392.933 288.52C394.511 288.52 395.855 288.819 396.965 289.416V292.808C395.898 292.125 394.682 291.784 393.317 291.784C391.823 291.784 390.618 292.253 389.701 293.192C388.783 294.131 388.314 295.379 388.293 296.936ZM404.092 288.776V291.656C404.839 289.651 406.204 288.648 408.188 288.648C408.636 288.648 408.999 288.68 409.276 288.744V292.456C408.785 292.243 408.241 292.136 407.644 292.136C406.599 292.136 405.745 292.563 405.084 293.416C404.423 294.269 404.092 295.336 404.092 296.616V305H400.22L400.252 288.776H404.092ZM421.293 295.56V295.08C421.25 294.035 420.962 293.203 420.429 292.584C419.917 291.944 419.16 291.624 418.157 291.624C417.24 291.624 416.44 291.965 415.757 292.648C415.096 293.309 414.669 294.28 414.477 295.56H421.293ZM423.917 300.776V304.104C422.786 304.808 421.154 305.16 419.021 305.16C416.44 305.16 414.402 304.392 412.909 302.856C411.416 301.32 410.669 299.336 410.669 296.904C410.669 294.323 411.373 292.296 412.781 290.824C414.189 289.352 415.949 288.616 418.061 288.616C420.173 288.616 421.848 289.256 423.085 290.536C424.322 291.816 424.941 293.683 424.941 296.136C424.941 296.733 424.866 297.501 424.717 298.44H414.541C414.818 299.613 415.394 300.509 416.269 301.128C417.165 301.747 418.274 302.056 419.597 302.056C421.304 302.056 422.744 301.629 423.917 300.776ZM438.231 295.56V295.08C438.188 294.035 437.9 293.203 437.367 292.584C436.855 291.944 436.097 291.624 435.095 291.624C434.177 291.624 433.377 291.965 432.695 292.648C432.033 293.309 431.607 294.28 431.415 295.56H438.231ZM440.855 300.776V304.104C439.724 304.808 438.092 305.16 435.959 305.16C433.377 305.16 431.34 304.392 429.847 302.856C428.353 301.32 427.607 299.336 427.607 296.904C427.607 294.323 428.311 292.296 429.719 290.824C431.127 289.352 432.887 288.616 434.999 288.616C437.111 288.616 438.785 289.256 440.023 290.536C441.26 291.816 441.879 293.683 441.879 296.136C441.879 296.733 441.804 297.501 441.655 298.44H431.479C431.756 299.613 432.332 300.509 433.207 301.128C434.103 301.747 435.212 302.056 436.535 302.056C438.241 302.056 439.681 301.629 440.855 300.776ZM449.248 288.776V291.56C450.165 289.576 451.829 288.584 454.24 288.584C455.861 288.584 457.141 289.075 458.08 290.056C459.019 291.037 459.488 292.424 459.488 294.216V305H455.648V295.016C455.648 293.949 455.392 293.149 454.88 292.616C454.368 292.061 453.675 291.784 452.8 291.784C451.797 291.784 450.955 292.179 450.272 292.968C449.589 293.736 449.248 294.845 449.248 296.296V305H445.408V288.776H449.248Z" fill="#1A135A"/>
<rect width="244" height="153" transform="translate(0 200)" fill="#E0F0D4"/>
<path d="M95.4173 242.432H99.4813V264H95.4173V254.944H86.5533V264H82.5213V242.432H86.5533V251.456H95.4173V242.432ZM110.743 264.256C108.289 264.256 106.369 263.488 104.983 261.952C103.617 260.416 102.935 258.453 102.935 256.064C102.935 253.589 103.649 251.552 105.079 249.952C106.508 248.331 108.396 247.52 110.743 247.52C113.239 247.52 115.169 248.309 116.535 249.888C117.9 251.445 118.583 253.429 118.583 255.84C118.583 258.293 117.889 260.309 116.503 261.888C115.137 263.467 113.217 264.256 110.743 264.256ZM110.743 250.656C109.527 250.656 108.588 251.157 107.927 252.16C107.287 253.163 106.967 254.421 106.967 255.936C106.967 257.429 107.297 258.677 107.959 259.68C108.62 260.683 109.559 261.184 110.775 261.184C112.033 261.184 112.983 260.693 113.623 259.712C114.263 258.731 114.583 257.483 114.583 255.968C114.583 254.411 114.273 253.141 113.655 252.16C113.036 251.157 112.065 250.656 110.743 250.656ZM125.733 247.776V250.336C126.65 248.501 128.175 247.584 130.309 247.584C132.677 247.584 134.213 248.608 134.917 250.656C135.343 249.675 135.983 248.917 136.837 248.384C137.69 247.851 138.661 247.584 139.749 247.584C141.391 247.584 142.661 248.085 143.557 249.088C144.453 250.069 144.901 251.477 144.901 253.312V264H141.029V254.048C141.029 251.872 140.197 250.784 138.533 250.784C137.701 250.784 136.954 251.147 136.293 251.872C135.653 252.597 135.333 253.739 135.333 255.296V264H131.461V254.048C131.461 251.872 130.629 250.784 128.965 250.784C128.133 250.784 127.386 251.147 126.725 251.872C126.063 252.597 125.733 253.739 125.733 255.296V264H121.893V247.776H125.733ZM158.621 254.56V254.08C158.579 253.035 158.291 252.203 157.757 251.584C157.245 250.944 156.488 250.624 155.485 250.624C154.568 250.624 153.768 250.965 153.085 251.648C152.424 252.309 151.997 253.28 151.805 254.56H158.621ZM161.245 259.776V263.104C160.115 263.808 158.483 264.16 156.349 264.16C153.768 264.16 151.731 263.392 150.237 261.856C148.744 260.32 147.997 258.336 147.997 255.904C147.997 253.323 148.701 251.296 150.109 249.824C151.517 248.352 153.277 247.616 155.389 247.616C157.501 247.616 159.176 248.256 160.413 249.536C161.651 250.816 162.269 252.683 162.269 255.136C162.269 255.733 162.195 256.501 162.045 257.44H151.869C152.147 258.613 152.723 259.509 153.597 260.128C154.493 260.747 155.603 261.056 156.925 261.056C158.632 261.056 160.072 260.629 161.245 259.776ZM61.6643 311.272H57.5043C54.0483 306.941 52.3203 302.077 52.3203 296.68C52.3203 291.219 53.9843 286.451 57.3123 282.376H61.3763C59.7763 284.403 58.5389 286.717 57.6643 289.32C56.8109 291.923 56.3843 294.419 56.3843 296.808C56.3843 299.133 56.8323 301.597 57.7283 304.2C58.6243 306.781 59.9363 309.139 61.6643 311.272ZM67.5243 301.64H70.3723C72.6336 301.64 74.3509 300.947 75.5243 299.56C76.6976 298.152 77.2843 296.275 77.2843 293.928C77.2843 291.859 76.6549 290.163 75.3963 288.84C74.1589 287.496 72.4629 286.824 70.3083 286.824H67.5243V301.64ZM63.3963 283.432H70.4363C73.6576 283.432 76.2923 284.424 78.3403 286.408C80.3883 288.392 81.4123 290.899 81.4123 293.928C81.4123 297.235 80.4203 299.912 78.4363 301.96C76.4523 303.987 73.7856 305 70.4363 305H63.3963V283.432ZM84.99 305V288.776H88.83V305H84.99ZM84.606 283.912C84.606 283.272 84.83 282.728 85.278 282.28C85.726 281.832 86.27 281.608 86.91 281.608C87.55 281.608 88.094 281.832 88.542 282.28C88.99 282.728 89.214 283.272 89.214 283.912C89.214 284.573 88.99 285.128 88.542 285.576C88.094 286.024 87.55 286.248 86.91 286.248C86.27 286.248 85.726 286.024 85.278 285.576C84.83 285.128 84.606 284.573 84.606 283.912ZM102.839 289.288V292.68C101.772 292.04 100.439 291.72 98.8385 291.72C98.1772 291.72 97.6545 291.869 97.2705 292.168C96.9078 292.445 96.7265 292.808 96.7265 293.256C96.7265 293.427 96.7478 293.587 96.7905 293.736C96.8545 293.885 96.9505 294.035 97.0785 294.184C97.2278 294.312 97.3665 294.429 97.4945 294.536C97.6225 294.643 97.8038 294.76 98.0385 294.888C98.2732 294.995 98.4758 295.091 98.6465 295.176C98.8172 295.261 99.0518 295.368 99.3505 295.496C99.6492 295.624 99.8838 295.731 100.055 295.816C101.185 296.371 102.081 296.989 102.743 297.672C103.404 298.355 103.735 299.24 103.735 300.328C103.735 301.843 103.191 303.027 102.103 303.88C101.015 304.733 99.5638 305.16 97.7505 305.16C95.7452 305.16 94.1238 304.829 92.8865 304.168V300.648C94.3158 301.608 95.8625 302.088 97.5265 302.088C98.2305 302.088 98.7745 301.96 99.1585 301.704C99.5638 301.427 99.7665 301.053 99.7665 300.584C99.7665 300.307 99.7025 300.061 99.5745 299.848C99.4465 299.613 99.2012 299.389 98.8385 299.176C98.4758 298.963 98.1878 298.813 97.9745 298.728C97.7825 298.621 97.3878 298.44 96.7905 298.184C96.7265 298.163 96.6732 298.141 96.6305 298.12C96.6092 298.099 96.5665 298.077 96.5025 298.056C96.4385 298.035 96.3852 298.013 96.3425 297.992C93.9745 296.925 92.7905 295.389 92.7905 293.384C92.7905 291.891 93.3558 290.717 94.4865 289.864C95.6172 289.011 97.0358 288.584 98.7425 288.584C100.385 288.584 101.751 288.819 102.839 289.288ZM109.871 296.936C109.913 298.472 110.372 299.709 111.247 300.648C112.143 301.587 113.348 302.056 114.863 302.056C116.185 302.056 117.412 301.693 118.543 300.968V304.296C117.412 304.957 116.004 305.288 114.319 305.288C111.823 305.288 109.796 304.499 108.239 302.92C106.703 301.341 105.935 299.347 105.935 296.936C105.956 294.568 106.724 292.573 108.239 290.952C109.775 289.331 111.865 288.52 114.511 288.52C116.089 288.52 117.433 288.819 118.543 289.416V292.808C117.476 292.125 116.26 291.784 114.895 291.784C113.401 291.784 112.196 292.253 111.279 293.192C110.361 294.131 109.892 295.379 109.871 296.936ZM128.774 305.256C126.321 305.256 124.401 304.488 123.014 302.952C121.649 301.416 120.966 299.453 120.966 297.064C120.966 294.589 121.681 292.552 123.11 290.952C124.539 289.331 126.427 288.52 128.774 288.52C131.27 288.52 133.201 289.309 134.566 290.888C135.931 292.445 136.614 294.429 136.614 296.84C136.614 299.293 135.921 301.309 134.534 302.888C133.169 304.467 131.249 305.256 128.774 305.256ZM128.774 291.656C127.558 291.656 126.619 292.157 125.958 293.16C125.318 294.163 124.998 295.421 124.998 296.936C124.998 298.429 125.329 299.677 125.99 300.68C126.651 301.683 127.59 302.184 128.806 302.184C130.065 302.184 131.014 301.693 131.654 300.712C132.294 299.731 132.614 298.483 132.614 296.968C132.614 295.411 132.305 294.141 131.686 293.16C131.067 292.157 130.097 291.656 128.774 291.656ZM144.116 305L138.26 288.776H142.292L144.436 295.656C144.862 297 145.225 298.205 145.524 299.272C145.822 300.317 146.014 301.032 146.1 301.416L146.196 301.992C146.409 300.797 147.017 298.685 148.02 295.656L150.26 288.776H154.228L148.276 305H144.116ZM166.465 295.56V295.08C166.422 294.035 166.134 293.203 165.601 292.584C165.089 291.944 164.332 291.624 163.329 291.624C162.412 291.624 161.612 291.965 160.929 292.648C160.268 293.309 159.841 294.28 159.649 295.56H166.465ZM169.089 300.776V304.104C167.958 304.808 166.326 305.16 164.193 305.16C161.612 305.16 159.574 304.392 158.081 302.856C156.588 301.32 155.841 299.336 155.841 296.904C155.841 294.323 156.545 292.296 157.953 290.824C159.361 289.352 161.121 288.616 163.233 288.616C165.345 288.616 167.02 289.256 168.257 290.536C169.494 291.816 170.113 293.683 170.113 296.136C170.113 296.733 170.038 297.501 169.889 298.44H159.713C159.99 299.613 160.566 300.509 161.441 301.128C162.337 301.747 163.446 302.056 164.769 302.056C166.476 302.056 167.916 301.629 169.089 300.776ZM177.483 288.776V291.656C178.229 289.651 179.595 288.648 181.579 288.648C182.027 288.648 182.389 288.68 182.667 288.744V292.456C182.176 292.243 181.632 292.136 181.035 292.136C179.989 292.136 179.136 292.563 178.475 293.416C177.813 294.269 177.483 295.336 177.483 296.616V305H173.611L173.643 288.776H177.483ZM186.684 282.376C190.012 286.493 191.676 291.261 191.676 296.68C191.676 302.056 189.937 306.92 186.46 311.272H182.332C184.038 309.139 185.34 306.781 186.236 304.2C187.132 301.597 187.58 299.133 187.58 296.808C187.58 294.419 187.153 291.923 186.3 289.32C185.446 286.717 184.22 284.403 182.62 282.376H186.684Z" fill="#1A135A"/>
<rect width="244" height="153" transform="translate(0 401)" fill="#F3EEE5"/>
<path d="M48.1775 465.328V469.232C46.5775 468.272 44.8708 467.792 43.0575 467.792C42.0548 467.792 41.2655 468.016 40.6895 468.464C40.1348 468.912 39.8575 469.488 39.8575 470.192C39.8575 470.896 40.1562 471.483 40.7535 471.952C41.3722 472.4 42.2895 472.901 43.5055 473.456C44.3588 473.84 45.0522 474.181 45.5855 474.48C46.1188 474.757 46.6948 475.152 47.3135 475.664C47.9535 476.176 48.4228 476.795 48.7215 477.52C49.0415 478.224 49.2015 479.035 49.2015 479.952C49.2015 481.872 48.5082 483.408 47.1215 484.56C45.7562 485.691 43.9535 486.256 41.7135 486.256C39.2815 486.256 37.2655 485.797 35.6655 484.88V480.752C37.5002 482.075 39.5055 482.736 41.6815 482.736C42.6628 482.736 43.4522 482.501 44.0495 482.032C44.6468 481.541 44.9455 480.891 44.9455 480.08C44.9455 479.696 44.8708 479.355 44.7215 479.056C44.5722 478.757 44.2628 478.459 43.7935 478.16C43.3455 477.861 42.9935 477.648 42.7375 477.52C42.5028 477.392 42.0015 477.157 41.2335 476.816C41.0202 476.709 40.8602 476.635 40.7535 476.592C39.9642 476.229 39.3242 475.909 38.8335 475.632C38.3428 475.333 37.8095 474.939 37.2335 474.448C36.6575 473.957 36.2202 473.371 35.9215 472.688C35.6442 472.005 35.5055 471.227 35.5055 470.352C35.5055 468.517 36.1775 467.045 37.5215 465.936C38.8868 464.827 40.6895 464.272 42.9295 464.272C44.9562 464.272 46.7055 464.624 48.1775 465.328ZM59.524 486.256C57.0707 486.256 55.1507 485.488 53.764 483.952C52.3987 482.416 51.716 480.453 51.716 478.064C51.716 475.589 52.4307 473.552 53.86 471.952C55.2893 470.331 57.1773 469.52 59.524 469.52C62.02 469.52 63.9507 470.309 65.316 471.888C66.6813 473.445 67.364 475.429 67.364 477.84C67.364 480.293 66.6707 482.309 65.284 483.888C63.9187 485.467 61.9987 486.256 59.524 486.256ZM59.524 472.656C58.308 472.656 57.3693 473.157 56.708 474.16C56.068 475.163 55.748 476.421 55.748 477.936C55.748 479.429 56.0787 480.677 56.74 481.68C57.4013 482.683 58.34 483.184 59.556 483.184C60.8147 483.184 61.764 482.693 62.404 481.712C63.044 480.731 63.364 479.483 63.364 477.968C63.364 476.411 63.0547 475.141 62.436 474.16C61.8173 473.157 60.8467 472.656 59.524 472.656ZM74.5138 469.776V472.56C75.4311 470.576 77.0951 469.584 79.5058 469.584C81.1271 469.584 82.4071 470.075 83.3458 471.056C84.2844 472.037 84.7537 473.424 84.7537 475.216V486H80.9138V476.016C80.9138 474.949 80.6578 474.149 80.1458 473.616C79.6338 473.061 78.9404 472.784 78.0658 472.784C77.0631 472.784 76.2204 473.179 75.5378 473.968C74.8551 474.736 74.5138 475.845 74.5138 477.296V486H70.6738V469.776H74.5138ZM95.5515 482.352C96.5968 482.352 97.4715 481.947 98.1755 481.136C98.8795 480.304 99.2315 479.227 99.2315 477.904C99.2315 476.176 98.8902 474.907 98.2075 474.096C97.5248 473.285 96.6608 472.88 95.6155 472.88C94.5062 472.88 93.6315 473.317 92.9915 474.192C92.3515 475.045 92.0315 476.208 92.0315 477.68C92.0315 479.195 92.3622 480.357 93.0235 481.168C93.6848 481.957 94.5275 482.352 95.5515 482.352ZM99.2315 469.776H103.072V484.528C103.072 487.088 102.325 489.008 100.832 490.288C99.3595 491.589 97.4822 492.24 95.1995 492.24C93.0662 492.24 91.1995 491.856 89.5995 491.088V487.184C91.0502 488.208 92.7888 488.72 94.8155 488.72C97.7595 488.72 99.2315 487.312 99.2315 484.496V483.088C98.2502 484.688 96.7142 485.488 94.6235 485.488C92.8102 485.488 91.2528 484.827 89.9515 483.504C88.6715 482.16 88.0315 480.219 88.0315 477.68C88.0315 475.333 88.6395 473.403 89.8555 471.888C91.0928 470.352 92.7142 469.584 94.7195 469.584C96.7462 469.584 98.2502 470.427 99.2315 472.112V469.776ZM119.274 482.64H122.122C124.384 482.64 126.101 481.947 127.274 480.56C128.448 479.152 129.034 477.275 129.034 474.928C129.034 472.859 128.405 471.163 127.146 469.84C125.909 468.496 124.213 467.824 122.058 467.824H119.274V482.64ZM115.146 464.432H122.186C125.408 464.432 128.042 465.424 130.09 467.408C132.138 469.392 133.162 471.899 133.162 474.928C133.162 478.235 132.17 480.912 130.186 482.96C128.202 484.987 125.536 486 122.186 486H115.146V464.432ZM146.34 476.56V476.08C146.297 475.035 146.009 474.203 145.476 473.584C144.964 472.944 144.207 472.624 143.204 472.624C142.287 472.624 141.487 472.965 140.804 473.648C140.143 474.309 139.716 475.28 139.524 476.56H146.34ZM148.964 481.776V485.104C147.833 485.808 146.201 486.16 144.068 486.16C141.487 486.16 139.449 485.392 137.956 483.856C136.463 482.32 135.716 480.336 135.716 477.904C135.716 475.323 136.42 473.296 137.828 471.824C139.236 470.352 140.996 469.616 143.108 469.616C145.22 469.616 146.895 470.256 148.132 471.536C149.369 472.816 149.988 474.683 149.988 477.136C149.988 477.733 149.913 478.501 149.764 479.44H139.588C139.865 480.613 140.441 481.509 141.316 482.128C142.212 482.747 143.321 483.056 144.644 483.056C146.351 483.056 147.791 482.629 148.964 481.776ZM158.19 472.656V480.912C158.19 481.595 158.371 482.117 158.734 482.48C159.096 482.821 159.598 482.992 160.238 482.992C161.048 482.992 161.795 482.768 162.478 482.32V485.616C161.731 485.979 160.771 486.16 159.598 486.16C156.099 486.16 154.35 484.389 154.35 480.848V472.656H151.918V469.776H154.35V465.872H158.19V469.776H162.222V472.656H158.19ZM173.931 479.024H171.947C170.944 479.024 170.176 479.237 169.643 479.664C169.109 480.069 168.843 480.592 168.843 481.232C168.843 482.597 169.632 483.28 171.211 483.28C172.064 483.28 172.725 483.035 173.195 482.544C173.685 482.032 173.931 481.371 173.931 480.56V479.024ZM166.059 474.16V470.608C167.275 469.861 169.024 469.488 171.307 469.488C175.701 469.488 177.899 471.536 177.899 475.632V486H174.091V484.048C173.344 485.435 171.936 486.128 169.867 486.128C168.331 486.128 167.104 485.68 166.187 484.784C165.291 483.888 164.843 482.757 164.843 481.392C164.843 479.856 165.419 478.651 166.571 477.776C167.723 476.901 169.387 476.464 171.562 476.464H173.931V475.472C173.931 474.576 173.696 473.893 173.227 473.424C172.757 472.955 171.957 472.72 170.827 472.72C169.099 472.72 167.509 473.2 166.059 474.16ZM182.021 486V469.776H185.861V486H182.021ZM181.637 464.912C181.637 464.272 181.861 463.728 182.309 463.28C182.757 462.832 183.301 462.608 183.941 462.608C184.581 462.608 185.125 462.832 185.573 463.28C186.021 463.728 186.245 464.272 186.245 464.912C186.245 465.573 186.021 466.128 185.573 466.576C185.125 467.024 184.581 467.248 183.941 467.248C183.301 467.248 182.757 467.024 182.309 466.576C181.861 466.128 181.637 465.573 181.637 464.912ZM190.334 486V463.376H194.174V486H190.334ZM208.182 470.288V473.68C207.116 473.04 205.782 472.72 204.182 472.72C203.521 472.72 202.998 472.869 202.614 473.168C202.252 473.445 202.07 473.808 202.07 474.256C202.07 474.427 202.092 474.587 202.134 474.736C202.198 474.885 202.294 475.035 202.422 475.184C202.572 475.312 202.71 475.429 202.838 475.536C202.966 475.643 203.148 475.76 203.382 475.888C203.617 475.995 203.82 476.091 203.99 476.176C204.161 476.261 204.396 476.368 204.694 476.496C204.993 476.624 205.228 476.731 205.398 476.816C206.529 477.371 207.425 477.989 208.086 478.672C208.748 479.355 209.078 480.24 209.078 481.328C209.078 482.843 208.534 484.027 207.446 484.88C206.358 485.733 204.908 486.16 203.094 486.16C201.089 486.16 199.468 485.829 198.23 485.168V481.648C199.66 482.608 201.206 483.088 202.87 483.088C203.574 483.088 204.118 482.96 204.502 482.704C204.908 482.427 205.11 482.053 205.11 481.584C205.11 481.307 205.046 481.061 204.918 480.848C204.79 480.613 204.545 480.389 204.182 480.176C203.82 479.963 203.532 479.813 203.318 479.728C203.126 479.621 202.732 479.44 202.134 479.184C202.07 479.163 202.017 479.141 201.974 479.12C201.953 479.099 201.91 479.077 201.846 479.056C201.782 479.035 201.729 479.013 201.686 478.992C199.318 477.925 198.134 476.389 198.134 474.384C198.134 472.891 198.7 471.717 199.83 470.864C200.961 470.011 202.38 469.584 204.086 469.584C205.729 469.584 207.094 469.819 208.182 470.288Z" fill="#1A135A"/>
<path d="M420 200L425.774 190H414.226L420 200ZM419 152V191H421V152H419Z" fill="black"/>
<path d="M420 602L425.774 592H414.226L420 602ZM419 554V593H421V554H419Z" fill="black"/>
<path d="M128 804L133.774 794H122.226L128 804ZM127 756V795H129V756H127Z" fill="black"/>
<path d="M128 401L133.774 391H122.226L128 401ZM127 353V392H129V353H127Z" fill="black"/>
<rect width="244" height="153" transform="translate(292 401)" fill="#E2E6F2"/>
<path d="M378.417 464.432H382.481V486H378.417V476.944H369.553V486H365.521V464.432H369.553V473.456H378.417V464.432ZM386.959 486V469.776H390.799V486H386.959ZM386.575 464.912C386.575 464.272 386.799 463.728 387.247 463.28C387.695 462.832 388.239 462.608 388.879 462.608C389.519 462.608 390.063 462.832 390.511 463.28C390.959 463.728 391.183 464.272 391.183 464.912C391.183 465.573 390.959 466.128 390.511 466.576C390.063 467.024 389.519 467.248 388.879 467.248C388.239 467.248 387.695 467.024 387.247 466.576C386.799 466.128 386.575 465.573 386.575 464.912ZM404.807 470.288V473.68C403.741 473.04 402.407 472.72 400.807 472.72C400.146 472.72 399.623 472.869 399.239 473.168C398.877 473.445 398.695 473.808 398.695 474.256C398.695 474.427 398.717 474.587 398.759 474.736C398.823 474.885 398.919 475.035 399.047 475.184C399.197 475.312 399.335 475.429 399.463 475.536C399.591 475.643 399.773 475.76 400.007 475.888C400.242 475.995 400.445 476.091 400.615 476.176C400.786 476.261 401.021 476.368 401.319 476.496C401.618 476.624 401.853 476.731 402.023 476.816C403.154 477.371 404.05 477.989 404.711 478.672C405.373 479.355 405.703 480.24 405.703 481.328C405.703 482.843 405.159 484.027 404.071 484.88C402.983 485.733 401.533 486.16 399.719 486.16C397.714 486.16 396.093 485.829 394.855 485.168V481.648C396.285 482.608 397.831 483.088 399.495 483.088C400.199 483.088 400.743 482.96 401.127 482.704C401.533 482.427 401.735 482.053 401.735 481.584C401.735 481.307 401.671 481.061 401.543 480.848C401.415 480.613 401.17 480.389 400.807 480.176C400.445 479.963 400.157 479.813 399.943 479.728C399.751 479.621 399.357 479.44 398.759 479.184C398.695 479.163 398.642 479.141 398.599 479.12C398.578 479.099 398.535 479.077 398.471 479.056C398.407 479.035 398.354 479.013 398.311 478.992C395.943 477.925 394.759 476.389 394.759 474.384C394.759 472.891 395.325 471.717 396.455 470.864C397.586 470.011 399.005 469.584 400.711 469.584C402.354 469.584 403.719 469.819 404.807 470.288ZM413.44 472.656V480.912C413.44 481.595 413.621 482.117 413.984 482.48C414.346 482.821 414.848 482.992 415.488 482.992C416.298 482.992 417.045 482.768 417.728 482.32V485.616C416.981 485.979 416.021 486.16 414.848 486.16C411.349 486.16 409.6 484.389 409.6 480.848V472.656H407.168V469.776H409.6V465.872H413.44V469.776H417.472V472.656H413.44ZM427.837 486.256C425.383 486.256 423.463 485.488 422.077 483.952C420.711 482.416 420.029 480.453 420.029 478.064C420.029 475.589 420.743 473.552 422.173 471.952C423.602 470.331 425.49 469.52 427.837 469.52C430.333 469.52 432.263 470.309 433.629 471.888C434.994 473.445 435.677 475.429 435.677 477.84C435.677 480.293 434.983 482.309 433.597 483.888C432.231 485.467 430.311 486.256 427.837 486.256ZM427.837 472.656C426.621 472.656 425.682 473.157 425.021 474.16C424.381 475.163 424.061 476.421 424.061 477.936C424.061 479.429 424.391 480.677 425.053 481.68C425.714 482.683 426.653 483.184 427.869 483.184C429.127 483.184 430.077 482.693 430.717 481.712C431.357 480.731 431.677 479.483 431.677 477.968C431.677 476.411 431.367 475.141 430.749 474.16C430.13 473.157 429.159 472.656 427.837 472.656ZM442.826 469.776V472.656C443.573 470.651 444.938 469.648 446.922 469.648C447.37 469.648 447.733 469.68 448.01 469.744V473.456C447.52 473.243 446.976 473.136 446.378 473.136C445.333 473.136 444.48 473.563 443.818 474.416C443.157 475.269 442.826 476.336 442.826 477.616V486H438.954L438.986 469.776H442.826ZM454.78 485.68L448.38 469.776H452.636L454.524 474.96C455.1 476.496 455.558 477.787 455.9 478.832C456.262 479.877 456.486 480.539 456.572 480.816L456.668 481.264C456.881 480.517 457.564 478.416 458.716 474.96L460.412 469.776H464.444L458.588 485.552C456.966 489.883 454.492 492.048 451.164 492.048C450.545 492.048 450.012 491.995 449.564 491.888V488.72C449.905 488.805 450.268 488.848 450.652 488.848C452.593 488.848 453.969 487.792 454.78 485.68Z" fill="#1A135A"/>
<path d="M292 477L282 471.226L282 482.774L292 477ZM283 476L244 476L244 478L283 478L283 476Z" fill="#1A135A"/>
<path d="M292 76L282 70.2265L282 81.7735L292 76ZM283 75L244 75L244 77L283 77L283 75Z" fill="#1A135A"/>
<rect width="244" height="153" transform="translate(0 603)" fill="#E0F0D4"/>
<path d="M43.7251 683.916H52.1411V687.5H39.6931V665.932H43.7251V683.916ZM55.1931 687.5V671.276H59.0331V687.5H55.1931ZM54.8091 666.412C54.8091 665.772 55.0331 665.228 55.4811 664.78C55.9291 664.332 56.4731 664.108 57.1131 664.108C57.7531 664.108 58.2971 664.332 58.7451 664.78C59.1931 665.228 59.4171 665.772 59.4171 666.412C59.4171 667.073 59.1931 667.628 58.7451 668.076C58.2971 668.524 57.7531 668.748 57.1131 668.748C56.4731 668.748 55.9291 668.524 55.4811 668.076C55.0331 667.628 54.8091 667.073 54.8091 666.412ZM77.5216 687.5H73.0096L67.1856 679.116V687.5H63.3456V665.26H67.1856V678.892L72.9136 671.276H77.3936L71.4416 679.02L77.5216 687.5ZM89.8244 678.06V677.58C89.7817 676.535 89.4937 675.703 88.9604 675.084C88.4484 674.444 87.691 674.124 86.6884 674.124C85.771 674.124 84.971 674.465 84.2884 675.148C83.627 675.809 83.2004 676.78 83.0084 678.06H89.8244ZM92.4484 683.276V686.604C91.3177 687.308 89.6857 687.66 87.5524 687.66C84.971 687.66 82.9337 686.892 81.4404 685.356C79.947 683.82 79.2004 681.836 79.2004 679.404C79.2004 676.823 79.9044 674.796 81.3124 673.324C82.7204 671.852 84.4804 671.116 86.5924 671.116C88.7044 671.116 90.379 671.756 91.6164 673.036C92.8537 674.316 93.4724 676.183 93.4724 678.636C93.4724 679.233 93.3977 680.001 93.2484 680.94H83.0724C83.3497 682.113 83.9257 683.009 84.8004 683.628C85.6964 684.247 86.8057 684.556 88.1284 684.556C89.835 684.556 91.275 684.129 92.4484 683.276ZM103.978 684.428C105.13 684.428 106.09 683.991 106.858 683.116C107.626 682.22 108.01 680.929 108.01 679.244C108.01 677.601 107.605 676.375 106.794 675.564C105.983 674.732 105.055 674.316 104.01 674.316C102.901 674.316 101.962 674.775 101.194 675.692C100.447 676.588 100.074 677.847 100.074 679.468C100.074 680.94 100.447 682.135 101.194 683.052C101.941 683.969 102.869 684.428 103.978 684.428ZM108.01 664.876H111.85V687.5H108.01V684.972C106.901 686.807 105.258 687.724 103.082 687.724C100.949 687.724 99.2525 686.913 97.9939 685.292C96.7565 683.671 96.1379 681.708 96.1379 679.404C96.1379 676.844 96.7885 674.817 98.0899 673.324C99.4125 671.809 101.098 671.052 103.146 671.052C105.258 671.052 106.879 671.959 108.01 673.772V664.876ZM136.099 666.828V670.732C134.499 669.772 132.793 669.292 130.979 669.292C129.977 669.292 129.187 669.516 128.611 669.964C128.057 670.412 127.779 670.988 127.779 671.692C127.779 672.396 128.078 672.983 128.675 673.452C129.294 673.9 130.211 674.401 131.427 674.956C132.281 675.34 132.974 675.681 133.507 675.98C134.041 676.257 134.617 676.652 135.235 677.164C135.875 677.676 136.345 678.295 136.643 679.02C136.963 679.724 137.123 680.535 137.123 681.452C137.123 683.372 136.43 684.908 135.043 686.06C133.678 687.191 131.875 687.756 129.635 687.756C127.203 687.756 125.187 687.297 123.587 686.38V682.252C125.422 683.575 127.427 684.236 129.603 684.236C130.585 684.236 131.374 684.001 131.971 683.532C132.569 683.041 132.867 682.391 132.867 681.58C132.867 681.196 132.793 680.855 132.643 680.556C132.494 680.257 132.185 679.959 131.715 679.66C131.267 679.361 130.915 679.148 130.659 679.02C130.425 678.892 129.923 678.657 129.155 678.316C128.942 678.209 128.782 678.135 128.675 678.092C127.886 677.729 127.246 677.409 126.755 677.132C126.265 676.833 125.731 676.439 125.155 675.948C124.579 675.457 124.142 674.871 123.843 674.188C123.566 673.505 123.427 672.727 123.427 671.852C123.427 670.017 124.099 668.545 125.443 667.436C126.809 666.327 128.611 665.772 130.851 665.772C132.878 665.772 134.627 666.124 136.099 666.828ZM147.446 687.756C144.993 687.756 143.073 686.988 141.686 685.452C140.321 683.916 139.638 681.953 139.638 679.564C139.638 677.089 140.353 675.052 141.782 673.452C143.211 671.831 145.099 671.02 147.446 671.02C149.942 671.02 151.873 671.809 153.238 673.388C154.603 674.945 155.286 676.929 155.286 679.34C155.286 681.793 154.593 683.809 153.206 685.388C151.841 686.967 149.921 687.756 147.446 687.756ZM147.446 674.156C146.23 674.156 145.291 674.657 144.63 675.66C143.99 676.663 143.67 677.921 143.67 679.436C143.67 680.929 144.001 682.177 144.662 683.18C145.323 684.183 146.262 684.684 147.478 684.684C148.737 684.684 149.686 684.193 150.326 683.212C150.966 682.231 151.286 680.983 151.286 679.468C151.286 677.911 150.977 676.641 150.358 675.66C149.739 674.657 148.769 674.156 147.446 674.156ZM162.436 671.276V674.06C163.353 672.076 165.017 671.084 167.428 671.084C169.049 671.084 170.329 671.575 171.268 672.556C172.206 673.537 172.676 674.924 172.676 676.716V687.5H168.836V677.516C168.836 676.449 168.58 675.649 168.068 675.116C167.556 674.561 166.862 674.284 165.988 674.284C164.985 674.284 164.142 674.679 163.46 675.468C162.777 676.236 162.436 677.345 162.436 678.796V687.5H158.596V671.276H162.436ZM183.473 683.852C184.519 683.852 185.393 683.447 186.097 682.636C186.801 681.804 187.153 680.727 187.153 679.404C187.153 677.676 186.812 676.407 186.129 675.596C185.447 674.785 184.583 674.38 183.537 674.38C182.428 674.38 181.553 674.817 180.913 675.692C180.273 676.545 179.953 677.708 179.953 679.18C179.953 680.695 180.284 681.857 180.945 682.668C181.607 683.457 182.449 683.852 183.473 683.852ZM187.153 671.276H190.993V686.028C190.993 688.588 190.247 690.508 188.753 691.788C187.281 693.089 185.404 693.74 183.121 693.74C180.988 693.74 179.121 693.356 177.521 692.588V688.684C178.972 689.708 180.711 690.22 182.737 690.22C185.681 690.22 187.153 688.812 187.153 685.996V684.588C186.172 686.188 184.636 686.988 182.545 686.988C180.732 686.988 179.175 686.327 177.873 685.004C176.593 683.66 175.953 681.719 175.953 679.18C175.953 676.833 176.561 674.903 177.777 673.388C179.015 671.852 180.636 671.084 182.641 671.084C184.668 671.084 186.172 671.927 187.153 673.612V671.276ZM204.667 671.788V675.18C203.6 674.54 202.267 674.22 200.667 674.22C200.005 674.22 199.483 674.369 199.099 674.668C198.736 674.945 198.555 675.308 198.555 675.756C198.555 675.927 198.576 676.087 198.619 676.236C198.683 676.385 198.779 676.535 198.907 676.684C199.056 676.812 199.195 676.929 199.323 677.036C199.451 677.143 199.632 677.26 199.867 677.388C200.101 677.495 200.304 677.591 200.475 677.676C200.645 677.761 200.88 677.868 201.179 677.996C201.477 678.124 201.712 678.231 201.883 678.316C203.013 678.871 203.909 679.489 204.571 680.172C205.232 680.855 205.563 681.74 205.563 682.828C205.563 684.343 205.019 685.527 203.931 686.38C202.843 687.233 201.392 687.66 199.579 687.66C197.573 687.66 195.952 687.329 194.715 686.668V683.148C196.144 684.108 197.691 684.588 199.355 684.588C200.059 684.588 200.603 684.46 200.987 684.204C201.392 683.927 201.595 683.553 201.595 683.084C201.595 682.807 201.531 682.561 201.403 682.348C201.275 682.113 201.029 681.889 200.667 681.676C200.304 681.463 200.016 681.313 199.803 681.228C199.611 681.121 199.216 680.94 198.619 680.684C198.555 680.663 198.501 680.641 198.459 680.62C198.437 680.599 198.395 680.577 198.331 680.556C198.267 680.535 198.213 680.513 198.171 680.492C195.803 679.425 194.619 677.889 194.619 675.884C194.619 674.391 195.184 673.217 196.315 672.364C197.445 671.511 198.864 671.084 200.571 671.084C202.213 671.084 203.579 671.319 204.667 671.788Z" fill="#1A135A"/>
<rect width="244" height="153" transform="translate(292 603)" fill="#E9E0F2"/>
<path d="M375.241 677.408H377.513C378.985 677.408 380.083 677.056 380.809 676.352C381.534 675.648 381.897 674.699 381.897 673.504C381.897 672.331 381.534 671.413 380.809 670.752C380.083 670.069 379.017 669.728 377.609 669.728H375.241V677.408ZM371.209 666.432H377.961C380.393 666.432 382.334 667.093 383.785 668.416C385.257 669.739 385.993 671.435 385.993 673.504C385.993 675.701 385.235 677.451 383.721 678.752C382.227 680.032 380.339 680.672 378.057 680.672H375.241V688H371.209V666.432ZM392.67 671.776V674.656C393.417 672.651 394.782 671.648 396.766 671.648C397.214 671.648 397.577 671.68 397.854 671.744V675.456C397.363 675.243 396.819 675.136 396.222 675.136C395.177 675.136 394.323 675.563 393.662 676.416C393.001 677.269 392.67 678.336 392.67 679.616V688H388.798L388.83 671.776H392.67ZM407.055 688.256C404.602 688.256 402.682 687.488 401.295 685.952C399.93 684.416 399.247 682.453 399.247 680.064C399.247 677.589 399.962 675.552 401.391 673.952C402.821 672.331 404.709 671.52 407.055 671.52C409.551 671.52 411.482 672.309 412.847 673.888C414.213 675.445 414.895 677.429 414.895 679.84C414.895 682.293 414.202 684.309 412.815 685.888C411.45 687.467 409.53 688.256 407.055 688.256ZM407.055 674.656C405.839 674.656 404.901 675.157 404.239 676.16C403.599 677.163 403.279 678.421 403.279 679.936C403.279 681.429 403.61 682.677 404.271 683.68C404.933 684.683 405.871 685.184 407.087 685.184C408.346 685.184 409.295 684.693 409.935 683.712C410.575 682.731 410.895 681.483 410.895 679.968C410.895 678.411 410.586 677.141 409.967 676.16C409.349 675.157 408.378 674.656 407.055 674.656ZM432.093 671.776V688H428.253V674.656H423.293V688H419.453V674.656H417.085V671.776H419.453V670.816C419.453 669.003 419.954 667.584 420.957 666.56C421.96 665.536 423.368 665.024 425.181 665.024C427.016 665.024 428.818 665.44 430.589 666.272V669.504C428.776 668.651 427.133 668.224 425.661 668.224C424.872 668.224 424.274 668.427 423.869 668.832C423.485 669.216 423.293 669.888 423.293 670.848V671.776H432.093ZM436.021 688V665.376H439.861V688H436.021ZM453.934 678.56V678.08C453.891 677.035 453.603 676.203 453.07 675.584C452.558 674.944 451.8 674.624 450.798 674.624C449.88 674.624 449.08 674.965 448.398 675.648C447.736 676.309 447.31 677.28 447.118 678.56H453.934ZM456.558 683.776V687.104C455.427 687.808 453.795 688.16 451.662 688.16C449.08 688.16 447.043 687.392 445.55 685.856C444.056 684.32 443.31 682.336 443.31 679.904C443.31 677.323 444.014 675.296 445.422 673.824C446.83 672.352 448.59 671.616 450.702 671.616C452.814 671.616 454.488 672.256 455.726 673.536C456.963 674.816 457.582 676.683 457.582 679.136C457.582 679.733 457.507 680.501 457.358 681.44H447.182C447.459 682.613 448.035 683.509 448.91 684.128C449.806 684.747 450.915 685.056 452.238 685.056C453.944 685.056 455.384 684.629 456.558 683.776Z" fill="#1A135A"/>
<path d="M244 680L254 685.774L254 674.226L244 680ZM253 681L292 681L292 679L253 679L253 681Z" fill="#1A135A"/>
<path d="M244 276L254 281.774L254 270.226L244 276ZM253 277L292 277L292 275L253 275L253 277Z" fill="#1A135A"/>
<rect width="244" height="153" transform="translate(292 804)" fill="#F3EEE5"/>
<path d="M352.804 885.204H361.604V888.5H348.74V866.932H361.476V870.228H352.804V876.084H360.516V879.348H352.804V885.204ZM373.582 880.34L379.022 888.5H374.766L371.566 883.06L368.238 888.5H364.014L369.678 880.308L364.366 872.276H368.686L371.726 877.556L374.926 872.276H379.214L373.582 880.34ZM381.896 888.5V872.276H385.736V888.5H381.896ZM381.512 867.412C381.512 866.772 381.736 866.228 382.184 865.78C382.632 865.332 383.176 865.108 383.816 865.108C384.456 865.108 385 865.332 385.448 865.78C385.896 866.228 386.12 866.772 386.12 867.412C386.12 868.073 385.896 868.628 385.448 869.076C385 869.524 384.456 869.748 383.816 869.748C383.176 869.748 382.632 869.524 382.184 869.076C381.736 868.628 381.512 868.073 381.512 867.412ZM399.745 872.788V876.18C398.678 875.54 397.345 875.22 395.745 875.22C395.083 875.22 394.561 875.369 394.177 875.668C393.814 875.945 393.633 876.308 393.633 876.756C393.633 876.927 393.654 877.087 393.697 877.236C393.761 877.385 393.857 877.535 393.985 877.684C394.134 877.812 394.273 877.929 394.401 878.036C394.529 878.143 394.71 878.26 394.945 878.388C395.179 878.495 395.382 878.591 395.553 878.676C395.723 878.761 395.958 878.868 396.257 878.996C396.555 879.124 396.79 879.231 396.961 879.316C398.091 879.871 398.987 880.489 399.649 881.172C400.31 881.855 400.641 882.74 400.641 883.828C400.641 885.343 400.097 886.527 399.009 887.38C397.921 888.233 396.47 888.66 394.657 888.66C392.651 888.66 391.03 888.329 389.793 887.668V884.148C391.222 885.108 392.769 885.588 394.433 885.588C395.137 885.588 395.681 885.46 396.065 885.204C396.47 884.927 396.673 884.553 396.673 884.084C396.673 883.807 396.609 883.561 396.481 883.348C396.353 883.113 396.107 882.889 395.745 882.676C395.382 882.463 395.094 882.313 394.881 882.228C394.689 882.121 394.294 881.94 393.697 881.684C393.633 881.663 393.579 881.641 393.537 881.62C393.515 881.599 393.473 881.577 393.409 881.556C393.345 881.535 393.291 881.513 393.249 881.492C390.881 880.425 389.697 878.889 389.697 876.884C389.697 875.391 390.262 874.217 391.393 873.364C392.523 872.511 393.942 872.084 395.649 872.084C397.291 872.084 398.657 872.319 399.745 872.788ZM408.377 875.156V883.412C408.377 884.095 408.558 884.617 408.921 884.98C409.284 885.321 409.785 885.492 410.425 885.492C411.236 885.492 411.982 885.268 412.665 884.82V888.116C411.918 888.479 410.958 888.66 409.785 888.66C406.286 888.66 404.537 886.889 404.537 883.348V875.156H402.105V872.276H404.537V868.372H408.377V872.276H412.409V875.156H408.377ZM429.4 880.308H435.48L435.192 879.348C434.466 877.044 433.869 875.113 433.4 873.556C432.952 871.977 432.674 870.985 432.568 870.58L432.44 869.94C432.248 871.007 431.33 874.153 429.688 879.38L429.4 880.308ZM438.04 888.5L436.504 883.604H428.344L426.808 888.5H422.584L429.88 866.932H435.096L442.392 888.5H438.04ZM453.202 885.428C454.354 885.428 455.293 884.991 456.018 884.116C456.743 883.22 457.106 881.972 457.106 880.372C457.106 878.772 456.743 877.535 456.018 876.66C455.293 875.764 454.375 875.316 453.266 875.316C452.157 875.316 451.197 875.732 450.386 876.564C449.575 877.396 449.17 878.633 449.17 880.276C449.17 881.919 449.565 883.188 450.354 884.084C451.143 884.98 452.093 885.428 453.202 885.428ZM449.17 872.276V874.772C450.322 872.959 451.975 872.052 454.13 872.052C456.242 872.052 457.917 872.809 459.154 874.324C460.413 875.839 461.042 877.833 461.042 880.308C461.042 882.74 460.413 884.756 459.154 886.356C457.917 887.935 456.231 888.724 454.098 888.724C451.922 888.724 450.279 887.839 449.17 886.068V894.612H445.33V872.276H449.17ZM472.202 885.428C473.354 885.428 474.293 884.991 475.018 884.116C475.743 883.22 476.106 881.972 476.106 880.372C476.106 878.772 475.743 877.535 475.018 876.66C474.293 875.764 473.375 875.316 472.266 875.316C471.157 875.316 470.197 875.732 469.386 876.564C468.575 877.396 468.17 878.633 468.17 880.276C468.17 881.919 468.565 883.188 469.354 884.084C470.143 884.98 471.093 885.428 472.202 885.428ZM468.17 872.276V874.772C469.322 872.959 470.975 872.052 473.13 872.052C475.242 872.052 476.917 872.809 478.154 874.324C479.413 875.839 480.042 877.833 480.042 880.308C480.042 882.74 479.413 884.756 478.154 886.356C476.917 887.935 475.231 888.724 473.098 888.724C470.922 888.724 469.279 887.839 468.17 886.068V894.612H464.33V872.276H468.17Z" fill="#1A135A"/>
<rect width="244" height="153" transform="translate(0 804)" fill="#D1EBEE"/>
<path d="M45.1306 868.328V872.232C43.5306 871.272 41.824 870.792 40.0106 870.792C39.008 870.792 38.2186 871.016 37.6426 871.464C37.088 871.912 36.8106 872.488 36.8106 873.192C36.8106 873.896 37.1093 874.483 37.7066 874.952C38.3253 875.4 39.2426 875.901 40.4586 876.456C41.312 876.84 42.0053 877.181 42.5386 877.48C43.072 877.757 43.648 878.152 44.2666 878.664C44.9066 879.176 45.376 879.795 45.6746 880.52C45.9946 881.224 46.1546 882.035 46.1546 882.952C46.1546 884.872 45.4613 886.408 44.0746 887.56C42.7093 888.691 40.9066 889.256 38.6666 889.256C36.2346 889.256 34.2186 888.797 32.6186 887.88V883.752C34.4533 885.075 36.4586 885.736 38.6346 885.736C39.616 885.736 40.4053 885.501 41.0026 885.032C41.6 884.541 41.8986 883.891 41.8986 883.08C41.8986 882.696 41.824 882.355 41.6746 882.056C41.5253 881.757 41.216 881.459 40.7466 881.16C40.2986 880.861 39.9466 880.648 39.6906 880.52C39.456 880.392 38.9546 880.157 38.1866 879.816C37.9733 879.709 37.8133 879.635 37.7066 879.592C36.9173 879.229 36.2773 878.909 35.7866 878.632C35.296 878.333 34.7626 877.939 34.1866 877.448C33.6106 876.957 33.1733 876.371 32.8746 875.688C32.5973 875.005 32.4586 874.227 32.4586 873.352C32.4586 871.517 33.1306 870.045 34.4746 868.936C35.84 867.827 37.6426 867.272 39.8826 867.272C41.9093 867.272 43.6586 867.624 45.1306 868.328ZM53.3731 866.376V875.528C54.2478 873.565 55.9011 872.584 58.3331 872.584C59.9118 872.584 61.1811 873.085 62.1411 874.088C63.1225 875.069 63.6131 876.499 63.6131 878.376V889H59.7731V879.048C59.7731 878.024 59.5065 877.224 58.9731 876.648C58.4611 876.072 57.7891 875.784 56.9571 875.784C56.0398 875.784 55.2078 876.136 54.4611 876.84C53.7358 877.544 53.3731 878.696 53.3731 880.296V889H49.5331V866.376H53.3731ZM75.9149 882.024H73.9309C72.9282 882.024 72.1602 882.237 71.6269 882.664C71.0935 883.069 70.8269 883.592 70.8269 884.232C70.8269 885.597 71.6162 886.28 73.1949 886.28C74.0482 886.28 74.7095 886.035 75.1789 885.544C75.6695 885.032 75.9149 884.371 75.9149 883.56V882.024ZM68.0429 877.16V873.608C69.2589 872.861 71.0082 872.488 73.2909 872.488C77.6855 872.488 79.8829 874.536 79.8829 878.632V889H76.0749V887.048C75.3282 888.435 73.9202 889.128 71.8509 889.128C70.3149 889.128 69.0882 888.68 68.1709 887.784C67.2749 886.888 66.8269 885.757 66.8269 884.392C66.8269 882.856 67.4029 881.651 68.5549 880.776C69.7069 879.901 71.3709 879.464 73.5469 879.464H75.9149V878.472C75.9149 877.576 75.6802 876.893 75.2109 876.424C74.7415 875.955 73.9415 875.72 72.8109 875.72C71.0829 875.72 69.4935 876.2 68.0429 877.16ZM87.6856 872.776V875.656C88.4323 873.651 89.7976 872.648 91.7816 872.648C92.2296 872.648 92.5923 872.68 92.8696 872.744V876.456C92.379 876.243 91.835 876.136 91.2376 876.136C90.1923 876.136 89.339 876.563 88.6776 877.416C88.0163 878.269 87.6856 879.336 87.6856 880.616V889H83.8136L83.8456 872.776H87.6856ZM104.887 879.56V879.08C104.844 878.035 104.556 877.203 104.023 876.584C103.511 875.944 102.754 875.624 101.751 875.624C100.834 875.624 100.034 875.965 99.3509 876.648C98.6895 877.309 98.2629 878.28 98.0709 879.56H104.887ZM107.511 884.776V888.104C106.38 888.808 104.748 889.16 102.615 889.16C100.034 889.16 97.9962 888.392 96.5029 886.856C95.0095 885.32 94.2629 883.336 94.2629 880.904C94.2629 878.323 94.9669 876.296 96.3749 874.824C97.7829 873.352 99.5429 872.616 101.655 872.616C103.767 872.616 105.442 873.256 106.679 874.536C107.916 875.816 108.535 877.683 108.535 880.136C108.535 880.733 108.46 881.501 108.311 882.44H98.1349C98.4122 883.613 98.9882 884.509 99.8629 885.128C100.759 885.747 101.868 886.056 103.191 886.056C104.898 886.056 106.338 885.629 107.511 884.776ZM128.29 882.024H126.306C125.303 882.024 124.535 882.237 124.002 882.664C123.469 883.069 123.202 883.592 123.202 884.232C123.202 885.597 123.991 886.28 125.57 886.28C126.423 886.28 127.085 886.035 127.554 885.544C128.045 885.032 128.29 884.371 128.29 883.56V882.024ZM120.418 877.16V873.608C121.634 872.861 123.383 872.488 125.666 872.488C130.061 872.488 132.258 874.536 132.258 878.632V889H128.45V887.048C127.703 888.435 126.295 889.128 124.226 889.128C122.69 889.128 121.463 888.68 120.546 887.784C119.65 886.888 119.202 885.757 119.202 884.392C119.202 882.856 119.778 881.651 120.93 880.776C122.082 879.901 123.746 879.464 125.922 879.464H128.29V878.472C128.29 877.576 128.055 876.893 127.586 876.424C127.117 875.955 126.317 875.72 125.186 875.72C123.458 875.72 121.869 876.2 120.418 877.16ZM156.318 868.328V872.232C154.718 871.272 153.011 870.792 151.198 870.792C150.195 870.792 149.406 871.016 148.83 871.464C148.275 871.912 147.998 872.488 147.998 873.192C147.998 873.896 148.297 874.483 148.894 874.952C149.513 875.4 150.43 875.901 151.646 876.456C152.499 876.84 153.193 877.181 153.726 877.48C154.259 877.757 154.835 878.152 155.454 878.664C156.094 879.176 156.563 879.795 156.862 880.52C157.182 881.224 157.342 882.035 157.342 882.952C157.342 884.872 156.649 886.408 155.262 887.56C153.897 888.691 152.094 889.256 149.854 889.256C147.422 889.256 145.406 888.797 143.806 887.88V883.752C145.641 885.075 147.646 885.736 149.822 885.736C150.803 885.736 151.593 885.501 152.19 885.032C152.787 884.541 153.086 883.891 153.086 883.08C153.086 882.696 153.011 882.355 152.862 882.056C152.713 881.757 152.403 881.459 151.934 881.16C151.486 880.861 151.134 880.648 150.878 880.52C150.643 880.392 150.142 880.157 149.374 879.816C149.161 879.709 149.001 879.635 148.894 879.592C148.105 879.229 147.465 878.909 146.974 878.632C146.483 878.333 145.95 877.939 145.374 877.448C144.798 876.957 144.361 876.371 144.062 875.688C143.785 875.005 143.646 874.227 143.646 873.352C143.646 871.517 144.318 870.045 145.662 868.936C147.027 867.827 148.83 867.272 151.07 867.272C153.097 867.272 154.846 867.624 156.318 868.328ZM167.665 889.256C165.211 889.256 163.291 888.488 161.905 886.952C160.539 885.416 159.857 883.453 159.857 881.064C159.857 878.589 160.571 876.552 162.001 874.952C163.43 873.331 165.318 872.52 167.665 872.52C170.161 872.52 172.091 873.309 173.457 874.888C174.822 876.445 175.505 878.429 175.505 880.84C175.505 883.293 174.811 885.309 173.425 886.888C172.059 888.467 170.139 889.256 167.665 889.256ZM167.665 875.656C166.449 875.656 165.51 876.157 164.849 877.16C164.209 878.163 163.889 879.421 163.889 880.936C163.889 882.429 164.219 883.677 164.881 884.68C165.542 885.683 166.481 886.184 167.697 886.184C168.955 886.184 169.905 885.693 170.545 884.712C171.185 883.731 171.505 882.483 171.505 880.968C171.505 879.411 171.195 878.141 170.577 877.16C169.958 876.157 168.987 875.656 167.665 875.656ZM182.654 872.776V875.56C183.572 873.576 185.236 872.584 187.646 872.584C189.268 872.584 190.548 873.075 191.486 874.056C192.425 875.037 192.894 876.424 192.894 878.216V889H189.054V879.016C189.054 877.949 188.798 877.149 188.286 876.616C187.774 876.061 187.081 875.784 186.206 875.784C185.204 875.784 184.361 876.179 183.678 876.968C182.996 877.736 182.654 878.845 182.654 880.296V889H178.814V872.776H182.654ZM203.692 885.352C204.737 885.352 205.612 884.947 206.316 884.136C207.02 883.304 207.372 882.227 207.372 880.904C207.372 879.176 207.031 877.907 206.348 877.096C205.665 876.285 204.801 875.88 203.756 875.88C202.647 875.88 201.772 876.317 201.132 877.192C200.492 878.045 200.172 879.208 200.172 880.68C200.172 882.195 200.503 883.357 201.164 884.168C201.825 884.957 202.668 885.352 203.692 885.352ZM207.372 872.776H211.212V887.528C211.212 890.088 210.465 892.008 208.972 893.288C207.5 894.589 205.623 895.24 203.34 895.24C201.207 895.24 199.34 894.856 197.74 894.088V890.184C199.191 891.208 200.929 891.72 202.956 891.72C205.9 891.72 207.372 890.312 207.372 887.496V886.088C206.391 887.688 204.855 888.488 202.764 888.488C200.951 888.488 199.393 887.827 198.092 886.504C196.812 885.16 196.172 883.219 196.172 880.68C196.172 878.333 196.78 876.403 197.996 874.888C199.233 873.352 200.855 872.584 202.86 872.584C204.887 872.584 206.391 873.427 207.372 875.112V872.776Z" fill="#1A135A"/>
<path d="M292 881L282 875.226L282 886.774L292 881ZM283 880L244 880L244 882L283 882L283 880Z" fill="#1A135A"/>
<rect width="244" height="153" fill="#E9E0F2"/>
<path d="M50.876 73.652C50.876 70.3027 51.7933 67.6147 53.628 65.588C55.484 63.5613 57.9587 62.548 61.052 62.548C64.188 62.548 66.6733 63.5613 68.508 65.588C70.3427 67.5933 71.26 70.2813 71.26 73.652C71.26 76.98 70.332 79.6573 68.476 81.684C66.6413 83.7107 64.1773 84.724 61.084 84.724C57.9907 84.724 55.516 83.7107 53.66 81.684C51.804 79.6573 50.876 76.98 50.876 73.652ZM55.196 73.652C55.196 75.9133 55.7293 77.7053 56.796 79.028C57.8627 80.3507 59.292 81.012 61.084 81.012C62.8973 81.012 64.3267 80.3613 65.372 79.06C66.4173 77.7373 66.94 75.9347 66.94 73.652C66.94 71.3693 66.4173 69.5667 65.372 68.244C64.3267 66.9213 62.8867 66.26 61.052 66.26C59.2387 66.26 57.8093 66.9213 56.764 68.244C55.7187 69.5667 55.196 71.3693 55.196 73.652ZM82.577 81.428C83.729 81.428 84.6677 80.9907 85.393 80.116C86.1183 79.22 86.481 77.972 86.481 76.372C86.481 74.772 86.1183 73.5347 85.393 72.66C84.6677 71.764 83.7503 71.316 82.641 71.316C81.5317 71.316 80.5717 71.732 79.761 72.564C78.9503 73.396 78.545 74.6333 78.545 76.276C78.545 77.9187 78.9397 79.188 79.729 80.084C80.5183 80.98 81.4677 81.428 82.577 81.428ZM78.545 68.276V70.772C79.697 68.9587 81.3503 68.052 83.505 68.052C85.617 68.052 87.2917 68.8093 88.529 70.324C89.7877 71.8387 90.417 73.8333 90.417 76.308C90.417 78.74 89.7877 80.756 88.529 82.356C87.2917 83.9347 85.6063 84.724 83.473 84.724C81.297 84.724 79.6543 83.8387 78.545 82.068V90.612H74.705V68.276H78.545ZM103.465 75.06V74.58C103.422 73.5347 103.134 72.7027 102.601 72.084C102.089 71.444 101.332 71.124 100.329 71.124C99.4117 71.124 98.6117 71.4653 97.929 72.148C97.2677 72.8093 96.841 73.78 96.649 75.06H103.465ZM106.089 80.276V83.604C104.958 84.308 103.326 84.66 101.193 84.66C98.6117 84.66 96.5743 83.892 95.081 82.356C93.5877 80.82 92.841 78.836 92.841 76.404C92.841 73.8227 93.545 71.796 94.953 70.324C96.361 68.852 98.121 68.116 100.233 68.116C102.345 68.116 104.02 68.756 105.257 70.036C106.494 71.316 107.113 73.1827 107.113 75.636C107.113 76.2333 107.038 77.0013 106.889 77.94H96.713C96.9903 79.1133 97.5663 80.0093 98.441 80.628C99.337 81.2467 100.446 81.556 101.769 81.556C103.476 81.556 104.916 81.1293 106.089 80.276ZM114.483 68.276V71.06C115.4 69.076 117.064 68.084 119.475 68.084C121.096 68.084 122.376 68.5747 123.315 69.556C124.253 70.5373 124.722 71.924 124.722 73.716V84.5H120.883V74.516C120.883 73.4493 120.627 72.6493 120.115 72.116C119.603 71.5613 118.909 71.284 118.035 71.284C117.032 71.284 116.189 71.6787 115.507 72.468C114.824 73.236 114.483 74.3453 114.483 75.796V84.5H110.643V68.276H114.483ZM142.306 76.308H148.386L148.098 75.348C147.372 73.044 146.775 71.1133 146.306 69.556C145.858 67.9773 145.58 66.9853 145.474 66.58L145.346 65.94C145.154 67.0067 144.236 70.1533 142.594 75.38L142.306 76.308ZM150.946 84.5L149.41 79.604H141.25L139.714 84.5H135.49L142.786 62.932H148.002L155.298 84.5H150.946ZM166.108 81.428C167.26 81.428 168.199 80.9907 168.924 80.116C169.65 79.22 170.012 77.972 170.012 76.372C170.012 74.772 169.65 73.5347 168.924 72.66C168.199 71.764 167.282 71.316 166.172 71.316C165.063 71.316 164.103 71.732 163.292 72.564C162.482 73.396 162.076 74.6333 162.076 76.276C162.076 77.9187 162.471 79.188 163.26 80.084C164.05 80.98 164.999 81.428 166.108 81.428ZM162.076 68.276V70.772C163.228 68.9587 164.882 68.052 167.036 68.052C169.148 68.052 170.823 68.8093 172.06 70.324C173.319 71.8387 173.948 73.8333 173.948 76.308C173.948 78.74 173.319 80.756 172.06 82.356C170.823 83.9347 169.138 84.724 167.004 84.724C164.828 84.724 163.186 83.8387 162.076 82.068V90.612H158.236V68.276H162.076ZM185.108 81.428C186.26 81.428 187.199 80.9907 187.924 80.116C188.65 79.22 189.012 77.972 189.012 76.372C189.012 74.772 188.65 73.5347 187.924 72.66C187.199 71.764 186.282 71.316 185.172 71.316C184.063 71.316 183.103 71.732 182.292 72.564C181.482 73.396 181.076 74.6333 181.076 76.276C181.076 77.9187 181.471 79.188 182.26 80.084C183.05 80.98 183.999 81.428 185.108 81.428ZM181.076 68.276V70.772C182.228 68.9587 183.882 68.052 186.036 68.052C188.148 68.052 189.823 68.8093 191.06 70.324C192.319 71.8387 192.948 73.8333 192.948 76.308C192.948 78.74 192.319 80.756 191.06 82.356C189.823 83.9347 188.138 84.724 186.004 84.724C183.828 84.724 182.186 83.8387 181.076 82.068V90.612H177.236V68.276H181.076Z" fill="#1A135A"/>
<rect width="244" height="153" transform="translate(292)" fill="#E2E6F2"/>
<path d="M330.928 64.328V68.232C329.328 67.272 327.621 66.792 325.808 66.792C324.805 66.792 324.016 67.016 323.44 67.464C322.885 67.912 322.608 68.488 322.608 69.192C322.608 69.896 322.906 70.4827 323.504 70.952C324.122 71.4 325.04 71.9013 326.256 72.456C327.109 72.84 327.802 73.1813 328.336 73.48C328.869 73.7573 329.445 74.152 330.064 74.664C330.704 75.176 331.173 75.7947 331.472 76.52C331.792 77.224 331.952 78.0347 331.952 78.952C331.952 80.872 331.258 82.408 329.872 83.56C328.506 84.6907 326.704 85.256 324.464 85.256C322.032 85.256 320.016 84.7973 318.416 83.88V79.752C320.25 81.0747 322.256 81.736 324.432 81.736C325.413 81.736 326.202 81.5013 326.8 81.032C327.397 80.5413 327.696 79.8907 327.696 79.08C327.696 78.696 327.621 78.3547 327.472 78.056C327.322 77.7573 327.013 77.4587 326.544 77.16C326.096 76.8613 325.744 76.648 325.488 76.52C325.253 76.392 324.752 76.1573 323.984 75.816C323.77 75.7093 323.61 75.6347 323.504 75.592C322.714 75.2293 322.074 74.9093 321.584 74.632C321.093 74.3333 320.56 73.9387 319.984 73.448C319.408 72.9573 318.97 72.3707 318.672 71.688C318.394 71.0053 318.256 70.2267 318.256 69.352C318.256 67.5173 318.928 66.0453 320.272 64.936C321.637 63.8267 323.44 63.272 325.68 63.272C327.706 63.272 329.456 63.624 330.928 64.328ZM343.202 81.928C344.354 81.928 345.293 81.4907 346.018 80.616C346.743 79.72 347.106 78.472 347.106 76.872C347.106 75.272 346.743 74.0347 346.018 73.16C345.293 72.264 344.375 71.816 343.266 71.816C342.157 71.816 341.197 72.232 340.386 73.064C339.575 73.896 339.17 75.1333 339.17 76.776C339.17 78.4187 339.565 79.688 340.354 80.584C341.143 81.48 342.093 81.928 343.202 81.928ZM339.17 68.776V71.272C340.322 69.4587 341.975 68.552 344.13 68.552C346.242 68.552 347.917 69.3093 349.154 70.824C350.413 72.3387 351.042 74.3333 351.042 76.808C351.042 79.24 350.413 81.256 349.154 82.856C347.917 84.4347 346.231 85.224 344.098 85.224C341.922 85.224 340.279 84.3387 339.17 82.568V91.112H335.33V68.776H339.17ZM354.49 85V62.376H358.33V85H354.49ZM370.931 78.024H368.947C367.944 78.024 367.176 78.2373 366.643 78.664C366.109 79.0693 365.843 79.592 365.843 80.232C365.843 81.5973 366.632 82.28 368.211 82.28C369.064 82.28 369.725 82.0347 370.195 81.544C370.685 81.032 370.931 80.3707 370.931 79.56V78.024ZM363.059 73.16V69.608C364.275 68.8613 366.024 68.488 368.307 68.488C372.701 68.488 374.899 70.536 374.899 74.632V85H371.091V83.048C370.344 84.4347 368.936 85.128 366.867 85.128C365.331 85.128 364.104 84.68 363.187 83.784C362.291 82.888 361.843 81.7573 361.843 80.392C361.843 78.856 362.419 77.6507 363.571 76.776C364.723 75.9013 366.387 75.464 368.562 75.464H370.931V74.472C370.931 73.576 370.696 72.8933 370.227 72.424C369.757 71.9547 368.957 71.72 367.827 71.72C366.099 71.72 364.509 72.2 363.059 73.16ZM388.557 69.288V72.68C387.491 72.04 386.157 71.72 384.557 71.72C383.896 71.72 383.373 71.8693 382.989 72.168C382.627 72.4453 382.445 72.808 382.445 73.256C382.445 73.4267 382.467 73.5867 382.509 73.736C382.573 73.8853 382.669 74.0347 382.797 74.184C382.947 74.312 383.085 74.4293 383.213 74.536C383.341 74.6427 383.523 74.76 383.757 74.888C383.992 74.9947 384.195 75.0907 384.365 75.176C384.536 75.2613 384.771 75.368 385.069 75.496C385.368 75.624 385.603 75.7307 385.773 75.816C386.904 76.3707 387.8 76.9893 388.461 77.672C389.123 78.3547 389.453 79.24 389.453 80.328C389.453 81.8427 388.909 83.0267 387.821 83.88C386.733 84.7333 385.283 85.16 383.469 85.16C381.464 85.16 379.843 84.8293 378.605 84.168V80.648C380.035 81.608 381.581 82.088 383.245 82.088C383.949 82.088 384.493 81.96 384.877 81.704C385.283 81.4267 385.485 81.0533 385.485 80.584C385.485 80.3067 385.421 80.0613 385.293 79.848C385.165 79.6133 384.92 79.3893 384.557 79.176C384.195 78.9627 383.907 78.8133 383.693 78.728C383.501 78.6213 383.107 78.44 382.509 78.184C382.445 78.1627 382.392 78.1413 382.349 78.12C382.328 78.0987 382.285 78.0773 382.221 78.056C382.157 78.0347 382.104 78.0133 382.061 77.992C379.693 76.9253 378.509 75.3893 378.509 73.384C378.509 71.8907 379.075 70.7173 380.205 69.864C381.336 69.0107 382.755 68.584 384.461 68.584C386.104 68.584 387.469 68.8187 388.557 69.288ZM396.358 62.376V71.528C397.232 69.5653 398.886 68.584 401.318 68.584C402.896 68.584 404.166 69.0853 405.126 70.088C406.107 71.0693 406.597 72.4987 406.597 74.376V85H402.758V75.048C402.758 74.024 402.491 73.224 401.958 72.648C401.446 72.072 400.774 71.784 399.942 71.784C399.024 71.784 398.192 72.136 397.446 72.84C396.72 73.544 396.358 74.696 396.358 76.296V85H392.518V62.376H396.358ZM430.709 64.328V68.232C429.109 67.272 427.402 66.792 425.589 66.792C424.586 66.792 423.797 67.016 423.221 67.464C422.666 67.912 422.389 68.488 422.389 69.192C422.389 69.896 422.687 70.4827 423.285 70.952C423.903 71.4 424.821 71.9013 426.037 72.456C426.89 72.84 427.583 73.1813 428.117 73.48C428.65 73.7573 429.226 74.152 429.845 74.664C430.485 75.176 430.954 75.7947 431.253 76.52C431.573 77.224 431.733 78.0347 431.733 78.952C431.733 80.872 431.039 82.408 429.653 83.56C428.287 84.6907 426.485 85.256 424.245 85.256C421.813 85.256 419.797 84.7973 418.197 83.88V79.752C420.031 81.0747 422.037 81.736 424.213 81.736C425.194 81.736 425.983 81.5013 426.581 81.032C427.178 80.5413 427.477 79.8907 427.477 79.08C427.477 78.696 427.402 78.3547 427.253 78.056C427.103 77.7573 426.794 77.4587 426.325 77.16C425.877 76.8613 425.525 76.648 425.269 76.52C425.034 76.392 424.533 76.1573 423.765 75.816C423.551 75.7093 423.391 75.6347 423.285 75.592C422.495 75.2293 421.855 74.9093 421.365 74.632C420.874 74.3333 420.341 73.9387 419.765 73.448C419.189 72.9573 418.751 72.3707 418.453 71.688C418.175 71.0053 418.037 70.2267 418.037 69.352C418.037 67.5173 418.709 66.0453 420.053 64.936C421.418 63.8267 423.221 63.272 425.461 63.272C427.487 63.272 429.237 63.624 430.709 64.328ZM438.183 76.936C438.226 78.472 438.685 79.7093 439.559 80.648C440.455 81.5867 441.661 82.056 443.175 82.056C444.498 82.056 445.725 81.6933 446.855 80.968V84.296C445.725 84.9573 444.317 85.288 442.631 85.288C440.135 85.288 438.109 84.4987 436.551 82.92C435.015 81.3413 434.247 79.3467 434.247 76.936C434.269 74.568 435.037 72.5733 436.551 70.952C438.087 69.3307 440.178 68.52 442.823 68.52C444.402 68.52 445.746 68.8187 446.855 69.416V72.808C445.789 72.1253 444.573 71.784 443.207 71.784C441.714 71.784 440.509 72.2533 439.591 73.192C438.674 74.1307 438.205 75.3787 438.183 76.936ZM453.983 68.776V71.656C454.729 69.6507 456.095 68.648 458.079 68.648C458.527 68.648 458.889 68.68 459.167 68.744V72.456C458.676 72.2427 458.132 72.136 457.535 72.136C456.489 72.136 455.636 72.5627 454.975 73.416C454.313 74.2693 453.983 75.336 453.983 76.616V85H450.111L450.143 68.776H453.983ZM471.184 75.56V75.08C471.141 74.0347 470.853 73.2027 470.32 72.584C469.808 71.944 469.05 71.624 468.048 71.624C467.13 71.624 466.33 71.9653 465.648 72.648C464.986 73.3093 464.56 74.28 464.368 75.56H471.184ZM473.808 80.776V84.104C472.677 84.808 471.045 85.16 468.912 85.16C466.33 85.16 464.293 84.392 462.8 82.856C461.306 81.32 460.56 79.336 460.56 76.904C460.56 74.3227 461.264 72.296 462.672 70.824C464.08 69.352 465.84 68.616 467.952 68.616C470.064 68.616 471.738 69.256 472.976 70.536C474.213 71.816 474.832 73.6827 474.832 76.136C474.832 76.7333 474.757 77.5013 474.608 78.44H464.432C464.709 79.6133 465.285 80.5093 466.16 81.128C467.056 81.7467 468.165 82.056 469.488 82.056C471.194 82.056 472.634 81.6293 473.808 80.776ZM488.121 75.56V75.08C488.079 74.0347 487.791 73.2027 487.257 72.584C486.745 71.944 485.988 71.624 484.985 71.624C484.068 71.624 483.268 71.9653 482.585 72.648C481.924 73.3093 481.497 74.28 481.305 75.56H488.121ZM490.745 80.776V84.104C489.615 84.808 487.983 85.16 485.849 85.16C483.268 85.16 481.231 84.392 479.737 82.856C478.244 81.32 477.497 79.336 477.497 76.904C477.497 74.3227 478.201 72.296 479.609 70.824C481.017 69.352 482.777 68.616 484.889 68.616C487.001 68.616 488.676 69.256 489.913 70.536C491.151 71.816 491.769 73.6827 491.769 76.136C491.769 76.7333 491.695 77.5013 491.545 78.44H481.369C481.647 79.6133 482.223 80.5093 483.097 81.128C483.993 81.7467 485.103 82.056 486.425 82.056C488.132 82.056 489.572 81.6293 490.745 80.776ZM499.139 68.776V71.56C500.056 69.576 501.72 68.584 504.131 68.584C505.752 68.584 507.032 69.0747 507.971 70.056C508.909 71.0373 509.379 72.424 509.379 74.216V85H505.539V75.016C505.539 73.9493 505.283 73.1493 504.771 72.616C504.259 72.0613 503.565 71.784 502.691 71.784C501.688 71.784 500.845 72.1787 500.163 72.968C499.48 73.736 499.139 74.8453 499.139 76.296V85H495.299V68.776H499.139Z" fill="#1A135A"/>
</svg>
